<svg width="232" height="124" viewBox="0 0 232 124" fill="none" xmlns="http://www.w3.org/2000/svg">
<path fill-rule="evenodd" clip-rule="evenodd" d="M82.6667 64.5833C82.6667 63.4329 83.5994 62.5 84.75 62.5H97.25C98.4006 62.5 99.3333 63.4329 99.3333 64.5833V81.25C99.3333 82.4004 98.4006 83.3333 97.25 83.3333H84.75C83.5994 83.3333 82.6667 82.4004 82.6667 81.25V64.5833ZM86.8333 66.6667V79.1667H95.1667V66.6667H86.8333ZM109.75 47.9167C109.75 46.7663 110.683 45.8333 111.833 45.8333H124.333C125.484 45.8333 126.417 46.7663 126.417 47.9167V81.25C126.417 82.4004 125.484 83.3333 124.333 83.3333H111.833C110.683 83.3333 109.75 82.4004 109.75 81.25V47.9167ZM113.917 50V79.1667H122.25V50H113.917ZM100.806 19.3602C101.62 20.1738 101.62 21.4929 100.806 22.3065L84.1398 38.9731C83.3262 39.7868 82.0071 39.7868 81.1935 38.9731C80.3799 38.1596 80.3799 36.8405 81.1935 36.0269L97.8602 19.3602C98.6738 18.5466 99.9929 18.5466 100.806 19.3602Z" fill="#707070"/>
<path fill-rule="evenodd" clip-rule="evenodd" d="M81.1935 19.3602C80.3799 20.1738 80.3799 21.4929 81.1935 22.3065L97.8602 38.9731C98.6738 39.7868 99.9929 39.7868 100.806 38.9731C101.62 38.1596 101.62 36.8405 100.806 36.0269L84.1398 19.3602C83.3262 18.5466 82.0071 18.5466 81.1935 19.3602ZM136.833 31.25C136.833 30.0994 137.766 29.1667 138.917 29.1667H151.417C152.567 29.1667 153.5 30.0994 153.5 31.25V81.25C153.5 82.4004 152.567 83.3333 151.417 83.3333H138.917C137.766 83.3333 136.833 82.4004 136.833 81.25V31.25ZM141 33.3333V79.1667H149.333V33.3333H141Z" fill="#707070"/>
<path d="M6.21094 119.834V121H1.92773V119.834H6.21094ZM2.33789 112.469V121H0.867188V112.469H2.33789ZM6.9375 117.9V117.766C6.9375 117.309 7.00391 116.885 7.13672 116.494C7.26953 116.1 7.46094 115.758 7.71094 115.469C7.96484 115.176 8.27344 114.949 8.63672 114.789C9.00391 114.625 9.41797 114.543 9.87891 114.543C10.3438 114.543 10.7578 114.625 11.1211 114.789C11.4883 114.949 11.7988 115.176 12.0527 115.469C12.3066 115.758 12.5 116.1 12.6328 116.494C12.7656 116.885 12.832 117.309 12.832 117.766V117.9C12.832 118.357 12.7656 118.781 12.6328 119.172C12.5 119.562 12.3066 119.904 12.0527 120.197C11.7988 120.486 11.4902 120.713 11.127 120.877C10.7637 121.037 10.3516 121.117 9.89062 121.117C9.42578 121.117 9.00977 121.037 8.64258 120.877C8.2793 120.713 7.9707 120.486 7.7168 120.197C7.46289 119.904 7.26953 119.562 7.13672 119.172C7.00391 118.781 6.9375 118.357 6.9375 117.9ZM8.34961 117.766V117.9C8.34961 118.186 8.37891 118.455 8.4375 118.709C8.49609 118.963 8.58789 119.186 8.71289 119.377C8.83789 119.568 8.99805 119.719 9.19336 119.828C9.38867 119.938 9.62109 119.992 9.89062 119.992C10.1523 119.992 10.3789 119.938 10.5703 119.828C10.7656 119.719 10.9258 119.568 11.0508 119.377C11.1758 119.186 11.2676 118.963 11.3262 118.709C11.3887 118.455 11.4199 118.186 11.4199 117.9V117.766C11.4199 117.484 11.3887 117.219 11.3262 116.969C11.2676 116.715 11.1738 116.49 11.0449 116.295C10.9199 116.1 10.7598 115.947 10.5645 115.838C10.373 115.725 10.1445 115.668 9.87891 115.668C9.61328 115.668 9.38281 115.725 9.1875 115.838C8.99609 115.947 8.83789 116.1 8.71289 116.295C8.58789 116.49 8.49609 116.715 8.4375 116.969C8.37891 117.219 8.34961 117.484 8.34961 117.766ZM13.7461 117.9V117.766C13.7461 117.309 13.8125 116.885 13.9453 116.494C14.0781 116.1 14.2695 115.758 14.5195 115.469C14.7734 115.176 15.082 114.949 15.4453 114.789C15.8125 114.625 16.2266 114.543 16.6875 114.543C17.1523 114.543 17.5664 114.625 17.9297 114.789C18.2969 114.949 18.6074 115.176 18.8613 115.469C19.1152 115.758 19.3086 116.1 19.4414 116.494C19.5742 116.885 19.6406 117.309 19.6406 117.766V117.9C19.6406 118.357 19.5742 118.781 19.4414 119.172C19.3086 119.562 19.1152 119.904 18.8613 120.197C18.6074 120.486 18.2988 120.713 17.9355 120.877C17.5723 121.037 17.1602 121.117 16.6992 121.117C16.2344 121.117 15.8184 121.037 15.4512 120.877C15.0879 120.713 14.7793 120.486 14.5254 120.197C14.2715 119.904 14.0781 119.562 13.9453 119.172C13.8125 118.781 13.7461 118.357 13.7461 117.9ZM15.1582 117.766V117.9C15.1582 118.186 15.1875 118.455 15.2461 118.709C15.3047 118.963 15.3965 119.186 15.5215 119.377C15.6465 119.568 15.8066 119.719 16.002 119.828C16.1973 119.938 16.4297 119.992 16.6992 119.992C16.9609 119.992 17.1875 119.938 17.3789 119.828C17.5742 119.719 17.7344 119.568 17.8594 119.377C17.9844 119.186 18.0762 118.963 18.1348 118.709C18.1973 118.455 18.2285 118.186 18.2285 117.9V117.766C18.2285 117.484 18.1973 117.219 18.1348 116.969C18.0762 116.715 17.9824 116.49 17.8535 116.295C17.7285 116.1 17.5684 115.947 17.373 115.838C17.1816 115.725 16.9531 115.668 16.6875 115.668C16.4219 115.668 16.1914 115.725 15.9961 115.838C15.8047 115.947 15.6465 116.1 15.5215 116.295C15.3965 116.49 15.3047 116.715 15.2461 116.969C15.1875 117.219 15.1582 117.484 15.1582 117.766ZM22.248 112V121H20.8301V112H22.248ZM26.1855 114.66L23.4258 117.719L21.9141 119.266L21.5449 118.07L22.6875 116.658L24.4805 114.66H26.1855ZM24.7852 121L22.7285 118.023L23.6191 117.033L26.4199 121H24.7852ZM30.6387 119.283C30.6387 119.143 30.6035 119.016 30.5332 118.902C30.4629 118.785 30.3281 118.68 30.1289 118.586C29.9336 118.492 29.6445 118.406 29.2617 118.328C28.9258 118.254 28.6172 118.166 28.3359 118.064C28.0586 117.959 27.8203 117.832 27.6211 117.684C27.4219 117.535 27.2676 117.359 27.1582 117.156C27.0488 116.953 26.9941 116.719 26.9941 116.453C26.9941 116.195 27.0508 115.951 27.1641 115.721C27.2773 115.49 27.4395 115.287 27.6504 115.111C27.8613 114.936 28.1172 114.797 28.418 114.695C28.7227 114.594 29.0625 114.543 29.4375 114.543C29.9688 114.543 30.4238 114.633 30.8027 114.812C31.1855 114.988 31.4785 115.229 31.6816 115.533C31.8848 115.834 31.9863 116.174 31.9863 116.553H30.5742C30.5742 116.385 30.5312 116.229 30.4453 116.084C30.3633 115.936 30.2383 115.816 30.0703 115.727C29.9023 115.633 29.6914 115.586 29.4375 115.586C29.1953 115.586 28.9941 115.625 28.834 115.703C28.6777 115.777 28.5605 115.875 28.4824 115.996C28.4082 116.117 28.3711 116.25 28.3711 116.395C28.3711 116.5 28.3906 116.596 28.4297 116.682C28.4727 116.764 28.543 116.84 28.6406 116.91C28.7383 116.977 28.8711 117.039 29.0391 117.098C29.2109 117.156 29.4258 117.213 29.6836 117.268C30.168 117.369 30.584 117.5 30.9316 117.66C31.2832 117.816 31.5527 118.02 31.7402 118.27C31.9277 118.516 32.0215 118.828 32.0215 119.207C32.0215 119.488 31.9609 119.746 31.8398 119.98C31.7227 120.211 31.5508 120.412 31.3242 120.584C31.0977 120.752 30.8262 120.883 30.5098 120.977C30.1973 121.07 29.8457 121.117 29.4551 121.117C28.8809 121.117 28.3945 121.016 27.9961 120.812C27.5977 120.605 27.2949 120.342 27.0879 120.021C26.8848 119.697 26.7832 119.361 26.7832 119.014H28.1484C28.1641 119.275 28.2363 119.484 28.3652 119.641C28.498 119.793 28.6621 119.904 28.8574 119.975C29.0566 120.041 29.2617 120.074 29.4727 120.074C29.7266 120.074 29.9395 120.041 30.1113 119.975C30.2832 119.904 30.4141 119.811 30.5039 119.693C30.5938 119.572 30.6387 119.436 30.6387 119.283ZM37.7578 112V121H36.3398V112H37.7578ZM40.8164 114.66V121H39.3984V114.66H40.8164ZM39.3047 112.996C39.3047 112.781 39.375 112.604 39.5156 112.463C39.6602 112.318 39.8594 112.246 40.1133 112.246C40.3633 112.246 40.5605 112.318 40.7051 112.463C40.8496 112.604 40.9219 112.781 40.9219 112.996C40.9219 113.207 40.8496 113.383 40.7051 113.523C40.5605 113.664 40.3633 113.734 40.1133 113.734C39.8594 113.734 39.6602 113.664 39.5156 113.523C39.375 113.383 39.3047 113.207 39.3047 112.996ZM43.7871 112V121H42.3691V112H43.7871ZM47.7246 114.66L44.9648 117.719L43.4531 119.266L43.084 118.07L44.2266 116.658L46.0195 114.66H47.7246ZM46.3242 121L44.2676 118.023L45.1582 117.033L47.959 121H46.3242ZM51.2988 121.117C50.8301 121.117 50.4062 121.041 50.0273 120.889C49.6523 120.732 49.332 120.516 49.0664 120.238C48.8047 119.961 48.6035 119.635 48.4629 119.26C48.3223 118.885 48.252 118.48 48.252 118.047V117.812C48.252 117.316 48.3242 116.867 48.4688 116.465C48.6133 116.062 48.8145 115.719 49.0723 115.434C49.3301 115.145 49.6348 114.924 49.9863 114.771C50.3379 114.619 50.7188 114.543 51.1289 114.543C51.582 114.543 51.9785 114.619 52.3184 114.771C52.6582 114.924 52.9395 115.139 53.1621 115.416C53.3887 115.689 53.5566 116.016 53.666 116.395C53.7793 116.773 53.8359 117.191 53.8359 117.648V118.252H48.9375V117.238H52.4414V117.127C52.4336 116.873 52.3828 116.635 52.2891 116.412C52.1992 116.189 52.0605 116.01 51.873 115.873C51.6855 115.736 51.4355 115.668 51.123 115.668C50.8887 115.668 50.6797 115.719 50.4961 115.82C50.3164 115.918 50.166 116.061 50.0449 116.248C49.9238 116.436 49.8301 116.662 49.7637 116.928C49.7012 117.189 49.6699 117.484 49.6699 117.812V118.047C49.6699 118.324 49.707 118.582 49.7812 118.82C49.8594 119.055 49.9727 119.26 50.1211 119.436C50.2695 119.611 50.4492 119.75 50.6602 119.852C50.8711 119.949 51.1113 119.998 51.3809 119.998C51.7207 119.998 52.0234 119.93 52.2891 119.793C52.5547 119.656 52.7852 119.463 52.9805 119.213L53.7246 119.934C53.5879 120.133 53.4102 120.324 53.1914 120.508C52.9727 120.688 52.7051 120.834 52.3887 120.947C52.0762 121.061 51.7129 121.117 51.2988 121.117ZM59.7656 120.309L61.4883 114.66H63L60.457 121.967C60.3984 122.123 60.3223 122.293 60.2285 122.477C60.1348 122.66 60.0117 122.834 59.8594 122.998C59.7109 123.166 59.5254 123.301 59.3027 123.402C59.0801 123.508 58.8105 123.561 58.4941 123.561C58.3691 123.561 58.248 123.549 58.1309 123.525C58.0176 123.506 57.9102 123.484 57.8086 123.461L57.8027 122.383C57.8418 122.387 57.8887 122.391 57.9434 122.395C58.002 122.398 58.0488 122.4 58.084 122.4C58.3184 122.4 58.5137 122.371 58.6699 122.312C58.8262 122.258 58.9531 122.168 59.0508 122.043C59.1523 121.918 59.2383 121.75 59.3086 121.539L59.7656 120.309ZM58.793 114.66L60.2988 119.406L60.5508 120.895L59.5723 121.146L57.2695 114.66H58.793ZM63.4453 117.9V117.766C63.4453 117.309 63.5117 116.885 63.6445 116.494C63.7773 116.1 63.9688 115.758 64.2188 115.469C64.4727 115.176 64.7812 114.949 65.1445 114.789C65.5117 114.625 65.9258 114.543 66.3867 114.543C66.8516 114.543 67.2656 114.625 67.6289 114.789C67.9961 114.949 68.3066 115.176 68.5605 115.469C68.8145 115.758 69.0078 116.1 69.1406 116.494C69.2734 116.885 69.3398 117.309 69.3398 117.766V117.9C69.3398 118.357 69.2734 118.781 69.1406 119.172C69.0078 119.562 68.8145 119.904 68.5605 120.197C68.3066 120.486 67.998 120.713 67.6348 120.877C67.2715 121.037 66.8594 121.117 66.3984 121.117C65.9336 121.117 65.5176 121.037 65.1504 120.877C64.7871 120.713 64.4785 120.486 64.2246 120.197C63.9707 119.904 63.7773 119.562 63.6445 119.172C63.5117 118.781 63.4453 118.357 63.4453 117.9ZM64.8574 117.766V117.9C64.8574 118.186 64.8867 118.455 64.9453 118.709C65.0039 118.963 65.0957 119.186 65.2207 119.377C65.3457 119.568 65.5059 119.719 65.7012 119.828C65.8965 119.938 66.1289 119.992 66.3984 119.992C66.6602 119.992 66.8867 119.938 67.0781 119.828C67.2734 119.719 67.4336 119.568 67.5586 119.377C67.6836 119.186 67.7754 118.963 67.834 118.709C67.8965 118.455 67.9277 118.186 67.9277 117.9V117.766C67.9277 117.484 67.8965 117.219 67.834 116.969C67.7754 116.715 67.6816 116.49 67.5527 116.295C67.4277 116.1 67.2676 115.947 67.0723 115.838C66.8809 115.725 66.6523 115.668 66.3867 115.668C66.1211 115.668 65.8906 115.725 65.6953 115.838C65.5039 115.947 65.3457 116.1 65.2207 116.295C65.0957 116.49 65.0039 116.715 64.9453 116.969C64.8867 117.219 64.8574 117.484 64.8574 117.766ZM74.3379 119.506V114.66H75.7559V121H74.4199L74.3379 119.506ZM74.5371 118.188L75.0117 118.176C75.0117 118.602 74.9648 118.994 74.8711 119.354C74.7773 119.709 74.6328 120.02 74.4375 120.285C74.2422 120.547 73.9922 120.752 73.6875 120.9C73.3828 121.045 73.0176 121.117 72.5918 121.117C72.2832 121.117 72 121.072 71.7422 120.982C71.4844 120.893 71.2617 120.754 71.0742 120.566C70.8906 120.379 70.748 120.135 70.6465 119.834C70.5449 119.533 70.4941 119.174 70.4941 118.756V114.66H71.9062V118.768C71.9062 118.998 71.9336 119.191 71.9883 119.348C72.043 119.5 72.1172 119.623 72.2109 119.717C72.3047 119.811 72.4141 119.877 72.5391 119.916C72.6641 119.955 72.7969 119.975 72.9375 119.975C73.3398 119.975 73.6562 119.896 73.8867 119.74C74.1211 119.58 74.2871 119.365 74.3848 119.096C74.4863 118.826 74.5371 118.523 74.5371 118.188ZM81.5859 112V121H80.1797V112H81.5859ZM81.3398 117.596L80.8828 117.59C80.8867 117.152 80.9473 116.748 81.0645 116.377C81.1855 116.006 81.3535 115.684 81.5684 115.41C81.7871 115.133 82.0488 114.92 82.3535 114.771C82.6582 114.619 82.9961 114.543 83.3672 114.543C83.6797 114.543 83.9609 114.586 84.2109 114.672C84.4648 114.758 84.6836 114.896 84.8672 115.088C85.0508 115.275 85.1895 115.521 85.2832 115.826C85.3809 116.127 85.4297 116.494 85.4297 116.928V121H84.0117V116.916C84.0117 116.611 83.9668 116.369 83.877 116.189C83.791 116.01 83.6641 115.881 83.4961 115.803C83.3281 115.721 83.123 115.68 82.8809 115.68C82.627 115.68 82.4023 115.73 82.207 115.832C82.0156 115.934 81.8555 116.072 81.7266 116.248C81.5977 116.424 81.5 116.627 81.4336 116.857C81.3711 117.088 81.3398 117.334 81.3398 117.596ZM90.4336 119.729V116.705C90.4336 116.479 90.3926 116.283 90.3105 116.119C90.2285 115.955 90.1035 115.828 89.9355 115.738C89.7715 115.648 89.5645 115.604 89.3145 115.604C89.084 115.604 88.8848 115.643 88.7168 115.721C88.5488 115.799 88.418 115.904 88.3242 116.037C88.2305 116.17 88.1836 116.32 88.1836 116.488H86.7773C86.7773 116.238 86.8379 115.996 86.959 115.762C87.0801 115.527 87.2559 115.318 87.4863 115.135C87.7168 114.951 87.9922 114.807 88.3125 114.701C88.6328 114.596 88.9922 114.543 89.3906 114.543C89.8672 114.543 90.2891 114.623 90.6562 114.783C91.0273 114.943 91.3184 115.186 91.5293 115.51C91.7441 115.83 91.8516 116.232 91.8516 116.717V119.535C91.8516 119.824 91.8711 120.084 91.9102 120.314C91.9531 120.541 92.0137 120.738 92.0918 120.906V121H90.6445C90.5781 120.848 90.5254 120.654 90.4863 120.42C90.4512 120.182 90.4336 119.951 90.4336 119.729ZM90.6387 117.145L90.6504 118.018H89.6367C89.375 118.018 89.1445 118.043 88.9453 118.094C88.7461 118.141 88.5801 118.211 88.4473 118.305C88.3145 118.398 88.2148 118.512 88.1484 118.645C88.082 118.777 88.0488 118.928 88.0488 119.096C88.0488 119.264 88.0879 119.418 88.166 119.559C88.2441 119.695 88.3574 119.803 88.5059 119.881C88.6582 119.959 88.8418 119.998 89.0566 119.998C89.3457 119.998 89.5977 119.939 89.8125 119.822C90.0312 119.701 90.2031 119.555 90.3281 119.383C90.4531 119.207 90.5195 119.041 90.5273 118.885L90.9844 119.512C90.9375 119.672 90.8574 119.844 90.7441 120.027C90.6309 120.211 90.4824 120.387 90.2988 120.555C90.1191 120.719 89.9023 120.854 89.6484 120.959C89.3984 121.064 89.1094 121.117 88.7812 121.117C88.3672 121.117 87.998 121.035 87.6738 120.871C87.3496 120.703 87.0957 120.479 86.9121 120.197C86.7285 119.912 86.6367 119.59 86.6367 119.23C86.6367 118.895 86.6992 118.598 86.8242 118.34C86.9531 118.078 87.1406 117.859 87.3867 117.684C87.6367 117.508 87.9414 117.375 88.3008 117.285C88.6602 117.191 89.0703 117.145 89.5312 117.145H90.6387ZM95.2969 119.881L96.8496 114.66H98.3145L96.1113 121H95.1973L95.2969 119.881ZM94.1074 114.66L95.6895 119.904L95.7656 121H94.8516L92.6367 114.66H94.1074ZM101.9 121.117C101.432 121.117 101.008 121.041 100.629 120.889C100.254 120.732 99.9336 120.516 99.668 120.238C99.4062 119.961 99.2051 119.635 99.0645 119.26C98.9238 118.885 98.8535 118.48 98.8535 118.047V117.812C98.8535 117.316 98.9258 116.867 99.0703 116.465C99.2148 116.062 99.416 115.719 99.6738 115.434C99.9316 115.145 100.236 114.924 100.588 114.771C100.939 114.619 101.32 114.543 101.73 114.543C102.184 114.543 102.58 114.619 102.92 114.771C103.26 114.924 103.541 115.139 103.764 115.416C103.99 115.689 104.158 116.016 104.268 116.395C104.381 116.773 104.438 117.191 104.438 117.648V118.252H99.5391V117.238H103.043V117.127C103.035 116.873 102.984 116.635 102.891 116.412C102.801 116.189 102.662 116.01 102.475 115.873C102.287 115.736 102.037 115.668 101.725 115.668C101.49 115.668 101.281 115.719 101.098 115.82C100.918 115.918 100.768 116.061 100.646 116.248C100.525 116.436 100.432 116.662 100.365 116.928C100.303 117.189 100.271 117.484 100.271 117.812V118.047C100.271 118.324 100.309 118.582 100.383 118.82C100.461 119.055 100.574 119.26 100.723 119.436C100.871 119.611 101.051 119.75 101.262 119.852C101.473 119.949 101.713 119.998 101.982 119.998C102.322 119.998 102.625 119.93 102.891 119.793C103.156 119.656 103.387 119.463 103.582 119.213L104.326 119.934C104.189 120.133 104.012 120.324 103.793 120.508C103.574 120.688 103.307 120.834 102.99 120.947C102.678 121.061 102.314 121.117 101.9 121.117ZM109.928 116.014V121H108.516V114.66H109.846L109.928 116.014ZM109.676 117.596L109.219 117.59C109.223 117.141 109.285 116.729 109.406 116.354C109.531 115.979 109.703 115.656 109.922 115.387C110.145 115.117 110.41 114.91 110.719 114.766C111.027 114.617 111.371 114.543 111.75 114.543C112.055 114.543 112.33 114.586 112.576 114.672C112.826 114.754 113.039 114.889 113.215 115.076C113.395 115.264 113.531 115.508 113.625 115.809C113.719 116.105 113.766 116.471 113.766 116.904V121H112.348V116.898C112.348 116.594 112.303 116.354 112.213 116.178C112.127 115.998 112 115.871 111.832 115.797C111.668 115.719 111.463 115.68 111.217 115.68C110.975 115.68 110.758 115.73 110.566 115.832C110.375 115.934 110.213 116.072 110.08 116.248C109.951 116.424 109.852 116.627 109.781 116.857C109.711 117.088 109.676 117.334 109.676 117.596ZM114.938 117.9V117.766C114.938 117.309 115.004 116.885 115.137 116.494C115.27 116.1 115.461 115.758 115.711 115.469C115.965 115.176 116.273 114.949 116.637 114.789C117.004 114.625 117.418 114.543 117.879 114.543C118.344 114.543 118.758 114.625 119.121 114.789C119.488 114.949 119.799 115.176 120.053 115.469C120.307 115.758 120.5 116.1 120.633 116.494C120.766 116.885 120.832 117.309 120.832 117.766V117.9C120.832 118.357 120.766 118.781 120.633 119.172C120.5 119.562 120.307 119.904 120.053 120.197C119.799 120.486 119.49 120.713 119.127 120.877C118.764 121.037 118.352 121.117 117.891 121.117C117.426 121.117 117.01 121.037 116.643 120.877C116.279 120.713 115.971 120.486 115.717 120.197C115.463 119.904 115.27 119.562 115.137 119.172C115.004 118.781 114.938 118.357 114.938 117.9ZM116.35 117.766V117.9C116.35 118.186 116.379 118.455 116.438 118.709C116.496 118.963 116.588 119.186 116.713 119.377C116.838 119.568 116.998 119.719 117.193 119.828C117.389 119.938 117.621 119.992 117.891 119.992C118.152 119.992 118.379 119.938 118.57 119.828C118.766 119.719 118.926 119.568 119.051 119.377C119.176 119.186 119.268 118.963 119.326 118.709C119.389 118.455 119.42 118.186 119.42 117.9V117.766C119.42 117.484 119.389 117.219 119.326 116.969C119.268 116.715 119.174 116.49 119.045 116.295C118.92 116.1 118.76 115.947 118.564 115.838C118.373 115.725 118.145 115.668 117.879 115.668C117.613 115.668 117.383 115.725 117.188 115.838C116.996 115.947 116.838 116.1 116.713 116.295C116.588 116.49 116.496 116.715 116.438 116.969C116.379 117.219 116.35 117.484 116.35 117.766ZM126.516 114.66V121H125.098V114.66H126.516ZM125.004 112.996C125.004 112.781 125.074 112.604 125.215 112.463C125.359 112.318 125.559 112.246 125.812 112.246C126.062 112.246 126.26 112.318 126.404 112.463C126.549 112.604 126.621 112.781 126.621 112.996C126.621 113.207 126.549 113.383 126.404 113.523C126.26 113.664 126.062 113.734 125.812 113.734C125.559 113.734 125.359 113.664 125.215 113.523C125.074 113.383 125.004 113.207 125.004 112.996ZM129.463 116.014V121H128.051V114.66H129.381L129.463 116.014ZM129.211 117.596L128.754 117.59C128.758 117.141 128.82 116.729 128.941 116.354C129.066 115.979 129.238 115.656 129.457 115.387C129.68 115.117 129.945 114.91 130.254 114.766C130.562 114.617 130.906 114.543 131.285 114.543C131.59 114.543 131.865 114.586 132.111 114.672C132.361 114.754 132.574 114.889 132.75 115.076C132.93 115.264 133.066 115.508 133.16 115.809C133.254 116.105 133.301 116.471 133.301 116.904V121H131.883V116.898C131.883 116.594 131.838 116.354 131.748 116.178C131.662 115.998 131.535 115.871 131.367 115.797C131.203 115.719 130.998 115.68 130.752 115.68C130.51 115.68 130.293 115.73 130.102 115.832C129.91 115.934 129.748 116.072 129.615 116.248C129.486 116.424 129.387 116.627 129.316 116.857C129.246 117.088 129.211 117.334 129.211 117.596ZM137.648 114.66V115.691H134.074V114.66H137.648ZM135.105 113.107H136.518V119.248C136.518 119.443 136.545 119.594 136.6 119.699C136.658 119.801 136.738 119.869 136.84 119.904C136.941 119.939 137.061 119.957 137.197 119.957C137.295 119.957 137.389 119.951 137.479 119.939C137.568 119.928 137.641 119.916 137.695 119.904L137.701 120.982C137.584 121.018 137.447 121.049 137.291 121.076C137.139 121.104 136.963 121.117 136.764 121.117C136.439 121.117 136.152 121.061 135.902 120.947C135.652 120.83 135.457 120.641 135.316 120.379C135.176 120.117 135.105 119.77 135.105 119.336V113.107ZM141.533 121.117C141.064 121.117 140.641 121.041 140.262 120.889C139.887 120.732 139.566 120.516 139.301 120.238C139.039 119.961 138.838 119.635 138.697 119.26C138.557 118.885 138.486 118.48 138.486 118.047V117.812C138.486 117.316 138.559 116.867 138.703 116.465C138.848 116.062 139.049 115.719 139.307 115.434C139.564 115.145 139.869 114.924 140.221 114.771C140.572 114.619 140.953 114.543 141.363 114.543C141.816 114.543 142.213 114.619 142.553 114.771C142.893 114.924 143.174 115.139 143.396 115.416C143.623 115.689 143.791 116.016 143.9 116.395C144.014 116.773 144.07 117.191 144.07 117.648V118.252H139.172V117.238H142.676V117.127C142.668 116.873 142.617 116.635 142.523 116.412C142.434 116.189 142.295 116.01 142.107 115.873C141.92 115.736 141.67 115.668 141.357 115.668C141.123 115.668 140.914 115.719 140.73 115.82C140.551 115.918 140.4 116.061 140.279 116.248C140.158 116.436 140.064 116.662 139.998 116.928C139.936 117.189 139.904 117.484 139.904 117.812V118.047C139.904 118.324 139.941 118.582 140.016 118.82C140.094 119.055 140.207 119.26 140.355 119.436C140.504 119.611 140.684 119.75 140.895 119.852C141.105 119.949 141.346 119.998 141.615 119.998C141.955 119.998 142.258 119.93 142.523 119.793C142.789 119.656 143.02 119.463 143.215 119.213L143.959 119.934C143.822 120.133 143.645 120.324 143.426 120.508C143.207 120.688 142.939 120.834 142.623 120.947C142.311 121.061 141.947 121.117 141.533 121.117ZM146.59 115.867V121H145.178V114.66H146.525L146.59 115.867ZM148.529 114.619L148.518 115.932C148.432 115.916 148.338 115.904 148.236 115.896C148.139 115.889 148.041 115.885 147.943 115.885C147.701 115.885 147.488 115.92 147.305 115.99C147.121 116.057 146.967 116.154 146.842 116.283C146.721 116.408 146.627 116.561 146.561 116.74C146.494 116.92 146.455 117.121 146.443 117.344L146.121 117.367C146.121 116.969 146.16 116.6 146.238 116.26C146.316 115.92 146.434 115.621 146.59 115.363C146.75 115.105 146.949 114.904 147.188 114.76C147.43 114.615 147.709 114.543 148.025 114.543C148.111 114.543 148.203 114.551 148.301 114.566C148.402 114.582 148.479 114.6 148.529 114.619ZM150.814 116.014V121H149.402V114.66H150.732L150.814 116.014ZM150.562 117.596L150.105 117.59C150.109 117.141 150.172 116.729 150.293 116.354C150.418 115.979 150.59 115.656 150.809 115.387C151.031 115.117 151.297 114.91 151.605 114.766C151.914 114.617 152.258 114.543 152.637 114.543C152.941 114.543 153.217 114.586 153.463 114.672C153.713 114.754 153.926 114.889 154.102 115.076C154.281 115.264 154.418 115.508 154.512 115.809C154.605 116.105 154.652 116.471 154.652 116.904V121H153.234V116.898C153.234 116.594 153.189 116.354 153.1 116.178C153.014 115.998 152.887 115.871 152.719 115.797C152.555 115.719 152.35 115.68 152.104 115.68C151.861 115.68 151.645 115.73 151.453 115.832C151.262 115.934 151.1 116.072 150.967 116.248C150.838 116.424 150.738 116.627 150.668 116.857C150.598 117.088 150.562 117.334 150.562 117.596ZM158.889 121.117C158.42 121.117 157.996 121.041 157.617 120.889C157.242 120.732 156.922 120.516 156.656 120.238C156.395 119.961 156.193 119.635 156.053 119.26C155.912 118.885 155.842 118.48 155.842 118.047V117.812C155.842 117.316 155.914 116.867 156.059 116.465C156.203 116.062 156.404 115.719 156.662 115.434C156.92 115.145 157.225 114.924 157.576 114.771C157.928 114.619 158.309 114.543 158.719 114.543C159.172 114.543 159.568 114.619 159.908 114.771C160.248 114.924 160.529 115.139 160.752 115.416C160.979 115.689 161.146 116.016 161.256 116.395C161.369 116.773 161.426 117.191 161.426 117.648V118.252H156.527V117.238H160.031V117.127C160.023 116.873 159.973 116.635 159.879 116.412C159.789 116.189 159.65 116.01 159.463 115.873C159.275 115.736 159.025 115.668 158.713 115.668C158.479 115.668 158.27 115.719 158.086 115.82C157.906 115.918 157.756 116.061 157.635 116.248C157.514 116.436 157.42 116.662 157.354 116.928C157.291 117.189 157.26 117.484 157.26 117.812V118.047C157.26 118.324 157.297 118.582 157.371 118.82C157.449 119.055 157.562 119.26 157.711 119.436C157.859 119.611 158.039 119.75 158.25 119.852C158.461 119.949 158.701 119.998 158.971 119.998C159.311 119.998 159.613 119.93 159.879 119.793C160.145 119.656 160.375 119.463 160.57 119.213L161.314 119.934C161.178 120.133 161 120.324 160.781 120.508C160.562 120.688 160.295 120.834 159.979 120.947C159.666 121.061 159.303 121.117 158.889 121.117ZM165.434 114.66V115.691H161.859V114.66H165.434ZM162.891 113.107H164.303V119.248C164.303 119.443 164.33 119.594 164.385 119.699C164.443 119.801 164.523 119.869 164.625 119.904C164.727 119.939 164.846 119.957 164.982 119.957C165.08 119.957 165.174 119.951 165.264 119.939C165.354 119.928 165.426 119.916 165.48 119.904L165.486 120.982C165.369 121.018 165.232 121.049 165.076 121.076C164.924 121.104 164.748 121.117 164.549 121.117C164.225 121.117 163.938 121.061 163.688 120.947C163.438 120.83 163.242 120.641 163.102 120.379C162.961 120.117 162.891 119.77 162.891 119.336V113.107ZM172.102 119.992C172.332 119.992 172.539 119.947 172.723 119.857C172.91 119.764 173.061 119.635 173.174 119.471C173.291 119.307 173.355 119.117 173.367 118.902H174.697C174.689 119.312 174.568 119.686 174.334 120.021C174.1 120.357 173.789 120.625 173.402 120.824C173.016 121.02 172.588 121.117 172.119 121.117C171.635 121.117 171.213 121.035 170.854 120.871C170.494 120.703 170.195 120.473 169.957 120.18C169.719 119.887 169.539 119.549 169.418 119.166C169.301 118.783 169.242 118.373 169.242 117.936V117.73C169.242 117.293 169.301 116.883 169.418 116.5C169.539 116.113 169.719 115.773 169.957 115.48C170.195 115.188 170.494 114.959 170.854 114.795C171.213 114.627 171.633 114.543 172.113 114.543C172.621 114.543 173.066 114.645 173.449 114.848C173.832 115.047 174.133 115.326 174.352 115.686C174.574 116.041 174.689 116.455 174.697 116.928H173.367C173.355 116.693 173.297 116.482 173.191 116.295C173.09 116.104 172.945 115.951 172.758 115.838C172.574 115.725 172.354 115.668 172.096 115.668C171.811 115.668 171.574 115.727 171.387 115.844C171.199 115.957 171.053 116.113 170.947 116.312C170.842 116.508 170.766 116.729 170.719 116.975C170.676 117.217 170.654 117.469 170.654 117.73V117.936C170.654 118.197 170.676 118.451 170.719 118.697C170.762 118.943 170.836 119.164 170.941 119.359C171.051 119.551 171.199 119.705 171.387 119.822C171.574 119.936 171.812 119.992 172.102 119.992ZM175.512 117.9V117.766C175.512 117.309 175.578 116.885 175.711 116.494C175.844 116.1 176.035 115.758 176.285 115.469C176.539 115.176 176.848 114.949 177.211 114.789C177.578 114.625 177.992 114.543 178.453 114.543C178.918 114.543 179.332 114.625 179.695 114.789C180.062 114.949 180.373 115.176 180.627 115.469C180.881 115.758 181.074 116.1 181.207 116.494C181.34 116.885 181.406 117.309 181.406 117.766V117.9C181.406 118.357 181.34 118.781 181.207 119.172C181.074 119.562 180.881 119.904 180.627 120.197C180.373 120.486 180.064 120.713 179.701 120.877C179.338 121.037 178.926 121.117 178.465 121.117C178 121.117 177.584 121.037 177.217 120.877C176.854 120.713 176.545 120.486 176.291 120.197C176.037 119.904 175.844 119.562 175.711 119.172C175.578 118.781 175.512 118.357 175.512 117.9ZM176.924 117.766V117.9C176.924 118.186 176.953 118.455 177.012 118.709C177.07 118.963 177.162 119.186 177.287 119.377C177.412 119.568 177.572 119.719 177.768 119.828C177.963 119.938 178.195 119.992 178.465 119.992C178.727 119.992 178.953 119.938 179.145 119.828C179.34 119.719 179.5 119.568 179.625 119.377C179.75 119.186 179.842 118.963 179.9 118.709C179.963 118.455 179.994 118.186 179.994 117.9V117.766C179.994 117.484 179.963 117.219 179.9 116.969C179.842 116.715 179.748 116.49 179.619 116.295C179.494 116.1 179.334 115.947 179.139 115.838C178.947 115.725 178.719 115.668 178.453 115.668C178.188 115.668 177.957 115.725 177.762 115.838C177.57 115.947 177.412 116.1 177.287 116.295C177.162 116.49 177.07 116.715 177.012 116.969C176.953 117.219 176.924 117.484 176.924 117.766ZM183.99 116.014V121H182.578V114.66H183.908L183.99 116.014ZM183.738 117.596L183.281 117.59C183.285 117.141 183.348 116.729 183.469 116.354C183.594 115.979 183.766 115.656 183.984 115.387C184.207 115.117 184.473 114.91 184.781 114.766C185.09 114.617 185.434 114.543 185.812 114.543C186.117 114.543 186.393 114.586 186.639 114.672C186.889 114.754 187.102 114.889 187.277 115.076C187.457 115.264 187.594 115.508 187.688 115.809C187.781 116.105 187.828 116.471 187.828 116.904V121H186.41V116.898C186.41 116.594 186.365 116.354 186.275 116.178C186.189 115.998 186.062 115.871 185.895 115.797C185.73 115.719 185.525 115.68 185.279 115.68C185.037 115.68 184.82 115.73 184.629 115.832C184.438 115.934 184.275 116.072 184.143 116.248C184.014 116.424 183.914 116.627 183.844 116.857C183.773 117.088 183.738 117.334 183.738 117.596ZM190.67 116.014V121H189.258V114.66H190.588L190.67 116.014ZM190.418 117.596L189.961 117.59C189.965 117.141 190.027 116.729 190.148 116.354C190.273 115.979 190.445 115.656 190.664 115.387C190.887 115.117 191.152 114.91 191.461 114.766C191.77 114.617 192.113 114.543 192.492 114.543C192.797 114.543 193.072 114.586 193.318 114.672C193.568 114.754 193.781 114.889 193.957 115.076C194.137 115.264 194.273 115.508 194.367 115.809C194.461 116.105 194.508 116.471 194.508 116.904V121H193.09V116.898C193.09 116.594 193.045 116.354 192.955 116.178C192.869 115.998 192.742 115.871 192.574 115.797C192.41 115.719 192.205 115.68 191.959 115.68C191.717 115.68 191.5 115.73 191.309 115.832C191.117 115.934 190.955 116.072 190.822 116.248C190.693 116.424 190.594 116.627 190.523 116.857C190.453 117.088 190.418 117.334 190.418 117.596ZM198.744 121.117C198.275 121.117 197.852 121.041 197.473 120.889C197.098 120.732 196.777 120.516 196.512 120.238C196.25 119.961 196.049 119.635 195.908 119.26C195.768 118.885 195.697 118.48 195.697 118.047V117.812C195.697 117.316 195.77 116.867 195.914 116.465C196.059 116.062 196.26 115.719 196.518 115.434C196.775 115.145 197.08 114.924 197.432 114.771C197.783 114.619 198.164 114.543 198.574 114.543C199.027 114.543 199.424 114.619 199.764 114.771C200.104 114.924 200.385 115.139 200.607 115.416C200.834 115.689 201.002 116.016 201.111 116.395C201.225 116.773 201.281 117.191 201.281 117.648V118.252H196.383V117.238H199.887V117.127C199.879 116.873 199.828 116.635 199.734 116.412C199.645 116.189 199.506 116.01 199.318 115.873C199.131 115.736 198.881 115.668 198.568 115.668C198.334 115.668 198.125 115.719 197.941 115.82C197.762 115.918 197.611 116.061 197.49 116.248C197.369 116.436 197.275 116.662 197.209 116.928C197.146 117.189 197.115 117.484 197.115 117.812V118.047C197.115 118.324 197.152 118.582 197.227 118.82C197.305 119.055 197.418 119.26 197.566 119.436C197.715 119.611 197.895 119.75 198.105 119.852C198.316 119.949 198.557 119.998 198.826 119.998C199.166 119.998 199.469 119.93 199.734 119.793C200 119.656 200.23 119.463 200.426 119.213L201.17 119.934C201.033 120.133 200.855 120.324 200.637 120.508C200.418 120.688 200.15 120.834 199.834 120.947C199.521 121.061 199.158 121.117 198.744 121.117ZM204.973 119.992C205.203 119.992 205.41 119.947 205.594 119.857C205.781 119.764 205.932 119.635 206.045 119.471C206.162 119.307 206.227 119.117 206.238 118.902H207.568C207.561 119.312 207.439 119.686 207.205 120.021C206.971 120.357 206.66 120.625 206.273 120.824C205.887 121.02 205.459 121.117 204.99 121.117C204.506 121.117 204.084 121.035 203.725 120.871C203.365 120.703 203.066 120.473 202.828 120.18C202.59 119.887 202.41 119.549 202.289 119.166C202.172 118.783 202.113 118.373 202.113 117.936V117.73C202.113 117.293 202.172 116.883 202.289 116.5C202.41 116.113 202.59 115.773 202.828 115.48C203.066 115.188 203.365 114.959 203.725 114.795C204.084 114.627 204.504 114.543 204.984 114.543C205.492 114.543 205.938 114.645 206.32 114.848C206.703 115.047 207.004 115.326 207.223 115.686C207.445 116.041 207.561 116.455 207.568 116.928H206.238C206.227 116.693 206.168 116.482 206.062 116.295C205.961 116.104 205.816 115.951 205.629 115.838C205.445 115.725 205.225 115.668 204.967 115.668C204.682 115.668 204.445 115.727 204.258 115.844C204.07 115.957 203.924 116.113 203.818 116.312C203.713 116.508 203.637 116.729 203.59 116.975C203.547 117.217 203.525 117.469 203.525 117.73V117.936C203.525 118.197 203.547 118.451 203.59 118.697C203.633 118.943 203.707 119.164 203.812 119.359C203.922 119.551 204.07 119.705 204.258 119.822C204.445 119.936 204.684 119.992 204.973 119.992ZM211.559 114.66V115.691H207.984V114.66H211.559ZM209.016 113.107H210.428V119.248C210.428 119.443 210.455 119.594 210.51 119.699C210.568 119.801 210.648 119.869 210.75 119.904C210.852 119.939 210.971 119.957 211.107 119.957C211.205 119.957 211.299 119.951 211.389 119.939C211.479 119.928 211.551 119.916 211.605 119.904L211.611 120.982C211.494 121.018 211.357 121.049 211.201 121.076C211.049 121.104 210.873 121.117 210.674 121.117C210.35 121.117 210.062 121.061 209.812 120.947C209.562 120.83 209.367 120.641 209.227 120.379C209.086 120.117 209.016 119.77 209.016 119.336V113.107ZM214.16 114.66V121H212.742V114.66H214.16ZM212.648 112.996C212.648 112.781 212.719 112.604 212.859 112.463C213.004 112.318 213.203 112.246 213.457 112.246C213.707 112.246 213.904 112.318 214.049 112.463C214.193 112.604 214.266 112.781 214.266 112.996C214.266 113.207 214.193 113.383 214.049 113.523C213.904 113.664 213.707 113.734 213.457 113.734C213.203 113.734 213.004 113.664 212.859 113.523C212.719 113.383 212.648 113.207 212.648 112.996ZM215.438 117.9V117.766C215.438 117.309 215.504 116.885 215.637 116.494C215.77 116.1 215.961 115.758 216.211 115.469C216.465 115.176 216.773 114.949 217.137 114.789C217.504 114.625 217.918 114.543 218.379 114.543C218.844 114.543 219.258 114.625 219.621 114.789C219.988 114.949 220.299 115.176 220.553 115.469C220.807 115.758 221 116.1 221.133 116.494C221.266 116.885 221.332 117.309 221.332 117.766V117.9C221.332 118.357 221.266 118.781 221.133 119.172C221 119.562 220.807 119.904 220.553 120.197C220.299 120.486 219.99 120.713 219.627 120.877C219.264 121.037 218.852 121.117 218.391 121.117C217.926 121.117 217.51 121.037 217.143 120.877C216.779 120.713 216.471 120.486 216.217 120.197C215.963 119.904 215.77 119.562 215.637 119.172C215.504 118.781 215.438 118.357 215.438 117.9ZM216.85 117.766V117.9C216.85 118.186 216.879 118.455 216.938 118.709C216.996 118.963 217.088 119.186 217.213 119.377C217.338 119.568 217.498 119.719 217.693 119.828C217.889 119.938 218.121 119.992 218.391 119.992C218.652 119.992 218.879 119.938 219.07 119.828C219.266 119.719 219.426 119.568 219.551 119.377C219.676 119.186 219.768 118.963 219.826 118.709C219.889 118.455 219.92 118.186 219.92 117.9V117.766C219.92 117.484 219.889 117.219 219.826 116.969C219.768 116.715 219.674 116.49 219.545 116.295C219.42 116.1 219.26 115.947 219.064 115.838C218.873 115.725 218.645 115.668 218.379 115.668C218.113 115.668 217.883 115.725 217.688 115.838C217.496 115.947 217.338 116.1 217.213 116.295C217.088 116.49 216.996 116.715 216.938 116.969C216.879 117.219 216.85 117.484 216.85 117.766ZM223.916 116.014V121H222.504V114.66H223.834L223.916 116.014ZM223.664 117.596L223.207 117.59C223.211 117.141 223.273 116.729 223.395 116.354C223.52 115.979 223.691 115.656 223.91 115.387C224.133 115.117 224.398 114.91 224.707 114.766C225.016 114.617 225.359 114.543 225.738 114.543C226.043 114.543 226.318 114.586 226.564 114.672C226.814 114.754 227.027 114.889 227.203 115.076C227.383 115.264 227.52 115.508 227.613 115.809C227.707 116.105 227.754 116.471 227.754 116.904V121H226.336V116.898C226.336 116.594 226.291 116.354 226.201 116.178C226.115 115.998 225.988 115.871 225.82 115.797C225.656 115.719 225.451 115.68 225.205 115.68C224.963 115.68 224.746 115.73 224.555 115.832C224.363 115.934 224.201 116.072 224.068 116.248C223.939 116.424 223.84 116.627 223.77 116.857C223.699 117.088 223.664 117.334 223.664 117.596ZM230.824 112.469L230.684 118.486H229.477L229.33 112.469H230.824ZM229.289 120.332C229.289 120.117 229.359 119.938 229.5 119.793C229.645 119.645 229.844 119.57 230.098 119.57C230.348 119.57 230.545 119.645 230.689 119.793C230.834 119.938 230.906 120.117 230.906 120.332C230.906 120.539 230.834 120.717 230.689 120.865C230.545 121.01 230.348 121.082 230.098 121.082C229.844 121.082 229.645 121.01 229.5 120.865C229.359 120.717 229.289 120.539 229.289 120.332Z" fill="#454545"/>
</svg>
