<svg width="10" height="10" viewBox="0 0 10 10" fill="none" xmlns="http://www.w3.org/2000/svg">
<g clip-path="url(#clip0_17468_2949)">
<path d="M6.34729 4.2959H3.63447C3.57041 4.2959 3.50635 4.35996 3.50635 4.44559V4.85152C3.50635 4.93684 3.54916 5.0009 3.63447 5.0009H4.61697V9.57215H5.36478V5.0009H6.34729C6.41135 5.0009 6.47541 4.93684 6.47541 4.85152V4.44559C6.45416 4.36027 6.41135 4.2959 6.34729 4.2959Z" fill="#B32D7D"/>
<path d="M1.97095 2.35219C2.43095 2.35094 2.80283 1.91938 2.80126 1.38844C2.7997 0.857503 2.42533 0.42844 1.96533 0.42969C1.50533 0.43094 1.13345 0.862503 1.13501 1.39344C1.13658 1.92438 1.51095 2.35344 1.97095 2.35219Z" fill="#B32D7D"/>
<path d="M3.84778 6.6027C3.84778 6.45301 3.84778 5.83364 3.84778 5.76958C3.84778 5.70551 3.84778 5.55583 3.7409 5.55583C3.61278 5.55583 2.97184 5.4277 2.97184 5.4277C2.97184 5.4277 2.92903 4.16739 2.88653 3.59051C2.84371 3.01364 2.56621 2.60801 2.0534 2.65051C1.54059 2.69301 1.26309 3.05645 1.28434 3.61176C1.30559 4.16708 1.39121 5.14989 1.43371 5.87614C1.47621 6.60239 2.03184 6.75208 2.26684 6.75208C2.50184 6.75208 3.63403 6.81614 3.76215 6.81614C3.86903 6.81614 3.84746 6.73083 3.84746 6.60239L3.84778 6.6027Z" fill="#B32D7D"/>
<path d="M3.52747 7.35059H1.86122C1.49809 7.35059 0.92122 7.03028 0.835907 6.4534C0.707782 5.7484 0.494032 4.25309 0.494032 4.23184C0.472782 4.08215 0.344657 3.97559 0.21622 3.99684C0.0877824 4.01809 -0.0187801 4.16778 0.00246985 4.2959C0.00246985 4.35997 0.21622 5.83403 0.344345 6.53872C0.45122 7.2009 0.94247 7.64934 1.43372 7.79903L0.98497 9.29434C0.96372 9.37965 1.00622 9.48653 1.09184 9.52934C1.11309 9.52934 1.13466 9.52934 1.13466 9.52934C1.19872 9.52934 1.28403 9.48653 1.30559 9.40122L1.7756 7.86309C1.79685 7.86309 1.83966 7.86309 1.86091 7.86309H2.86497L3.35622 9.40122C3.37747 9.48653 3.44153 9.52934 3.52716 9.52934C3.54841 9.52934 3.56997 9.52934 3.59122 9.52934C3.67653 9.50809 3.7406 9.40122 3.6981 9.29434L3.24966 7.86309H3.54872C3.67685 7.86309 3.80497 7.73497 3.80497 7.58528C3.78372 7.45715 3.6556 7.35028 3.52716 7.35028L3.52747 7.35059Z" fill="#B32D7D"/>
<path d="M8.84814 1.39149C8.8497 0.86055 8.47814 0.428987 8.01783 0.427737C7.55751 0.426487 7.18345 0.85555 7.18189 1.38649C7.18033 1.91742 7.55189 2.34899 8.0122 2.35024C8.4722 2.35149 8.84658 1.92242 8.84814 1.39149Z" fill="#B32D7D"/>
<path d="M7.73558 6.73161C7.97058 6.73161 8.52589 6.58192 8.5687 5.85567C8.61151 5.12942 8.71808 4.14692 8.71808 3.5913C8.73933 3.03598 8.46183 2.67286 7.94901 2.63005C7.4362 2.58723 7.1587 2.99317 7.11589 3.57005C7.07308 4.16817 7.03058 5.40723 7.03058 5.40723C7.03058 5.40723 6.36839 5.53536 6.26151 5.53536C6.13339 5.53536 6.15464 5.68505 6.15464 5.74911C6.15464 5.81317 6.15464 6.45411 6.15464 6.58223C6.15464 6.73192 6.13339 6.79598 6.28276 6.79598C6.36808 6.81723 7.52183 6.73192 7.73526 6.73192L7.73558 6.73161Z" fill="#B32D7D"/>
<path d="M9.76501 3.99684C9.63688 3.97559 9.50876 4.08215 9.4872 4.23184C9.4872 4.25309 9.27376 5.7484 9.14532 6.4534C9.03845 7.05153 8.48313 7.35059 8.12001 7.35059H6.45376C6.32563 7.35059 6.19751 7.47872 6.19751 7.6284C6.19751 7.77809 6.30438 7.90622 6.45376 7.90622H6.75282L6.30407 9.33747C6.28282 9.42278 6.32532 9.52965 6.41095 9.57247C6.4322 9.57247 6.45376 9.57247 6.47501 9.57247C6.53907 9.57247 6.6247 9.52965 6.64595 9.44434L7.1372 7.90622H8.14126C8.16251 7.90622 8.20532 7.90622 8.22657 7.90622L8.69657 9.44434C8.71782 9.52965 8.78188 9.57247 8.86751 9.57247C8.88876 9.57247 8.91032 9.57247 8.91032 9.57247C8.99563 9.55122 9.06001 9.44434 9.0172 9.33747L8.56845 7.84215C9.08126 7.67122 9.55095 7.22278 9.65782 6.58184C9.78595 5.87684 9.9997 4.40309 9.9997 4.33903C9.9997 4.16809 9.89282 4.01872 9.7647 3.99715L9.76501 3.99684Z" fill="#B32D7D"/>
</g>
<defs>
<clipPath id="clip0_17468_2949">
<rect width="10" height="10" fill="white"/>
</clipPath>
</defs>
</svg>
