<svg width="12" height="10" viewBox="0 0 12 10" fill="none" xmlns="http://www.w3.org/2000/svg">
<path d="M11.1906 0.5H0.809375C0.6375 0.5 0.5 0.623711 0.5 0.778351V9.22165C0.5 9.37629 0.6375 9.5 0.809375 9.5H11.1906C11.3625 9.5 11.5 9.37629 11.5 9.22165V0.778351C11.5 0.623711 11.3625 0.5 11.1906 0.5ZM2.32188 8.54124H1.25625V8.23196H2.32188V8.54124ZM2.59687 8.97423V7.79897L3.21563 8.3866L2.59687 8.97423ZM10.7094 8.54124H3.49062V8.23196H10.7094V8.54124ZM10.7094 6.80928C10.7094 6.90206 10.6062 6.99484 10.5031 6.99484H1.42813C1.325 6.99484 1.22187 6.90206 1.22187 6.80928V1.33505C1.22187 1.24227 1.325 1.14948 1.42813 1.14948H10.5031C10.6062 1.14948 10.7094 1.24227 10.7094 1.33505V6.80928ZM6.85938 4.39691H5.0375C4.4875 4.39691 4.04063 4.79897 4.04063 5.29381L3.97188 6.40722H7.925L7.85625 5.29381C7.85625 4.79897 7.40938 4.39691 6.85938 4.39691ZM5.96562 4.02577C6.58437 4.02577 7.1 3.56186 7.1 3.00515C7.1 2.44845 6.58437 1.98454 5.96562 1.98454C5.34687 1.98454 4.83125 2.44845 4.83125 3.00515C4.83125 3.56186 5.34687 4.02577 5.96562 4.02577Z" fill="#B32D7D"/>
</svg>
