<!-- Generated by IcoMoon.io -->
<svg version="1.1" xmlns="http://www.w3.org/2000/svg" width="32" height="32" viewBox="0 0 32 32">
<title>accounts</title>
<path d="M12.8 0h-10.68c-1.16 0-2.12 0.96-2.12 2.12v10.68c0 1.16 0.96 2.12 2.12 2.12h10.68c1.16 0 2.12-0.96 2.12-2.12v-10.68c0-1.16-0.96-2.12-2.12-2.12zM12.8 8.52h-10.68v-2.12h10.68v2.12zM29.88 0h-10.68c-1.16 0-2.12 0.96-2.12 2.12v27.72c0 1.16 0.96 2.12 2.12 2.12h10.68c1.16 0 2.12-0.96 2.12-2.12v-27.72c0-1.16-0.96-2.12-2.12-2.12zM29.88 19.2h-10.68v-2.12h10.68v2.12zM29.88 12.8h-10.68v-2.12h10.68v2.12zM12.8 17.080h-10.68c-1.16 0-2.12 0.96-2.12 2.12v10.68c0 1.16 0.96 2.12 2.12 2.12h10.68c1.16 0 2.12-0.96 2.12-2.12v-10.68c0-1.16-0.96-2.12-2.12-2.12zM12.8 25.6h-4.28v4.28h-2.12v-4.28h-4.28v-2.12h4.28v-4.28h2.12v4.28h4.28v2.12z"></path>
</svg>
