<!-- Generated by IcoMoon.io -->
<svg version="1.1" xmlns="http://www.w3.org/2000/svg" width="32" height="32" viewBox="0 0 32 32">
<title>admin</title>
<path d="M17.195 6.912c-0.043-0.768-0.811-0.64-1.579-0.64 0.555 0.128 1.109 0.341 1.579 0.64zM9.088 4.992c-2.944 0-4.309 3.755-1.963 5.632 0.811-2.133 2.389-3.712 4.523-4.309-0.597-0.811-1.536-1.323-2.56-1.323zM2.987 10.027c0.128 0.384 0.256 0.768 0.469 1.109l-0.981 0.981c-0.256 0.256-0.256 0.683 0 0.939l1.707 1.707c0.128 0.128 0.299 0.213 0.469 0.213s0.341-0.085 0.469-0.213l0.981-0.981c0.128 0.085 0.299 0.128 0.469 0.171 0 0 0-0.043 0-0.043 0-0.811 0.085-1.536 0.256-2.261-1.152-0.768-1.963-2.048-1.963-3.541 0-2.347 1.877-4.224 4.224-4.224 1.579 0 2.944 0.896 3.669 2.176 0.768-0.085 1.493-0.085 2.389 0.085-0.128-0.341-0.256-0.683-0.427-0.981l0.981-0.981c0.128-0.128 0.213-0.299 0.213-0.469s-0.085-0.341-0.213-0.469l-1.707-1.707c-0.128-0.128-0.299-0.213-0.469-0.213s-0.341 0.085-0.469 0.213l-0.981 0.981c-0.341-0.171-0.725-0.341-1.109-0.469v-1.365c0-0.384-0.299-0.683-0.683-0.683h-2.432c-0.384 0-0.683 0.299-0.683 0.683v1.365c-0.384 0.128-0.768 0.256-1.109 0.469l-0.981-0.981c-0.128-0.128-0.299-0.213-0.469-0.213s-0.341 0.085-0.469 0.213l-1.707 1.707c-0.128 0.128-0.213 0.299-0.213 0.469s0.085 0.341 0.213 0.469l0.981 0.981c-0.171 0.341-0.341 0.725-0.469 1.109h-1.365c-0.384 0-0.683 0.299-0.683 0.683v2.432c0 0.384 0.299 0.683 0.683 0.683h1.408zM23.936 22.955c1.067-0.597 1.792-1.707 1.792-3.029 0-1.92-1.536-3.456-3.456-3.456-0.683 0-1.28 0.213-1.835 0.512-0.299 1.28-0.811 2.475-1.451 3.499 1.877 0.427 3.541 1.28 4.949 2.475zM31.061 18.645c0-0.384-0.341-0.725-0.725-0.725h-1.493c-0.128-0.427-0.299-0.811-0.512-1.195l1.067-1.067c0.128-0.128 0.213-0.299 0.213-0.512 0-0.171-0.085-0.384-0.213-0.512l-1.835-1.835c-0.128-0.128-0.341-0.213-0.512-0.213s-0.384 0.085-0.512 0.213l-1.024 1.067c-0.384-0.213-0.768-0.384-1.195-0.512v-1.493c0-0.384-0.341-0.725-0.725-0.725h-2.603c-0.171 0-0.341 0.085-0.469 0.171 0.213 0.811 0.341 1.664 0.341 2.603 0 0.597-0.043 1.195-0.128 1.792 0.469-0.171 1.024-0.299 1.536-0.299 2.475 0 4.523 2.048 4.523 4.523 0 1.579-0.853 2.987-2.091 3.797 0.896 0.981 1.621 2.176 2.091 3.499 0.085 0.043 0.171 0.043 0.256 0.043 0.171 0 0.384-0.085 0.512-0.213l1.835-1.835c0.128-0.128 0.213-0.299 0.213-0.512 0-0.171-0.085-0.384-0.213-0.512l-1.024-1.024c0.213-0.384 0.384-0.768 0.512-1.195h1.493c0.171 0 0.384-0.085 0.512-0.213s0.213-0.299 0.213-0.512l-0.043-2.603zM25.344 27.904c-1.109-3.285-4.096-5.547-7.509-5.888-1.152 1.195-2.56 1.963-4.181 1.963s-3.029-0.768-4.181-1.963c-3.413 0.299-6.357 2.56-7.509 5.888l-0.64 1.835c-0.171 0.512-0.085 1.109 0.213 1.536 0.341 0.469 0.853 0.725 1.408 0.725h21.291c0.555 0 1.067-0.256 1.408-0.725s0.427-1.024 0.213-1.536l-0.512-1.835zM8.149 13.952c0 4.096 2.475 8.491 5.547 8.491s5.547-4.395 5.547-8.491c0-8.491-11.093-8.491-11.093 0z"></path>
</svg>
