<!-- Generated by IcoMoon.io -->
<svg version="1.1" xmlns="http://www.w3.org/2000/svg" width="32" height="32" viewBox="0 0 32 32">
<title>business</title>
<path d="M9.046 25.685c-1.536 0.299-2.347-0.512-2.176-2.091-1.493 0.256-2.347-0.597-2.091-2.091-0.213 0.043-0.384 0.085-0.597 0.043-0.683 0-1.195-0.341-1.451-0.981-0.256-0.597-0.128-1.109 0.341-1.579 0.341-0.341 0.939-0.683 0.939-1.024 0-0.469-0.64-0.768-0.981-1.152-0.896-0.939-1.835-1.835-2.731-2.731-0.213-0.213-0.384-0.469-0.256-0.768 0.085-0.256 0.256-0.427 0.555-0.469 0.341-0.043 0.555 0.171 0.725 0.384 1.109 1.109 2.261 2.219 3.371 3.371 0.256 0.256 0.427 0.384 0.853 0.256 1.152-0.384 2.091 0.64 1.92 2.091 0.64-0.128 1.195-0.085 1.664 0.384s0.597 1.024 0.384 1.749c0.683-0.128 1.28-0.085 1.749 0.384s0.555 1.024 0.384 1.707c0.64-0.171 1.237-0.085 1.707 0.384 0.427 0.427 0.64 0.896 0.427 1.493-0.128 0.341 0 0.469 0.213 0.683 0.64 0.64 1.28 1.28 1.963 1.92 0.427 0.427 0.811 0.427 1.195 0.085 0.384-0.384 0.384-0.811-0.043-1.237-0.555-0.555-1.109-1.109-1.664-1.664-0.341-0.341-0.512-0.683-0.128-1.067s0.768-0.213 1.109 0.128c0.555 0.555 1.109 1.109 1.664 1.664 0.427 0.427 0.896 0.427 1.237 0.043s0.341-0.768-0.085-1.195c-0.555-0.555-1.109-1.109-1.664-1.664-0.341-0.341-0.512-0.725-0.128-1.067 0.384-0.384 0.768-0.213 1.067 0.128 0.555 0.555 1.067 1.109 1.621 1.621 0.469 0.469 0.896 0.512 1.28 0.085s0.341-0.768-0.128-1.28c-0.555-0.555-1.067-1.109-1.621-1.621-0.341-0.299-0.469-0.683-0.128-1.024 0.384-0.384 0.768-0.256 1.067 0.085 0.555 0.555 1.152 1.152 1.707 1.707 0.427 0.427 0.811 0.427 1.195 0.043s0.384-0.811-0.043-1.237c-2.773-2.773-5.461-5.504-8.192-8.192-0.64-0.64-0.939-0.64-1.579 0-0.683 0.683-1.024 1.621-1.493 2.432-0.683 1.152-1.92 1.664-3.072 1.28-1.408-0.469-2.048-1.792-1.451-3.157 0.768-1.792 1.579-3.541 2.261-5.333 0.597-1.707 2.645-2.987 4.778-2.432 2.176 0.555 4.309 1.323 6.485 2.005 0.213 0.085 0.384 0.213 0.555 0.384 1.92 1.92 3.84 3.84 5.717 5.76 0.512 0.512 0.512 0.811 0 1.323-1.195 1.237-2.432 2.432-3.669 3.669-0.299 0.256-0.341 0.469 0 0.725 0.171 0.128 0.341 0.299 0.469 0.469 1.237 1.28 0.768 3.2-0.939 3.712-0.341 0.085-0.469 0.213-0.555 0.555-0.213 0.811-0.768 1.323-1.536 1.579-0.299 0.085-0.469 0.213-0.555 0.555-0.213 0.811-0.768 1.365-1.579 1.579-0.299 0.085-0.427 0.213-0.512 0.512-0.512 1.749-2.389 2.219-3.669 0.981-0.64-0.64-1.323-1.28-1.92-1.963-0.256-0.299-0.469-0.256-0.683 0s-0.469 0.469-0.683 0.725c-0.597 0.597-1.109 0.683-1.749 0.384-0.64-0.341-0.981-0.939-0.896-1.707 0-0.085 0.043-0.213 0.043-0.341zM28.842 12.672c-0.469 0-0.811-0.171-1.109-0.469-1.749-1.749-3.498-3.456-5.205-5.205-0.64-0.64-0.64-1.408 0-2.048 0.555-0.597 1.152-1.152 1.707-1.707 0.683-0.64 1.365-0.64 2.048 0 1.749 1.707 3.498 3.456 5.205 5.205 0.683 0.683 0.683 1.408 0 2.091-0.555 0.597-1.152 1.152-1.707 1.707-0.299 0.256-0.597 0.427-0.939 0.427zM28.757 11.264c0.555 0 1.109-0.469 1.109-1.067s-0.469-1.067-1.024-1.109c-0.597 0-1.067 0.427-1.109 1.024-0.043 0.64 0.427 1.109 1.024 1.152z"></path>
</svg>
