<!-- Generated by IcoMoon.io -->
<svg version="1.1" xmlns="http://www.w3.org/2000/svg" width="32" height="32" viewBox="0 0 32 32">
<title>career</title>
<path d="M16 12.551c2.005 0 3.65-1.644 3.65-3.65s-1.644-3.65-3.65-3.65c-2.005 0-3.65 1.644-3.65 3.65 0 2.045 1.644 3.65 3.65 3.65zM5.493 10.025c1.443 0 2.607-1.163 2.607-2.607s-1.163-2.607-2.607-2.607c-1.443 0-2.607 1.163-2.607 2.607s1.163 2.607 2.607 2.607zM29.113 7.418c0 1.44-1.167 2.606-2.607 2.606s-2.607-1.167-2.607-2.607c0-1.44 1.167-2.607 2.607-2.607s2.607 1.167 2.607 2.607zM32.001 16.241l-1.042-4.933-2.727-0.601-0.561-0.521-0.802 0.882 0.441 4.853-0.802 0.882-0.762-0.882 0.441-4.853-0.802-0.882-0.561 0.521-2.727 0.601-0.601 2.888-3.088-0.682-0.762-0.762-1.163 1.243 0.642 6.817-1.123 1.243-1.123-1.243 0.642-6.817-1.123-1.243-0.802 0.762-3.048 0.682-0.642-2.888-2.687-0.601-0.561-0.521-0.842 0.882 0.481 4.853-0.802 0.882-0.802-0.882 0.441-4.853-0.802-0.882-0.561 0.521-2.687 0.601-1.083 4.933 1.965 4.211h6.537l-0.16 0.842h-0.040l2.768 5.855h9.865l2.768-5.855-0.2-0.842h6.537z"></path>
</svg>
