<!-- Generated by IcoMoon.io -->
<svg version="1.1" xmlns="http://www.w3.org/2000/svg" width="35" height="32" viewBox="0 0 35 32">
<title>health</title>
<path d="M19.796 17.387c-0.394 0-0.714-0.32-0.714-0.714v0-3.261h-3.468v3.261c0 0.394-0.32 0.714-0.714 0.714v0h-3.261v3.461h3.261c0.394 0 0.714 0.32 0.714 0.714v0 3.261h3.461v-3.261c0-0.394 0.32-0.714 0.714-0.714h3.267v-3.461zM29.764 6.64h-24.833c-0.091-0.006-0.198-0.010-0.305-0.010-2.556 0-4.629 2.072-4.629 4.629 0 0.107 0.004 0.214 0.011 0.319l-0.001-0.014v15.506c-0.006 0.091-0.010 0.198-0.010 0.305 0 2.556 2.072 4.629 4.629 4.629 0.107 0 0.214-0.004 0.319-0.011l-0.014 0.001h24.833c0.091 0.006 0.198 0.010 0.305 0.010 2.556 0 4.629-2.072 4.629-4.629 0-0.107-0.004-0.214-0.011-0.319l0.001 0.014v-15.506c0.007-0.092 0.010-0.2 0.010-0.309 0-2.554-2.070-4.625-4.625-4.625-0.109 0-0.217 0.004-0.324 0.011l0.014-0.001zM24.484 21.212c0 0.59-0.478 1.067-1.067 1.067v0h-2.908v2.912c0 0.59-0.478 1.067-1.067 1.067v0h-4.192c-0.59 0-1.067-0.478-1.067-1.067v0-2.916h-2.9c0 0 0 0 0 0-0.586 0-1.060-0.472-1.067-1.055v-4.195c0-0.59 0.478-1.067 1.067-1.067v0h2.904v-2.908c0-0.59 0.478-1.067 1.068-1.067v0h4.188c0.59 0 1.067 0.478 1.067 1.067v0 2.912h2.912c0 0 0 0 0 0 0.586 0 1.061 0.472 1.067 1.055v4.197zM21.935 0.006c-0.035-0.002-0.076-0.003-0.117-0.003s-0.082 0.001-0.123 0.004h-8.7c-0.035-0.002-0.076-0.003-0.117-0.003-1.146 0-2.077 0.93-2.077 2.077 0 0.041 0.001 0.082 0.004 0.122v-0.006 3.21h1.427l0.007-3.211c-0.005-0.031-0.008-0.067-0.008-0.104 0-0.369 0.299-0.667 0.667-0.667 0.037 0 0.073 0.003 0.108 0.009l-0.004-0.001h8.698c0.763 0 0.763 0.55 0.763 0.763v3.211h1.427v-3.205c0.002-0.037 0.004-0.079 0.004-0.122 0-1.105-0.863-2.008-1.952-2.073h-0.006z"></path>
</svg>
