<!-- Generated by IcoMoon.io -->
<svg version="1.1" xmlns="http://www.w3.org/2000/svg" width="32" height="32" viewBox="0 0 32 32">
<title>hr</title>
<path d="M6.851 20.555c0-2.277 0-11.426 0-11.426s0-0.519 0.28-1.159c-2.357 0-4.835 0-4.835 0s-2.277 0.040-2.277 2.318v7.99c0 2.277 2.277 2.277 2.277 2.277v11.426h6.831v-9.149c0.040 0-2.277 0-2.277-2.277zM6.851 6.851c0.599 0 1.159-0.159 1.638-0.439 0.080-0.040 0.159-0.080 0.199-0.12 0.959-0.599 1.598-1.678 1.598-2.877 0-1.877-1.519-3.436-3.436-3.436s-3.436 1.519-3.436 3.436 1.558 3.436 3.436 3.436zM29.703 8.010h-4.835c0.28 0.64 0.28 1.159 0.28 1.159s0 9.149 0 11.426-2.277 2.277-2.277 2.277v9.109h6.831v-11.426c0 0 2.277 0 2.277-2.277s0-7.99 0-7.99 0-2.277-2.277-2.277zM23.271 6.332c0.080 0.040 0.159 0.080 0.24 0.12 0.479 0.28 1.038 0.439 1.638 0.439 1.877 0 3.436-1.519 3.436-3.436s-1.558-3.436-3.436-3.436c-1.877 0-3.436 1.519-3.436 3.436 0 1.199 0.64 2.237 1.558 2.877zM19.436 3.455c0 1.897-1.538 3.436-3.436 3.436s-3.436-1.538-3.436-3.436c0-1.897 1.538-3.436 3.436-3.436s3.436 1.538 3.436 3.436zM22.831 10.287c0 0 0-2.277-2.277-2.277-0.559 0-9.149 0-9.149 0s-2.277 0-2.277 2.277v7.99c0 2.277 2.277 2.277 2.277 2.277v11.426h9.149v-11.426c0 0 2.277 0 2.277-2.277s0-7.99 0-7.99z"></path>
</svg>
