<!-- Generated by IcoMoon.io -->
<svg version="1.1" xmlns="http://www.w3.org/2000/svg" width="32" height="32" viewBox="0 0 32 32">
<title>it</title>
<path d="M22.152 28.304h-9.827c-0.68 0-1.238 0.519-1.238 1.238 0 0.519 0 1.238 0 1.238h12.304v-1.238c0-0.68-0.559-1.238-1.238-1.238zM7.411 1.259h-6.152c-0.68 0-1.238 0.559-1.238 1.238v27.045c0 0.68 0.559 1.238 1.238 1.238h6.152c0.68 0 1.238-0.559 1.238-1.238v-27.045c-0.040-0.68-0.559-1.238-1.238-1.238zM4.335 26.027c-1.119 0-2.038-0.919-2.038-2.038s0.919-2.038 2.038-2.038c1.119 0 2.038 0.919 2.038 2.038s-0.919 2.038-2.038 2.038zM28.304 1.259h-17.218v2.477h17.218c0.68 0 1.238 0.559 1.238 1.238v13.503c0 0.68-0.559 1.238-1.238 1.238h-17.218v4.914h2.477v1.238c0 0.68 0.559 1.238 1.238 1.238h4.914c0.68 0 1.238-0.519 1.238-1.238 0-0.199 0-0.68 0-1.238h7.391c2.038 0 3.676-1.638 3.676-3.676v-15.98c-0.040-2.077-1.678-3.715-3.715-3.715z"></path>
</svg>
