<!-- Generated by IcoMoon.io -->
<svg version="1.1" xmlns="http://www.w3.org/2000/svg" width="32" height="32" viewBox="0 0 32 32">
<title>law</title>
<path d="M25.364 31.371c-6.272 0-12.456 0-18.728 0-0.044-0.751-0.044-1.502 0.353-2.164 0.442-0.707 1.060-1.060 1.855-1.148 0.795-0.044 1.59-0.133 2.385-0.177 1.016-0.088 1.678-0.751 1.767-1.767 0.309-2.959 0.618-5.919 0.928-8.878 0.265-2.65 0.574-5.3 0.839-7.906 0-0.088 0.133-0.221 0.177-0.221 0.707-0.133 1.413-0.265 2.164-0.398 0.088 0.663 0.133 1.325 0.221 1.988 0.177 1.723 0.353 3.489 0.574 5.212s0.353 3.489 0.53 5.212c0.177 1.678 0.353 3.401 0.53 5.079 0.133 0.972 0.795 1.59 1.767 1.678 0.751 0.088 1.502 0.133 2.253 0.177 1.369 0.088 2.253 1.016 2.341 2.385 0.044 0.309 0.044 0.574 0.044 0.928zM4.649 9.198c-0.088-0.574 0.088-0.928 0.663-1.193 0.707-0.309 1.369-0.618 2.076-0.928 0.442-0.177 0.883-0.398 1.325-0.574 1.325-0.618 2.253-1.59 2.783-2.915 0.751-1.899 2.341-3.003 4.373-2.915 1.193 0.044 2.253 0.574 3.003 1.502 1.104 1.325 2.518 1.899 4.196 1.943 1.104 0.044 2.164 0.133 3.268 0.221 0.574 0.044 0.928 0.309 1.060 0.928-7.597 1.281-15.15 2.606-22.747 3.931zM15.514 3.103c-0.751 0-1.325 0.574-1.325 1.325s0.618 1.325 1.325 1.325c0.707 0 1.281-0.574 1.281-1.281 0-0.795-0.574-1.369-1.281-1.369zM26.998 17.016c1.546 0 3.136 0 4.682 0 0.265 0 0.353 0.088 0.309 0.353-0.265 1.369-1.104 2.297-2.341 2.827-2.12 0.972-4.24 0.839-6.184-0.53-0.839-0.574-1.369-1.413-1.502-2.473-0.044-0.177 0.044-0.221 0.221-0.221 0.883 0 1.723 0 2.606 0 0.751 0.044 1.458 0.044 2.208 0.044 0 0 0 0 0 0zM10.037 21.079c-0.133 1.458-0.928 2.385-2.076 3.048-1.148 0.618-2.385 0.839-3.71 0.663-1.016-0.133-1.943-0.442-2.783-1.104-0.751-0.574-1.281-1.325-1.458-2.297-0.044-0.265 0.044-0.353 0.309-0.353 1.546 0 3.136 0 4.682 0s3.092 0 4.638 0c0.133 0 0.221 0 0.398 0.044zM5.002 12.157c-0.088 0.177-0.177 0.309-0.221 0.398-1.193 2.208-2.385 4.417-3.578 6.581-0.265 0.486-0.486 0.574-0.795 0.442-0.309-0.177-0.353-0.442-0.088-0.883 1.325-2.473 2.694-4.947 4.019-7.42 0.088-0.133 0.133-0.265 0.221-0.353 0.265-0.398 0.707-0.398 0.928 0 0.398 0.707 0.751 1.413 1.148 2.12 1.016 1.899 2.076 3.799 3.092 5.698 0.044 0.044 0.044 0.133 0.088 0.177 0.133 0.309 0.088 0.574-0.177 0.751-0.265 0.133-0.53 0.044-0.707-0.265-0.751-1.369-1.502-2.738-2.208-4.064-0.574-1.104-1.104-2.12-1.723-3.18zM26.998 8.138c-0.486 0.839-0.883 1.678-1.325 2.473-0.839 1.546-1.678 3.092-2.518 4.638-0.221 0.353-0.486 0.486-0.751 0.309-0.265-0.133-0.309-0.442-0.133-0.795 1.413-2.606 2.827-5.212 4.24-7.818 0.133-0.221 0.221-0.398 0.53-0.398 0.265 0 0.398 0.177 0.53 0.398 1.413 2.606 2.827 5.212 4.24 7.818 0.177 0.353 0.133 0.618-0.133 0.795-0.265 0.133-0.53 0.044-0.751-0.309-1.237-2.253-2.429-4.505-3.666-6.758-0.133-0.088-0.177-0.221-0.265-0.353z"></path>
</svg>
