<!-- Generated by IcoMoon.io -->
<svg version="1.1" xmlns="http://www.w3.org/2000/svg" width="32" height="32" viewBox="0 0 32 32">
<title>marketing</title>
<path d="M31.28 6.8l-3.88-3.4-3.92-3.4-7.76 6.8h4.28c-1.48 8.8-9.6 15.64-18.88 14.2-0.4-0.080-0.56 0.48-0.16 0.64 11.52 4.001 24.8-2.6 26.721-14.84 0 0 3.6 0 3.6 0zM22.64 18.16c-1.2 1.12-2.52 2.080-4.001 2.88v10.96h4.001v-13.84zM12.68 32h4.001v-9.96c-1.28 0.56-2.6 0.96-4.001 1.28v8.68zM24.64 32h4.001v-24.201h-0.12c-0.64 3.080-2 5.88-3.88 8.24v15.96zM4.72 23.56c-1.36-0.2-2.68-0.52-4.001-0.96v9.4h4.001v-8.44zM6.68 32h4.001v-8.36c-0.92 0.12-1.84 0.16-2.76 0.16-0.4 0-0.8 0-1.2-0.040v8.24z"></path>
</svg>
