<!-- Generated by IcoMoon.io -->
<svg version="1.1" xmlns="http://www.w3.org/2000/svg" width="32" height="32" viewBox="0 0 32 32">
<title>ngo</title>
<path d="M16.505 10.653h-1.137v-10.653h1.137v0.884c0.926-0.379 1.81-0.589 2.653-0.589 0.253 0 0.547 0.042 0.884 0.126s0.716 0.168 1.137 0.295c0.421 0.126 0.8 0.253 1.137 0.295 0.337 0.084 0.631 0.126 0.884 0.126 0.463 0 0.842-0.084 1.221-0.253v4.842c-0.463 0.126-0.842 0.168-1.221 0.168-0.253 0-0.547-0.042-0.884-0.126s-0.716-0.168-1.137-0.295c-0.379-0.126-0.8-0.21-1.137-0.295-0.379-0.084-0.674-0.126-0.926-0.126-0.126 0-0.295 0.042-0.589 0.084-0.253 0.042-0.547 0.126-0.842 0.253-0.295 0.084-0.547 0.21-0.758 0.295-0.168 0.042-0.295 0.084-0.379 0.084v4.884zM24.337 14.316v-2.779h-16.674v2.779h-5.221v17.684h9.221v-2.4h8.505v2.4h9.347v-17.684h-5.179zM10.485 25.852h-1.558l-3.074-5.010v5.010h-1.431v-7.663h1.473l3.158 5.137v-5.137h1.431v7.663zM19.032 24.8c-0.337 0.295-0.8 0.589-1.389 0.842-0.631 0.253-1.221 0.379-1.852 0.379-0.8 0-1.515-0.168-2.106-0.505s-1.052-0.8-1.347-1.431c-0.295-0.631-0.463-1.305-0.463-2.064 0-0.8 0.168-1.515 0.505-2.148s0.842-1.094 1.473-1.431c0.505-0.253 1.094-0.379 1.852-0.379 0.968 0 1.684 0.21 2.232 0.589 0.547 0.421 0.884 0.968 1.052 1.642l-1.558 0.295c-0.126-0.379-0.295-0.674-0.631-0.884-0.295-0.21-0.674-0.337-1.094-0.337-0.674 0-1.221 0.21-1.6 0.631-0.421 0.421-0.589 1.052-0.589 1.894 0 0.926 0.21 1.6 0.589 2.064 0.421 0.463 0.926 0.674 1.6 0.674 0.337 0 0.631-0.042 0.968-0.21 0.337-0.126 0.589-0.295 0.842-0.463v-0.968h-1.768v-1.305h3.327l-0.042 3.116zM26.569 24.926c-0.674 0.716-1.558 1.052-2.695 1.052s-2.064-0.337-2.737-1.052c-0.674-0.674-1.010-1.642-1.010-2.863 0-0.8 0.126-1.431 0.337-1.978 0.168-0.379 0.421-0.758 0.716-1.052s0.631-0.547 0.968-0.674c0.463-0.21 1.010-0.295 1.642-0.295 1.137 0 2.022 0.337 2.695 1.052s1.010 1.684 1.010 2.906c0.084 1.263-0.253 2.232-0.926 2.906zM23.874 19.369c-0.631 0-1.137 0.21-1.558 0.674-0.379 0.421-0.589 1.094-0.589 1.978s0.21 1.515 0.589 1.978c0.421 0.463 0.926 0.674 1.515 0.674s1.137-0.21 1.515-0.674c0.379-0.463 0.589-1.094 0.589-2.022 0-0.884-0.21-1.558-0.589-1.978-0.337-0.421-0.842-0.631-1.473-0.631z"></path>
</svg>
