<!-- Generated by IcoMoon.io -->
<svg version="1.1" xmlns="http://www.w3.org/2000/svg" width="32" height="32" viewBox="0 0 32 32">
<title>ongoing</title>
<path d="M8.657 22.050l0.834-0.834h5.966l-3.797-6.884-2.837 0.584c-0.751 0.167-1.335 0.709-1.544 1.418l-3.338 10.931c-0.167 0.584-0.042 1.21 0.334 1.711s0.96 0.793 1.585 0.793h2.795v-7.718zM28.057 27.306l-3.338-10.931c-0.209-0.751-0.793-1.293-1.544-1.46l-2.795-0.542-3.797 6.842h6.425l0.834 0.834v7.718h2.336c0.626 0 1.21-0.292 1.585-0.793 0.292-0.459 0.417-1.085 0.292-1.669zM10.326 29.768h11.807v-6.884h-11.807zM7.030 30.519h17.898v1.46h-17.898v-1.46zM9.617 9.492c0.042 0.083 0.083 0.167 0.125 0.25 0.167 0.417 0.334 0.709 0.501 0.918 0.918 2.962 3.254 5.007 5.758 5.007 2.462 0 4.798-2.086 5.674-5.048 0.209-0.167 0.334-0.501 0.501-0.918 0.042-0.125 0.083-0.209 0.125-0.25 0.334-0.709 0.209-1.46-0.25-1.794 0-0.042 0-0.042 0-0.083 0-3.671-0.501-7.593-6.091-7.593-5.632 0-6.091 3.797-6.091 7.635 0 0.042 0 0.042 0 0.083-0.459 0.375-0.584 1.126-0.25 1.794zM10.409 8.323v0c0.125-0.042 0.167-0.125 0.25-0.167l0.96 0.167c0.083 0 0.167-0.042 0.209-0.125l0.626-1.418c0.709 0.167 3.338 0.751 5.424 0.751 0.626 0 1.168-0.083 1.585-0.167l0.375 0.96c0.042 0.083 0.125 0.125 0.209 0.125 0 0 0.042 0 0.042 0l1.126-0.334c0.042 0.083 0.125 0.167 0.25 0.209v0c0.167 0.083 0.209 0.459 0.042 0.834-0.042 0.083-0.083 0.209-0.125 0.334-0.083 0.167-0.209 0.542-0.292 0.626-0.083 0.042-0.167 0.125-0.209 0.25-0.751 2.67-2.754 4.589-4.923 4.589s-4.214-1.877-4.965-4.548c-0.042-0.125-0.083-0.209-0.209-0.25-0.083-0.083-0.25-0.459-0.292-0.626-0.042-0.125-0.083-0.209-0.125-0.334-0.167-0.417-0.125-0.793 0.042-0.876z"></path>
</svg>
