<!-- Generated by IcoMoon.io -->
<svg version="1.1" xmlns="http://www.w3.org/2000/svg" width="32" height="32" viewBox="0 0 32 32">
<title>pm</title>
<path d="M16 0.001c8.697-0.082 15.999 7.138 15.999 15.753 0.082 8.943-7.056 16.163-15.999 16.245-8.615 0.082-15.917-7.138-15.999-15.753 0-9.107 7.056-16.245 15.999-16.245zM16 3.775c-6.646 0-12.143 5.415-12.143 12.143s5.497 12.143 12.143 12.143 12.225-5.497 12.225-12.143c-0.082-6.646-5.497-12.143-12.225-12.143zM14.277 14.195c0-1.313 0-2.543 0-3.692 0-1.067 0-2.133 0-3.282s0.656-1.887 1.723-1.887c0.985 0 1.805 0.738 1.805 1.887 0 2.954 0 5.907 0 8.779 0 0.985-0.738 1.805-1.723 1.805-1.805 0-3.528 0-5.333 0-0.985 0-1.805-0.82-1.805-1.723 0-0.985 0.82-1.723 1.805-1.805 0.574 0 1.149 0 1.723 0 0.574-0.082 1.149-0.082 1.805-0.082zM24.861 15.918c0 0.903-0.82 1.723-1.723 1.723s-1.805-0.82-1.805-1.805c0-0.903 0.82-1.723 1.723-1.723 0.985 0.082 1.805 0.903 1.805 1.805zM17.723 23.138c0 0.903-0.82 1.723-1.723 1.723s-1.805-0.82-1.805-1.805c0-0.985 0.82-1.723 1.805-1.723s1.723 0.82 1.723 1.805z"></path>
</svg>
