<!-- Generated by IcoMoon.io -->
<svg version="1.1" xmlns="http://www.w3.org/2000/svg" width="32" height="32" viewBox="0 0 32 32">
<title>quality</title>
<path d="M7.121 18.92c-3.24-0.96-4.040-3.479-2.12-6.359-2.040-2.8-0.96-5.72 2.080-6.479-0.12-3.28 2.48-5.239 5.439-3.959 2.040-2.92 5.159-2.719 6.759-0.080 3.36-1.080 5.68 0.76 5.599 4.040 3.28 1.2 4.040 3.6 2.080 6.319 1.76 3.559 1.16 5.519-2.040 6.479-0.080 3.519-2.4 5.239-5.599 4.080-1.839 2.8-4.92 2.8-6.759 0.040-3.36 1.24-5.72-1.039-5.439-4.080zM16.12 4.361c-4.599 0-8.279 3.6-8.319 8.159 0 4.599 3.68 8.2 8.399 8.2 4.48 0 8.2-3.72 8.159-8.159 0.040-4.56-3.64-8.2-8.239-8.2zM8.041 24.479c1.28 0.12 2.4 0.24 3.519 0.32 1.080 0.040 2.2 1.399 1.92 2.44-0.4 1.48-0.88 2.92-1.439 4.719-0.8-0.92-1.56-1.52-2.040-2.279-0.68-1.080-1.52-1.28-2.639-0.96-0.68 0.199-1.399 0.16-2.36 0.28 1.12-1.76 2.16-3.24 3.039-4.52zM19.959 31.998c-0.56-1.879-1.039-3.32-1.439-4.799-0.28-0.96 0.8-2.32 1.799-2.4 1.16-0.080 2.32-0.199 3.64-0.32 0.88 1.28 1.879 2.719 3.039 4.44-1.039-0.12-1.879-0.16-2.679-0.32-0.92-0.199-1.6-0.040-2.2 0.84-0.52 0.84-1.24 1.52-2.16 2.56zM9.44 12.601c0-3.8 2.999-6.839 6.679-6.839 3.64 0 6.719 3.16 6.679 6.879 0 3.6-3.16 6.759-6.719 6.719-3.68-0.080-6.639-3.079-6.639-6.759zM15.56 13.24c-0.56-0.72-0.96-1.2-1.36-1.76-0.52-0.72-1.24-0.96-1.799-0.28-0.32 0.4-0.4 1.28-0.199 1.72 0.52 0.96 1.24 1.839 1.96 2.679 0.76 0.92 2.12 0.84 2.84-0.12 0.96-1.28 1.839-2.56 2.76-3.879 0.48-0.68 0.48-1.32-0.24-1.879-0.76-0.56-1.32-0.24-1.799 0.44-0.68 0.96-1.36 1.92-2.16 3.079z"></path>
</svg>
