<!-- Generated by IcoMoon.io -->
<svg version="1.1" xmlns="http://www.w3.org/2000/svg" width="32" height="32" viewBox="0 0 32 32">
<title>softskills</title>
<path d="M26.373 0.001c-3.106 0-5.625 2.518-5.625 5.625s2.518 5.625 5.625 5.625c3.106 0 5.625-2.518 5.625-5.625v0c-0.003-3.105-2.52-5.621-5.624-5.625v0zM10.313 20.741h-9.374c0 0-0.001 0-0.001 0-0.517 0-0.937 0.419-0.937 0.937 0 0 0 0.001 0 0.001v0 9.374c0 0 0 0.001 0 0.001 0 0.517 0.419 0.937 0.937 0.937 0 0 0.001 0 0.001 0h9.374c0 0 0.001 0 0.001 0 0.517 0 0.937-0.419 0.937-0.937 0 0 0-0.001 0-0.001v0-9.374c0 0 0-0.001 0-0.001 0-0.517-0.419-0.937-0.937-0.937 0 0-0.001 0-0.001 0v0zM12.644 5.969l-2.647 2.647 13.209 13.081c0.952-0.785 2.091-1.38 3.339-1.709l0.062-0.014zM9.99 3.318l-6.628 6.629 1.326 1.326 6.629-6.629zM31.92 30.689l-3.884-9.061c-3.369 0.37-5.999 3.085-6.236 6.46l-0.001 0.022 8.89 3.815c0.109 0.048 0.237 0.076 0.371 0.076 0.518 0 0.938-0.42 0.938-0.938 0-0.135-0.029-0.264-0.080-0.38l0.002 0.006zM8.671 9.941l-2.656 2.656 14.068 14.115c0.323-1.422 0.95-2.665 1.811-3.707l-0.012 0.015zM8.001 1.329c-0.86-0.822-2.028-1.328-3.314-1.328s-2.454 0.506-3.316 1.33l0.002-0.002c-0.849 0.848-1.374 2.020-1.374 3.314s0.525 2.467 1.374 3.314v0l0.666 0.658 6.629-6.625z"></path>
</svg>
