<svg width="16" height="16" viewBox="0 0 16 16" fill="none" xmlns="http://www.w3.org/2000/svg">
<path d="M15.0118 9.01113C15.0136 9.14426 14.9886 9.27638 14.9384 9.39971C14.8883 9.52305 14.8139 9.63509 14.7198 9.72923C14.6257 9.82338 14.5136 9.89772 14.3903 9.94787C14.267 9.99803 14.1348 10.023 14.0017 10.0213H10.0225V14.0005C10.0242 14.1337 9.99925 14.2659 9.94907 14.3893C9.89889 14.5126 9.82451 14.6247 9.73031 14.7189C9.63612 14.8131 9.52402 14.8875 9.40062 14.9377C9.27722 14.9879 9.14503 15.0128 9.01183 15.0111H6.98996C6.85679 15.0128 6.72462 14.9879 6.60125 14.9377C6.47788 14.8875 6.36582 14.8131 6.27167 14.7189C6.17752 14.6247 6.10318 14.5126 6.05306 14.3892C6.00294 14.2658 5.97804 14.1336 5.97983 14.0005V10.0213H2.0017C1.8683 10.0234 1.73583 9.99878 1.61212 9.94882C1.48842 9.89885 1.376 9.82458 1.28151 9.73039C1.18702 9.6362 1.11239 9.52402 1.06204 9.40047C1.01169 9.27692 0.986635 9.14453 0.988365 9.01113V6.99033C0.986637 6.8569 1.01169 6.72448 1.06203 6.60091C1.11238 6.47733 1.187 6.36511 1.28148 6.27088C1.37596 6.17665 1.48838 6.10232 1.61209 6.0523C1.73579 6.00228 1.86828 5.97758 2.0017 5.97966H5.9809V2.00046C5.97918 1.86742 6.0041 1.73538 6.05419 1.61212C6.10428 1.48886 6.17852 1.37687 6.27255 1.28274C6.36658 1.18861 6.4785 1.11425 6.60171 1.06403C6.72491 1.01381 6.85692 0.988748 6.98996 0.990325H9.01076C9.14394 0.988533 9.27612 1.01343 9.39951 1.06356C9.52291 1.11368 9.63501 1.18801 9.72922 1.28216C9.82342 1.37631 9.89781 1.48838 9.94799 1.61175C9.99818 1.73511 10.0232 1.86728 10.0214 2.00046V5.97966H14.0006C14.1339 5.97779 14.2662 6.00266 14.3897 6.05278C14.5132 6.1029 14.6254 6.17727 14.7196 6.27149C14.8139 6.3657 14.8883 6.47786 14.9385 6.60132C14.9887 6.72479 15.0136 6.85706 15.0118 6.99033V9.01113Z" fill="white"/>
</svg>
