<svg xmlns="http://www.w3.org/2000/svg" width="55.95" height="64" viewBox="0 0 55.95 64">
  <g id="attached-cv-icon" transform="translate(-1493 118)">
    <path id="Subtraction_1" data-name="Subtraction 1" d="M22.6,60.549H6.054A6.061,6.061,0,0,1,0,54.495V6.054A6.061,6.061,0,0,1,6.054,0H30.276L48.441,18.165V27.01a21.077,21.077,0,0,0-6.056-2.921v-2.9H27.247V6.054H6.054V54.495H17.69A21.185,21.185,0,0,0,22.6,60.546ZM15.521,48.441H12.111V42.384h3.121c-.062.659-.095,1.338-.095,2.018a21.366,21.366,0,0,0,.384,4.036ZM16.729,36.33H12.111V30.276h8.422a21.137,21.137,0,0,0-3.8,6.053Z" transform="translate(1493 -118)" fill="#393939"/>
    <path id="Path_10752" data-name="Path 10752" d="M92.511,21.241a1.993,1.993,0,0,0-2.953-.167,2.121,2.121,0,0,0-.08,3.044l2.562,2.7c2.584,2.721,6.563,3.145,9.277.565A6.535,6.535,0,0,0,101.331,18l-4.323-4.555a10.478,10.478,0,0,0-14.792-.38l-.181.17a10.474,10.474,0,0,0-.38,14.792L91.739,38.652a10.473,10.473,0,0,0,14.788.377l.181-.17a10.371,10.371,0,0,0,2.268-11.926c-.5-1.1-1.468-2.3-2.9-1.562a2.166,2.166,0,0,0-.888,3c.877,2.3.533,5.653-1.355,7.447l-.188.17a6.278,6.278,0,0,1-8.871-.225L84.688,25.14a6.274,6.274,0,0,1,.228-8.867l.181-.181a6.293,6.293,0,0,1,8.878.228l4.319,4.551a2.362,2.362,0,0,1,.141,3.472c-1.044.986-2.366.631-3.363-.417Z" transform="translate(1439 -95.902)" fill="#393939"/>
  </g>
</svg>
