<svg width="24" height="24" viewBox="0 0 24 24" fill="none" xmlns="http://www.w3.org/2000/svg">
<g clip-path="url(#clip0_16667_6788)">
<path d="M10.3209 4C8.57556 4 7.16044 5.592 7.16044 7.5555C7.16044 9.519 8.57556 11.111 10.3209 11.111C12.0662 11.111 13.4813 9.519 13.4813 7.5555C13.4813 5.592 12.0662 4 10.3209 4ZM16.2471 12C14.2836 12 12.6916 13.791 12.6916 16C12.6916 18.209 14.2836 20 16.2471 20C18.2107 20 19.8027 18.209 19.8027 16C19.8027 15.995 19.8027 15.989 19.8027 15.9835C19.8027 13.7835 18.2173 12 16.2618 12C16.2564 12 16.2516 12 16.2462 12H16.2471ZM10.3209 12.889C6.82844 12.889 4 14.4805 4 16.4445V18.2225H11.5062C11.2556 17.568 11.1098 16.806 11.1098 16.006C11.1098 14.8965 11.3898 13.861 11.8747 12.9835L11.8622 13.008C11.4013 12.935 10.8667 12.892 10.3236 12.8895L10.3209 12.889ZM16.2471 13.3335C16.248 13.3335 16.2493 13.3335 16.2502 13.3335C17.5578 13.3335 18.6173 14.526 18.6173 15.9965C18.6173 15.998 18.6173 15.999 18.6173 16.0005C18.6173 16.0095 18.6173 16.02 18.6173 16.03C18.6173 16.513 18.4938 16.9635 18.28 17.3435L18.2853 17.3335L15.0618 13.707C15.3907 13.4725 15.7911 13.3335 16.2204 13.3335C16.2298 13.3335 16.2391 13.3335 16.2484 13.3335H16.2471ZM14.2084 14.6665L17.432 18.293C17.1031 18.5275 16.7027 18.6665 16.2733 18.6665C16.264 18.6665 16.2547 18.6665 16.2453 18.6665H16.2467C16.2458 18.6665 16.2444 18.6665 16.2436 18.6665C14.936 18.6665 13.8764 17.474 13.8764 16.0035C13.8764 16.002 13.8764 16.001 13.8764 15.9995C13.8764 15.9905 13.8764 15.98 13.8764 15.97C13.8764 15.487 14 15.0365 14.2138 14.6565L14.2084 14.6665Z" fill="#004E8C"/>
</g>
<defs>
<clipPath id="clip0_16667_6788">
<rect width="16" height="16" fill="white" transform="translate(4 4)"/>
</clipPath>
</defs>
</svg>
