<svg width="10" height="10" viewBox="0 0 10 10" fill="none" xmlns="http://www.w3.org/2000/svg">
<path d="M5 0C4.01107 6.47607e-09 3.04435 0.293259 2.22209 0.842691C1.39983 1.39212 0.758971 2.17305 0.38055 3.08671C0.00212848 4.00038 -0.0968547 5.00574 0.0961177 5.97566C0.28909 6.94558 0.765351 7.83649 1.46467 8.53573C2.16399 9.23497 3.05496 9.71113 4.0249 9.90399C4.99484 10.0969 6.00019 9.99776 6.91381 9.61923C7.82743 9.2407 8.60829 8.59975 9.15763 7.77743C9.70696 6.95511 10.0001 5.98836 10 4.99943C9.99985 3.67344 9.473 2.40182 8.53533 1.46426C7.59767 0.526705 6.32598 -8.68328e-09 5 0ZM6.8883 6.90547C6.84085 6.95293 6.78452 6.99057 6.72252 7.01626C6.66052 7.04194 6.59406 7.05516 6.52695 7.05516C6.45984 7.05516 6.39339 7.04194 6.33139 7.01626C6.26938 6.99057 6.21305 6.95293 6.1656 6.90547L5.02632 5.76791L3.83383 6.95697C3.7884 7.01164 3.73207 7.05623 3.66843 7.08789C3.60479 7.11955 3.53524 7.13758 3.46423 7.14084C3.39323 7.14409 3.32232 7.1325 3.25605 7.1068C3.18978 7.08109 3.1296 7.04185 3.07936 6.99157C3.02912 6.94128 2.98992 6.88107 2.96427 6.81478C2.93862 6.74849 2.92708 6.67758 2.93039 6.60657C2.93371 6.53557 2.9518 6.46604 2.98351 6.40242C3.01522 6.33881 3.05985 6.28251 3.11456 6.23712L4.30362 5.0452L3.19638 3.93797C3.10055 3.84213 3.04671 3.71215 3.04671 3.57662C3.04671 3.44109 3.10055 3.3111 3.19638 3.21527C3.29222 3.11943 3.4222 3.06559 3.55774 3.06559C3.69327 3.06559 3.82325 3.11943 3.91909 3.21527L5.02632 4.3225L6.08206 3.26677C6.17789 3.17093 6.30787 3.11709 6.44341 3.11709C6.57894 3.11709 6.70892 3.17093 6.80476 3.26677C6.9006 3.3626 6.95444 3.49258 6.95444 3.62812C6.95444 3.76365 6.9006 3.89363 6.80476 3.98947L5.74903 5.0452L6.88659 6.1799C6.93444 6.22744 6.9724 6.28399 6.99829 6.34627C7.02418 6.40856 7.03749 6.47535 7.03743 6.5428C7.03738 6.61026 7.02397 6.67703 6.99798 6.73928C6.972 6.80152 6.93394 6.858 6.88602 6.90547H6.8883Z" fill="#3167A8"/>
</svg>
