<svg width="13" height="12" viewBox="0 0 13 12" fill="none" xmlns="http://www.w3.org/2000/svg">
<g clip-path="url(#clip0_9718_10761)">
<path d="M6.5 10.8C9.15087 10.8 11.3 8.65087 11.3 6C11.3 3.34913 9.15087 1.2 6.5 1.2C3.84913 1.2 1.7 3.34913 1.7 6C1.7 8.65087 3.84913 10.8 6.5 10.8ZM6.5 0C9.81387 0 12.5 2.68613 12.5 6C12.5 9.31387 9.81387 12 6.5 12C3.182 12 0.5 9.3 0.5 6C0.5 2.68613 3.18613 0 6.5 0ZM6.8 3V6.15L9.5 7.752L9.05 8.49L5.9 6.6V3H6.8Z" fill="#3167A8"/>
</g>
<defs>
<clipPath id="clip0_9718_10761">
<rect width="12" height="12" fill="white" transform="translate(0.5)"/>
</clipPath>
</defs>
</svg>
