<svg xmlns="http://www.w3.org/2000/svg" width="20" height="20" viewBox="0 0 20 20">
  <path id="comments" d="M10,20a.909.909,0,0,1-.909-.909h0V16.363H5.454a1.818,1.818,0,0,1-1.818-1.818h0V5.454A1.818,1.818,0,0,1,5.454,3.636H18.182A1.818,1.818,0,0,1,20,5.454h0v9.091a1.818,1.818,0,0,1-1.818,1.818H14.454l-3.364,3.372a.951.951,0,0,1-.636.264H10Zm.909-5.454v2.8l2.8-2.8h4.473V5.455H5.454v9.091h5.454ZM1.818,12.727H0V1.818A1.818,1.818,0,0,1,1.818,0H16.364V1.818H1.818V12.727ZM7.273,7.273h9.091V9.091H7.273Zm0,3.637h7.273v1.818H7.273Z" fill="#fff"/>
</svg>
