<svg width="20" height="20" viewBox="0 0 20 20" fill="none" xmlns="http://www.w3.org/2000/svg">
<g clip-path="url(#clip0_12276_6095)">
<path d="M9.75 11.0938C9.71875 11.3125 9.6875 11.5313 9.6875 11.75C9.6875 11.875 9.65625 12 9.65625 12.1562C9.65625 12.2187 9.59375 12.25 9.5625 12.2812C9.5 12.2812 9.46875 12.25 9.4375 12.1875C9.375 12 9.28125 11.8125 9.21875 11.625L9.1875 11.5625L9 12.0625C9 12.0938 8.96875 12.1562 8.9375 12.1875C8.90625 12.25 8.875 12.2812 8.8125 12.2812C8.75 12.2812 8.71875 12.2187 8.71875 12.1562C8.6875 11.9062 8.65625 11.625 8.59375 11.3437C8.59375 11.2812 8.625 11.2187 8.6875 11.2187C8.75 11.2187 8.8125 11.25 8.8125 11.3125C8.8125 11.4063 8.84375 11.5 8.84375 11.5938C8.84375 11.625 8.84375 11.6562 8.875 11.6875C8.90625 11.5937 8.96875 11.4375 8.96875 11.375C8.96875 11.3125 9.03125 11.25 9.03125 11.1875C9.03125 11.125 9.09375 11.0938 9.15625 11.0938C9.21875 11.0938 9.25 11.125 9.28125 11.1875L9.4375 11.5938C9.4375 11.5938 9.4375 11.625 9.46875 11.625C9.5 11.5625 9.5 11.5 9.5 11.4375C9.5 11.3125 9.53125 11.2188 9.53125 11.0938C9.53125 11.0312 9.59375 11 9.65625 11C9.71875 10.9688 9.75 11.0312 9.75 11.0938V11.0938ZM11.5937 10.5C11.3437 10.5 11.0938 10.5 10.8438 10.5C10.5938 10.5 10.4375 10.5 10.25 10.5C10.2187 10.5 10.2188 10.5 10.2188 10.5313C10.2188 10.5938 10.2188 10.6563 10.2188 10.6875C10.2188 10.7188 10.2187 10.7187 10.25 10.7187C10.4062 10.7187 10.5937 10.7187 10.75 10.7187C10.9062 10.7187 11.0937 10.7187 11.25 10.7187C11.3125 10.7187 11.3437 10.75 11.375 10.8125C11.375 10.875 11.375 10.9062 11.3437 10.9375C11.3125 10.9688 11.2812 10.9688 11.25 10.9688C10.9062 10.9688 10.5937 10.9688 10.25 10.9688C10.2187 10.9688 10.2188 10.9688 10.2188 11C10.2188 11.0625 10.2188 11.0938 10.2188 11.1563C10.2188 11.1875 10.2187 11.1875 10.25 11.1875H10.5625C10.8125 11.1875 11.0312 11.1875 11.25 11.1875C11.3125 11.1875 11.3437 11.2187 11.375 11.25C11.4062 11.3125 11.375 11.375 11.3125 11.4062C11.2812 11.4062 11.2812 11.4062 11.25 11.4062H10.2188C10.1875 11.4062 10.1875 11.4063 10.1875 11.4375C10.1875 11.5 10.1875 11.5313 10.1875 11.5938C10.1875 11.625 10.1875 11.625 10.2188 11.625H11.2187C11.2812 11.625 11.3437 11.6875 11.3437 11.75C11.3437 11.8125 11.2812 11.875 11.2187 11.875H10.1875C10.1563 11.875 10.1563 11.875 10.1563 11.9063C10.1563 11.9688 10.1563 12 10.1563 12.0625C10.1563 12.0938 10.1563 12.0938 10.1875 12.0938H11.2187C11.2812 12.0938 11.3437 12.1563 11.3437 12.2188C11.3437 12.2813 11.2812 12.3437 11.2187 12.3125H10.2188C10.1875 12.3125 10.1875 12.3125 10.1875 12.3438C10.1875 12.4063 10.1875 12.4687 10.1875 12.5C10.1875 12.5313 10.1875 12.5313 10.2188 12.5313C10.6563 12.5313 11.0937 12.5313 11.5625 12.5313C11.5937 12.5313 11.5937 12.5313 11.5937 12.5C11.5937 12.1562 11.5937 11.8125 11.5937 11.5C11.5937 11.1875 11.5937 10.8125 11.5937 10.4688C11.625 10.5 11.625 10.5 11.5937 10.5V10.5ZM14 8V14C14 14.5625 13.5625 15 13 15H7C6.4375 15 6 14.5625 6 14V6C6 5.4375 6.4375 5 7 5H11L14 8V8ZM11.875 10.4062C11.875 10.3125 11.8437 10.25 11.75 10.25H10.2812C10.2187 10.25 10.2188 10.3125 10.2188 10.1875C10.2188 10.0625 10.2188 10 10.2188 9.90625V9.875C10.1875 9.8125 10.125 9.78125 10.0625 9.78125L8.625 10.0625L8.25 10.125C8.1875 10.125 8.15625 10.1563 8.125 10.2188V12.875C8.15625 12.9375 8.1875 12.9688 8.25 12.9688L10.0625 13.3125H10.0937C10.1562 13.3125 10.2188 13.25 10.1875 13.1875C10.1875 13.0938 10.1875 12.9688 10.1875 12.875C10.1875 12.8438 10.1875 12.8438 10.2188 12.8438H11.6875C11.6875 12.8438 11.6875 12.8438 11.7187 12.8438C11.7812 12.8438 11.8437 12.7813 11.8437 12.6875C11.875 11.9375 11.875 11.1562 11.875 10.4062V10.4062ZM12.8125 8.25L10.9375 6.375V8.25H12.8125Z" fill="#3167A8"/>
</g>
<rect x="0.5" y="0.5" width="19" height="19" rx="9.5" stroke="#3167A8"/>
<defs>
<clipPath id="clip0_12276_6095">
<rect width="10" height="10" fill="white" transform="translate(5 5)"/>
</clipPath>
</defs>
</svg>
