<svg width="12" height="12" viewBox="0 0 12 12" fill="none" xmlns="http://www.w3.org/2000/svg">
<path d="M1.33346 0C0.593606 0 0 0.593231 0 1.33346V10.6665C0 11.403 0.596981 12 1.33346 12H10.6665C11.403 12 12 11.403 12 10.6665V6.00019H10.6665V10.6665H1.33346V1.33346H5.99981V0H1.33346V0ZM9.85319 0.666729C9.73995 0.666729 9.61995 0.713228 9.53333 0.800225L8.71998 1.60682L10.3864 3.27327L11.1998 2.46667C11.373 2.29343 11.373 2.00019 11.1998 1.83332L10.1663 0.79985C10.0797 0.713228 9.96644 0.666354 9.85282 0.666354L9.85319 0.666729ZM8.24637 2.08006L3.33327 6.99991V8.66635H4.99972L9.91282 3.74651L8.24637 2.08006Z" fill="#263238"/>
</svg>
