<svg width="16" height="16" viewBox="0 0 16 16" fill="none" xmlns="http://www.w3.org/2000/svg">
<path d="M7.99227 13.0453H13.1193C13.2354 13.047 13.3508 13.0254 13.4585 12.9818C13.5662 12.9381 13.664 12.8733 13.7461 12.7911C13.8283 12.709 13.8931 12.6112 13.9368 12.5035C13.9804 12.3958 14.002 12.2805 14.0003 12.1643C13.9843 10.8503 14.0003 9.52128 14.0003 8.20728C14.0003 8.06328 14.0003 8.04728 13.8563 8.07928C12.4445 8.394 11.0075 8.58175 9.56227 8.64028C9.45027 8.64028 9.41827 8.68828 9.41827 8.80028V9.48928C9.42373 9.57066 9.41172 9.65227 9.38304 9.72864C9.35437 9.805 9.30969 9.87435 9.25201 9.93203C9.19434 9.98971 9.12499 10.0344 9.04863 10.0631C8.97226 10.0917 8.89065 10.1037 8.80927 10.0983H7.23927C7.15491 10.1076 7.06953 10.0979 6.98944 10.0698C6.90935 10.0417 6.8366 9.99597 6.77659 9.93596C6.71657 9.87594 6.67082 9.80319 6.64272 9.7231C6.61463 9.64302 6.6049 9.55764 6.61427 9.47328V8.77328C6.61427 8.67328 6.58227 8.62928 6.48627 8.62928L5.79726 8.58128C4.57094 8.48555 3.35121 8.3186 2.14426 8.08128C2.00026 8.04928 2.00027 8.04928 2.00027 8.19328V12.2143C2.00024 12.331 2.02765 12.4461 2.08027 12.5503C2.15443 12.7016 2.27137 12.8279 2.4166 12.9134C2.56183 12.9989 2.72896 13.0399 2.89727 13.0313C4.59627 13.0453 6.29427 13.0453 7.99227 13.0453ZM8.00827 8.67128C7.75227 8.67128 7.49527 8.67128 7.22327 8.65528C7.12327 8.65528 7.07927 8.68728 7.07927 8.78328V9.44028C7.07927 9.56828 7.11127 9.60028 7.23927 9.60028H8.74527C8.85727 9.60028 8.90527 9.55228 8.90527 9.44028V8.79928C8.90527 8.69928 8.87326 8.65528 8.76126 8.65528C8.52127 8.67128 8.26427 8.67128 8.00827 8.67128ZM11.5813 4.49028H9.96326C9.85126 4.49028 9.81927 4.45828 9.81927 4.34628V3.75328C9.82252 3.65487 9.80579 3.55682 9.77011 3.46505C9.73443 3.37328 9.68052 3.28968 9.61165 3.21931C9.54278 3.14894 9.46036 3.09326 9.36938 3.05562C9.27839 3.01797 9.18073 2.99915 9.08227 3.00028H6.91927C6.81963 2.99752 6.72048 3.01511 6.62788 3.05198C6.53527 3.08884 6.45116 3.14421 6.38068 3.21469C6.3102 3.28517 6.25483 3.36928 6.21796 3.46189C6.1811 3.55449 6.16351 3.65364 6.16627 3.75328V4.33028C6.16627 4.44228 6.11827 4.47428 6.02227 4.47428H2.91327C2.79322 4.4696 2.67348 4.48957 2.56145 4.53297C2.44942 4.57637 2.34748 4.64228 2.26192 4.72662C2.17637 4.81096 2.109 4.91195 2.064 5.02334C2.019 5.13474 1.99731 5.25418 2.00027 5.37428C2.03227 6.03128 2.00027 6.68828 2.00027 7.32928C2.00027 7.55328 2.00027 7.53728 2.22427 7.58528C2.92427 7.69728 3.63427 7.77728 4.33927 7.84128C5.28427 7.94128 6.22927 7.98528 7.17527 8.01728C8.70444 8.06002 10.2348 8.00658 11.7573 7.85728C12.4573 7.77728 13.1673 7.69728 13.8573 7.56928C13.8787 7.56827 13.8996 7.56276 13.9188 7.55312C13.938 7.54348 13.9549 7.52993 13.9684 7.51333C13.982 7.49674 13.992 7.47748 13.9976 7.45679C14.0033 7.43611 14.0045 7.41447 14.0013 7.39328V5.23028C14.0048 5.1355 13.9827 5.04154 13.9373 4.95828C13.8683 4.80652 13.7549 4.67928 13.6121 4.59339C13.4692 4.5075 13.3036 4.46701 13.1373 4.47728C12.6223 4.49028 12.0933 4.49028 11.5813 4.49028ZM7.98127 4.49028H6.90327C6.79127 4.49028 6.75927 4.45828 6.75927 4.34628V3.84628C6.75927 3.68628 6.80727 3.63828 6.96727 3.63828H9.00227C9.14627 3.63828 9.19427 3.68628 9.19427 3.83028V4.34328C9.19427 4.48728 9.17827 4.48728 9.05027 4.50328C8.69727 4.49028 8.34426 4.49028 7.97626 4.49028H7.98127Z" fill="#AAAAAA"/>
</svg>
