<svg width="32" height="32" viewBox="0 0 32 32" fill="none" xmlns="http://www.w3.org/2000/svg">
<g clip-path="url(#clip0_13024_847)">
<path d="M8.80026 6.6C8.90026 8.20001 7.70026 9.70001 6.20026 9.80001C4.70026 9.80001 3.40026 8.60001 3.30026 6.90001C3.20026 5.30001 4.40026 3.90001 5.90026 3.80001C7.40026 3.70001 8.70026 4.9 8.80026 6.6Z" fill="black"/>
<path d="M11.6002 24.8C11.2002 24.8 7.6002 24.8 6.9002 24.8C6.2002 24.8 4.3002 24.3 4.2002 21.8C4.1002 19.3 3.7002 16 3.7002 14.1C3.7002 12.2 4.6002 11 6.3002 10.8C8.0002 10.7 8.9002 12 9.1002 14C9.2002 16 9.4002 20.3 9.4002 20.3C9.4002 20.3 11.3002 20.5 11.7002 20.5C12.1002 20.5 12.0002 21 12.0002 21.2C12.0002 21.4 12.0002 23.6 12.0002 24C12.0002 24.5 12.1002 24.8 11.6002 24.8Z" fill="black"/>
<path d="M23.2002 6.6C23.1002 8.20001 24.3002 9.70001 25.8002 9.80001C27.3002 9.90001 28.6002 8.60001 28.7002 7.00001C28.8002 5.4 27.6002 3.90001 26.1002 3.80001C24.6002 3.70001 23.3002 4.9 23.2002 6.6Z" fill="black"/>
<path d="M20.4004 24.8C20.8004 24.8 24.4004 24.8 25.1004 24.8C25.8004 24.8 27.7004 24.3 27.8004 21.8C27.9004 19.3 28.3004 16 28.3004 14.1C28.3004 12.2 27.4004 11 25.7004 10.8C24.0004 10.7 23.1004 12 22.9004 14C22.8004 16 22.6004 20.3 22.6004 20.3C22.6004 20.3 20.7004 20.5 20.3004 20.5C19.9004 20.5 20.0004 21 20.0004 21.2C20.0004 21.4 20.0004 23.6 20.0004 24C20.0004 24.5 19.9004 24.8 20.4004 24.8Z" fill="black"/>
<path d="M20.5002 15.7H11.6002C11.4002 15.7 11.2002 15.9 11.2002 16.1V18.3C11.2002 18.5 11.4002 18.7 11.6002 18.7H13.6002V27.6H18.4002V18.7H20.4002C20.6002 18.7 20.8002 18.5 20.8002 18.3V16.1C20.8002 15.9 20.7002 15.7 20.5002 15.7Z" fill="black"/>
<path d="M11.2001 28.2H6.40012C4.20012 28.2 1.70012 26.5 1.20012 23.7C0.700117 21.3 0.000117203 16.3 0.000117203 16.1C-0.0998828 15.6 0.200117 15.1 0.700117 15.1C1.20012 15 1.60012 15.4 1.70012 15.9C1.70012 16 2.40012 21.1 2.80012 23.4C3.20012 25.4 5.10012 26.5 6.30012 26.5H11.2001C11.7001 26.5 12.0001 26.9 12.0001 27.4C12.1001 27.8 11.7001 28.2 11.2001 28.2Z" fill="black"/>
<path d="M25.5999 28.2H20.6999C20.1999 28.2 19.8999 27.8 19.8999 27.3C19.8999 26.8 20.2999 26.4 20.6999 26.4H25.5999C26.7999 26.4 28.7999 25.3 29.0999 23.3C29.4999 20.9 30.1999 15.8 30.1999 15.8C30.2999 15.3 30.6999 15 31.1999 15C31.6999 15.1 31.9999 15.5 31.8999 16C31.8999 16.2 31.1999 21.2 30.6999 23.6C30.2999 26.5 27.7999 28.2 25.5999 28.2Z" fill="black"/>
</g>
<defs>
<clipPath id="clip0_13024_847">
<rect width="32" height="32" fill="white"/>
</clipPath>
</defs>
</svg>
