<svg width="8" height="8" viewBox="0 0 8 8" fill="none" xmlns="http://www.w3.org/2000/svg">
<path d="M3.63639 4.87791L3.63639 7.63636C3.63639 7.70828 3.65772 7.77859 3.69768 7.83839C3.73764 7.89819 3.79443 7.9448 3.86088 7.97232C3.92733 7.99984 4.00044 8.00704 4.07098 7.99301C4.14152 7.97898 4.20632 7.94434 4.25717 7.89348L7.89353 4.25712C7.9617 4.18892 8 4.09643 8 4C8 3.90357 7.9617 3.81108 7.89353 3.74288L4.25717 0.106517C4.20632 0.0556585 4.14152 0.0210224 4.07098 0.00698913C4.00044 -0.00704413 3.92733 0.000155684 3.86088 0.0276781C3.79443 0.0552005 3.73764 0.101809 3.69768 0.16161C3.65772 0.221411 3.63639 0.291719 3.63639 0.363641L3.63639 3.12209L0.620815 0.106517C0.56996 0.0556584 0.505166 0.0210222 0.434626 0.00698897C0.364085 -0.00704429 0.290968 0.000155525 0.22452 0.0276779C0.158072 0.0552004 0.101278 0.101809 0.0613193 0.16161C0.0213609 0.221411 3.27084e-05 0.291719 3.28859e-05 0.363641L3.2568e-05 7.63636C3.23842e-05 7.70828 0.0213606 7.77859 0.061319 7.83839C0.101277 7.89819 0.158072 7.9448 0.22452 7.97232C0.290968 7.99984 0.364085 8.00704 0.434625 7.99301C0.505165 7.97898 0.56996 7.94434 0.620815 7.89348L3.63639 4.87791Z" fill="#9BABBD"/>
</svg>
