<svg xmlns="http://www.w3.org/2000/svg" width="12.8" height="16" viewBox="0 0 12.8 16">
  <path id="file-paperclip" d="M8,0l4.8,4.8v9.6A1.6,1.6,0,0,1,11.2,16H1.6A1.6,1.6,0,0,1,0,14.4H0V1.6A1.6,1.6,0,0,1,1.6,0H8Zm3.2,14.4V5.6h-4v-4H1.6V14.4h9.6ZM5.99,8.994a.439.439,0,0,0-.652-.038h0a.469.469,0,0,0-.018.673h0l.565.6a1.419,1.419,0,0,0,2.049.124h0a1.443,1.443,0,0,0,0-2.071h0L6.979,7.274a2.314,2.314,0,0,0-3.267-.083h0l-.041.037a2.313,2.313,0,0,0-.083,3.267h0L5.814,12.84a2.312,2.312,0,0,0,3.266.082h0l.04-.038a2.291,2.291,0,0,0,.494-2.646l.006.014c-.106-.243-.32-.507-.64-.344a.479.479,0,0,0-.26.425.473.473,0,0,0,.065.241v0a1.59,1.59,0,0,1,.106.573,1.609,1.609,0,0,1-.406,1.071l0,0-.042.038a1.387,1.387,0,0,1-1.958-.049L4.258,9.856A1.387,1.387,0,0,1,4.308,7.9h0l.04-.04a1.387,1.387,0,0,1,1.96.049h0l.953,1a.521.521,0,0,1,.031.767h0a.5.5,0,0,1-.746-.09v0Z" fill="#393939"/>
</svg>
