<svg width="12" height="16" viewBox="0 0 12 16" fill="none" xmlns="http://www.w3.org/2000/svg">
<g clip-path="url(#clip0_1255_13546)">
<path d="M5.09134 5.81795C5.09134 5.62501 5.16799 5.43997 5.30442 5.30353C5.44086 5.1671 5.6259 5.09045 5.81884 5.09045C6.01179 5.09045 6.19683 5.1671 6.33326 5.30353C6.4697 5.43997 6.54634 5.62501 6.54634 5.81795V9.06895L7.42634 9.16395L11.0193 10.757C11.2062 10.8435 11.364 10.9822 11.4737 11.1565C11.5833 11.3308 11.6402 11.5331 11.6373 11.739V14.91C11.6276 15.1963 11.5094 15.4682 11.3066 15.6706C11.1038 15.873 10.8317 15.9907 10.5453 16H5.81834C5.6821 16.001 5.54713 15.9737 5.42199 15.9198C5.29684 15.8659 5.18425 15.7866 5.09134 15.687L1.52734 12.633L2.06534 12.073C2.13336 11.999 2.21609 11.94 2.30822 11.8999C2.40035 11.8598 2.49985 11.8394 2.60034 11.84H2.76034L5.08734 13.091V5.81795" fill="#393939"/>
<path d="M2.182 7L4.364 4.818L2.909 4.818L2.909 0.455L1.455 0.455L1.455 4.818L-9.53783e-08 4.818L2.182 7Z" fill="#393939"/>
</g>
<defs>
<clipPath id="clip0_1255_13546">
<rect width="11.636" height="16" fill="white"/>
</clipPath>
</defs>
</svg>
