<svg width="20" height="20" viewBox="0 0 20 20" fill="none" xmlns="http://www.w3.org/2000/svg">
<g clip-path="url(#clip0_9718_9239)">
<path d="M14.5767 7.99975C14.2909 7.59962 14.2909 7.657 14.2909 7.0855C14.2909 6.57137 14.2909 6.57138 14.2339 6.457C14.1196 6.22825 14.0052 6.11425 13.6054 5.94288C13.2053 5.71413 13.1483 5.65712 12.9196 5.257C12.6908 4.85688 12.5768 4.74287 12.3481 4.6285C12.2337 4.5715 12.1767 4.5715 11.6622 4.5715C11.0907 4.5715 11.1481 4.5715 10.6909 4.34275C10.4052 4.057 10.2338 4 10.0624 4C9.94806 4 9.83369 4 9.77669 4C9.66231 4.057 9.49094 4.11438 9.26256 4.28575C8.86244 4.5145 8.91981 4.5145 8.34831 4.5145C7.89119 4.5145 7.83419 4.5145 7.66244 4.5715C7.43369 4.68587 7.31969 4.80025 7.14831 5.2C6.86256 5.60013 6.80556 5.65713 6.40544 5.88588C6.00531 6.11463 5.83394 6.22863 5.77694 6.4C5.71994 6.57138 5.71994 6.57137 5.71994 7.08587C5.71994 7.65737 5.71994 7.65737 5.49119 8.00012C5.20544 8.34288 5.14844 8.51425 5.14844 8.743C5.14844 8.97175 5.20544 9.08575 5.43419 9.42887C5.71994 9.829 5.71994 9.77163 5.71994 10.4001C5.71994 10.8573 5.71994 10.8573 5.77694 11.0286C5.89131 11.2574 6.00569 11.3714 6.40544 11.5428C6.80556 11.7715 6.86256 11.8285 7.03394 12.1143C7.26269 12.5714 7.43406 12.7428 7.66244 12.8571C7.77681 12.9141 7.83381 12.9141 8.11956 12.9141H8.46231V14.3429C8.46231 15.7143 8.46231 15.7716 8.51931 15.8286C8.63369 15.943 8.74806 16 8.86206 16C8.97606 16 9.03344 16 9.49056 15.7713L10.0047 15.5425L10.5188 15.7713C10.9759 16 11.0329 16 11.1473 16C11.2617 16 11.3761 15.943 11.4331 15.8286C11.4901 15.7716 11.4901 15.7143 11.4901 15.1427V14.5142L11.4331 14.4572C11.3761 14.4002 11.2617 14.4002 11.2043 14.4572C11.1469 14.5142 11.1473 14.5142 11.1473 15.0858C11.1473 15.4285 11.1473 15.6573 11.1473 15.6573C11.1473 15.6573 10.9186 15.5429 10.6332 15.3715C10.3474 15.2001 10.0617 15.1427 10.0617 15.1427C10.0047 15.1427 9.77594 15.2571 9.49019 15.4285C9.20444 15.5429 8.97606 15.7143 8.97606 15.7143C8.97606 15.7143 8.97606 15.0858 8.97606 14.3429C8.97606 13.4286 8.97606 12.9715 8.97606 12.9715C9.03306 12.9715 9.14744 13.0285 9.37619 13.2003C9.66194 13.3716 9.89031 13.486 10.0621 13.486C10.2338 13.486 10.4622 13.429 10.5762 13.3146C10.6332 13.2576 10.8049 13.2002 10.9189 13.0859C11.0333 13.0289 11.1477 12.9715 11.1477 12.9715C11.1477 12.9715 11.2047 13.0285 11.2047 13.4286C11.2047 13.8287 11.2047 13.8858 11.2617 13.8858C11.3187 13.9428 11.4331 13.9428 11.5474 13.8858C11.6044 13.8288 11.6044 13.7714 11.6044 13.3716V12.9145H11.9472C12.3473 12.9145 12.4043 12.9145 12.5757 12.8001C12.7471 12.6858 12.8044 12.5714 13.0328 12.1716C13.1472 11.9429 13.2042 11.8289 13.3186 11.7715C13.3756 11.7145 13.5473 11.6001 13.7187 11.5428C14.1188 11.3714 14.2328 11.2 14.3472 11.0286C14.2902 10.8573 14.2902 10.8573 14.2902 10.4001C14.2902 9.82863 14.2902 9.82862 14.5189 9.48588C14.7477 9.20012 14.8047 9.08575 14.8047 8.91437C14.9191 8.57162 14.8047 8.40025 14.5759 8.00012L14.5767 7.99975ZM14.2339 9.25675C14.1196 9.42812 14.0052 9.5995 14.0052 9.65688C13.9482 9.77125 13.9482 9.82825 13.9482 10.2854C13.9482 10.9713 13.9482 10.9713 13.3767 11.1996C12.9196 11.4284 12.8052 11.4854 12.5194 11.9995C12.3481 12.3422 12.2337 12.4566 12.1193 12.4566C12.0623 12.4566 11.8336 12.4566 11.5478 12.5136H11.0337L10.8623 12.5706C10.7479 12.6276 10.6336 12.685 10.5196 12.742C10.0054 13.0848 9.89106 13.0848 9.37656 12.742C8.97644 12.5706 9.03381 12.5706 8.40531 12.5706C8.06256 12.5706 7.89119 12.5706 7.83381 12.5136C7.71944 12.4566 7.54806 12.3422 7.43369 11.9995C7.20494 11.5424 7.09094 11.428 6.57644 11.1423C6.29069 11.0279 6.17631 10.8565 6.11931 10.7421C6.11931 10.6851 6.11931 10.4564 6.11931 10.1706C6.11931 9.6565 6.11931 9.59912 5.89056 9.25637C5.43344 8.74225 5.43344 8.68487 5.71919 8.22775C6.06194 7.77062 6.06194 7.65625 6.06194 7.08475C6.06194 6.62762 6.06194 6.57062 6.23331 6.39887C6.23331 6.39887 6.46206 6.2845 6.63344 6.17013C7.09056 5.94138 7.14756 5.82738 7.37631 5.42725C7.54769 5.0845 7.66206 4.91313 7.83344 4.85575C7.89044 4.85575 8.11919 4.79875 8.40494 4.79875H8.91906L9.09044 4.74175C9.20481 4.68475 9.31919 4.62737 9.43319 4.57037C9.83331 4.28462 10.0047 4.28462 10.2904 4.399C10.3474 4.456 10.5192 4.51337 10.5762 4.57037C10.6906 4.62737 10.8049 4.74175 10.9189 4.74175L11.0903 4.79875H11.6044C11.8902 4.79875 12.1759 4.79875 12.1759 4.85575C12.2903 4.91275 12.4047 5.02713 12.5761 5.36988C12.8048 5.827 12.9188 5.94138 13.3759 6.11275C13.9474 6.3985 13.9474 6.3985 13.9474 7.084C13.9474 7.59812 13.9474 7.59812 14.0044 7.7125C14.0614 7.7695 14.1188 7.99825 14.2332 8.11263C14.4619 8.39838 14.4619 8.51275 14.4619 8.62675C14.4619 8.8555 14.4619 8.9125 14.2332 9.25525L14.2339 9.25675Z" fill="#3167A8"/>
<path d="M13.4908 8.74332C13.4908 10.6052 11.93 12.1146 10.0052 12.1146C8.08028 12.1146 6.51953 10.6052 6.51953 8.74332C6.51953 6.88145 8.08028 5.37207 10.0052 5.37207C11.93 5.37207 13.4908 6.88145 13.4908 8.74332Z" fill="#3167A8"/>
</g>
<defs>
<clipPath id="clip0_9718_9239">
<rect width="12" height="12" fill="white" transform="translate(4 4)"/>
</clipPath>
</defs>
</svg>
