<svg width="6" height="6" viewBox="0 0 6 6" fill="none" xmlns="http://www.w3.org/2000/svg">
<path d="M2.4609 1.80419L1.071 5.3565L2.18622 4.94473L2.71807 5.99991L4.10797 2.4476L2.4609 1.80419Z" fill="#B32D7D"/>
<path d="M3.52497 1.80427L4.91487 5.35658L3.79964 4.94481L3.2678 6L1.8774 2.44769L3.52497 1.80427Z" fill="#D03A94"/>
<path d="M5.03494 1.9505C5.01275 1.93433 4.99402 1.9139 4.97982 1.89041C4.96562 1.86692 4.95624 1.84083 4.95224 1.81368C4.94823 1.78652 4.94968 1.75884 4.95649 1.73225C4.9633 1.70566 4.97534 1.6807 4.99191 1.65881C5.01225 1.63214 5.02589 1.60097 5.03166 1.56793C5.03743 1.53488 5.03516 1.50093 5.02506 1.46895C5.01495 1.43696 4.9973 1.40788 4.97359 1.38415C4.94988 1.36042 4.92082 1.34274 4.88884 1.3326C4.83543 1.31538 4.79102 1.27771 4.76533 1.22782C4.73963 1.17794 4.73475 1.1199 4.75175 1.06642C4.76163 1.03441 4.76379 1.00051 4.75805 0.967507C4.75231 0.934499 4.73883 0.903321 4.71872 0.876524C4.69861 0.849728 4.67244 0.828075 4.64235 0.813339C4.61227 0.798604 4.57912 0.791204 4.54562 0.791746C4.51736 0.792013 4.48933 0.786644 4.46316 0.775952C4.437 0.76526 4.41323 0.74946 4.39325 0.729475C4.37326 0.709491 4.35746 0.685723 4.34677 0.659561C4.33608 0.633399 4.33071 0.605368 4.33098 0.577107C4.33152 0.543608 4.32412 0.510457 4.30938 0.480369C4.29465 0.45028 4.273 0.42411 4.2462 0.404C4.2194 0.383891 4.18822 0.370414 4.15522 0.364673C4.12221 0.358932 4.08831 0.361091 4.0563 0.370973C4.00282 0.387972 3.94479 0.38309 3.8949 0.357397C3.84502 0.331704 3.80734 0.287292 3.79013 0.233884C3.77959 0.202322 3.76168 0.173729 3.73787 0.150481C3.71407 0.127233 3.68506 0.110001 3.65325 0.100215C3.62145 0.0904298 3.58777 0.0883738 3.55502 0.0942182C3.52226 0.100063 3.49137 0.113639 3.46491 0.133819C3.41766 0.16444 3.36066 0.176286 3.30511 0.167029C3.24957 0.157771 3.19949 0.128079 3.16472 0.0837859C3.14437 0.0576923 3.11833 0.0365837 3.08859 0.022065C3.05886 0.00754626 3.0262 0 2.99311 0C2.96002 0 2.92736 0.00754626 2.89762 0.022065C2.86788 0.0365837 2.84185 0.0576923 2.8215 0.0837859C2.80533 0.105966 2.7849 0.124703 2.76141 0.138902C2.73792 0.1531 2.71183 0.162476 2.68468 0.166482C2.65752 0.170488 2.62984 0.169043 2.60325 0.162232C2.57666 0.155421 2.55169 0.143381 2.52981 0.126814C2.50314 0.106467 2.47197 0.0928338 2.43892 0.0870643C2.40588 0.0812949 2.37193 0.0835588 2.33995 0.0936647C2.30796 0.103771 2.27887 0.121422 2.25514 0.14513C2.23141 0.168837 2.21373 0.197905 2.2036 0.229881C2.18638 0.283289 2.14871 0.327701 2.09882 0.353394C2.04893 0.379088 1.9909 0.383969 1.93742 0.36697C1.90541 0.357088 1.87151 0.35493 1.8385 0.360671C1.8055 0.366411 1.77432 0.379888 1.74752 0.399998C1.72072 0.420107 1.69907 0.446278 1.68434 0.476366C1.6696 0.506455 1.6622 0.539605 1.66274 0.573104C1.66301 0.601365 1.65764 0.629396 1.64695 0.655558C1.63626 0.68172 1.62046 0.705488 1.60047 0.725473C1.58049 0.745457 1.55672 0.761257 1.53056 0.771949C1.5044 0.782641 1.47637 0.788011 1.4481 0.787743C1.41461 0.787201 1.38145 0.794601 1.35137 0.809337C1.32128 0.824072 1.29511 0.845725 1.275 0.872522C1.25489 0.899318 1.24141 0.930496 1.23567 0.963504C1.22993 0.996512 1.23209 1.03041 1.24197 1.06242C1.25897 1.1159 1.25409 1.17393 1.22839 1.22382C1.2027 1.27371 1.15829 1.31138 1.10488 1.3286C1.07291 1.33873 1.04384 1.35641 1.02013 1.38014C0.996422 1.40387 0.97877 1.43296 0.968664 1.46495C0.958559 1.49693 0.956295 1.53088 0.962065 1.56392C0.967834 1.59697 0.981467 1.62814 1.00181 1.65481C1.03325 1.69972 1.04631 1.75497 1.03831 1.80921C1.03031 1.86345 1.00186 1.91257 0.958786 1.9465C0.932693 1.96685 0.911584 1.99288 0.897065 2.02262C0.882546 2.05236 0.875 2.08502 0.875 2.11811C0.875 2.1512 0.882546 2.18386 0.897065 2.21359C0.911584 2.24333 0.932693 2.26937 0.958786 2.28972C0.980967 2.30589 0.999703 2.32632 1.0139 2.34981C1.0281 2.3733 1.03748 2.39938 1.04148 2.42654C1.04549 2.45369 1.04404 2.48138 1.03723 2.50797C1.03042 2.53456 1.01838 2.55952 1.00181 2.58141C0.981467 2.60808 0.967834 2.63925 0.962065 2.67229C0.956295 2.70534 0.958559 2.73929 0.968664 2.77127C0.97877 2.80326 0.996422 2.83234 1.02013 2.85607C1.04384 2.8798 1.07291 2.89748 1.10488 2.90762C1.15829 2.92484 1.2027 2.96251 1.22839 3.0124C1.25409 3.06228 1.25897 3.12032 1.24197 3.17379C1.23209 3.20581 1.22993 3.2397 1.23567 3.27271C1.24141 3.30572 1.25489 3.3369 1.275 3.36369C1.29511 3.39049 1.32128 3.41214 1.35137 3.42688C1.38145 3.44162 1.41461 3.44902 1.4481 3.44847C1.47637 3.44821 1.5044 3.45358 1.53056 3.46427C1.55672 3.47496 1.58049 3.49076 1.60047 3.51074C1.62046 3.53073 1.63626 3.5545 1.64695 3.58066C1.65764 3.60682 1.66301 3.63485 1.66274 3.66311C1.6622 3.69661 1.6696 3.72976 1.68434 3.75985C1.69907 3.78994 1.72072 3.81611 1.74752 3.83622C1.77432 3.85633 1.8055 3.86981 1.8385 3.87555C1.87151 3.88129 1.90541 3.87913 1.93742 3.86925C1.9909 3.85225 2.04893 3.85713 2.09882 3.88282C2.14871 3.90852 2.18638 3.95293 2.2036 4.00634C2.21373 4.03831 2.23141 4.06738 2.25514 4.09109C2.27887 4.11479 2.30796 4.13245 2.33995 4.14255C2.37193 4.15266 2.40588 4.15492 2.43892 4.14915C2.47197 4.14338 2.50314 4.12975 2.52981 4.1094C2.57472 4.07796 2.62997 4.06491 2.68421 4.07291C2.73845 4.08091 2.78757 4.10936 2.8215 4.15243C2.84185 4.17852 2.86788 4.19963 2.89762 4.21415C2.92736 4.22867 2.96002 4.23622 2.99311 4.23622C3.0262 4.23622 3.05886 4.22867 3.08859 4.21415C3.11833 4.19963 3.14437 4.17852 3.16472 4.15243C3.18089 4.13025 3.20132 4.11151 3.22481 4.09731C3.2483 4.08312 3.27438 4.07374 3.30154 4.06973C3.32869 4.06573 3.35638 4.06717 3.38297 4.07398C3.40956 4.0808 3.43452 4.09284 3.45641 4.1094C3.48308 4.12975 3.51425 4.14338 3.54729 4.14915C3.58034 4.15492 3.61429 4.15266 3.64627 4.14255C3.67826 4.13245 3.70734 4.11479 3.73107 4.09109C3.7548 4.06738 3.77248 4.03831 3.78262 4.00634C3.79984 3.95293 3.83751 3.90852 3.8874 3.88282C3.93728 3.85713 3.99532 3.85225 4.04879 3.86925C4.08081 3.87913 4.1147 3.88129 4.14771 3.87555C4.18072 3.86981 4.2119 3.85633 4.23869 3.83622C4.26549 3.81611 4.28714 3.78994 4.30188 3.75985C4.31662 3.72976 4.32401 3.69661 4.32347 3.66311C4.32321 3.63485 4.32858 3.60682 4.33927 3.58066C4.34996 3.5545 4.36576 3.53073 4.38574 3.51074C4.40573 3.49076 4.4295 3.47496 4.45566 3.46427C4.48182 3.45358 4.50985 3.44821 4.53811 3.44847C4.57161 3.44902 4.60476 3.44162 4.63485 3.42688C4.66494 3.41214 4.69111 3.39049 4.71122 3.36369C4.73133 3.3369 4.74481 3.30572 4.75055 3.27271C4.75629 3.2397 4.75413 3.20581 4.74425 3.17379C4.72725 3.12032 4.73213 3.06228 4.75782 3.0124C4.78351 2.96251 4.82793 2.92484 4.88134 2.90762C4.91331 2.89748 4.94238 2.8798 4.96609 2.85607C4.98979 2.83234 5.00745 2.80326 5.01755 2.77127C5.02766 2.73929 5.02992 2.70534 5.02415 2.67229C5.01838 2.63925 5.00475 2.60808 4.9844 2.58141C4.95296 2.53649 4.93991 2.48125 4.94791 2.42701C4.95591 2.37277 4.98436 2.32365 5.02743 2.28972C5.05561 2.27161 5.07892 2.24685 5.0953 2.21762C5.11167 2.1884 5.12063 2.1556 5.12137 2.1221C5.12211 2.08861 5.11462 2.05545 5.09955 2.02553C5.08448 1.99561 5.06229 1.96984 5.03494 1.9505Z" fill="#CCA95A"/>
<path d="M2.99315 3.90667C3.97879 3.90667 4.77781 3.10765 4.77781 2.12201C4.77781 1.13637 3.97879 0.337353 2.99315 0.337353C2.00751 0.337353 1.20849 1.13637 1.20849 2.12201C1.20849 3.10765 2.00751 3.90667 2.99315 3.90667Z" fill="#F4CC6A"/>
<path d="M2.99265 3.6406C2.69232 3.6406 2.39874 3.55155 2.14902 3.38469C1.89931 3.21784 1.70468 2.98068 1.58975 2.70322C1.47482 2.42575 1.44475 2.12043 1.50334 1.82587C1.56193 1.53132 1.70655 1.26075 1.91892 1.04838C2.13128 0.83602 2.40185 0.691398 2.69641 0.632807C2.99097 0.574216 3.29628 0.604287 3.57375 0.719217C3.85122 0.834148 4.08837 1.02878 4.25523 1.27849C4.42208 1.5282 4.51114 1.82179 4.51114 2.12212C4.51147 2.32162 4.47241 2.51923 4.39622 2.70361C4.32003 2.88799 4.20819 3.05551 4.06712 3.19658C3.92605 3.33765 3.75852 3.44949 3.57414 3.52569C3.38976 3.60188 3.19215 3.64093 2.99265 3.6406ZM2.99265 0.723207C2.71558 0.723207 2.44472 0.805369 2.21435 0.959303C1.98397 1.11324 1.80441 1.33203 1.69838 1.58801C1.59234 1.844 1.5646 2.12567 1.61866 2.39742C1.67271 2.66917 1.80614 2.91879 2.00206 3.11471C2.19798 3.31063 2.4476 3.44406 2.71935 3.49811C2.9911 3.55216 3.27277 3.52442 3.52875 3.41839C3.78474 3.31236 4.00353 3.1328 4.15746 2.90242C4.3114 2.67204 4.39356 2.40119 4.39356 2.12412C4.39356 1.75257 4.24596 1.39625 3.98324 1.13352C3.72052 0.870803 3.36419 0.723207 2.99265 0.723207Z" fill="#CCA95A"/>
<path d="M3.79096 1.66738H2.20343V1.78746H3.79096V1.66738Z" fill="#CCA95A"/>
<path d="M3.79096 2.06161H2.20343V2.18169H3.79096V2.06161Z" fill="#CCA95A"/>
<path d="M3.79096 2.4564H2.20343V2.57647H3.79096V2.4564Z" fill="#CCA95A"/>
</svg>
