<svg xmlns="http://www.w3.org/2000/svg" width="12.998" height="12.98" viewBox="0 0 12.998 12.98">
  <path id="livevideo_1_" data-name="livevideo (1)" d="M9.622,13.673V9.234h3.291v.751H10.518v.984h2.228v.748H10.518v1.208H13v.748Zm-3,0L5.032,9.234H6l1.123,3.285L8.214,9.234h.951l-1.59,4.438Zm-2.882,0V9.234h.9v4.438ZM0,13.673v-4.4H.9v3.654H3.124v.748ZM3.656,7.734a.406.406,0,0,1-.406-.406h0V6.515A1.491,1.491,0,0,1,4.739,5.026h3.52A1.491,1.491,0,0,1,9.748,6.515v.812a.406.406,0,0,1-.406.406H3.656ZM4.874,2.318A1.627,1.627,0,0,1,6.5.693h0A1.627,1.627,0,0,1,8.124,2.318h0A1.627,1.627,0,0,1,6.5,3.942h0A1.627,1.627,0,0,1,4.874,2.318h0Z" transform="translate(0 -0.693)" fill="#e20863"/>
</svg>
