<svg xmlns="http://www.w3.org/2000/svg" width="13" height="12.982" viewBox="0 0 13 12.982">
    <g id="Group_6997" data-name="Group 6997" transform="translate(-5082.029 -2473.644)">
        <path id="livevideo_1_" data-name="livevideo (1)"
            d="M9.624,13.675V9.236h3.292v.751h-2.4v.984h2.229v.748H10.52v1.208H13v.748Zm-3,0L5.033,9.236H6l1.124,3.286L8.216,9.236h.951l-1.59,4.439Zm-2.883,0V9.236h.9v4.439ZM0,13.675v-4.4H.9v3.655H3.125v.748Zm3.656-5.94a.406.406,0,0,1-.406-.406h0V6.516a1.491,1.491,0,0,1,1.49-1.49H8.261A1.491,1.491,0,0,1,9.75,6.516v.813a.406.406,0,0,1-.406.406H3.656ZM4.875,2.318A1.627,1.627,0,0,1,6.5.693h0A1.627,1.627,0,0,1,8.125,2.318h0A1.627,1.627,0,0,1,6.5,3.943h0A1.627,1.627,0,0,1,4.875,2.318h0Z"
            transform="translate(5082.029 2472.951)" fill="#FFFFFF" />
    </g>
</svg>