<svg width="32" height="32" viewBox="0 0 32 32" fill="none" xmlns="http://www.w3.org/2000/svg">
<g clip-path="url(#clip0_13024_764)">
<path d="M15.0998 18.5C11.6998 18.5 8.1998 18.5 4.7998 18.5C4.7998 16.2 5.7998 15 8.0998 14.6C8.2998 14.6 8.4998 14.7 8.6998 14.8C9.5998 15.7 10.4998 15.7 11.3998 14.8C11.4998 14.7 11.6998 14.5 11.8998 14.5C13.7998 14.6 15.1998 16.3 15.0998 18.5Z" fill="black"/>
<path d="M9.99982 8.19998C11.4998 8.19998 12.4998 9.29998 12.1998 10.8C12.0998 11.3 11.9998 11.8 11.8998 12.3C11.5998 13.3 10.7998 13.9 9.89982 13.9C8.99982 13.9 8.19982 13.3 7.99982 12.3C7.89982 11.7 7.69982 11.1 7.69982 10.5C7.49982 9.19998 8.59982 8.19998 9.99982 8.19998Z" fill="black"/>
<path d="M13.4 26.4C13.5 25.3 13.6 24.2 13.8 23.1C14 22.1 14.9 21.2 15.7 20.8C15.9 20.7 16.1 20.6 16.3 20.5C11.6 20.5 7.6 20.5 2.9 20.5C2.6 20.5 2.2 20.5 1.9 20.5C1.8 20.3 1.8 20.2 1.8 20.2C1.8 15.6 1.8 11 1.8 6.49999C1.8 5.89999 2.1 5.69999 2.6 5.69999C9.8 5.69999 17 5.69999 24.1 5.69999C24.7 5.69999 24.9 5.89999 24.9 6.49999C24.9 6.69999 24.9 6.79999 24.9 6.99999C25.5 7.09999 26.1 7.19999 26.6 7.49999C26.6 6.89999 26.6 6.29999 26.6 5.69999C26.6 4.49999 26 3.89999 24.7 3.89999C17.1 3.99999 9.5 3.99999 1.9 3.99999C0.6 3.99999 0 4.59999 0 5.79999C0 11 0 16.3 0 21.5C0 22.8 0.6 23.3 1.9 23.3C4.1 23.3 6.3 23.3 8.5 23.3C8.8 23.3 9.1 23.3 9.6 23.3C9.1 24.5 8.7 25.7 8.2 26.8C8 27.3 8 27.7 8.7 27.7C10.5 27.7 11.5 27.7 13.3 27.7C13.3 27.2 13.3 26.8 13.4 26.4Z" fill="black"/>
<path d="M24.5998 18.8C26.9746 18.8 28.8998 16.6957 28.8998 14.1C28.8998 11.5043 26.9746 9.39999 24.5998 9.39999C22.225 9.39999 20.2998 11.5043 20.2998 14.1C20.2998 16.6957 22.225 18.8 24.5998 18.8Z" fill="black"/>
<path d="M27.8999 20.4H20.8999C18.7999 20.4 17.0999 21.9 17.0999 23.8L16.8999 28H31.9999L31.7999 23.8C31.7999 22 30.0999 20.4 27.8999 20.4Z" fill="black"/>
</g>
<defs>
<clipPath id="clip0_13024_764">
<rect width="32" height="32" fill="white"/>
</clipPath>
</defs>
</svg>
