<svg width="20" height="20" viewBox="0 0 20 20" fill="none" xmlns="http://www.w3.org/2000/svg">
<path d="M10.8125 11.4375C10.4688 11.2188 10.1875 10.875 10.0625 10.4688C10.0625 10.4688 10.4062 9.25 9.875 9.28125C9.34375 9.28125 9.5625 10.2188 9.625 10.5312C9.5 11.0313 9.28125 11.5313 9 11.9375C9 11.9375 7.9375 12.4688 8.1875 12.9062C8.40625 13.25 8.90625 12.9062 9.3125 12.0938C9.71875 11.9688 10.1562 11.875 10.5938 11.8438C10.5938 11.8438 11.75 12.375 11.9062 11.8125C12.0625 11.2812 10.9688 11.4062 10.8125 11.4375ZM8.375 12.8125C8.3125 12.8125 8.59375 12.3438 8.875 12.2188C8.8125 12.4688 8.625 12.6875 8.375 12.8125ZM9.84375 9.46875C10 9.5 9.84375 10.0938 9.84375 10.125C9.84375 10.1562 9.75 9.5 9.84375 9.46875ZM10.4062 11.5938C10.0625 11.6562 9.71875 11.75 9.375 11.875C9.5625 11.5625 9.71875 11.2188 9.84375 10.8438C9.96875 11.125 10.1875 11.375 10.4062 11.5938ZM11.0312 11.6562C11.2187 11.625 11.75 11.6875 11.7188 11.8125C11.7188 11.9062 11.0312 11.6562 11.0312 11.6562ZM11 5H7C6.4375 5 6 5.4375 6 6V14C6 14.5625 6.4375 15 7 15H13C13.5625 15 14 14.5625 14 14V8L11 5V5ZM7 14V6H10.5V8.5H13V14H7Z" fill="#CC202A"/>
<rect x="0.5" y="0.5" width="19" height="19" rx="9.5" stroke="#CC202A"/>
</svg>
