<svg xmlns="http://www.w3.org/2000/svg" width="10.889" height="14" viewBox="0 0 10.889 14">
  <path id="office-building" d="M5,3V17H9.667V14.278h1.556V17h4.667V3H5M6.556,4.556H8.111V6.111H6.556V4.556m3.111,0h1.556V6.111H9.667V4.556m3.111,0h1.556V6.111H12.778V4.556M6.556,7.667H8.111V9.222H6.556V7.667m3.111,0h1.556V9.222H9.667V7.667m3.111,0h1.556V9.222H12.778V7.667M6.556,10.778H8.111v1.556H6.556V10.778m3.111,0h1.556v1.556H9.667V10.778m3.111,0h1.556v1.556H12.778V10.778M6.556,13.889H8.111v1.556H6.556V13.889m6.222,0h1.556v1.556H12.778Z" transform="translate(-5 -3)" fill="#393939"/>
</svg>
