<svg width="8" height="10" viewBox="0 0 8 10" fill="none" xmlns="http://www.w3.org/2000/svg">
<path d="M4.8125 6.4375C4.46875 6.21875 4.1875 5.875 4.0625 5.46875C4.0625 5.46875 4.40625 4.25 3.875 4.28125C3.34375 4.28125 3.5625 5.21875 3.625 5.53125C3.5 6.03125 3.28125 6.53125 3 6.9375C3 6.9375 1.9375 7.46875 2.1875 7.90625C2.40625 8.25 2.90625 7.90625 3.3125 7.09375C3.71875 6.96875 4.15625 6.875 4.59375 6.84375C4.59375 6.84375 5.75 7.375 5.90625 6.8125C6.0625 6.28125 4.96875 6.40625 4.8125 6.4375ZM2.375 7.8125C2.3125 7.8125 2.59375 7.34375 2.875 7.21875C2.8125 7.46875 2.625 7.6875 2.375 7.8125ZM3.84375 4.46875C4 4.5 3.84375 5.09375 3.84375 5.125C3.84375 5.15625 3.75 4.5 3.84375 4.46875ZM4.40625 6.59375C4.0625 6.65625 3.71875 6.75 3.375 6.875C3.5625 6.5625 3.71875 6.21875 3.84375 5.84375C3.96875 6.125 4.1875 6.375 4.40625 6.59375ZM5.03125 6.65625C5.21875 6.625 5.75 6.6875 5.71875 6.8125C5.71875 6.90625 5.03125 6.65625 5.03125 6.65625ZM5 0H1C0.4375 0 0 0.4375 0 1V9C0 9.5625 0.4375 10 1 10H7C7.5625 10 8 9.5625 8 9V3L5 0ZM1 9V1H4.5V3.5H7V9H1Z" fill="#CC202A"/>
</svg>
