<svg xmlns="http://www.w3.org/2000/svg" width="10.838" height="13.325" viewBox="0 0 10.838 13.325">
  <path id="Path_6843"  d="M1.064,2.63a1.1,1.1,0,0,1,1.476.376c.106.175.089.376.089.85s0,2.245,0,2.245H0L1.288,7.442H2.612v4.4a3.6,3.6,0,0,0,2.531,2.093c.409.08,3.813.156,5.519-4.1A3.709,3.709,0,0,0,9.579,5.868c-.686-.5-3.233-.826-2.952,1.807.134.7.23,1.374,2.066,1.386a4.3,4.3,0,0,1-2.352,3.122,1.569,1.569,0,0,1-2.3-.653c-.017-.525,0-4.1,0-4.1H6.127L4.83,6.1l-.814-.018V2.988S3.914.2,1.583.689C1.116.813.288,1.166.716,1.968A6.407,6.407,0,0,0,1.064,2.63Z" transform="translate(0 -0.632)" fill="#393939" fill-rule="evenodd"/>
</svg>
