<svg xmlns="http://www.w3.org/2000/svg" width="12.908" height="14.199" viewBox="0 0 12.908 14.199">
    <path id="calendar-clock"
        d="M10.745,8.745h.968v1.82l1.575.91-.484.839-2.059-1.188V8.745m2.582-3.227H4.291v7.1H7.3A4.524,4.524,0,0,1,13.327,6.6V5.518m-9.036,8.39A1.29,1.29,0,0,1,3,12.617V3.582A1.286,1.286,0,0,1,4.291,2.291h.645V1H6.227V2.291H11.39V1h1.291V2.291h.645a1.291,1.291,0,0,1,1.291,1.291V7.519a4.518,4.518,0,0,1-6.39,6.39H4.291m7.1-6.357a3.13,3.13,0,1,0,3.13,3.13A3.13,3.13,0,0,0,11.39,7.551Z"
        transform="translate(-3 -1)" fill="#f57f17" />
</svg>
