<svg width="21" height="21" viewBox="0 0 21 21" fill="none" xmlns="http://www.w3.org/2000/svg">
<circle cx="10.5" cy="10.5" r="10" fill="#0E73A9"/>
<g clip-path="url(#clip0_17558_1222)">
<path d="M14 15H7V9.5H14V15ZM12.5 6V7H8.5V6H7.5V7H7C6.445 7 6 7.445 6 8V15C6 15.5522 6.44781 16 7 16H14C14.5522 16 15 15.5522 15 15V8C15 7.445 14.55 7 14 7H13.5V6L12.5 6ZM13 11.5H10.5V14H13V11.5Z" fill="white"/>
</g>
<defs>
<clipPath id="clip0_17558_1222">
<rect width="10" height="10" fill="white" transform="translate(5.5 6)"/>
</clipPath>
</defs>
</svg>
