<svg width="32" height="32" viewBox="0 0 32 32" fill="none" xmlns="http://www.w3.org/2000/svg">
<g clip-path="url(#clip0_13024_930)">
<path d="M17.8999 8.10001H5.3999C5.0999 8.10001 4.8999 7.90001 4.8999 7.60001C4.8999 7.30001 5.0999 7.10001 5.3999 7.10001H17.8999C18.1999 7.10001 18.3999 7.30001 18.3999 7.60001C18.3999 7.90001 18.1999 8.10001 17.8999 8.10001Z" fill="black"/>
<path d="M16.8999 11.9H5.3999C5.0999 11.9 4.8999 11.7 4.8999 11.4C4.8999 11.1 5.0999 10.9 5.3999 10.9H16.7999C17.0999 10.9 17.2999 11.1 17.2999 11.4C17.3999 11.6 17.0999 11.9 16.8999 11.9Z" fill="black"/>
<path d="M14.1999 15.7H5.3999C5.0999 15.7 4.8999 15.5 4.8999 15.2C4.8999 14.9 5.0999 14.7 5.3999 14.7H14.0999C14.3999 14.7 14.5999 14.9 14.5999 15.2C14.5999 15.5 14.4999 15.7 14.1999 15.7Z" fill="black"/>
<path d="M11.3999 19.4H5.3999C5.0999 19.4 4.8999 19.2 4.8999 18.9C4.8999 18.6 5.0999 18.4 5.3999 18.4H11.3999C11.6999 18.4 11.8999 18.6 11.8999 18.9C11.8999 19.2 11.6999 19.4 11.3999 19.4Z" fill="black"/>
<path d="M18.6999 21.1L16.3999 18.9L22.2999 13L24.5999 15.2L18.6999 21.1Z" fill="black"/>
<path d="M25.3999 15.1L22.3999 12.2C22.3999 12.2 27.8999 6.90002 28.6999 6.20002C29.4999 5.50002 30.4999 5.50002 31.1999 6.00002C31.8999 6.50002 32.1999 7.70002 31.6999 8.50002C31.6999 8.50002 31.9999 9.10002 31.9999 9.80002C31.8999 10.6 31.3999 11.6 30.8999 12.1C30.3999 12.6 27.5999 15.9 27.3999 16.1C27.1999 16.4 26.9999 16.5 26.6999 16.3C26.3999 16.1 26.4999 15.7 26.6999 15.5C26.8999 15.3 28.5999 13.2 29.3999 12.3C30.1999 11.4 30.6999 10.9 30.8999 10.4C31.0999 9.90002 31.0999 9.40002 30.9999 9.30002L25.3999 15.1Z" fill="black"/>
<path d="M14.6999 24.9C14.6999 24.9 14.1999 25.4 13.5999 25.6C13.0999 25.8 12.6999 25.7 12.4999 25.8C12.2999 25.9 11.5999 26.3 11.3999 26.1C11.2999 26 11.7999 25.2 11.7999 24.8C11.7999 24.4 11.8999 23.7 12.5999 22.9L14.6999 24.9Z" fill="black"/>
<path d="M16 19.3L13 22.4L15.2 24.6L18.2 21.6L16 19.3ZM14.3 22.7C14.2 22.8 14 22.8 13.9 22.7C13.8 22.6 13.8 22.4 13.9 22.3L16 20.2C16.1 20.1 16.3 20.1 16.4 20.2C16.5 20.3 16.5 20.5 16.4 20.6L14.3 22.7ZM17.3 21.5L15.2 23.6C15.1 23.7 14.9 23.7 14.8 23.6C14.7 23.5 14.7 23.3 14.8 23.2L16.9 21.1C17 21 17.2 21 17.3 21.1C17.4 21.3 17.4 21.4 17.3 21.5Z" fill="black"/>
<path d="M21.8 28.3H2.1V3.70001H21.8V9.90001L23.9 7.90001V2.50001C23.9 2.00001 23.5 1.60001 23 1.60001H0.9C0.4 1.60001 0 2.00001 0 2.50001V29.5C0 30 0.4 30.4 0.9 30.4H23C23.5 30.4 23.9 30 23.9 29.5V19.7L21.8 21.2V28.3Z" fill="black"/>
</g>
<defs>
<clipPath id="clip0_13024_930">
<rect width="32" height="32" fill="white"/>
</clipPath>
</defs>
</svg>
