<svg width="16" height="16" viewBox="0 0 16 16" fill="none" xmlns="http://www.w3.org/2000/svg">
<rect x="1" y="1" width="14" height="14" rx="2" fill="#0077B7"/>
<g clip-path="url(#clip0_17460_2140)">
<path d="M13 9.07316V12.7666H10.8534V9.3266C10.8534 8.46004 10.5469 7.87316 9.77344 7.87316C9.18687 7.87316 8.82688 8.27316 8.68 8.65973C8.62656 8.79316 8.61344 8.99316 8.61344 9.17973V12.7797H6.45344C6.45344 12.7797 6.48 6.93973 6.45344 6.32629H8.6V7.24629C8.6 7.25973 8.58656 7.25973 8.58656 7.27285H8.6V7.24629C8.88 6.80629 9.4 6.17973 10.5334 6.17973C11.9469 6.16629 13 7.09973 13 9.07316ZM4.21344 3.21973C3.48 3.21973 3 3.69973 3 4.33973C3 4.95316 3.46656 5.45973 4.18656 5.45973H4.2C4.94656 5.45973 5.41344 4.96629 5.41344 4.33973C5.4 3.69973 4.94687 3.21973 4.21344 3.21973ZM3.13344 12.7663H5.28V6.32629H3.13344V12.7663Z" fill="white"/>
</g>
<defs>
<clipPath id="clip0_17460_2140">
<rect width="10" height="10" fill="white" transform="translate(3 3)"/>
</clipPath>
</defs>
</svg>
