<svg width="14" height="14" viewBox="0 0 14 14" fill="none" xmlns="http://www.w3.org/2000/svg">
<g clip-path="url(#clip0_17460_2138)">
<path d="M9.3624 10.0625C9.3624 10.1938 8.3999 9.84375 8.3999 9.84375C8.6624 9.8 9.40615 9.93125 9.3624 10.0625ZM6.78115 6.78125C6.60615 6.78125 6.78115 7.65625 6.78115 7.7C6.78115 7.74375 6.9999 6.825 6.78115 6.78125ZM4.7249 11.5062C5.03115 11.3312 5.29365 11.025 5.4249 10.675C5.03115 10.8062 4.6374 11.5062 4.7249 11.5062ZM6.78115 8.70625C6.60615 9.1875 6.3874 9.66875 6.1249 10.15C6.60615 9.975 7.0874 9.84375 7.56865 9.75625C7.21865 9.45 6.95615 9.1 6.78115 8.70625ZM12.5999 4.2V12.6C12.5999 13.3875 11.9874 14 11.1999 14H2.7999C2.0124 14 1.3999 13.3875 1.3999 12.6V1.4C1.3999 0.6125 2.0124 0 2.7999 0H8.3999L12.5999 4.2ZM8.0499 9.5375C7.56865 9.1875 7.1749 8.75 6.9999 8.18125C6.9999 8.18125 7.48115 6.475 6.7374 6.51875C5.99365 6.5625 6.2999 7.875 6.3874 8.26875C6.2124 8.96875 5.90615 9.66875 5.5124 10.2375C5.5124 10.2375 4.0249 10.9812 4.3749 11.5938C4.6374 12.075 5.38115 11.5938 5.9499 10.4563C6.51865 10.2812 7.13115 10.15 7.74365 10.1062C7.74365 10.1062 9.3624 10.85 9.58115 10.0625C9.84365 9.275 8.35615 9.45 8.0499 9.5375ZM10.9812 4.50625L8.35615 1.88125V4.50625H10.9812Z" fill="#FF2116"/>
</g>
<defs>
<clipPath id="clip0_17460_2138">
<rect width="14" height="14" fill="white"/>
</clipPath>
</defs>
</svg>
