<svg width="14" height="14" viewBox="0 0 14 14" fill="none" xmlns="http://www.w3.org/2000/svg">
<g clip-path="url(#clip0_17505_543)">
<path d="M10.8885 5.83398L14 2.72248V11.2782L10.8885 8.16673V10.8889C10.8885 11.3185 10.5402 11.6667 10.1106 11.6667H0.777875C0.348687 11.6667 0.0004375 11.3189 0 10.8897V3.11186C0 2.68223 0.34825 2.33398 0.777875 2.33398H10.1115C10.5411 2.33398 10.8894 2.68223 10.8894 3.11186V5.83398H10.8885ZM8.55575 10.1119V9.33398C8.55575 8.29973 6.47937 7.77823 5.44425 7.77823C4.40913 7.77823 2.33275 8.30323 2.33275 9.33398V10.1119H8.55488H8.55575ZM5.44425 3.88973C4.585 3.88973 3.8885 4.58623 3.8885 5.44548C3.8885 6.30473 4.585 7.00124 5.44425 7.00124C6.3035 7.00124 7 6.30473 7 5.44548C7 4.58623 6.3035 3.88973 5.44425 3.88973Z" fill="#B32D7D"/>
</g>
<defs>
<clipPath id="clip0_17505_543">
<rect width="14" height="14" fill="white"/>
</clipPath>
</defs>
</svg>
