<svg xmlns="http://www.w3.org/2000/svg" width="14" height="12.6" viewBox="0 0 14 12.6">
  <path id="account-cancel" d="M7.6,4a2.8,2.8,0,1,0,2.8,2.8A2.8,2.8,0,0,0,7.6,4m5.25,6.3A3.15,3.15,0,1,0,16,13.45a3.137,3.137,0,0,0-3.15-3.15M7.6,11C4.506,11,2,12.253,2,13.8v1.4H8.65a4.516,4.516,0,0,1,.315-4.1A10.7,10.7,0,0,0,7.6,11m5.25.35a2.1,2.1,0,0,1,2.1,2.1,1.939,1.939,0,0,1-.294,1.05L11.8,11.644a1.939,1.939,0,0,1,1.05-.294M11.044,12.4,13.9,15.256a1.939,1.939,0,0,1-1.05.294,2.1,2.1,0,0,1-2.1-2.1A1.939,1.939,0,0,1,11.044,12.4Z" transform="translate(-2 -4)" fill="#c62828"/>
</svg>
