<?xml version="1.0" encoding="utf-8"?>
<!-- Generator: Adobe Illustrator 22.0.1, SVG Export Plug-In . SVG Version: 6.00 Build 0)  -->
<svg version="1.1" id="Layer_1" xmlns="http://www.w3.org/2000/svg" xmlns:xlink="http://www.w3.org/1999/xlink" x="0px" y="0px"
	 viewBox="0 0 120 120.8" enable-background="new 0 0 120 120.8" xml:space="preserve">
<g>
	
		<linearGradient id="SVGID_1_" gradientUnits="userSpaceOnUse" x1="60" y1="1.2" x2="60" y2="122" gradientTransform="matrix(1 0 0 -1 0 122)">
		<stop  offset="0" style="stop-color:#AF1F7D"/>
		<stop  offset="1" style="stop-color:#D63091"/>
	</linearGradient>
	<rect fill="url(#SVGID_1_)" width="120" height="120.8"/>
	<g>
		<g>
			
				<linearGradient id="SVGID_2_" gradientUnits="userSpaceOnUse" x1="68" y1="1.9726" x2="68" y2="85.3078" gradientTransform="matrix(1 0 0 -1 0 122)">
				<stop  offset="0" style="stop-color:#000000;stop-opacity:0"/>
				<stop  offset="1" style="stop-color:#000000"/>
			</linearGradient>
			<path opacity="0.2" fill="url(#SVGID_2_)" enable-background="new    " d="M115.6,73.7L115.6,73.7c-0.1-0.1-0.2-0.2-0.2-0.3h-0.1
				c0-0.1-0.1-0.2-0.1-0.3h-0.1c0-0.1-0.1-0.2-0.1-0.3h-0.1c0-0.1-0.1-0.2-0.1-0.3h-0.1c0-0.1-0.1-0.2-0.1-0.3h-0.1
				c0-0.1-0.1-0.2-0.1-0.3h-0.1c0-0.1-0.1-0.2-0.1-0.3h-0.1c0-0.1-0.1-0.2-0.1-0.3h-0.1c0-0.1-0.1-0.2-0.1-0.3h-0.1
				c0-0.1-0.1-0.2-0.1-0.3h-0.1c0-0.1-0.1-0.2-0.1-0.3h-0.1c0-0.1-0.1-0.2-0.1-0.3h-0.1c0-0.1-0.1-0.2-0.1-0.3h-0.1
				c0-0.1-0.1-0.2-0.1-0.3h-0.1c0-0.1-0.1-0.2-0.1-0.3h-0.1c0-0.1-0.1-0.2-0.1-0.3h-0.1c0-0.1-0.1-0.2-0.1-0.3h-0.1
				c0-0.1-0.1-0.2-0.1-0.3h-0.1c0-0.1-0.1-0.2-0.1-0.3h-0.1c0-0.1-0.1-0.2-0.1-0.3h-0.1c0-0.1-0.1-0.2-0.1-0.3h-0.1
				c0-0.1-0.1-0.2-0.1-0.3h-0.1c0-0.1-0.1-0.2-0.1-0.3h-0.1c0-0.1-0.1-0.2-0.1-0.3h-0.1c0-0.1-0.1-0.2-0.1-0.3h-0.1
				c0-0.1-0.1-0.2-0.1-0.3h-0.1c0-0.1-0.1-0.2-0.1-0.3h-0.1c0-0.1-0.1-0.2-0.1-0.3h-0.1c0-0.1-0.1-0.2-0.1-0.3h-0.1
				c0-0.1-0.1-0.2-0.1-0.3h-0.1c0-0.1-0.1-0.2-0.1-0.3h-0.1c0-0.1-0.1-0.2-0.1-0.3h-0.1c0-0.1-0.1-0.2-0.1-0.3h-0.1
				c0-0.1-0.1-0.2-0.1-0.3h-0.1c0-0.1-0.1-0.2-0.1-0.3h-0.1c0-0.1-0.1-0.2-0.1-0.3h-0.1c0-0.1-0.1-0.2-0.1-0.3h-0.1
				c0-0.1-0.1-0.2-0.1-0.3h-0.1c0-0.1-0.1-0.2-0.1-0.3h-0.1c0-0.1-0.1-0.2-0.1-0.3h-0.1c0-0.1-0.1-0.2-0.1-0.3h-0.1
				c0-0.1-0.1-0.2-0.1-0.3h-0.1c0-0.1-0.1-0.2-0.1-0.3h-0.1c0-0.1-0.1-0.2-0.1-0.3h-0.1c0-0.1-0.1-0.2-0.1-0.3h-0.1
				c0-0.1-0.1-0.2-0.1-0.3h-0.1c0-0.1-0.1-0.2-0.1-0.3h-0.1c0-0.1-0.1-0.2-0.1-0.3h-0.1c0-0.1-0.1-0.2-0.1-0.3h-0.1
				c0-0.1-0.1-0.2-0.1-0.3h-0.1c0-0.1-0.1-0.2-0.1-0.3h-0.1c0-0.1-0.1-0.2-0.1-0.3h-0.1c0-0.1-0.1-0.2-0.1-0.3h-0.1
				c0-0.1-0.1-0.2-0.1-0.3h-0.1c0-0.1-0.1-0.2-0.1-0.3h-0.1c0-0.1-0.1-0.2-0.1-0.3h-0.1c0-0.1-0.1-0.2-0.1-0.3h-0.1
				c0-0.1-0.1-0.2-0.1-0.3h-0.1c0-0.1-0.1-0.2-0.1-0.3h-0.1c0-0.1-0.1-0.2-0.1-0.3h-0.1c0-0.1-0.1-0.2-0.1-0.3h-0.1
				c0-0.1-0.1-0.2-0.1-0.3h-0.1c0-0.1-0.1-0.2-0.1-0.3h-0.1c0-0.1-0.1-0.2-0.1-0.3h-0.1c0-0.1-0.1-0.2-0.1-0.3h-0.1
				c0-0.1-0.1-0.2-0.1-0.3h-0.1c0-0.1-0.1-0.2-0.1-0.3h-0.1c0-0.1-0.1-0.2-0.1-0.3h-0.1c0-0.1-0.1-0.2-0.1-0.3h-0.1
				c0-0.1-0.1-0.2-0.1-0.3h-0.1c0-0.1-0.1-0.2-0.1-0.3h-0.1c0-0.1-0.1-0.2-0.1-0.3h-0.1c0-0.1-0.1-0.2-0.1-0.3h-0.1
				c0-0.1-0.1-0.2-0.1-0.3h-0.1c0-0.1-0.1-0.2-0.1-0.3h-0.1c0-0.1-0.1-0.2-0.1-0.3h-0.1c0-0.1-0.1-0.2-0.1-0.3h-0.1
				c0-0.1-0.1-0.2-0.1-0.3h-0.1c0-0.1-0.1-0.2-0.1-0.3h-0.1c0-0.1-0.1-0.2-0.1-0.3h-0.1c0-0.1-0.1-0.2-0.1-0.3h-0.1
				c0-0.1-0.1-0.2-0.1-0.3h-0.1c0-0.1-0.1-0.2-0.1-0.3h-0.1c0-0.1-0.1-0.2-0.1-0.3h-0.1c0-0.1-0.1-0.2-0.1-0.3h-0.1
				c0-0.1-0.1-0.2-0.1-0.3h-0.1c0-0.1-0.1-0.2-0.1-0.3h-0.1c0-0.1-0.1-0.2-0.1-0.3h-0.1c0-0.1-0.1-0.2-0.1-0.3h-0.1
				c0-0.1-0.1-0.2-0.1-0.3h-0.1c0-0.1-0.1-0.2-0.1-0.3h-0.1c0-0.1-0.1-0.2-0.1-0.3h-0.1c0-0.1-0.1-0.2-0.1-0.3h-0.1
				c0-0.1-0.1-0.2-0.1-0.3h-0.1c0-0.1-0.1-0.2-0.1-0.3h-0.1c0-0.1-0.1-0.2-0.1-0.3h-0.1c0-0.1-0.1-0.2-0.1-0.3h-0.1
				c0-0.1-0.1-0.2-0.1-0.3h-0.1c0-0.1-0.1-0.2-0.1-0.3h-0.1c0-0.1-0.1-0.2-0.1-0.3h-0.1c0-0.1-0.1-0.2-0.1-0.3h-0.1
				c0-0.1-0.1-0.2-0.1-0.3h-0.1c0-0.1-0.1-0.2-0.1-0.3h-0.1c0-0.1-0.1-0.2-0.1-0.3h-0.1c0-0.1-0.1-0.2-0.1-0.3h-0.1
				c0-0.1-0.1-0.2-0.1-0.3h-0.1c0-0.1-0.1-0.2-0.1-0.3h-0.1c0-0.1-0.1-0.2-0.1-0.3h-0.1c0-0.1-0.1-0.2-0.1-0.3h-0.1
				c0-0.1-0.1-0.2-0.1-0.3h-0.1c0-0.1-0.1-0.2-0.1-0.3h-0.1c0-0.1-0.1-0.2-0.1-0.3h-0.1c0-0.1-0.1-0.2-0.1-0.3h-0.1
				c0-0.1-0.1-0.2-0.1-0.3h-0.1c0-0.1-0.1-0.2-0.1-0.3h-0.1c0-0.1-0.1-0.2-0.1-0.3h-0.1c0-0.1-0.1-0.2-0.1-0.3h-0.1
				c0-0.1-0.1-0.2-0.1-0.3h-0.1c0-0.1-0.1-0.2-0.1-0.3h-0.1c0-0.1-0.1-0.2-0.1-0.3h-0.1c0-0.1-0.1-0.2-0.1-0.3h-0.1
				c0-0.1-0.1-0.2-0.1-0.3h-0.1c0-0.1-0.1-0.2-0.1-0.3h-0.1c0-0.1-0.1-0.2-0.1-0.3h-0.1c0-0.1-0.1-0.2-0.1-0.3h-0.1c0-0.1,0,0.1,0,0
				l-0.2-0.3c0-0.1-0.1-0.2-0.1-0.3h-0.1c0-0.1-0.1-0.2-0.1-0.3h-0.1c0-0.1-0.1-0.2-0.1-0.3h-0.1c0-0.1-0.1-0.2-0.1-0.3h-0.1
				c0-0.1-0.1-0.2-0.1-0.3h-0.1c0-0.1-0.1-0.2-0.1-0.3h-0.1c0-0.1-0.1-0.2-0.1-0.3h-0.1c0-0.1-0.1-0.2-0.1-0.3h-0.1
				c0-0.1-0.1-0.2-0.1-0.3h-0.1c0-0.1-0.1-0.2-0.1-0.3h-0.1c0-0.1-0.1-0.2-0.1-0.3h-0.1c0-0.1-0.1-0.2-0.1-0.3h-0.1
				c0-0.1-0.1-0.2-0.1-0.3h-0.1c0-0.1-0.1-0.2-0.1-0.3h-0.1c0-0.1-0.1-0.2-0.1-0.3h-0.1c0-0.1-0.1-0.2-0.1-0.3h-0.1
				c0-0.1-0.1-0.2-0.1-0.3h-0.1c0-0.1-0.1-0.2-0.1-0.3h-0.1c0-0.1-0.1-0.2-0.1-0.3h-0.1c0-0.1-0.1-0.2-0.1-0.3h-0.1
				c0-0.1-0.1-0.2-0.1-0.3h-0.1c0-0.1-0.1-0.2-0.1-0.3h-0.1c0-0.1-0.1-0.2-0.1-0.3h-0.1c0-0.1-0.1-0.2-0.1-0.3h-0.1
				c0-0.1-0.1-0.2-0.1-0.3h-0.1c0-0.1-0.1-0.2-0.1-0.3h-0.1c0-0.1-0.1-0.2-0.1-0.3h-0.1c0-0.1-0.1-0.2-0.1-0.3h-0.1
				c0-0.1-0.1-0.2-0.1-0.3h-0.1c0-0.1-0.1-0.2-0.1-0.3L79.6,28c2.5,4.4,3.9,9.5,4,14.9l0,0c-0.1-0.1-0.1-0.2-0.2-0.2
				c-0.1-0.1-0.2-0.2-0.2-0.2c-0.1-0.1-0.2-0.2-0.2-0.2c-0.1-0.1-0.1-0.2-0.2-0.2c-0.1-0.1-0.2-0.2-0.2-0.2
				c-0.1-0.1-0.1-0.2-0.2-0.2c-0.1-0.1-0.2-0.2-0.2-0.2c-0.1-0.1-0.2-0.2-0.2-0.2c-0.1-0.1-0.2-0.2-0.2-0.2
				c-0.1-0.1-0.2-0.2-0.2-0.2c-0.1-0.1-0.1-0.2-0.2-0.2c-0.1-0.1-0.2-0.2-0.2-0.2c-0.1-0.1-0.1-0.2-0.2-0.2
				c-0.1-0.1-0.2-0.2-0.2-0.2c-0.1-0.1-0.2-0.2-0.2-0.2c-0.1-0.1-0.1-0.2-0.2-0.2c-0.1-0.1-0.2-0.2-0.2-0.2
				c-0.1-0.1-0.1-0.2-0.2-0.2c-0.1-0.1-0.2-0.2-0.2-0.2c-0.1-0.1-0.1-0.2-0.2-0.2c-0.1-0.1-0.2-0.2-0.2-0.2
				c-0.1-0.1-0.2-0.2-0.2-0.2c-0.1-0.1-0.1-0.2-0.2-0.2c-0.1-0.1-0.2-0.2-0.2-0.2c-0.1-0.1-0.1-0.2-0.2-0.2
				c-0.1-0.1-0.2-0.2-0.2-0.2c-0.1-0.1-0.2-0.2-0.2-0.2c-0.1-0.1-0.2-0.2-0.2-0.2c-0.1-0.1-0.2-0.2-0.2-0.2
				c-0.1-0.1-0.1-0.2-0.2-0.2c-0.1-0.1-0.2-0.2-0.2-0.2c-1.4-1.5-3.4-2.4-5.7-2.4c-2.7,0-5.1,1.4-6.5,3.5l-0.1-0.1
				c-0.1-0.1-0.2-0.2-0.2-0.2c-0.1-0.1-0.2-0.2-0.2-0.2c-0.1-0.1-0.2-0.2-0.2-0.2c-0.1-0.1-0.2-0.2-0.2-0.2
				c-0.1-0.1-0.2-0.2-0.2-0.2c-0.1-0.1-0.2-0.2-0.2-0.2c-0.1-0.1-0.2-0.2-0.2-0.2c-0.1-0.1-0.2-0.2-0.2-0.2
				c-0.1-0.1-0.1-0.2-0.2-0.2c-0.1-0.1-0.2-0.2-0.2-0.2c-0.1-0.1-0.2-0.2-0.2-0.2c-0.1-0.1-0.2-0.2-0.2-0.2
				c-0.1-0.1-0.2-0.2-0.2-0.2c-0.1-0.1-0.2-0.2-0.2-0.2c-0.1-0.1-0.2-0.2-0.2-0.2c-0.1-0.1-0.2-0.2-0.2-0.2
				c-0.1-0.1-0.2-0.2-0.2-0.2c-0.1-0.1-0.1-0.2-0.2-0.2c-0.1-0.1-0.2-0.2-0.2-0.2c-0.1-0.1-0.2-0.2-0.2-0.2
				c-0.1-0.1-0.2-0.2-0.2-0.2c-0.1-0.1-0.2-0.2-0.2-0.2c-0.1-0.1-0.2-0.2-0.2-0.2c-0.1-0.1-0.2-0.2-0.2-0.2c-1.7-1.8-4-2.9-6.7-2.9
				c-5.1,0-9.3,4.2-9.3,9.3c0,0.9,0.1,1.8,0.4,2.7l-0.1-0.1c-0.1-0.1-0.2-0.2-0.2-0.2c-0.1-0.1-0.1-0.2-0.2-0.2
				c-0.1-0.1-0.2-0.2-0.2-0.2c-0.1-0.1-0.2-0.2-0.2-0.2c-0.1-0.1-0.1-0.2-0.2-0.2c-0.1-0.1-0.2-0.2-0.2-0.2
				c-0.1-0.1-0.1-0.2-0.2-0.2c-0.1-0.1-0.2-0.2-0.2-0.2c-0.1-0.1-0.1-0.2-0.2-0.2c-0.1-0.1-0.2-0.2-0.2-0.2
				c-0.1-0.1-0.2-0.2-0.2-0.2c-0.1-0.1-0.1-0.2-0.2-0.2c-0.1-0.1-0.2-0.2-0.2-0.2c-0.1-0.1-0.1-0.2-0.2-0.2
				c-0.1-0.1-0.2-0.2-0.2-0.2c-0.1-0.1-0.1-0.2-0.2-0.2c-0.1-0.1-0.2-0.2-0.2-0.2c-0.1-0.1-0.2-0.2-0.2-0.2
				c-1.4-1.5-3.4-2.4-5.7-2.4c-4.3,0-7.9,3.5-7.9,7.9c0,2.2,0.9,4.3,2.4,5.7c0.1,0.1,0.2,0.2,0.2,0.2c0.1,0.1,0.2,0.2,0.2,0.2
				c0.1,0.1,0.1,0.2,0.2,0.2c0.1,0.1,0.2,0.2,0.2,0.2c0.1,0.1,0.1,0.2,0.2,0.2c0.1,0.1,0.2,0.2,0.2,0.2c0.1,0.1,0.1,0.2,0.2,0.2
				c0.1,0.1,0.2,0.2,0.2,0.2c0.1,0.1,0.2,0.2,0.2,0.2c0.1,0.1,0.1,0.2,0.2,0.2c0.1,0.1,0.2,0.2,0.2,0.2c0.1,0.1,0.1,0.2,0.2,0.2
				c0.1,0.1,0.2,0.2,0.2,0.2c0.1,0.1,0.2,0.2,0.2,0.2c0.1,0.1,0.2,0.2,0.2,0.2c0.1,0.1,0.1,0.1,0.2,0.2c-0.7,0.1-1.4,0.3-2.1,0.5
				l0,0l-0.2,0.1c0-0.1,0-0.2,0-0.3l-0.2,0.1c0-0.1,0-0.2,0-0.3L28.7,51c0-0.1,0-0.2,0-0.3l-0.2,0.1c0-0.1,0-0.2,0-0.3l-0.2,0.1
				c0-0.1,0-0.2,0-0.3H28c0-0.1,0-0.2,0-0.3l-0.2,0.1c0-0.1,0-0.2,0-0.3l-0.2,0.1c0-0.1,0-0.2,0-0.3l-0.2,0.1c0-0.1,0-0.2,0-0.3
				l-0.2,0.1c0-0.1,0-0.2,0-0.3L27,49.3c0-0.1,0-0.2,0-0.3l-0.3,0c0-0.1,0-0.2,0-0.3l-0.2,0.1c0-0.1,0-0.2,0-0.3l-0.2,0.1
				c0-0.1,0-0.2,0-0.3H26c0-0.1,0-0.2,0-0.3h-0.2c0-0.1,0-0.2,0-0.3l-0.2,0.1c0-0.1,0-0.2,0-0.3l-0.2,0.1c0-0.1,0-0.2,0-0.3
				l-0.2,0.1c0-0.1,0-0.2,0-0.3L25,47.2c0-0.1,0-0.2,0-0.3L24.8,47c0-0.1,0-0.2,0-0.3l-0.2,0.1c0-0.1,0-0.2,0-0.3l-0.2,0.1
				c0-0.1,0-0.2,0-0.3l-0.2,0.1c0-0.1,0-0.2,0-0.3L23.7,46c0-0.1,0-0.2,0-0.3l-0.2,0.1c0-0.1,0-0.2,0-0.3l-0.2,0.1
				c0-0.1,0-0.2,0-0.3H23c0-0.1,0-0.2,0-0.3l-0.2,0.1c0-0.1,0-0.2,0-0.3l-0.2,0.1c0-0.1,0-0.2,0-0.3l-0.2,0.1c0-0.1,0-0.2,0-0.3
				l-0.2,0.1c0-0.1,0-0.2,0-0.3L22,44.3c0-0.1,0-0.2,0-0.3l-0.2,0.1c0-0.1,0-0.2,0-0.3l-0.2,0.1c0-0.1,0-0.2,0-0.3l-0.2,0.1
				c0-0.1,0-0.2,0-0.3L21,43.2c0-0.1,0-0.2,0-0.3L20.7,43c0-0.1,0-0.2,0-0.3L16,43.9c0.1,10,4.2,19,10.8,25.5
				c0.1,0.1,0.2,0.2,0.2,0.2c0.1,0.1,0.2,0.2,0.2,0.2c0.1,0.1,0.2,0.2,0.2,0.2c0.1,0.1,0.2,0.2,0.2,0.2c0.1,0.1,0.2,0.2,0.2,0.2
				c0.1,0.1,0.2,0.2,0.2,0.2c0.1,0.1,0.2,0.2,0.2,0.2c0.1,0.1,0.2,0.2,0.2,0.2c0.1,0.1,0.2,0.2,0.2,0.2c0.1,0.1,0.2,0.2,0.2,0.2
				c0.1,0.1,0.2,0.2,0.2,0.2c0.1,0.1,0.2,0.2,0.2,0.2c0.1,0.1,0.2,0.2,0.2,0.2c0.1,0.1,0.2,0.2,0.2,0.2c0.1,0.1,0.2,0.2,0.2,0.2
				c0.1,0.1,0.2,0.2,0.2,0.2c0.1,0.1,0.2,0.2,0.2,0.2c0.1,0.1,0.2,0.2,0.2,0.2c0.1,0.1,0.2,0.2,0.2,0.2c0.1,0.1,0.2,0.2,0.2,0.2
				c0.1,0.1,0.2,0.2,0.2,0.2c0.1,0.1,0.2,0.2,0.2,0.2c0.1,0.1,0.2,0.2,0.2,0.2c0.1,0.1,0.2,0.2,0.2,0.2c0.1,0.1,0.2,0.2,0.2,0.2
				c0.1,0.1,0.2,0.2,0.2,0.2c0.1,0.1,0.2,0.2,0.2,0.2c0.1,0.1,0.2,0.2,0.2,0.2c0.1,0.1,0.2,0.2,0.2,0.2c0.1,0.1,0.2,0.2,0.2,0.2
				c0.1,0.1,0.2,0.2,0.2,0.2c0.1,0.1,0.2,0.2,0.2,0.2c0.1,0.1,0.2,0.2,0.2,0.2c0.1,0.1,0.2,0.2,0.2,0.2c0.1,0.1,0.2,0.2,0.2,0.2
				c0.1,0.1,0.2,0.2,0.2,0.2c0.1,0.1,0.2,0.2,0.2,0.2c0.1,0.1,0.2,0.2,0.2,0.2c0.1,0.1,0.2,0.2,0.2,0.2c0.1,0.1,0.2,0.2,0.2,0.2
				c0.1,0.1,0.2,0.2,0.2,0.2c0.1,0.1,0.2,0.2,0.2,0.2c0.1,0.1,0.2,0.2,0.2,0.2c0.1,0.1,0.2,0.2,0.2,0.2c0.1,0.1,0.2,0.2,0.2,0.2
				c0.1,0.1,0.2,0.2,0.2,0.2c0.1,0.1,0.2,0.2,0.2,0.2c0.1,0.1,0.2,0.2,0.2,0.2c0.1,0.1,0.2,0.2,0.2,0.2c0.1,0.1,0.2,0.2,0.2,0.2
				c0.1,0.1,0.2,0.2,0.2,0.2c0.1,0.1,0.2,0.2,0.2,0.2c0.1,0.1,0.2,0.2,0.2,0.2c0.1,0.1,0.2,0.2,0.2,0.2c0.1,0.1,0.2,0.2,0.2,0.2
				c0.1,0.1,0.2,0.2,0.2,0.2c0.1,0.1,0.2,0.2,0.2,0.2c0.1,0.1,0.2,0.2,0.2,0.2c0.1,0.1,0.2,0.2,0.2,0.2c0.1,0.1,0.2,0.2,0.2,0.2
				c0.1,0.1,0.2,0.2,0.2,0.2c0.1,0.1,0.2,0.2,0.2,0.2c0.1,0.1,0.2,0.2,0.2,0.2c0.1,0.1,0.2,0.2,0.2,0.2c0.1,0.1,0.2,0.2,0.2,0.2
				c0.1,0.1,0.2,0.2,0.2,0.2c0.1,0.1,0.2,0.2,0.2,0.2c0.1,0.1,0.2,0.2,0.2,0.2c0.1,0.1,0.2,0.2,0.2,0.2c0.1,0.1,0.2,0.2,0.2,0.2
				c0.1,0.1,0.2,0.2,0.2,0.2c0.1,0.1,0.2,0.2,0.2,0.2c0.1,0.1,0.2,0.2,0.2,0.2c0.1,0.1,0.2,0.2,0.2,0.2c0.1,0.1,0.2,0.2,0.2,0.2
				c0.1,0.1,0.2,0.2,0.2,0.2c0.1,0.1,0.2,0.2,0.2,0.2c0.1,0.1,0.2,0.2,0.2,0.2c0.1,0.1,0.2,0.2,0.2,0.2c0.1,0.1,0.2,0.2,0.2,0.2
				c0.1,0.1,0.2,0.2,0.2,0.2c0.1,0.1,0.2,0.2,0.2,0.2c0.1,0.1,0.2,0.2,0.2,0.2c0.1,0.1,0.2,0.2,0.2,0.2c0.1,0.1,0.2,0.2,0.2,0.2
				c0.1,0.1,0.2,0.2,0.2,0.2c0.1,0.1,0.2,0.2,0.2,0.2c0.1,0.1,0.2,0.2,0.2,0.2c0.1,0.1,0.2,0.2,0.2,0.2c0.1,0.1,0.2,0.2,0.2,0.2
				c0.1,0.1,0.2,0.2,0.2,0.2c0.1,0.1,0.2,0.2,0.2,0.2c0.1,0.1,0.2,0.2,0.2,0.2c0.1,0.1,0.2,0.2,0.2,0.2c0.1,0.1,0.2,0.2,0.2,0.2
				c0.1,0.1,0.2,0.2,0.2,0.2c0.1,0.1,0.2,0.2,0.2,0.2c0.1,0.1,0.2,0.2,0.2,0.2c0.1,0.1,0.2,0.2,0.2,0.2c0.1,0.1,0.2,0.2,0.2,0.2
				c0.1,0.1,0.2,0.2,0.2,0.2c0.1,0.1,0.2,0.2,0.2,0.2c0.1,0.1,0.2,0.2,0.2,0.2c0.1,0.1,0.2,0.2,0.2,0.2c0.1,0.1,0.2,0.2,0.2,0.2
				c0.1,0.1,0.2,0.2,0.2,0.2c0.1,0.1,0.2,0.2,0.2,0.2c0.1,0.1,0.2,0.2,0.2,0.2c0.1,0.1,0.2,0.2,0.2,0.2c0.1,0.1,0.2,0.2,0.2,0.2
				c0.1,0.1,0.2,0.2,0.2,0.2c0.1,0.1,0.2,0.2,0.2,0.2c0.1,0.1,0.2,0.2,0.2,0.2c0.1,0.1,0.2,0.2,0.2,0.2c0.1,0.1,0.2,0.2,0.2,0.2
				c0.1,0.1,0.2,0.2,0.2,0.2c0.1,0.1,0.2,0.2,0.2,0.2c0.1,0.1,0.2,0.2,0.2,0.2c0.1,0.1,0.2,0.2,0.2,0.2c0.1,0.1,0.2,0.2,0.2,0.2
				c0.1,0.1,0.2,0.2,0.2,0.2c0.1,0.1,0.2,0.2,0.2,0.2c0.1,0.1,0.2,0.2,0.2,0.2c0.1,0.1,0.2,0.2,0.2,0.2c0.1,0.1,0.2,0.2,0.2,0.2
				c0.1,0.1,0.2,0.2,0.2,0.2c0.1,0.1,0.2,0.2,0.2,0.2c0.1,0.1,0.2,0.2,0.2,0.2c0.1,0.1,0.2,0.2,0.2,0.2c0.1,0.1,0.2,0.2,0.2,0.2
				c0.1,0.1,0.2,0.2,0.2,0.2c0.1,0.1,0.2,0.2,0.2,0.2c0.1,0.1,0.2,0.2,0.2,0.2c0.1,0.1,0.2,0.2,0.2,0.2c0.1,0.1,0.2,0.2,0.2,0.2
				c0.1,0.1,0.2,0.2,0.2,0.2c0.1,0.1,0.2,0.2,0.2,0.2c0.1,0.1,0.2,0.2,0.2,0.2c0.1,0.1,0.2,0.2,0.2,0.2c0.1,0.1,0.2,0.2,0.2,0.2
				c0.1,0.1,0.2,0.2,0.2,0.2c0.1,0.1,0.2,0.2,0.2,0.2c0.1,0.1,0.2,0.2,0.2,0.2c0.1,0.1,0.2,0.2,0.2,0.2c0.1,0.1,0.2,0.2,0.2,0.2
				c0.1,0.1,0.2,0.2,0.2,0.2c0.1,0.1,0.2,0.2,0.2,0.2c0.1,0.1,0.2,0.2,0.2,0.2c0.1,0.1,0.2,0.2,0.2,0.2c0.1,0.1,0.2,0.2,0.2,0.2
				c0.1,0.1,0.2,0.2,0.2,0.2c0.1,0.1,0.2,0.2,0.2,0.2c0.1,0.1,0.2,0.2,0.2,0.2c0.1,0.1,0.2,0.2,0.2,0.2c0.1,0.1,0.2,0.2,0.2,0.2
				c0.1,0.1,0.2,0.2,0.2,0.2c0.1,0.1,0.2,0.2,0.2,0.2c0.1,0.1,0.2,0.2,0.2,0.2c0.1,0.1,0.2,0.2,0.2,0.2c0.1,0.1,0.2,0.2,0.2,0.2
				c0.1,0.1,0.2,0.2,0.2,0.2c0.1,0.1,0.2,0.2,0.2,0.2c0.1,0.1,0.2,0.2,0.2,0.2c0.1,0.1,0.2,0.2,0.2,0.2c0.1,0.1,0.2,0.2,0.2,0.2
				c0.1,0.1,0.2,0.2,0.2,0.2c0.1,0.1,0.2,0.2,0.2,0.2c0.1,0.1,0.2,0.2,0.2,0.2c0.1,0.1,0.2,0.2,0.2,0.2c0.1,0.1,0.2,0.2,0.2,0.2
				c0.1,0.1,0.2,0.2,0.2,0.2c0.1,0.1,0.2,0.2,0.2,0.2c0.1,0.1,0.2,0.2,0.2,0.2c0.1,0.1,0.2,0.2,0.2,0.2c0.1,0.1,0.2,0.2,0.2,0.2
				c0.1,0.1,0.2,0.2,0.2,0.2c0.1,0.1,0.2,0.2,0.2,0.2c0.1,0.1,0.2,0.2,0.2,0.2c0.1,0.1,0.2,0.2,0.2,0.2c0.1,0.1,0.2,0.2,0.2,0.2
				c0.1,0.1,0.2,0.2,0.2,0.2c0.1,0.1,0.2,0.2,0.2,0.2c0.1,0.1,0.2,0.2,0.2,0.2c0.1,0.1,0.2,0.2,0.2,0.2c0.1,0.1,0.2,0.2,0.2,0.2
				c0.1,0.1,0.2,0.2,0.2,0.2c0.1,0.1,0.2,0.2,0.2,0.2c0.1,0.1,0.2,0.2,0.2,0.2c0.1,0.1,0.2,0.2,0.2,0.2c0.1,0.1,0.2,0.2,0.2,0.2
				c0.1,0.1,0.2,0.2,0.2,0.2c0.1,0.1,0.2,0.2,0.2,0.2c0.1,0.1,0.2,0.2,0.2,0.2c0.1,0.1,0.2,0.2,0.2,0.2c0.1,0.1,0.2,0.2,0.2,0.2
				c0.1,0.1,0.2,0.2,0.2,0.2c0.1,0.1,0.2,0.2,0.2,0.2c0.1,0.1,0.2,0.2,0.2,0.2c0.1,0.1,0.2,0.2,0.2,0.2c0.1,0.1,0.2,0.2,0.2,0.2
				c0.1,0.1,0.2,0.2,0.2,0.2c0.1,0.1,0.2,0.2,0.2,0.2c0.1,0.1,0.2,0.2,0.2,0.2c0.1,0.1,0.2,0.2,0.2,0.2c0.1,0.1,0.2,0.2,0.2,0.2
				c0.1,0.1,0.2,0.2,0.2,0.2c0.1,0.1,0.2,0.2,0.2,0.2c0.1,0.1,0.2,0.2,0.2,0.2c0.1,0.1,0.2,0.2,0.2,0.2c0.1,0.1,0.2,0.2,0.2,0.2
				c0.1,0.1,0.2,0.2,0.2,0.2c0.1,0.1,0.2,0.2,0.2,0.2c0.1,0.1,0.2,0.2,0.2,0.2c0.1,0.1,0.2,0.2,0.2,0.2c0.1,0.1,0.2,0.2,0.2,0.2
				c0.1,0.1,0.2,0.2,0.2,0.2c0.1,0.1,0.2,0.2,0.2,0.2c0.1,0.1,0.2,0.2,0.2,0.2c0.1,0.1,0.2,0.2,0.2,0.2c0.1,0.1,0.2,0.2,0.2,0.2
				c0.1,0.1,0.2,0.2,0.2,0.2c0.1,0.1,0.2,0.2,0.2,0.2c0.1,0.1,0.2,0.2,0.2,0.2c0.1,0.1,0.1,0.1,0.2,0.2H120V80.1
				C120,80,115.6,73.8,115.6,73.7z"/>
			<g>
				<path fill="#FFFFFF" d="M52.2,71.6c5.6,0,10.7-1.6,15.1-4.5c0.2-0.9,0.3-1.9,0.3-2.9c0-8.1-6.9-14.6-15.5-14.6
					s-15.5,6.5-15.5,14.6c0,1,0.1,1.9,0.3,2.8C41.3,69.9,46.6,71.6,52.2,71.6z"/>
				<ellipse fill="#FFFFFF" cx="52.1" cy="37.7" rx="9.3" ry="9.3"/>
				<path fill="#E5E5E4" d="M39.2,52.3c-1.8-1-3.8-1.5-6-1.5c-2.7,0-5.3,0.9-7.3,2.4c1.7,4.6,4.5,8.6,8.1,11.7c0-0.3,0-0.7,0-1
					C34.1,59.3,36.1,55.2,39.2,52.3z"/>
				<ellipse fill="#E5E5E4" cx="33.4" cy="41.6" rx="7.9" ry="7.9"/>
				<path fill="#E5E5E4" d="M78.5,52.9c-2.1-1.6-4.7-2.5-7.5-2.5c-2.2,0-4.2,0.6-6,1.5c3.2,2.8,5.2,7,5.2,11.6c0,0.5,0,1-0.1,1.5
					C73.8,61.9,76.8,57.7,78.5,52.9z"/>
				<ellipse fill="#E5E5E4" cx="70.9" cy="41.2" rx="7.9" ry="7.9"/>
				<path fill="#FFFFFF" d="M103.2,86.2L92,74.9c-0.7-0.7-1.8-0.7-2.5,0l-0.7,0.7L80,66.7c5.2-6.3,8.4-14.4,8.4-23.2
					c0-6-1.4-11.6-4-16.6L79.6,28c3.3,5.8,4.7,12.8,3.7,20.2c-2,14-13.5,25.2-27.5,26.7c-18.9,2.1-35-12.8-35-31.4
					c0-0.3,0-0.5,0-0.8L16,43.9c0.2,19.9,16.3,36,36.1,36c9.5,0,18.2-3.7,24.7-9.8l8.7,8.8l-0.7,0.7c-0.7,0.7-0.7,1.8,0,2.5L96,93.4
					c0.7,0.7,1.8,0.7,2.5,0l4.6-4.6C103.9,88,103.9,86.9,103.2,86.2z"/>
			</g>
		</g>
		<g>
			<path fill="#FFFFFF" d="M16,92.3L16,92.3c0,4.6,3.8,8.4,8.3,8.4h37.2c4.6,0,8.3-3.8,8.3-8.4l0,0c0-4.6-3.8-8.4-8.3-8.4H24.4
				C19.8,83.9,16,87.6,16,92.3z"/>
			<g>
				<path fill="#C4298F" d="M25.6,92.4h-3.3v2.5h3.8V96H21v-8h5.1v1.1h-3.7v2.2h3.3L25.6,92.4L25.6,92.4z"/>
				<path fill="#C4298F" d="M28.3,90.1l0.1,0.6c0.2-0.2,0.4-0.4,0.7-0.5c0.3-0.1,0.6-0.2,0.9-0.2s0.7,0.1,0.9,0.2
					c0.3,0.1,0.5,0.3,0.7,0.7c0.2-0.3,0.5-0.5,0.7-0.7c0.3-0.1,0.7-0.3,1.1-0.3c0.3,0,0.5,0.1,0.8,0.1c0.3,0.1,0.4,0.2,0.6,0.4
					c0.1,0.2,0.3,0.4,0.4,0.7c0.1,0.3,0.1,0.6,0.1,1v3.8H34v-3.8c0-0.2,0-0.4-0.1-0.5s-0.1-0.3-0.2-0.3s-0.2-0.1-0.3-0.2
					c-0.1,0-0.3-0.1-0.4-0.1c-0.3,0-0.5,0.1-0.7,0.3c-0.2,0.1-0.3,0.3-0.4,0.6V92v0v4h-1.3v-3.8c0-0.2,0-0.4-0.1-0.5
					s-0.1-0.3-0.2-0.3s-0.2-0.1-0.3-0.2C29.9,91,29.8,91,29.6,91c-0.3,0-0.5,0.1-0.7,0.2s-0.3,0.3-0.4,0.5V96h-1.3v-5.9H28.3z"/>
				<path fill="#C4298F" d="M41.8,93.1c0,0.4-0.1,0.8-0.1,1.2c-0.1,0.3-0.3,0.7-0.4,1c-0.2,0.3-0.4,0.5-0.7,0.6s-0.6,0.2-0.9,0.2
					S39.1,96,38.8,96c-0.3-0.1-0.5-0.3-0.7-0.5v2.8h-1.3V90H38l0.1,0.6c0.2-0.2,0.4-0.4,0.7-0.5s0.5-0.2,0.9-0.2
					c0.3,0,0.7,0.1,1,0.2s0.5,0.3,0.7,0.6c0.2,0.3,0.3,0.5,0.4,1c0.1,0.4,0.1,0.8,0.1,1.2L41.8,93.1L41.8,93.1z M40.6,92.9
					c0-0.3,0-0.5-0.1-0.8c-0.1-0.2-0.1-0.4-0.3-0.6c-0.1-0.2-0.3-0.3-0.4-0.4C39.6,91,39.4,91,39.2,91c-0.3,0-0.5,0.1-0.7,0.2
					s-0.3,0.3-0.5,0.5v2.6c0.1,0.2,0.3,0.3,0.5,0.5c0.2,0.1,0.4,0.2,0.7,0.2s0.5-0.1,0.6-0.1c0.1-0.1,0.3-0.3,0.4-0.4
					c0.1-0.1,0.2-0.4,0.3-0.6s0.1-0.5,0.1-0.8V92.9z"/>
				<path fill="#C4298F" d="M44.3,95.9H43v-8.4h1.3V95.9z"/>
				<path fill="#C4298F" d="M45.6,92.9c0-0.4,0.1-0.8,0.2-1.2c0.1-0.3,0.3-0.7,0.5-1s0.5-0.5,0.9-0.6s0.7-0.2,1.2-0.2
					c0.4,0,0.8,0.1,1.2,0.2c0.3,0.1,0.6,0.3,0.9,0.6c0.2,0.3,0.4,0.6,0.5,1c0.1,0.3,0.2,0.8,0.2,1.2V93c0,0.4-0.1,0.8-0.2,1.2
					c-0.1,0.3-0.3,0.7-0.5,1s-0.5,0.5-0.9,0.6S48.8,96,48.3,96s-0.8-0.1-1.2-0.2s-0.6-0.3-0.9-0.6c-0.2-0.3-0.4-0.6-0.5-1
					c-0.1-0.3-0.2-0.8-0.2-1.2v-0.1H45.6z M46.9,93.1c0,0.3,0,0.5,0.1,0.8s0.1,0.4,0.3,0.6c0.1,0.2,0.3,0.3,0.5,0.4s0.4,0.1,0.6,0.1
					c0.3,0,0.5-0.1,0.6-0.1s0.3-0.3,0.4-0.4c0.1-0.2,0.2-0.4,0.3-0.6s0.1-0.5,0.1-0.8V93c0-0.3,0-0.5-0.1-0.8s-0.1-0.4-0.3-0.6
					c-0.1-0.2-0.3-0.3-0.5-0.4C48.6,91,48.4,91,48.2,91c-0.3,0-0.5,0.1-0.6,0.1c-0.2,0.1-0.3,0.3-0.4,0.4c-0.1,0.2-0.2,0.4-0.3,0.6
					s-0.1,0.5-0.1,0.8L46.9,93.1L46.9,93.1z"/>
				<path fill="#C4298F" d="M54,94l1.2-4h1.4l-2.3,6.8c-0.1,0.1-0.1,0.3-0.2,0.5c-0.1,0.1-0.2,0.3-0.3,0.5c-0.1,0.1-0.3,0.3-0.5,0.3
					c-0.2,0.1-0.5,0.1-0.7,0.1c-0.1,0-0.2,0-0.3,0s-0.2-0.1-0.3-0.1v-1h0.1c0.1,0,0.1,0,0.1,0c0.1,0,0.3,0,0.4-0.1
					c0.1,0,0.2-0.1,0.3-0.1c0.1-0.1,0.1-0.1,0.2-0.3c0.1-0.1,0.1-0.2,0.2-0.3l0.2-0.5l-2-5.9H53L54,94z"/>
				<path fill="#C4298F" d="M59.9,96c-0.4,0-0.8-0.1-1.2-0.2s-0.6-0.3-0.9-0.6c-0.3-0.3-0.4-0.5-0.5-0.9c-0.1-0.3-0.2-0.8-0.2-1.2
					v-0.2c0-0.5,0.1-0.9,0.2-1.2c0.1-0.4,0.3-0.7,0.5-1c0.3-0.3,0.5-0.5,0.8-0.6s0.7-0.2,1-0.2c0.4,0,0.8,0.1,1.1,0.2
					s0.5,0.3,0.7,0.6c0.2,0.3,0.3,0.5,0.5,0.9c0.1,0.3,0.1,0.8,0.1,1.2v0.5h-3.8c0,0.2,0.1,0.4,0.1,0.6c0.1,0.2,0.2,0.3,0.3,0.5
					c0.1,0.1,0.3,0.3,0.5,0.3c0.2,0.1,0.4,0.1,0.6,0.1c0.3,0,0.6-0.1,0.8-0.2c0.3-0.1,0.5-0.3,0.6-0.5l0.7,0.7
					c-0.1,0.1-0.2,0.3-0.3,0.4s-0.3,0.3-0.5,0.3c-0.2,0.1-0.4,0.2-0.6,0.3C60.5,96,60.2,96,59.9,96z M59.7,91
					c-0.3,0-0.7,0.1-0.9,0.4s-0.3,0.6-0.4,1.1h2.5v-0.1c0-0.2-0.1-0.3-0.1-0.5c-0.1-0.1-0.1-0.3-0.2-0.4c-0.1-0.1-0.2-0.2-0.3-0.3
					C60.1,91,59.9,91,59.7,91z"/>
				<path fill="#C4298F" d="M66.3,91.2c-0.1,0-0.2,0-0.3,0c-0.1,0-0.2,0-0.3,0c-0.3,0-0.5,0.1-0.7,0.2s-0.3,0.3-0.5,0.5v4h-1.3V90
					h1.3v0.7c0.1-0.3,0.3-0.4,0.5-0.5s0.5-0.2,0.7-0.2c0.1,0,0.1,0,0.3,0c0.1,0,0.1,0,0.2,0.1L66.3,91.2z"/>
			</g>
		</g>
	</g>
</g>
</svg>
