<?xml version="1.0" encoding="utf-8"?><!-- Generator: Adobe Illustrator 22.0.1, SVG Export Plug-In . SVG Version: 6.00 Build 0)  -->
<svg enable-background="new 0 0 442.6 370.3" id="Layer_1" version="1.1" viewBox="0 0 442.6 370.3"
    x="0px" xmlns="http://www.w3.org/2000/svg" y="0px" xml:space="preserve">
<g id="ic_splash_logo" transform="translate(-121 -353)">
	<g id="Group_3947" transform="translate(121 353)">
		<circle cx="181.8" cy="54.7" fill="#FFFFFF" id="Ellipse_205" r="47.1" />
        <circle cx="87.5" cy="74.1" fill="#E6E6E5" id="Ellipse_206" r="39.6" />
        <circle cx="276.9" cy="72.4" fill="#E6E6E5" id="Ellipse_207" r="39.6" />
        <path d="M182.6,224.7c27.2-0.2,53.7-8,76.6-22.7c1-4.7,1.5-9.5,1.7-14.3
			c0-40.4-35.3-73.2-78.3-73.2s-78.3,32.8-78.3,73.2c0.1,4.8,0.7,9.6,1.7,14.3C128.8,216.9,155.4,224.8,182.6,224.7z"
            fill="#FFFFFF" id="Path_8286" />
        <path d="M315.6,131.3c-11-8-24.2-12.4-37.9-12.6c-10.6-0.1-21,2.5-30.3,7.6
			c16.5,14.8,26,35.9,26.1,58.1v7.6C292.3,175.4,306.7,154.6,315.6,131.3z" fill="#E6E6E5"
            id="Path_8288" />
        <path d="M117,127.9c-9.3-5.1-19.7-7.7-30.3-7.6c-13.3-0.1-26.2,4-37,11.8
			c8.6,22.8,22.7,43.1,41.2,58.9v-5C91,163.8,100.5,142.7,117,127.9z" fill="#E6E6E5"
            id="Path_8287" />
        <path d="M440.2,297.9l-56.4-56.4c-3.5-3.4-9.1-3.4-12.6,0l-3.4,3.4l-44.6-44.6
			C369.9,143.9,378.5,65.1,345.1,0l-23.6,5.9c42.7,76.5,15.3,173.1-61.2,215.8S87.2,237,44.5,160.5c-13.2-23.6-20.1-50.1-20.1-77.2
			v-4.2L0,85.8c1.5,101,84.6,181.6,185.6,180.1c45.2-0.7,88.5-18.1,121.6-48.8l43.8,43.8l-3.4,3.4c-3.4,3.5-3.4,9.1,0,12.6
			l56.4,56.4c3.5,3.4,9.1,3.4,12.6,0l22.7-22.7c3.7-2.9,4.4-8.2,1.5-11.9C440.6,298.4,440.4,298.2,440.2,297.9z"
            fill="#FFFFFF" id="Path_8289" />
	</g>
    <path d="M121,681.2L121,681.2c0.1,23.2,18.9,42,42.1,42.1h187.7c23.2-0.1,42-18.9,42.1-42.1l0,0
		c-0.1-23.2-18.9-42-42.1-42.1H163.1c-23-0.2-41.9,18.2-42.1,41.3C121,680.7,121,681,121,681.2z"
        fill="#FFFFFF" id="Path_8290" />
    <text fill="#054F8C" font-family="'Roboto-Medium'" font-size="52.3082px"
        transform="matrix(1 0 0 1 144.9941 697.1843)">Employer</text>
</g>
</svg>
