<svg xmlns="http://www.w3.org/2000/svg" width="35.999" height="36" viewBox="0 0 35.999 36">
  <g id="Group_3956" data-name="Group 3956" transform="translate(-6534 -1402)">
    <path id="Path_8291" data-name="Path 8291" d="M15.67,30.79,10.3,33.72a4.827,4.827,0,0,0-.862.613,17.989,17.989,0,0,0,23.113.06,4.765,4.765,0,0,0-.947-.634l-5.751-2.875a2.193,2.193,0,0,1-1.212-1.962V26.665a8.687,8.687,0,0,0,.544-.7,13.233,13.233,0,0,0,1.788-3.6,1.806,1.806,0,0,0,1.281-1.718V18.236a1.8,1.8,0,0,0-.6-1.335V13.419S28.366,8,21.028,8s-6.623,5.418-6.623,5.418V16.9a1.8,1.8,0,0,0-.6,1.335v2.409a1.806,1.806,0,0,0,.833,1.515,11.953,11.953,0,0,0,2.178,4.505v2.2A2.2,2.2,0,0,1,15.67,30.79Z" transform="translate(6530.973 1399.434)" fill="#fff"/>
    <g id="Group_3955" data-name="Group 3955" transform="translate(6534 1402)">
      <path id="Path_8292" data-name="Path 8292" d="M18.308,0A17.989,17.989,0,0,0,6.418,31.762a4.783,4.783,0,0,1,.854-.607l5.371-2.93A2.194,2.194,0,0,0,13.785,26.3V24.1a11.941,11.941,0,0,1-2.178-4.505,1.806,1.806,0,0,1-.833-1.515V15.669a1.8,1.8,0,0,1,.6-1.335V10.852S10.661,5.434,18,5.434s6.623,5.418,6.623,5.418v3.482a1.8,1.8,0,0,1,.6,1.335v2.409A1.806,1.806,0,0,1,23.943,19.8a13.233,13.233,0,0,1-1.788,3.6,8.686,8.686,0,0,1-.544.7v2.256a2.192,2.192,0,0,0,1.212,1.962l5.751,2.875a4.789,4.789,0,0,1,.944.633A18,18,0,0,0,18.308,0Z" transform="translate(0 0)" fill="#d8eeff"/>
    </g>
  </g>
</svg>
