<?xml version="1.0" encoding="utf-8"?>
<!-- Generator: Adobe Illustrator 22.0.1, SVG Export Plug-In . SVG Version: 6.00 Build 0)  -->
<svg version="1.1" id="Layer_1" xmlns="http://www.w3.org/2000/svg" xmlns:xlink="http://www.w3.org/1999/xlink" x="0px" y="0px"
	 viewBox="0 0 16 16" enable-background="new 0 0 16 16" xml:space="preserve">
<g id="Group_3653" transform="translate(-93 -341)">
	<g id="Ellipse_113" transform="translate(93 341)">
		<circle fill="#FFFFFF" cx="8" cy="8" r="8"/>
		<circle fill="none" stroke="#B1097C" stroke-width="0.5" cx="8" cy="8" r="7.8"/>
	</g>
	<g id="certification" transform="translate(81.675 337.975)">
		<path id="Path_6835" fill="#AF1F7D" d="M18.5,8.6l-2.8,7.1l2.2-0.8L19,17l2.8-7.1L18.5,8.6z"/>
		<path id="Path_6836" fill="#D03A94" d="M20.6,8.6l2.8,7.1l-2.2-0.8L20.1,17l-2.8-7.1L20.6,8.6z"/>
		<path id="Path_6837" fill="#CCA95A" d="M23.6,8.9L23.6,8.9c-0.2-0.1-0.2-0.4-0.1-0.6c0,0,0,0,0,0c0.1-0.2,0.1-0.4-0.1-0.6
			c0,0-0.1-0.1-0.1-0.1c-0.2-0.1-0.3-0.3-0.3-0.5l0,0c0.1-0.2-0.1-0.5-0.3-0.5c0,0-0.1,0-0.1,0c-0.2,0-0.4-0.2-0.4-0.4c0,0,0,0,0,0
			c0-0.2-0.2-0.4-0.4-0.4c0,0-0.1,0-0.1,0c-0.2,0.1-0.5-0.1-0.5-0.3c-0.1-0.2-0.3-0.3-0.5-0.3c0,0-0.1,0-0.1,0.1
			c-0.2,0.1-0.5,0.1-0.6-0.1C19.8,5,19.5,5,19.3,5.1c0,0-0.1,0-0.1,0.1c-0.1,0.2-0.4,0.2-0.6,0.1c0,0,0,0,0,0
			c-0.2-0.1-0.4-0.1-0.6,0.1c0,0-0.1,0.1-0.1,0.1c-0.1,0.2-0.3,0.3-0.5,0.3l0,0C17.2,5.7,17,5.8,16.9,6c0,0,0,0.1,0,0.1
			c0,0.2-0.2,0.4-0.4,0.4c0,0,0,0,0,0C16.2,6.6,16,6.8,16,7c0,0,0,0.1,0,0.1l0,0c0.1,0.2-0.1,0.5-0.3,0.5c-0.2,0.1-0.3,0.3-0.3,0.5
			c0,0,0,0.1,0.1,0.1c0.1,0.2,0.1,0.4-0.1,0.6l0,0c-0.2,0.1-0.2,0.4-0.1,0.6c0,0,0,0.1,0.1,0.1c0.2,0.1,0.2,0.4,0.1,0.6c0,0,0,0,0,0
			c-0.1,0.2-0.1,0.4,0.1,0.6c0,0,0.1,0.1,0.1,0.1c0.2,0.1,0.3,0.3,0.3,0.5c-0.1,0.2,0.1,0.5,0.3,0.5c0,0,0.1,0,0.1,0
			c0.2,0,0.4,0.2,0.4,0.4c0,0,0,0,0,0c0,0.2,0.2,0.4,0.4,0.4c0,0,0.1,0,0.1,0l0,0c0.2-0.1,0.5,0.1,0.5,0.3c0.1,0.2,0.3,0.3,0.5,0.3
			c0,0,0.1,0,0.1-0.1c0.2-0.1,0.4-0.1,0.6,0.1l0,0c0.1,0.2,0.4,0.2,0.6,0.1c0,0,0.1,0,0.1-0.1l0,0c0.1-0.2,0.4-0.2,0.6-0.1
			c0,0,0,0,0,0c0.2,0.1,0.4,0.1,0.6-0.1c0,0,0.1-0.1,0.1-0.1c0.1-0.2,0.3-0.3,0.5-0.3c0.2,0.1,0.5-0.1,0.5-0.3c0,0,0-0.1,0-0.1
			c0-0.2,0.2-0.4,0.4-0.4c0,0,0,0,0,0c0.2,0,0.4-0.2,0.4-0.4c0,0,0-0.1,0-0.1c-0.1-0.2,0.1-0.5,0.3-0.5c0.2-0.1,0.3-0.3,0.3-0.5
			c0,0,0-0.1-0.1-0.1c-0.1-0.2-0.1-0.4,0.1-0.6l0,0c0.2-0.1,0.2-0.4,0.1-0.6C23.7,9,23.7,9,23.6,8.9z"/>
		<circle id="Ellipse_112" fill="#F4CC6A" cx="19.6" cy="9.3" r="3.6"/>
		<path id="Path_6838" fill="#CCA95A" d="M19.6,12.3c-1.7,0-3-1.4-3-3s1.4-3,3-3c1.7,0,3,1.4,3,3l0,0C22.6,10.9,21.2,12.3,19.6,12.3
			C19.6,12.3,19.6,12.3,19.6,12.3z M19.6,6.5c-1.5,0-2.8,1.3-2.8,2.8s1.3,2.8,2.8,2.8c1.5,0,2.8-1.3,2.8-2.8l0,0
			C22.4,7.7,21.1,6.5,19.6,6.5z"/>
		<rect id="Rectangle_1231" x="18" y="8.4" fill="#CCA95A" width="3.2" height="0.2"/>
		<rect id="Rectangle_1232" x="18" y="9.2" fill="#CCA95A" width="3.2" height="0.2"/>
		<rect id="Rectangle_1233" x="18" y="9.9" fill="#CCA95A" width="3.2" height="0.2"/>
	</g>
</g>
</svg>
