<?xml version="1.0" encoding="utf-8"?>
<!-- Generator: Adobe Illustrator 22.0.1, SVG Export Plug-In . SVG Version: 6.00 Build 0)  -->
<svg version="1.1" id="Layer_1" xmlns="http://www.w3.org/2000/svg" xmlns:xlink="http://www.w3.org/1999/xlink" x="0px" y="0px"
	 viewBox="0 0 95.1 22.5" enable-background="new 0 0 95.1 22.5" xml:space="preserve">
<g>
	<g>
		<g>
			<g>
				<path fill="#BFCEDB" d="M26.3,4.6v4.8c0,0.5,0,0.9,0,1.2c0,0.3,0,0.6-0.1,0.8c0,0.2-0.1,0.5-0.2,0.7c-0.1,0.2-0.2,0.4-0.3,0.6
					c-0.2,0.4-0.5,0.7-0.8,0.9c-0.3,0.3-0.7,0.4-1.1,0.6c-0.4,0.1-0.9,0.2-1.3,0.2c-0.6,0-1.2-0.1-1.6-0.3v-2.9
					c0.2,0.1,0.5,0.1,0.7,0.1c0.3,0,0.4,0,0.6-0.1c0.1-0.1,0.2-0.3,0.2-0.5c0-0.3,0.1-0.7,0.1-1.2V4.6l0.1,0C23.1,4.9,23.8,5,24.4,5
					C25.1,5,25.8,4.9,26.3,4.6z"/>
			</g>
		</g>
		<g>
			<g>
				<path fill="#BFCEDB" d="M33.1,9.3c-0.2,0.2-0.6,0.4-1,0.4c-0.3,0-0.6-0.1-0.9-0.4C31,9,30.8,8.7,30.8,8.3c0-0.4,0.1-0.7,0.4-1
					c0.2-0.2,0.6-0.4,1-0.4c0.4,0,0.7,0.1,0.9,0.4c0.2,0.2,0.3,0.6,0.3,1C33.5,8.7,33.3,9.1,33.1,9.3z M36.1,6.8
					c-0.2-0.5-0.5-0.9-0.9-1.3c-0.4-0.4-0.8-0.6-1.3-0.8c-0.5-0.2-1.1-0.3-1.7-0.3c-0.6,0-1.2,0.1-1.7,0.3c-0.5,0.2-1,0.5-1.4,0.8
					c-0.4,0.3-0.7,0.8-0.9,1.2c-0.2,0.5-0.3,1-0.3,1.6c0,0.8,0.2,1.5,0.5,2.1c0.3,0.6,0.8,1.1,1.5,1.5c0.6,0.3,1.3,0.5,2.1,0.5
					c0.7,0,1.3-0.1,1.8-0.3c0.5-0.2,1-0.4,1.4-0.8c0.4-0.3,0.7-0.8,0.9-1.2c0.2-0.5,0.3-1,0.3-1.6C36.4,7.9,36.3,7.3,36.1,6.8z"/>
			</g>
		</g>
		<g>
			<g>
				<path fill="#BFCEDB" d="M41.3,7.3C41.7,7.1,42,7,42.3,7c0.4,0,0.7,0.1,0.9,0.4c0.2,0.3,0.3,0.6,0.3,1c0,0.4-0.1,0.7-0.2,0.9
					c-0.1,0.2-0.3,0.4-0.6,0.5c-0.3,0.1-0.7,0.1-1.3,0.1h-0.1V7.3z M37.7,0.9v11.4H41c0.7,0,1.2,0,1.6,0c0.3,0,0.6,0,0.8,0
					c0.2,0,0.4-0.1,0.7-0.1c0.6-0.1,1.1-0.3,1.5-0.7c0.5-0.4,0.8-0.8,1.1-1.3C46.9,9.5,47,9,47,8.4c0-0.6-0.1-1.1-0.3-1.6
					C46.6,6.4,46.3,6,46,5.6c-0.3-0.3-0.7-0.6-1.2-0.8c-0.5-0.2-1-0.3-1.5-0.3c-0.5,0-1,0.1-1.5,0.3V0.9H37.7z"/>
			</g>
		</g>
		<g>
			<g>
				<path fill="#BFCEDB" d="M47.7,11.5l0.9-2.2c0.2,0.2,0.4,0.5,0.6,0.6c0.2,0.2,0.5,0.3,0.7,0.4c0.3,0.1,0.5,0.1,0.8,0.1
					c0.2,0,0.4,0,0.6-0.2c0.1-0.1,0.2-0.2,0.2-0.4c0-0.3-0.2-0.5-0.7-0.7L49.9,9c-0.6-0.2-1.1-0.5-1.4-0.9c-0.3-0.4-0.5-0.9-0.5-1.4
					c0-0.5,0.2-0.9,0.5-1.3c0.3-0.4,0.8-0.7,1.3-0.8c0.6-0.2,1.3-0.3,2.1-0.3c0.6,0,1.2,0.1,1.8,0.2s1.1,0.3,1.6,0.5l-1,2
					c-0.3-0.3-0.6-0.5-0.9-0.6c-0.3-0.1-0.6-0.2-0.9-0.2c-0.2,0-0.4,0-0.5,0.1c-0.1,0.1-0.2,0.2-0.2,0.3c0,0.2,0.1,0.4,0.3,0.5
					c0.2,0.1,0.5,0.2,1,0.3c0.4,0.1,0.7,0.2,1,0.3c0.3,0.1,0.5,0.2,0.6,0.4c0.2,0.1,0.3,0.3,0.5,0.5c0.2,0.3,0.3,0.7,0.3,1.2
					c0,0.4-0.1,0.7-0.2,1c-0.2,0.3-0.4,0.6-0.7,0.8c-0.3,0.2-0.7,0.4-1.1,0.5c-0.4,0.1-0.9,0.2-1.4,0.2c-0.4,0-0.8,0-1.3-0.1
					c-0.5-0.1-1-0.2-1.5-0.3C48.6,11.8,48.1,11.7,47.7,11.5z"/>
			</g>
		</g>
	</g>
	<g>
		<g>
			<path fill="#BFCEDB" d="M60.1,10.9c0,0.3-0.1,0.5-0.2,0.8c-0.1,0.2-0.3,0.4-0.6,0.6c-0.2,0.1-0.5,0.2-0.8,0.2
				c-0.3,0-0.5-0.1-0.8-0.2c-0.2-0.1-0.4-0.3-0.6-0.6c-0.1-0.2-0.2-0.5-0.2-0.8c0-0.3,0.1-0.5,0.2-0.8c0.1-0.2,0.3-0.4,0.6-0.6
				c0.2-0.1,0.5-0.2,0.8-0.2c0.2,0,0.4,0,0.6,0.1c0.2,0.1,0.4,0.2,0.5,0.3c0.1,0.1,0.2,0.3,0.3,0.5C60.1,10.5,60.1,10.7,60.1,10.9z"
				/>
		</g>
	</g>
	<g>
		<g>
			<defs>
				<path id="SVGID_1_" d="M26.2,2.1c0,0.4-0.1,0.7-0.3,1c-0.2,0.3-0.4,0.6-0.8,0.8c-0.3,0.2-0.7,0.3-1.1,0.3
					c-0.4,0-0.7-0.1-1.1-0.3c-0.3-0.2-0.6-0.4-0.8-0.8C22,2.8,22,2.5,22,2.1c0-0.4,0.1-0.7,0.3-1c0.2-0.3,0.4-0.6,0.8-0.8
					C23.3,0.1,23.7,0,24.1,0c0.3,0,0.6,0.1,0.8,0.2c0.3,0.1,0.5,0.3,0.7,0.4C25.7,0.8,25.9,1,26,1.3C26.1,1.5,26.2,1.8,26.2,2.1z"/>
			</defs>
			<use xlink:href="#SVGID_1_"  overflow="visible" fill="#BFCEDB"/>
			<clipPath id="SVGID_2_">
				<use xlink:href="#SVGID_1_"  overflow="visible"/>
			</clipPath>
			<g clip-path="url(#SVGID_2_)">
				<rect x="22" fill="#BFCEDB" width="4.2" height="4.2"/>
			</g>
			<g clip-path="url(#SVGID_2_)">
				<path fill="#BFCEDB" d="M25.3,3.6c-0.6,0.5-1.3,0.7-2.1,0.7c-0.4,0-0.7-0.1-1-0.3c-0.2-0.1-0.3-0.2-0.5-0.3h0.1v-3.8h3.8v-0.3
					c0.5,0.6,0.7,1.3,0.7,2C26.3,2.4,25.9,3.1,25.3,3.6z"/>
			</g>
			<g clip-path="url(#SVGID_2_)">
				<path fill="#BFCEDB" d="M25.3,3.6c-0.6,0.5-1.3,0.7-2.1,0.7c-0.4,0-0.7-0.1-1-0.3c-0.2-0.1-0.3-0.2-0.5-0.3h0.1v-3.7h3.8v-0.3
					c0.5,0.6,0.7,1.3,0.7,2C26.3,2.4,25.9,3.1,25.3,3.6z"/>
			</g>
			<g clip-path="url(#SVGID_2_)">
				<path fill="#BFCEDB" d="M25.3,3.6c-0.6,0.5-1.3,0.7-2,0.7c-0.4,0-0.7-0.1-1-0.3c-0.2-0.1-0.3-0.2-0.5-0.3h0.1v-3.7h3.7v-0.3
					C26.6,0.8,26.5,2.6,25.3,3.6z"/>
			</g>
			<g clip-path="url(#SVGID_2_)">
				<path fill="#BFCEDB" d="M25.3,3.6c-0.6,0.5-1.3,0.7-2,0.7c-0.4,0-0.7-0.1-1-0.3c-0.2-0.1-0.3-0.2-0.5-0.3h0.1v-3.7h3.7v-0.3
					C26.6,0.8,26.5,2.6,25.3,3.6z"/>
			</g>
			<g clip-path="url(#SVGID_2_)">
				<path fill="#BFCEDB" d="M25.3,3.6c-0.6,0.5-1.3,0.7-2,0.7c-0.4,0-0.7-0.1-1-0.3c-0.2-0.1-0.3-0.2-0.5-0.3h0.1v-3.7h3.7v-0.3
					C26.6,0.8,26.5,2.6,25.3,3.6z"/>
			</g>
			<g clip-path="url(#SVGID_2_)">
				<path fill="#BFCEDB" d="M25.3,3.6c-0.6,0.5-1.3,0.7-2,0.7c-0.4,0-0.7-0.1-1-0.3c-0.2-0.1-0.3-0.2-0.5-0.3h0.1v-3.7h3.7v-0.3
					C26.6,0.8,26.5,2.6,25.3,3.6z"/>
			</g>
			<g clip-path="url(#SVGID_2_)">
				<path fill="#BFCEDB" d="M25.3,3.6c-0.6,0.5-1.3,0.7-2,0.6c-0.4,0-0.7-0.1-1-0.3c-0.2-0.1-0.3-0.2-0.5-0.3h0.1v-3.7h3.7v-0.3
					C26.6,0.8,26.5,2.6,25.3,3.6z"/>
			</g>
			<g clip-path="url(#SVGID_2_)">
				<path fill="#BFCEDB" d="M25.3,3.6c-0.6,0.5-1.3,0.7-2,0.6c-0.4,0-0.7-0.1-1-0.3c-0.2-0.1-0.3-0.2-0.5-0.3h0.1v-3.7h3.7v-0.2
					C26.6,0.8,26.4,2.6,25.3,3.6z"/>
			</g>
			<g clip-path="url(#SVGID_2_)">
				<path fill="#BFCEDB" d="M25.3,3.6c-0.6,0.5-1.3,0.7-2,0.6c-0.4,0-0.7-0.1-1-0.3c-0.2-0.1-0.3-0.2-0.5-0.3h0.1v-3.7h3.7v-0.2
					C26.6,0.8,26.4,2.6,25.3,3.6z"/>
			</g>
			<g clip-path="url(#SVGID_2_)">
				<path fill="#BFCEDB" d="M25.3,3.5c-0.6,0.5-1.3,0.7-2,0.6c-0.3,0-0.7-0.1-1-0.3c-0.2-0.1-0.3-0.2-0.5-0.3h0.1v-3.7h3.7v-0.2
					C26.6,0.8,26.4,2.6,25.3,3.5z"/>
			</g>
			<g clip-path="url(#SVGID_2_)">
				<path fill="#BFCEDB" d="M25.3,3.5c-0.6,0.5-1.3,0.7-2,0.6c-0.3,0-0.7-0.1-1-0.3c-0.2-0.1-0.3-0.2-0.5-0.3h0.1v-3.7h3.7v-0.2
					C26.6,0.8,26.4,2.6,25.3,3.5z"/>
			</g>
			<g clip-path="url(#SVGID_2_)">
				<path fill="#BFCEDB" d="M25.3,3.5c-0.6,0.5-1.3,0.7-2,0.6c-0.3,0-0.7-0.1-1-0.3c-0.2-0.1-0.3-0.2-0.5-0.3h0.1v-3.7h3.7v-0.2
					C26.5,0.9,26.4,2.6,25.3,3.5z"/>
			</g>
			<g clip-path="url(#SVGID_2_)">
				<path fill="#BFCEDB" d="M25.3,3.5c-0.6,0.5-1.3,0.7-2,0.6c-0.3,0-0.7-0.1-1-0.3c-0.2-0.1-0.3-0.2-0.5-0.3h0.1v-3.7h3.7v-0.2
					C26.5,0.9,26.4,2.6,25.3,3.5z"/>
			</g>
			<g clip-path="url(#SVGID_2_)">
				<path fill="#BFCEDB" d="M25.3,3.5c-0.6,0.5-1.3,0.7-2,0.6c-0.3,0-0.7-0.1-1-0.3c-0.2-0.1-0.3-0.2-0.4-0.3h0.1v-3.7h3.7v-0.2
					C26.5,0.9,26.4,2.6,25.3,3.5z"/>
			</g>
			<g clip-path="url(#SVGID_2_)">
				<path fill="#BFCEDB" d="M25.2,3.5c-0.6,0.5-1.3,0.7-2,0.6c-0.3,0-0.7-0.1-1-0.3c-0.2-0.1-0.3-0.2-0.4-0.3h0.1v-3.6h3.7v-0.2
					C26.5,0.9,26.4,2.5,25.2,3.5z"/>
			</g>
			<g clip-path="url(#SVGID_2_)">
				<path fill="#BFCEDB" d="M25.2,3.5c-0.6,0.5-1.3,0.7-2,0.6c-0.3,0-0.7-0.1-1-0.3c-0.2-0.1-0.3-0.2-0.4-0.3h0v-3.6h3.6v-0.2
					C26.5,0.9,26.4,2.5,25.2,3.5z"/>
			</g>
			<g clip-path="url(#SVGID_2_)">
				<path fill="#BFCEDB" d="M25.2,3.5c-1.1,1-2.8,0.8-3.8-0.3h0.4v-3.3h3.6v-0.2C26.5,0.9,26.4,2.5,25.2,3.5z"/>
			</g>
			<g clip-path="url(#SVGID_2_)">
				<path fill="#BFCEDB" d="M25.2,3.5c-1.1,0.9-2.8,0.8-3.8-0.3h0.4v-3.3h3.6v-0.2C26.5,0.9,26.3,2.5,25.2,3.5z"/>
			</g>
			<g clip-path="url(#SVGID_2_)">
				<path fill="#BFCEDB" d="M25.2,3.5c-1.1,0.9-2.8,0.8-3.7-0.3h0.4v-3.2h3.6v-0.2C26.5,0.9,26.3,2.5,25.2,3.5z"/>
			</g>
			<g clip-path="url(#SVGID_2_)">
				<path fill="#BFCEDB" d="M25.2,3.5c-1.1,0.9-2.8,0.8-3.7-0.3h0.4v-3.2h3.6v-0.2C26.5,0.9,26.3,2.5,25.2,3.5z"/>
			</g>
			<g clip-path="url(#SVGID_2_)">
				<path fill="#BFCEDB" d="M25.2,3.5c-1.1,0.9-2.8,0.8-3.7-0.3h0.4v-3.2h3.6v-0.2C26.4,0.9,26.3,2.5,25.2,3.5z"/>
			</g>
			<g clip-path="url(#SVGID_2_)">
				<path fill="#BFCEDB" d="M25.2,3.5c-1.1,0.9-2.8,0.8-3.7-0.3h0.4v-3.2h3.6v-0.2C26.4,0.9,26.3,2.5,25.2,3.5z"/>
			</g>
			<g clip-path="url(#SVGID_2_)">
				<path fill="#BFCEDB" d="M25.2,3.4c-1.1,0.9-2.8,0.8-3.7-0.3h0.4v-3.2h3.6v-0.2C26.4,0.9,26.3,2.5,25.2,3.4z"/>
			</g>
			<g clip-path="url(#SVGID_2_)">
				<path fill="#BFCEDB" d="M25.2,3.4c-1.1,0.9-2.7,0.8-3.7-0.3h0.4v-3.2h3.6v-0.1C26.4,0.9,26.3,2.5,25.2,3.4z"/>
			</g>
			<g clip-path="url(#SVGID_2_)">
				<path fill="#BFCEDB" d="M25.2,3.4c-1.1,0.9-2.7,0.8-3.7-0.3h0.4v-3.2h3.6v-0.1C26.4,0.9,26.3,2.5,25.2,3.4z"/>
			</g>
			<g clip-path="url(#SVGID_2_)">
				<path fill="#BFCEDB" d="M25.2,3.4c-1.1,0.9-2.7,0.8-3.6-0.3h0.4v-3.2h3.6v-0.1C26.4,0.9,26.3,2.5,25.2,3.4z"/>
			</g>
			<g clip-path="url(#SVGID_2_)">
				<path fill="#BFCEDB" d="M25.2,3.4c-1.1,0.9-2.7,0.8-3.6-0.3h0.4v-3.2h3.6v-0.1C26.4,0.9,26.3,2.5,25.2,3.4z"/>
			</g>
			<g clip-path="url(#SVGID_2_)">
				<path fill="#BFCEDB" d="M25.2,3.4c-1.1,0.9-2.7,0.8-3.6-0.3h0.4v-3.2h3.6v-0.1C26.4,0.9,26.2,2.5,25.2,3.4z"/>
			</g>
			<g clip-path="url(#SVGID_2_)">
				<path fill="#BFCEDB" d="M25.2,3.4c-1.1,0.9-2.7,0.8-3.6-0.3h0.3v-3.2h3.6v-0.1C26.4,0.9,26.2,2.5,25.2,3.4z"/>
			</g>
			<g clip-path="url(#SVGID_2_)">
				<path fill="#BFCEDB" d="M25.1,3.4c-1.1,0.9-2.7,0.8-3.6-0.3h0.3v-3.2h3.5v-0.1C26.3,0.9,26.2,2.5,25.1,3.4z"/>
			</g>
			<g clip-path="url(#SVGID_2_)">
				<path fill="#BFCEDB" d="M25.1,3.4c-1.1,0.9-2.7,0.8-3.6-0.3h0.3v-3.2h3.5v-0.1C26.3,0.9,26.2,2.5,25.1,3.4z"/>
			</g>
			<g clip-path="url(#SVGID_2_)">
				<path fill="#BFCEDB" d="M25.1,3.4c-1.1,0.9-2.7,0.8-3.6-0.3h0.3v-3.2h3.5v-0.1C26.3,0.9,26.2,2.5,25.1,3.4z"/>
			</g>
			<g clip-path="url(#SVGID_2_)">
				<path fill="#BFCEDB" d="M25.1,3.4c-1.1,0.9-2.7,0.8-3.6-0.3h0.3v-3.2h3.5v-0.1C26.3,0.9,26.2,2.5,25.1,3.4z"/>
			</g>
			<g clip-path="url(#SVGID_2_)">
				<path fill="#BFCEDB" d="M25.1,3.4c-1.1,0.9-2.6,0.8-3.5-0.3h0.3v-3.2h3.5v-0.1C26.3,0.9,26.2,2.5,25.1,3.4z"/>
			</g>
			<g clip-path="url(#SVGID_2_)">
				<path fill="#BFCEDB" d="M25.1,3.4c-1.1,0.9-2.6,0.8-3.5-0.3h0.3v-3.1h3.5v-0.1C26.3,0.9,26.2,2.5,25.1,3.4z"/>
			</g>
			<g clip-path="url(#SVGID_2_)">
				<path fill="#BFCEDB" d="M25.1,3.4c-1,0.9-2.6,0.8-3.5-0.3h0.3v-3.1h3.5v-0.1C26.3,0.9,26.2,2.5,25.1,3.4z"/>
			</g>
			<g clip-path="url(#SVGID_2_)">
				<path fill="#BFCEDB" d="M25.1,3.3c-1,0.9-2.6,0.8-3.5-0.3h0.3v-3.1h3.5v-0.1C26.3,0.9,26.1,2.5,25.1,3.3z"/>
			</g>
			<g clip-path="url(#SVGID_2_)">
				<path fill="#BFCEDB" d="M25.1,3.3c-1,0.9-2.6,0.8-3.5-0.3h0.3V0h-0.3c0.1-0.1,0.2-0.2,0.3-0.4v0.3h3.5v-0.1
					C26.3,0.9,26.1,2.5,25.1,3.3z"/>
			</g>
			<g clip-path="url(#SVGID_2_)">
				<path fill="#BFCEDB" d="M25.1,3.3c-1,0.9-2.6,0.8-3.5-0.3h0.3V0h-0.3c0.1-0.1,0.2-0.2,0.3-0.4v0.3h3.5v-0.1
					C26.3,0.9,26.1,2.5,25.1,3.3z"/>
			</g>
			<g clip-path="url(#SVGID_2_)">
				<path fill="#BFCEDB" d="M25.1,3.3c-1,0.9-2.6,0.8-3.5-0.3h0.3V0h-0.3c0.1-0.1,0.2-0.2,0.3-0.4v0.3h3.5v0
					C26.2,0.9,26.1,2.5,25.1,3.3z"/>
			</g>
			<g clip-path="url(#SVGID_2_)">
				<path fill="#BFCEDB" d="M25.1,3.3c-1,0.9-2.6,0.7-3.4-0.3h0.3V0h-0.3c0.1-0.1,0.2-0.2,0.3-0.4v0.3h3.4v0
					C26.2,0.9,26.1,2.4,25.1,3.3z"/>
			</g>
			<g clip-path="url(#SVGID_2_)">
				<path fill="#BFCEDB" d="M25.1,3.3c-1,0.9-2.6,0.7-3.4-0.3h0.2V0h-0.3c0.1-0.1,0.2-0.2,0.3-0.4v0.3h3.4v0
					C26.2,0.9,26.1,2.4,25.1,3.3z"/>
			</g>
			<g clip-path="url(#SVGID_2_)">
				<path fill="#BFCEDB" d="M25.1,3.3c-1,0.9-2.5,0.7-3.4-0.3h0.2V0h-0.3c0.1-0.1,0.2-0.2,0.3-0.4v0.3h3.4v0
					C26.2,0.9,26.1,2.4,25.1,3.3z"/>
			</g>
			<g clip-path="url(#SVGID_2_)">
				<path fill="#BFCEDB" d="M25.1,3.3C24,4.2,22.5,4,21.7,3h0.2V0h-0.3c0.1-0.1,0.2-0.2,0.3-0.4v0.3h3.4v0
					C26.2,0.9,26.1,2.4,25.1,3.3z"/>
			</g>
			<g clip-path="url(#SVGID_2_)">
				<path fill="#BFCEDB" d="M25.1,3.3C24,4.1,22.5,4,21.7,3h0.2V0h-0.3c0.1-0.1,0.2-0.2,0.3-0.3v0.3h3.4v0
					C26.2,0.9,26.1,2.4,25.1,3.3z"/>
			</g>
			<g clip-path="url(#SVGID_2_)">
				<path fill="#BFCEDB" d="M25.1,3.3C24,4.1,22.5,4,21.7,3h0.2V0h-0.3c0.1-0.1,0.2-0.2,0.3-0.3v0.3h3.4v0
					C26.2,0.9,26.1,2.4,25.1,3.3z"/>
			</g>
			<g clip-path="url(#SVGID_2_)">
				<path fill="#BFCEDB" d="M25,3.3C24,4.1,22.5,4,21.7,3h0.2V0h-0.3c0.1-0.1,0.2-0.2,0.3-0.3v0.3h3.4v0C26.2,0.9,26,2.4,25,3.3z"/>
			</g>
			<g clip-path="url(#SVGID_2_)">
				<path fill="#BFCEDB" d="M25,3.3C24,4.1,22.5,4,21.7,3h0.2V0h-0.3c0.1-0.1,0.2-0.2,0.3-0.3v0.3h3v-0.3c0.1,0.1,0.2,0.2,0.3,0.3
					C26.2,0.9,26,2.4,25,3.3z"/>
			</g>
			<g clip-path="url(#SVGID_2_)">
				<path fill="#BFCEDB" d="M25,3.3C24,4.1,22.5,4,21.7,3h0.2V0h-0.3c0.1-0.1,0.2-0.2,0.3-0.3v0.3h3v-0.3c0.1,0.1,0.2,0.2,0.3,0.3
					C26.1,0.9,26,2.4,25,3.3z"/>
			</g>
			<g clip-path="url(#SVGID_2_)">
				<path fill="#BFCEDB" d="M25,3.3C24,4.1,22.5,4,21.7,3h0.2V0h-0.3c0.1-0.1,0.2-0.2,0.3-0.3v0.2h3v-0.3c0.1,0.1,0.2,0.2,0.3,0.3
					C26.1,0.9,26,2.4,25,3.3z"/>
			</g>
			<g clip-path="url(#SVGID_2_)">
				<path fill="#BFCEDB" d="M25,3.2C24,4.1,22.6,4,21.7,3h0.2V0h-0.2c0.1-0.1,0.2-0.2,0.3-0.3v0.2h3v-0.3c0.1,0.1,0.2,0.2,0.3,0.3
					C26.1,0.9,26,2.4,25,3.2z"/>
			</g>
			<g clip-path="url(#SVGID_2_)">
				<path fill="#BFCEDB" d="M25,3.2C24,4.1,22.6,4,21.7,3h0.2V0h-0.2c0.1-0.1,0.2-0.2,0.3-0.3v0.2h3v-0.3c0.1,0.1,0.2,0.2,0.3,0.3
					C26.1,0.9,26,2.4,25,3.2z"/>
			</g>
			<g clip-path="url(#SVGID_2_)">
				<path fill="#BFCEDB" d="M25,3.2c-1,0.8-2.4,0.7-3.3-0.3h0.2V0h-0.2c0.1-0.1,0.2-0.2,0.3-0.3v0.2h2.9v-0.3
					C25-0.3,25.2-0.2,25.3,0C26.1,0.9,26,2.4,25,3.2z"/>
			</g>
			<g clip-path="url(#SVGID_2_)">
				<path fill="#BFCEDB" d="M25,3.2C24,4,22.6,3.9,21.7,3h0.2V0.1h-0.2c0.1-0.1,0.2-0.2,0.3-0.3v0.2h2.9v-0.3
					C25-0.3,25.2-0.1,25.3,0C26.1,0.9,26,2.4,25,3.2z"/>
			</g>
			<g clip-path="url(#SVGID_2_)">
				<path fill="#BFCEDB" d="M25,3.2C24,4,22.6,3.9,21.7,3h0.2V0.1h-0.2c0.1-0.1,0.2-0.2,0.3-0.3v0.2h2.9v-0.3
					C25-0.2,25.1-0.1,25.3,0C26.1,0.9,26,2.4,25,3.2z"/>
			</g>
			<g clip-path="url(#SVGID_2_)">
				<path fill="#BFCEDB" d="M25,3.2C24,4,22.6,3.9,21.7,3h0.1V0.1h-0.2c0.1-0.1,0.2-0.2,0.3-0.3v0.2h2.9v-0.3
					C25-0.2,25.1-0.1,25.2,0C26.1,0.9,26,2.4,25,3.2z"/>
			</g>
			<g clip-path="url(#SVGID_2_)">
				<path fill="#BFCEDB" d="M25,3.2c-1,0.8-2.4,0.7-3.2-0.3h0.1V0.1h-0.2C21.8,0,21.9-0.2,22-0.3v0.2h2.9v-0.3
					C25-0.2,25.1-0.1,25.2,0C26.1,1,25.9,2.4,25,3.2z"/>
			</g>
			<g clip-path="url(#SVGID_2_)">
				<path fill="#BFCEDB" d="M25,3.2c-1,0.8-2.4,0.7-3.2-0.3h0.1V0.5h-0.4C21.6,0.2,21.8,0,22-0.3v0.2h2.9v-0.3
					C25-0.2,25.1-0.1,25.2,0C26,1,25.9,2.4,25,3.2z"/>
			</g>
			<g clip-path="url(#SVGID_2_)">
				<path fill="#BFCEDB" d="M25,3.2c-1,0.8-2.4,0.7-3.2-0.3h0.1V0.5h-0.4C21.6,0.2,21.8,0,22-0.2v0.2h2.9v-0.2
					C25-0.2,25.1-0.1,25.2,0C26,1,25.9,2.4,25,3.2z"/>
			</g>
			<g clip-path="url(#SVGID_2_)">
				<path fill="#BFCEDB" d="M25,3.2C24,4,22.6,3.9,21.8,2.9h0.1V0.5h-0.4C21.6,0.2,21.8,0,22-0.2v0.2h2.9v-0.2
					C25-0.2,25.1-0.1,25.2,0C26,1,25.9,2.4,25,3.2z"/>
			</g>
			<g clip-path="url(#SVGID_2_)">
				<path fill="#BFCEDB" d="M25,3.2C24,4,22.6,3.9,21.8,2.9h0.1V0.5h-0.4C21.6,0.2,21.8,0,22-0.2v0.2h2.8v-0.2
					C25-0.2,25.1-0.1,25.2,0C26,1,25.9,2.4,25,3.2z"/>
			</g>
			<g clip-path="url(#SVGID_2_)">
				<path fill="#BFCEDB" d="M24.9,3.2C24,4,22.6,3.8,21.8,2.9h0.1V0.5h-0.4C21.6,0.2,21.8,0,22-0.2v0.2h2.8v-0.2
					C25-0.2,25.1-0.1,25.2,0C26,1,25.9,2.4,24.9,3.2z"/>
			</g>
			<g clip-path="url(#SVGID_2_)">
				<path fill="#BFCEDB" d="M24.9,3.2c-0.9,0.8-2.3,0.7-3.1-0.2h0.1V0.5h-0.4C21.6,0.2,21.8,0,22-0.2v0.2h2.8v-0.2
					C25-0.2,25.1-0.1,25.2,0C26,1,25.9,2.4,24.9,3.2z"/>
			</g>
			<g clip-path="url(#SVGID_2_)">
				<path fill="#BFCEDB" d="M24.9,3.1c-0.9,0.8-2.3,0.7-3.1-0.2h0.1V0.5h-0.4c0.1-0.3,0.3-0.5,0.5-0.7v0.1h2.8v-0.2
					C25-0.2,25.1-0.1,25.2,0C26,1,25.9,2.4,24.9,3.1z"/>
			</g>
			<g clip-path="url(#SVGID_2_)">
				<path fill="#BFCEDB" d="M24.9,3.1c-0.9,0.8-2.3,0.7-3.1-0.2h0.1V0.5h-0.4c0.1-0.3,0.3-0.5,0.5-0.7v0.1h2.4v-0.4
					C24.7-0.4,25-0.2,25.2,0C26,1,25.9,2.4,24.9,3.1z"/>
			</g>
			<g clip-path="url(#SVGID_2_)">
				<path fill="#BFCEDB" d="M24.9,3.1c-0.9,0.8-2.3,0.7-3.1-0.2h0.1V0.5h-0.4c0.1-0.3,0.3-0.5,0.5-0.7v0.1h2.4v-0.4
					c0.3,0.1,0.5,0.3,0.7,0.5C26,1,25.8,2.4,24.9,3.1z"/>
			</g>
			<g clip-path="url(#SVGID_2_)">
				<path fill="#BFCEDB" d="M24.9,3.1c-0.9,0.8-2.3,0.7-3.1-0.2h0.1V0.5h-0.4c0.1-0.3,0.3-0.5,0.5-0.7v0.1h2.4v-0.4
					c0.3,0.1,0.5,0.3,0.7,0.5C25.9,1,25.8,2.3,24.9,3.1z"/>
			</g>
			<g clip-path="url(#SVGID_2_)">
				<path fill="#BFCEDB" d="M24.9,3.1c-0.9,0.8-2.3,0.7-3.1-0.2h0.1V0.5h-0.3c0.1-0.3,0.3-0.5,0.5-0.7v0.1h2.4v-0.4
					c0.3,0.1,0.5,0.3,0.7,0.5C25.9,1,25.8,2.3,24.9,3.1z"/>
			</g>
			<g clip-path="url(#SVGID_2_)">
				<path fill="#BFCEDB" d="M24.9,3.1c-0.9,0.8-2.3,0.7-3.1-0.2h0V0.5h-0.3c0.1-0.3,0.3-0.5,0.5-0.7v0.1h2.4v-0.4
					c0.3,0.1,0.5,0.3,0.7,0.5C25.9,1,25.8,2.3,24.9,3.1z"/>
			</g>
			<g clip-path="url(#SVGID_2_)">
				<path fill="#BFCEDB" d="M24.9,3.1c-0.9,0.8-2.3,0.7-3-0.2h0V0.5h-0.3c0.1-0.2,0.3-0.5,0.5-0.7v0.1h2.4v-0.4
					c0.3,0.1,0.5,0.3,0.7,0.5C25.9,1,25.8,2.3,24.9,3.1z"/>
			</g>
			<g clip-path="url(#SVGID_2_)">
				<path fill="#BFCEDB" d="M24.9,3.1c-0.9,0.8-2.3,0.7-3-0.2h0V0.5h-0.3c0.1-0.2,0.3-0.5,0.5-0.7v0.1h2.4v-0.4
					c0.2,0.1,0.5,0.3,0.7,0.5C25.9,1,25.8,2.3,24.9,3.1z"/>
			</g>
			<g clip-path="url(#SVGID_2_)">
				<path fill="#BFCEDB" d="M24.9,3.1c-0.9,0.8-2.3,0.7-3-0.2h0V0.5h-0.3c0.1-0.2,0.3-0.5,0.5-0.7v0.1h2.4v-0.4
					c0.2,0.1,0.5,0.3,0.7,0.5C25.9,1,25.8,2.3,24.9,3.1z"/>
			</g>
			<g clip-path="url(#SVGID_2_)">
				<path fill="#BFCEDB" d="M24.9,3.1c-0.9,0.8-2.2,0.7-3-0.2h0V0.5h-0.3c0.1-0.2,0.3-0.5,0.5-0.7v0.1h2.3v-0.4
					c0.2,0.1,0.5,0.3,0.7,0.5C25.9,1,25.8,2.3,24.9,3.1z"/>
			</g>
			<g clip-path="url(#SVGID_2_)">
				<path fill="#BFCEDB" d="M24.9,3.1c-0.9,0.8-2.2,0.7-3-0.2h0V0.5h-0.3c0.1-0.2,0.3-0.5,0.5-0.7v0.1h2.3v-0.4
					c0.2,0.1,0.5,0.3,0.7,0.5C25.9,1,25.8,2.3,24.9,3.1z"/>
			</g>
			<g clip-path="url(#SVGID_2_)">
				<path fill="#BFCEDB" d="M24.9,3.1c-0.9,0.8-2.2,0.6-3-0.2h0V0.5h-0.3c0.1-0.2,0.3-0.5,0.5-0.7v0.1h2.3v-0.3
					c0.2,0.1,0.5,0.3,0.7,0.5C25.9,1,25.8,2.3,24.9,3.1z"/>
			</g>
			<g clip-path="url(#SVGID_2_)">
				<path fill="#BFCEDB" d="M24.9,3.1c-0.9,0.7-2.2,0.6-3-0.2c-0.2-0.2-0.3-0.5-0.4-0.7h0.4V0.5h-0.3c0.1-0.2,0.3-0.5,0.5-0.7v0.1
					h2.3v-0.3c0.2,0.1,0.5,0.3,0.7,0.5C25.9,1,25.7,2.3,24.9,3.1z"/>
			</g>
			<g clip-path="url(#SVGID_2_)">
				<path fill="#BFCEDB" d="M24.9,3.1c-0.9,0.7-2.2,0.6-3-0.2c-0.2-0.2-0.3-0.5-0.4-0.7h0.4V0.5h-0.3c0.1-0.2,0.3-0.5,0.5-0.7v0.1
					h2.3v-0.3c0.2,0.1,0.5,0.3,0.7,0.5C25.8,1,25.7,2.3,24.9,3.1z"/>
			</g>
			<g clip-path="url(#SVGID_2_)">
				<path fill="#BFCEDB" d="M24.8,3c-0.9,0.7-2.2,0.6-2.9-0.2c-0.2-0.2-0.3-0.5-0.4-0.7h0.4V0.5h-0.3c0.1-0.2,0.3-0.5,0.5-0.6v0h2.3
					v-0.3c0.2,0.1,0.5,0.3,0.7,0.5C25.8,1,25.7,2.3,24.8,3z"/>
			</g>
			<g clip-path="url(#SVGID_2_)">
				<path fill="#BFCEDB" d="M24.8,3c-0.9,0.7-2.2,0.6-2.9-0.2c-0.2-0.2-0.3-0.5-0.4-0.7h0.4V0.5h-0.3c0.1-0.2,0.3-0.5,0.5-0.6v0h2.3
					v-0.3c0.2,0.1,0.5,0.3,0.6,0.5C25.8,1,25.7,2.3,24.8,3z"/>
			</g>
			<g clip-path="url(#SVGID_2_)">
				<path fill="#BFCEDB" d="M24.8,3c-0.9,0.7-2.2,0.6-2.9-0.2c-0.2-0.2-0.3-0.5-0.4-0.7h0.4V0.6h-0.2c0.1-0.2,0.3-0.5,0.5-0.6v0h2.3
					v-0.3c0.2,0.1,0.5,0.3,0.6,0.5C25.8,1,25.7,2.3,24.8,3z"/>
			</g>
			<g clip-path="url(#SVGID_2_)">
				<path fill="#BFCEDB" d="M24.8,3c-0.9,0.7-2.2,0.6-2.9-0.2c-0.2-0.2-0.3-0.5-0.4-0.7h0.4V0.6h-0.2c0.1-0.2,0.3-0.5,0.5-0.6v0h2.3
					v-0.3c0.2,0.1,0.5,0.3,0.6,0.5C25.8,1,25.7,2.3,24.8,3z"/>
			</g>
			<g clip-path="url(#SVGID_2_)">
				<path fill="#BFCEDB" d="M24.8,3c-0.9,0.7-2.2,0.6-2.9-0.2c-0.2-0.2-0.3-0.5-0.4-0.7h0.3V0.6h-0.2c0.1-0.2,0.3-0.5,0.5-0.6v0h2.2
					v-0.3c0.2,0.1,0.5,0.3,0.6,0.5C25.8,1,25.7,2.3,24.8,3z"/>
			</g>
			<g clip-path="url(#SVGID_2_)">
				<path fill="#BFCEDB" d="M24.8,3c-0.9,0.7-2.1,0.6-2.9-0.2c-0.2-0.2-0.3-0.5-0.4-0.7h0.3V1.3h-0.4c0-0.5,0.3-1,0.7-1.4v0h2.2
					v-0.3c0.2,0.1,0.5,0.3,0.6,0.5C25.8,1,25.7,2.3,24.8,3z"/>
			</g>
			<g clip-path="url(#SVGID_2_)">
				<path fill="#BFCEDB" d="M24.8,3C24,3.7,22.7,3.6,22,2.8c-0.2-0.2-0.3-0.4-0.4-0.7h0.3V1.3h-0.4c0-0.5,0.3-1,0.7-1.4
					c0.2-0.2,0.5-0.3,0.7-0.4v0.4h1.5v-0.3C24.6-0.2,24.9,0,25,0.2C25.8,1,25.7,2.3,24.8,3z"/>
			</g>
			<g clip-path="url(#SVGID_2_)">
				<path fill="#BFCEDB" d="M24.8,3C24,3.7,22.7,3.6,22,2.8c-0.2-0.2-0.3-0.4-0.4-0.7h0.3V1.3h-0.4c0-0.5,0.3-1,0.7-1.4
					c0.2-0.2,0.5-0.3,0.7-0.4v0.4h1.5v-0.3C24.6-0.2,24.9,0,25,0.2C25.8,1,25.7,2.3,24.8,3z"/>
			</g>
			<g clip-path="url(#SVGID_2_)">
				<path fill="#BFCEDB" d="M24.8,3C24,3.7,22.7,3.6,22,2.8c-0.2-0.2-0.3-0.4-0.4-0.7h0.3V1.3h-0.4c0-0.5,0.3-1,0.7-1.4
					c0.2-0.2,0.4-0.3,0.7-0.4v0.4h1.5v-0.3C24.6-0.2,24.8,0,25,0.2C25.7,1,25.6,2.3,24.8,3z"/>
			</g>
			<g clip-path="url(#SVGID_2_)">
				<path fill="#BFCEDB" d="M24.8,3C24,3.7,22.7,3.6,22,2.8c-0.4-0.4-0.5-0.9-0.5-1.4c0-0.5,0.3-1,0.7-1.4c0.2-0.2,0.4-0.3,0.7-0.4
					v0.4h1.5v-0.2C24.6-0.2,24.8,0,25,0.2C25.7,1,25.6,2.3,24.8,3z"/>
			</g>
			<g clip-path="url(#SVGID_2_)">
				<path fill="#BFCEDB" d="M24.8,3C24,3.7,22.7,3.6,22,2.8c-0.4-0.4-0.5-0.9-0.5-1.4c0-0.5,0.3-1,0.7-1.3c0.2-0.2,0.4-0.3,0.7-0.4
					v0.4h1.5v-0.2C24.6-0.2,24.8,0,25,0.2C25.7,1,25.6,2.3,24.8,3z"/>
			</g>
			<g clip-path="url(#SVGID_2_)">
				<path fill="#BFCEDB" d="M24.8,3c-0.8,0.7-2.1,0.6-2.8-0.2c-0.4-0.4-0.5-0.9-0.5-1.4c0-0.5,0.3-1,0.7-1.3
					c0.2-0.2,0.4-0.3,0.7-0.4v0.3h0.8v-0.4c0.5,0,1,0.3,1.3,0.7C25.7,1,25.6,2.3,24.8,3z"/>
			</g>
			<g clip-path="url(#SVGID_2_)">
				<path fill="#BFCEDB" d="M24.8,3c-0.8,0.7-2.1,0.6-2.8-0.2c-0.4-0.4-0.5-0.9-0.5-1.4c0-0.5,0.3-1,0.7-1.3
					c0.2-0.2,0.4-0.3,0.7-0.4v0.3h0.8v-0.4c0.5,0,1,0.3,1.3,0.7C25.7,1,25.6,2.3,24.8,3z"/>
			</g>
			<g clip-path="url(#SVGID_2_)">
				<path fill="#BFCEDB" d="M24.8,3c-0.8,0.7-2.1,0.6-2.8-0.2c-0.4-0.4-0.5-0.9-0.5-1.4c0-0.5,0.3-1,0.7-1.3
					c0.2-0.2,0.4-0.3,0.7-0.4v0.3h0.7v-0.4c0.5,0,1,0.3,1.3,0.7C25.7,1,25.6,2.3,24.8,3z"/>
			</g>
			<g clip-path="url(#SVGID_2_)">
				<path fill="#BFCEDB" d="M24.8,2.9c-0.8,0.7-2,0.6-2.7-0.2c-0.4-0.4-0.5-0.9-0.5-1.4c0-0.5,0.3-1,0.7-1.3
					c0.2-0.2,0.4-0.3,0.7-0.4v0.3h0.7v-0.4c0.5,0,1,0.3,1.3,0.7C25.7,1,25.6,2.2,24.8,2.9z"/>
			</g>
			<g clip-path="url(#SVGID_2_)">
				<path fill="#BFCEDB" d="M24.8,2.9c-0.8,0.7-2,0.6-2.7-0.2c-0.3-0.4-0.5-0.9-0.5-1.4c0-0.5,0.3-1,0.7-1.3
					c0.4-0.3,0.9-0.5,1.4-0.5c0.5,0,1,0.3,1.3,0.7C25.7,1,25.6,2.2,24.8,2.9z"/>
			</g>
			<g clip-path="url(#SVGID_2_)">
				<path fill="#BFCEDB" d="M24.7,2.9c-0.8,0.7-2,0.6-2.7-0.2c-0.3-0.4-0.5-0.9-0.5-1.4c0-0.5,0.3-1,0.7-1.3
					c0.4-0.3,0.9-0.5,1.4-0.5c0.5,0,1,0.3,1.3,0.7C25.7,1,25.6,2.2,24.7,2.9z"/>
			</g>
			<g clip-path="url(#SVGID_2_)">
				<path fill="#BFCEDB" d="M24.7,2.9c-0.8,0.7-2,0.6-2.7-0.2c-0.3-0.4-0.5-0.9-0.5-1.4s0.3-1,0.7-1.3c0.4-0.3,0.9-0.5,1.4-0.4
					c0.5,0,1,0.3,1.3,0.7C25.6,1,25.5,2.2,24.7,2.9z"/>
			</g>
			<g clip-path="url(#SVGID_2_)">
				<path fill="#BFCEDB" d="M24.7,2.9c-0.8,0.7-2,0.6-2.7-0.2c-0.3-0.4-0.5-0.9-0.5-1.4c0-0.5,0.3-1,0.7-1.3
					c0.4-0.3,0.9-0.5,1.4-0.4c0.5,0,1,0.3,1.3,0.7C25.6,1,25.5,2.2,24.7,2.9z"/>
			</g>
			<g clip-path="url(#SVGID_2_)">
				<path fill="#BFCEDB" d="M24.7,2.9c-0.8,0.7-2,0.6-2.7-0.2c-0.3-0.4-0.5-0.9-0.4-1.4c0-0.5,0.3-0.9,0.7-1.3
					c0.4-0.3,0.9-0.5,1.4-0.4c0.5,0,1,0.3,1.3,0.7C25.6,1,25.5,2.2,24.7,2.9z"/>
			</g>
			<g clip-path="url(#SVGID_2_)">
				<path fill="#BFCEDB" d="M24.7,2.9c-0.8,0.7-2,0.6-2.7-0.2c-0.3-0.4-0.5-0.9-0.4-1.4c0-0.5,0.3-0.9,0.7-1.3
					c0.4-0.3,0.9-0.5,1.4-0.4c0.5,0,0.9,0.3,1.3,0.7C25.6,1,25.5,2.2,24.7,2.9z"/>
			</g>
			<g clip-path="url(#SVGID_2_)">
				<path fill="#BFCEDB" d="M24.7,2.9c-0.8,0.7-2,0.6-2.7-0.2c-0.3-0.4-0.5-0.9-0.4-1.4c0-0.5,0.3-0.9,0.7-1.3
					c0.4-0.3,0.9-0.5,1.4-0.4c0.5,0,0.9,0.3,1.3,0.6C25.6,1,25.5,2.2,24.7,2.9z"/>
			</g>
			<g clip-path="url(#SVGID_2_)">
				<path fill="#BFCEDB" d="M24.7,2.9c-0.8,0.7-2,0.6-2.6-0.2c-0.3-0.4-0.5-0.9-0.4-1.4c0-0.5,0.3-0.9,0.6-1.3
					c0.4-0.3,0.9-0.5,1.4-0.4c0.5,0,0.9,0.3,1.3,0.6C25.6,1,25.5,2.2,24.7,2.9z"/>
			</g>
			<g clip-path="url(#SVGID_2_)">
				<path fill="#BFCEDB" d="M24.7,2.9c-0.8,0.7-2,0.6-2.6-0.2c-0.3-0.4-0.5-0.9-0.4-1.3c0-0.5,0.3-0.9,0.6-1.3
					c0.4-0.3,0.9-0.5,1.4-0.4c0.5,0,0.9,0.3,1.3,0.6C25.6,1,25.5,2.2,24.7,2.9z"/>
			</g>
			<g clip-path="url(#SVGID_2_)">
				<path fill="#BFCEDB" d="M24.7,2.9c-0.8,0.7-1.9,0.6-2.6-0.2c-0.3-0.4-0.5-0.9-0.4-1.3c0-0.5,0.3-0.9,0.6-1.3
					c0.4-0.3,0.9-0.5,1.3-0.4c0.5,0,0.9,0.3,1.3,0.6C25.6,1,25.5,2.2,24.7,2.9z"/>
			</g>
			<g clip-path="url(#SVGID_2_)">
				<path fill="#BFCEDB" d="M24.7,2.9c-0.8,0.7-1.9,0.6-2.6-0.2c-0.3-0.4-0.5-0.9-0.4-1.3c0-0.5,0.3-0.9,0.6-1.2
					c0.4-0.3,0.9-0.5,1.3-0.4c0.5,0,0.9,0.3,1.3,0.6C25.6,1.1,25.5,2.2,24.7,2.9z"/>
			</g>
			<g clip-path="url(#SVGID_2_)">
				<path fill="#BFCEDB" d="M24.7,2.9c-0.8,0.7-1.9,0.6-2.6-0.2c-0.3-0.4-0.5-0.9-0.4-1.3c0-0.5,0.3-0.9,0.6-1.2
					c0.4-0.3,0.9-0.5,1.3-0.4c0.5,0,0.9,0.3,1.2,0.6C25.5,1.1,25.5,2.2,24.7,2.9z"/>
			</g>
			<g clip-path="url(#SVGID_2_)">
				<path fill="#BFCEDB" d="M24.7,2.8c-0.8,0.6-1.9,0.6-2.6-0.2c-0.3-0.4-0.5-0.9-0.4-1.3c0-0.5,0.3-0.9,0.6-1.2
					c0.4-0.3,0.9-0.5,1.3-0.4c0.5,0,0.9,0.2,1.2,0.6C25.5,1.1,25.4,2.2,24.7,2.8z"/>
			</g>
			<g clip-path="url(#SVGID_2_)">
				<path fill="#BFCEDB" d="M24.7,2.8c-0.8,0.6-1.9,0.6-2.6-0.2c-0.6-0.8-0.6-1.9,0.2-2.5c0.4-0.3,0.9-0.5,1.3-0.4
					c0.5,0,0.9,0.2,1.2,0.6C25.5,1.1,25.4,2.2,24.7,2.8z"/>
			</g>
			<g clip-path="url(#SVGID_2_)">
				<path fill="#BFCEDB" d="M24.7,2.8c-0.8,0.6-1.9,0.6-2.5-0.2c-0.6-0.8-0.6-1.9,0.2-2.5c0.4-0.3,0.9-0.5,1.3-0.4
					c0.5,0,0.9,0.2,1.2,0.6C25.5,1.1,25.4,2.2,24.7,2.8z"/>
			</g>
			<g clip-path="url(#SVGID_2_)">
				<path fill="#BFCEDB" d="M24.7,2.8c-0.8,0.6-1.9,0.5-2.5-0.2c-0.6-0.7-0.6-1.9,0.2-2.5c0.4-0.3,0.8-0.5,1.3-0.4
					c0.5,0,0.9,0.2,1.2,0.6C25.5,1.1,25.4,2.2,24.7,2.8z"/>
			</g>
			<g clip-path="url(#SVGID_2_)">
				<path fill="#BFCEDB" d="M24.7,2.8c-0.7,0.6-1.9,0.5-2.5-0.2c-0.6-0.7-0.5-1.9,0.2-2.5c0.4-0.3,0.8-0.5,1.3-0.4
					c0.5,0,0.9,0.2,1.2,0.6C25.5,1.1,25.4,2.2,24.7,2.8z"/>
			</g>
			<g clip-path="url(#SVGID_2_)">
				<path fill="#BFCEDB" d="M24.6,2.8c-0.7,0.6-1.9,0.5-2.5-0.2c-0.6-0.7-0.5-1.9,0.2-2.5c0.4-0.3,0.8-0.5,1.3-0.4
					c0.5,0,0.9,0.2,1.2,0.6C25.5,1.1,25.4,2.2,24.6,2.8z"/>
			</g>
			<g clip-path="url(#SVGID_2_)">
				<path fill="#BFCEDB" d="M24.6,2.8c-0.7,0.6-1.9,0.5-2.5-0.2c-0.6-0.7-0.5-1.8,0.2-2.5c0.7-0.6,1.9-0.5,2.5,0.2
					C25.5,1.1,25.4,2.2,24.6,2.8z"/>
			</g>
			<g clip-path="url(#SVGID_2_)">
				<path fill="#BFCEDB" d="M24.6,2.8c-0.7,0.6-1.8,0.5-2.5-0.2c-0.6-0.7-0.5-1.8,0.2-2.5c0.7-0.6,1.8-0.5,2.5,0.2
					C25.5,1.1,25.4,2.2,24.6,2.8z"/>
			</g>
			<g clip-path="url(#SVGID_2_)">
				<path fill="#BFCEDB" d="M24.6,2.8c-0.7,0.6-1.8,0.5-2.5-0.2c-0.6-0.7-0.5-1.8,0.2-2.4c0.7-0.6,1.8-0.5,2.5,0.2
					C25.4,1.1,25.4,2.2,24.6,2.8z"/>
			</g>
			<g clip-path="url(#SVGID_2_)">
				<path fill="#BFCEDB" d="M24.6,2.8c-0.7,0.6-1.8,0.5-2.4-0.2c-0.6-0.7-0.5-1.8,0.2-2.4c0.7-0.6,1.8-0.5,2.4,0.2
					C25.4,1.1,25.4,2.2,24.6,2.8z"/>
			</g>
			<g clip-path="url(#SVGID_2_)">
				<path fill="#BFCEDB" d="M24.6,2.8c-0.7,0.6-1.8,0.5-2.4-0.2c-0.6-0.7-0.5-1.8,0.2-2.4c0.7-0.6,1.8-0.5,2.4,0.2
					C25.4,1.1,25.3,2.2,24.6,2.8z"/>
			</g>
			<g clip-path="url(#SVGID_2_)">
				<path fill="#BFCEDB" d="M24.6,2.8c-0.7,0.6-1.8,0.5-2.4-0.2c-0.6-0.7-0.5-1.8,0.2-2.4c0.7-0.6,1.8-0.5,2.4,0.2
					C25.4,1.1,25.3,2.2,24.6,2.8z"/>
			</g>
			<g clip-path="url(#SVGID_2_)">
				<path fill="#BFCEDB" d="M24.6,2.8c-0.7,0.6-1.8,0.5-2.4-0.2c-0.6-0.7-0.5-1.8,0.2-2.4c0.7-0.6,1.8-0.5,2.4,0.2
					C25.4,1.1,25.3,2.2,24.6,2.8z"/>
			</g>
			<g clip-path="url(#SVGID_2_)">
				<path fill="#BFCEDB" d="M24.6,2.8c-0.7,0.6-1.8,0.5-2.4-0.2c-0.6-0.7-0.5-1.8,0.2-2.4c0.7-0.6,1.8-0.5,2.4,0.2
					C25.4,1.1,25.3,2.1,24.6,2.8z"/>
			</g>
			<g clip-path="url(#SVGID_2_)">
				<path fill="#BFCEDB" d="M24.6,2.7c-0.7,0.6-1.8,0.5-2.4-0.2c-0.6-0.7-0.5-1.8,0.2-2.4c0.7-0.6,1.8-0.5,2.4,0.2
					C25.4,1.1,25.3,2.1,24.6,2.7z"/>
			</g>
			<g clip-path="url(#SVGID_2_)">
				<path fill="#BFCEDB" d="M24.6,2.7c-0.7,0.6-1.8,0.5-2.4-0.2c-0.6-0.7-0.5-1.8,0.2-2.4c0.7-0.6,1.8-0.5,2.4,0.2
					C25.4,1.1,25.3,2.1,24.6,2.7z"/>
			</g>
			<g clip-path="url(#SVGID_2_)">
				<path fill="#BFCEDB" d="M24.6,2.7c-0.7,0.6-1.8,0.5-2.4-0.2c-0.6-0.7-0.5-1.7,0.2-2.3c0.7-0.6,1.8-0.5,2.4,0.2
					C25.4,1.1,25.3,2.1,24.6,2.7z"/>
			</g>
			<g clip-path="url(#SVGID_2_)">
				<path fill="#BFCEDB" d="M24.6,2.7c-0.7,0.6-1.7,0.5-2.3-0.2c-0.6-0.7-0.5-1.7,0.2-2.3c0.7-0.6,1.7-0.5,2.3,0.2
					C25.4,1.1,25.3,2.1,24.6,2.7z"/>
			</g>
			<g clip-path="url(#SVGID_2_)">
				<path fill="#BFCEDB" d="M24.6,2.7c-0.7,0.6-1.7,0.5-2.3-0.2c-0.6-0.7-0.5-1.7,0.2-2.3c0.7-0.6,1.7-0.5,2.3,0.2
					C25.3,1.1,25.3,2.1,24.6,2.7z"/>
			</g>
			<g clip-path="url(#SVGID_2_)">
				<path fill="#BFCEDB" d="M24.6,2.7c-0.7,0.6-1.7,0.5-2.3-0.2c-0.6-0.7-0.5-1.7,0.2-2.3c0.7-0.6,1.7-0.5,2.3,0.2
					C25.3,1.1,25.2,2.1,24.6,2.7z"/>
			</g>
			<g clip-path="url(#SVGID_2_)">
				<path fill="#BFCEDB" d="M24.6,2.7c-0.7,0.6-1.7,0.5-2.3-0.2c-0.6-0.7-0.5-1.7,0.2-2.3c0.7-0.6,1.7-0.5,2.3,0.2
					C25.3,1.1,25.2,2.1,24.6,2.7z"/>
			</g>
			<g clip-path="url(#SVGID_2_)">
				<path fill="#BFCEDB" d="M24.5,2.7c-0.7,0.6-1.7,0.5-2.3-0.2c-0.6-0.7-0.5-1.7,0.2-2.3c0.7-0.6,1.7-0.5,2.3,0.2
					C25.3,1.1,25.2,2.1,24.5,2.7z"/>
			</g>
			<g clip-path="url(#SVGID_2_)">
				<path fill="#BFCEDB" d="M24.5,2.7c-0.7,0.6-1.7,0.5-2.3-0.2c-0.6-0.7-0.5-1.7,0.2-2.3c0.7-0.6,1.7-0.5,2.3,0.2
					C25.3,1.1,25.2,2.1,24.5,2.7z"/>
			</g>
			<g clip-path="url(#SVGID_2_)">
				<path fill="#BFCEDB" d="M24.5,2.7c-0.7,0.6-1.7,0.5-2.3-0.2c-0.6-0.7-0.5-1.7,0.2-2.2c0.7-0.6,1.7-0.5,2.3,0.2
					C25.3,1.1,25.2,2.1,24.5,2.7z"/>
			</g>
			<g clip-path="url(#SVGID_2_)">
				<path fill="#BFCEDB" d="M24.5,2.7c-0.7,0.6-1.7,0.5-2.2-0.2c-0.6-0.7-0.5-1.7,0.2-2.2c0.7-0.6,1.7-0.5,2.2,0.2
					C25.3,1.1,25.2,2.1,24.5,2.7z"/>
			</g>
			<g clip-path="url(#SVGID_2_)">
				<path fill="#BFCEDB" d="M24.5,2.7c-0.7,0.6-1.7,0.5-2.2-0.2c-0.6-0.7-0.5-1.7,0.2-2.2c0.7-0.6,1.7-0.5,2.2,0.2
					C25.3,1.1,25.2,2.1,24.5,2.7z"/>
			</g>
			<g clip-path="url(#SVGID_2_)">
				<path fill="#BFCEDB" d="M24.5,2.7c-0.7,0.6-1.7,0.5-2.2-0.2c-0.6-0.7-0.5-1.6,0.2-2.2c0.7-0.6,1.7-0.5,2.2,0.2
					C25.3,1.1,25.2,2.1,24.5,2.7z"/>
			</g>
			<g clip-path="url(#SVGID_2_)">
				<path fill="#BFCEDB" d="M24.5,2.7c-0.7,0.6-1.6,0.5-2.2-0.2c-0.6-0.7-0.5-1.6,0.2-2.2c0.7-0.6,1.6-0.5,2.2,0.2
					C25.2,1.1,25.2,2.1,24.5,2.7z"/>
			</g>
			<g clip-path="url(#SVGID_2_)">
				<path fill="#BFCEDB" d="M24.5,2.6c-0.7,0.6-1.6,0.5-2.2-0.2c-0.6-0.6-0.5-1.6,0.2-2.2c0.7-0.6,1.6-0.5,2.2,0.2
					C25.2,1.1,25.2,2.1,24.5,2.6z"/>
			</g>
			<g clip-path="url(#SVGID_2_)">
				<path fill="#BFCEDB" d="M24.5,2.6c-0.6,0.5-1.6,0.5-2.2-0.2c-0.6-0.6-0.5-1.6,0.2-2.2c0.6-0.5,1.6-0.5,2.2,0.2
					C25.2,1.1,25.1,2.1,24.5,2.6z"/>
			</g>
			<g clip-path="url(#SVGID_2_)">
				<path fill="#BFCEDB" d="M24.5,2.6c-0.6,0.5-1.6,0.5-2.2-0.2c-0.5-0.6-0.5-1.6,0.2-2.1c0.6-0.5,1.6-0.5,2.2,0.2
					C25.2,1.1,25.1,2.1,24.5,2.6z"/>
			</g>
			<g clip-path="url(#SVGID_2_)">
				<path fill="#BFCEDB" d="M24.5,2.6c-0.6,0.5-1.6,0.5-2.1-0.2c-0.5-0.6-0.5-1.6,0.2-2.1c0.6-0.5,1.6-0.5,2.1,0.2
					C25.2,1.1,25.1,2.1,24.5,2.6z"/>
			</g>
			<g clip-path="url(#SVGID_2_)">
				<path fill="#BFCEDB" d="M24.5,2.6c-0.6,0.5-1.6,0.5-2.1-0.2c-0.5-0.6-0.5-1.6,0.2-2.1c0.6-0.5,1.6-0.5,2.1,0.2
					C25.2,1.1,25.1,2.1,24.5,2.6z"/>
			</g>
			<g clip-path="url(#SVGID_2_)">
				<path fill="#BFCEDB" d="M24.5,2.6c-0.6,0.5-1.6,0.5-2.1-0.2c-0.5-0.6-0.5-1.6,0.2-2.1c0.6-0.5,1.6-0.5,2.1,0.2
					C25.2,1.1,25.1,2.1,24.5,2.6z"/>
			</g>
			<g clip-path="url(#SVGID_2_)">
				<path fill="#BFCEDB" d="M24.5,2.6c-0.6,0.5-1.6,0.5-2.1-0.2c-0.5-0.6-0.5-1.6,0.2-2.1c0.6-0.5,1.6-0.5,2.1,0.2
					C25.2,1.1,25.1,2.1,24.5,2.6z"/>
			</g>
			<g clip-path="url(#SVGID_2_)">
				<path fill="#BFCEDB" d="M24.5,2.6c-0.6,0.5-1.6,0.5-2.1-0.2c-0.5-0.6-0.5-1.5,0.2-2.1c0.6-0.5,1.6-0.5,2.1,0.2
					C25.2,1.1,25.1,2.1,24.5,2.6z"/>
			</g>
			<g clip-path="url(#SVGID_2_)">
				<path fill="#BFCEDB" d="M24.5,2.6c-0.6,0.5-1.5,0.5-2.1-0.2c-0.5-0.6-0.5-1.5,0.2-2.1c0.6-0.5,1.5-0.5,2.1,0.2
					C25.1,1.1,25.1,2.1,24.5,2.6z"/>
			</g>
			<g clip-path="url(#SVGID_2_)">
				<path fill="#BFCEDB" d="M24.4,2.6c-0.6,0.5-1.5,0.4-2.1-0.2c-0.5-0.6-0.5-1.5,0.2-2.1c0.6-0.5,1.5-0.4,2.1,0.2
					C25.1,1.1,25.1,2.1,24.4,2.6z"/>
			</g>
			<g clip-path="url(#SVGID_2_)">
				<path fill="#BFCEDB" d="M24.4,2.6c-0.6,0.5-1.5,0.4-2.1-0.2c-0.5-0.6-0.4-1.5,0.2-2c0.6-0.5,1.5-0.4,2.1,0.2
					C25.1,1.1,25.1,2.1,24.4,2.6z"/>
			</g>
			<g clip-path="url(#SVGID_2_)">
				<path fill="#BFCEDB" d="M24.4,2.6c-0.6,0.5-1.5,0.4-2-0.2c-0.5-0.6-0.4-1.5,0.2-2c0.6-0.5,1.5-0.4,2,0.2C25.1,1.1,25,2,24.4,2.6
					z"/>
			</g>
			<g clip-path="url(#SVGID_2_)">
				<path fill="#BFCEDB" d="M24.4,2.6c-0.6,0.5-1.5,0.4-2-0.2c-0.5-0.6-0.4-1.5,0.2-2c0.6-0.5,1.5-0.4,2,0.2C25.1,1.1,25,2,24.4,2.6
					z"/>
			</g>
			<g clip-path="url(#SVGID_2_)">
				<path fill="#BFCEDB" d="M24.4,2.5c-0.6,0.5-1.5,0.4-2-0.2c-0.5-0.6-0.4-1.5,0.2-2c0.6-0.5,1.5-0.4,2,0.2C25.1,1.1,25,2,24.4,2.5
					z"/>
			</g>
			<g clip-path="url(#SVGID_2_)">
				<path fill="#BFCEDB" d="M24.4,2.5c-0.6,0.5-1.5,0.4-2-0.2c-0.5-0.6-0.4-1.5,0.2-2c0.6-0.5,1.5-0.4,2,0.2C25.1,1.1,25,2,24.4,2.5
					z"/>
			</g>
			<g clip-path="url(#SVGID_2_)">
				<path fill="#BFCEDB" d="M24.4,2.5c-0.6,0.5-1.5,0.4-2-0.2c-0.5-0.6-0.4-1.5,0.2-2c0.6-0.5,1.5-0.4,2,0.2C25.1,1.2,25,2,24.4,2.5
					z"/>
			</g>
			<g clip-path="url(#SVGID_2_)">
				<path fill="#BFCEDB" d="M24.4,2.5c-0.6,0.5-1.5,0.4-2-0.2c-0.5-0.6-0.4-1.5,0.2-2c0.6-0.5,1.5-0.4,2,0.2C25.1,1.2,25,2,24.4,2.5
					z"/>
			</g>
			<g clip-path="url(#SVGID_2_)">
				<path fill="#BFCEDB" d="M24.4,2.5c-0.6,0.5-1.5,0.4-2-0.2c-0.5-0.6-0.4-1.4,0.2-1.9c0.6-0.5,1.5-0.4,2,0.2C25,1.2,25,2,24.4,2.5
					z"/>
			</g>
			<g clip-path="url(#SVGID_2_)">
				<path fill="#BFCEDB" d="M24.4,2.5c-0.6,0.5-1.4,0.4-1.9-0.2C22,1.8,22,0.9,22.6,0.4c0.6-0.5,1.4-0.4,1.9,0.2
					C25,1.2,25,2,24.4,2.5z"/>
			</g>
			<g clip-path="url(#SVGID_2_)">
				<path fill="#BFCEDB" d="M24.4,2.5c-0.6,0.5-1.4,0.4-1.9-0.2C22,1.8,22,0.9,22.6,0.4C23.2-0.1,24,0,24.5,0.6
					C25,1.2,25,2,24.4,2.5z"/>
			</g>
			<g clip-path="url(#SVGID_2_)">
				<path fill="#BFCEDB" d="M24.4,2.5c-0.6,0.5-1.4,0.4-1.9-0.2C22,1.8,22,0.9,22.6,0.4C23.2,0,24,0,24.5,0.6
					C25,1.2,24.9,2,24.4,2.5z"/>
			</g>
			<g clip-path="url(#SVGID_2_)">
				<path fill="#BFCEDB" d="M24.4,2.5C23.8,3,23,2.9,22.5,2.3c-0.5-0.6-0.4-1.4,0.2-1.9C23.2,0,24,0,24.5,0.6
					C25,1.2,24.9,2,24.4,2.5z"/>
			</g>
			<g clip-path="url(#SVGID_2_)">
				<path fill="#BFCEDB" d="M24.4,2.5C23.8,3,23,2.9,22.5,2.3c-0.5-0.6-0.4-1.4,0.2-1.9C23.2,0,24,0,24.5,0.6
					C25,1.2,24.9,2,24.4,2.5z"/>
			</g>
			<g clip-path="url(#SVGID_2_)">
				<path fill="#BFCEDB" d="M24.4,2.5c-0.6,0.5-1.4,0.4-1.9-0.1c-0.5-0.6-0.4-1.4,0.1-1.9C23.2,0,24,0.1,24.5,0.6
					C25,1.2,24.9,2,24.4,2.5z"/>
			</g>
			<g clip-path="url(#SVGID_2_)">
				<path fill="#BFCEDB" d="M24.4,2.5c-0.6,0.5-1.4,0.4-1.9-0.1c-0.5-0.6-0.4-1.4,0.1-1.8C23.2,0,24,0.1,24.5,0.6
					C25,1.2,24.9,2,24.4,2.5z"/>
			</g>
			<g clip-path="url(#SVGID_2_)">
				<path fill="#BFCEDB" d="M24.3,2.5c-0.5,0.5-1.4,0.4-1.8-0.1c-0.5-0.5-0.4-1.4,0.1-1.8C23.2,0,24,0.1,24.5,0.6
					C25,1.2,24.9,2,24.3,2.5z"/>
			</g>
			<g clip-path="url(#SVGID_2_)">
				<path fill="#BFCEDB" d="M24.3,2.5c-0.5,0.5-1.4,0.4-1.8-0.1C22,1.8,22.1,1,22.7,0.5C23.2,0,24,0.1,24.5,0.6
					C25,1.2,24.9,2,24.3,2.5z"/>
			</g>
			<g clip-path="url(#SVGID_2_)">
				<path fill="#BFCEDB" d="M24.3,2.4c-0.5,0.5-1.4,0.4-1.8-0.1c-0.5-0.5-0.4-1.3,0.1-1.8C23.2,0,24,0.1,24.5,0.6
					C24.9,1.2,24.9,2,24.3,2.4z"/>
			</g>
			<g clip-path="url(#SVGID_2_)">
				<path fill="#BFCEDB" d="M24.3,2.4c-0.5,0.5-1.3,0.4-1.8-0.1c-0.5-0.5-0.4-1.3,0.1-1.8C23.2,0,24,0.1,24.5,0.6
					C24.9,1.2,24.9,2,24.3,2.4z"/>
			</g>
			<g clip-path="url(#SVGID_2_)">
				<path fill="#BFCEDB" d="M24.3,2.4c-0.5,0.5-1.3,0.4-1.8-0.1c-0.5-0.5-0.4-1.3,0.1-1.8c0.5-0.5,1.3-0.4,1.8,0.1
					C24.9,1.2,24.9,2,24.3,2.4z"/>
			</g>
			<g clip-path="url(#SVGID_2_)">
				<path fill="#BFCEDB" d="M24.3,2.4c-0.5,0.4-1.3,0.4-1.8-0.1c-0.5-0.5-0.4-1.3,0.1-1.8c0.5-0.4,1.3-0.4,1.8,0.1
					C24.9,1.2,24.8,2,24.3,2.4z"/>
			</g>
			<g clip-path="url(#SVGID_2_)">
				<path fill="#BFCEDB" d="M24.3,2.4c-0.5,0.4-1.3,0.4-1.8-0.1c-0.4-0.5-0.4-1.3,0.1-1.8c0.5-0.4,1.3-0.4,1.8,0.1
					C24.9,1.2,24.8,2,24.3,2.4z"/>
			</g>
			<g clip-path="url(#SVGID_2_)">
				<path fill="#BFCEDB" d="M24.3,2.4c-0.5,0.4-1.3,0.4-1.8-0.1c-0.4-0.5-0.4-1.3,0.1-1.7c0.5-0.4,1.3-0.4,1.8,0.1
					C24.9,1.2,24.8,2,24.3,2.4z"/>
			</g>
			<g clip-path="url(#SVGID_2_)">
				<path fill="#BFCEDB" d="M24.3,2.4c-0.5,0.4-1.3,0.4-1.7-0.1c-0.4-0.5-0.4-1.3,0.1-1.7c0.5-0.4,1.3-0.4,1.7,0.1
					C24.9,1.2,24.8,2,24.3,2.4z"/>
			</g>
			<g clip-path="url(#SVGID_2_)">
				<path fill="#BFCEDB" d="M24.3,2.4c-0.5,0.4-1.3,0.4-1.7-0.1c-0.4-0.5-0.4-1.3,0.1-1.7c0.5-0.4,1.3-0.4,1.7,0.1
					C24.9,1.2,24.8,2,24.3,2.4z"/>
			</g>
			<g clip-path="url(#SVGID_2_)">
				<path fill="#BFCEDB" d="M24.3,2.4c-0.5,0.4-1.3,0.4-1.7-0.1c-0.4-0.5-0.4-1.3,0.1-1.7c0.5-0.4,1.3-0.4,1.7,0.1
					C24.9,1.2,24.8,2,24.3,2.4z"/>
			</g>
			<g clip-path="url(#SVGID_2_)">
				<path fill="#BFCEDB" d="M24.3,2.4c-0.5,0.4-1.3,0.4-1.7-0.1c-0.4-0.5-0.4-1.3,0.1-1.7c0.5-0.4,1.3-0.4,1.7,0.1
					C24.8,1.2,24.8,2,24.3,2.4z"/>
			</g>
			<g clip-path="url(#SVGID_2_)">
				<path fill="#BFCEDB" d="M24.3,2.4c-0.5,0.4-1.3,0.4-1.7-0.1c-0.4-0.5-0.4-1.2,0.1-1.7c0.5-0.4,1.3-0.4,1.7,0.1
					C24.8,1.2,24.8,1.9,24.3,2.4z"/>
			</g>
			<g clip-path="url(#SVGID_2_)">
				<path fill="#BFCEDB" d="M24.3,2.4c-0.5,0.4-1.2,0.4-1.7-0.1c-0.4-0.5-0.4-1.2,0.1-1.7c0.5-0.4,1.2-0.4,1.7,0.1
					C24.8,1.2,24.8,1.9,24.3,2.4z"/>
			</g>
			<g clip-path="url(#SVGID_2_)">
				<path fill="#BFCEDB" d="M24.3,2.4c-0.5,0.4-1.2,0.4-1.7-0.1c-0.4-0.5-0.4-1.2,0.1-1.6c0.5-0.4,1.2-0.4,1.7,0.1
					C24.8,1.2,24.8,1.9,24.3,2.4z"/>
			</g>
			<g clip-path="url(#SVGID_2_)">
				<path fill="#BFCEDB" d="M24.3,2.4c-0.5,0.4-1.2,0.4-1.6-0.1c-0.4-0.5-0.4-1.2,0.1-1.6c0.5-0.4,1.2-0.4,1.6,0.1
					C24.8,1.2,24.7,1.9,24.3,2.4z"/>
			</g>
			<g clip-path="url(#SVGID_2_)">
				<path fill="#BFCEDB" d="M24.2,2.3c-0.5,0.4-1.2,0.4-1.6-0.1c-0.4-0.5-0.4-1.2,0.1-1.6c0.5-0.4,1.2-0.4,1.6,0.1
					C24.8,1.2,24.7,1.9,24.2,2.3z"/>
			</g>
			<g clip-path="url(#SVGID_2_)">
				<path fill="#BFCEDB" d="M24.2,2.3c-0.5,0.4-1.2,0.4-1.6-0.1c-0.4-0.5-0.4-1.2,0.1-1.6c0.5-0.4,1.2-0.4,1.6,0.1
					C24.8,1.2,24.7,1.9,24.2,2.3z"/>
			</g>
			<g clip-path="url(#SVGID_2_)">
				<path fill="#BFCEDB" d="M24.2,2.3c-0.5,0.4-1.2,0.3-1.6-0.1c-0.4-0.5-0.4-1.2,0.1-1.6c0.5-0.4,1.2-0.3,1.6,0.1
					C24.8,1.2,24.7,1.9,24.2,2.3z"/>
			</g>
			<g clip-path="url(#SVGID_2_)">
				<path fill="#BFCEDB" d="M24.2,2.3c-0.5,0.4-1.2,0.3-1.6-0.1c-0.4-0.5-0.3-1.2,0.1-1.6c0.5-0.4,1.2-0.3,1.6,0.1
					C24.8,1.2,24.7,1.9,24.2,2.3z"/>
			</g>
			<g clip-path="url(#SVGID_2_)">
				<path fill="#BFCEDB" d="M24.2,2.3c-0.5,0.4-1.2,0.3-1.6-0.1c-0.4-0.5-0.3-1.2,0.1-1.6c0.5-0.4,1.2-0.3,1.6,0.1
					C24.7,1.2,24.7,1.9,24.2,2.3z"/>
			</g>
			<g clip-path="url(#SVGID_2_)">
				<path fill="#BFCEDB" d="M24.2,2.3c-0.5,0.4-1.2,0.3-1.6-0.1c-0.4-0.5-0.3-1.2,0.1-1.5c0.5-0.4,1.2-0.3,1.6,0.1
					C24.7,1.2,24.7,1.9,24.2,2.3z"/>
			</g>
			<g clip-path="url(#SVGID_2_)">
				<path fill="#BFCEDB" d="M24.2,2.3c-0.5,0.4-1.2,0.3-1.5-0.1c-0.4-0.5-0.3-1.1,0.1-1.5c0.5-0.4,1.2-0.3,1.5,0.1
					C24.7,1.2,24.7,1.9,24.2,2.3z"/>
			</g>
			<g clip-path="url(#SVGID_2_)">
				<path fill="#BFCEDB" d="M24.2,2.3c-0.5,0.4-1.1,0.3-1.5-0.1c-0.4-0.5-0.3-1.1,0.1-1.5c0.5-0.4,1.1-0.3,1.5,0.1
					C24.7,1.2,24.7,1.9,24.2,2.3z"/>
			</g>
			<g clip-path="url(#SVGID_2_)">
				<path fill="#BFCEDB" d="M24.2,2.3c-0.5,0.4-1.1,0.3-1.5-0.1c-0.4-0.4-0.3-1.1,0.1-1.5c0.5-0.4,1.1-0.3,1.5,0.1
					C24.7,1.2,24.6,1.9,24.2,2.3z"/>
			</g>
			<g clip-path="url(#SVGID_2_)">
				<path fill="#BFCEDB" d="M24.2,2.3c-0.4,0.4-1.1,0.3-1.5-0.1c-0.4-0.4-0.3-1.1,0.1-1.5c0.4-0.4,1.1-0.3,1.5,0.1
					C24.7,1.2,24.6,1.9,24.2,2.3z"/>
			</g>
			<g clip-path="url(#SVGID_2_)">
				<path fill="#BFCEDB" d="M24.2,2.3c-0.4,0.4-1.1,0.3-1.5-0.1c-0.4-0.4-0.3-1.1,0.1-1.5c0.4-0.4,1.1-0.3,1.5,0.1
					C24.7,1.2,24.6,1.9,24.2,2.3z"/>
			</g>
			<g clip-path="url(#SVGID_2_)">
				<path fill="#BFCEDB" d="M24.2,2.3c-0.4,0.4-1.1,0.3-1.5-0.1c-0.4-0.4-0.3-1.1,0.1-1.5c0.4-0.4,1.1-0.3,1.5,0.1
					C24.7,1.2,24.6,1.9,24.2,2.3z"/>
			</g>
			<g clip-path="url(#SVGID_2_)">
				<path fill="#BFCEDB" d="M24.2,2.3c-0.4,0.4-1.1,0.3-1.5-0.1c-0.4-0.4-0.3-1.1,0.1-1.5c0.4-0.4,1.1-0.3,1.5,0.1
					C24.7,1.2,24.6,1.9,24.2,2.3z"/>
			</g>
			<g clip-path="url(#SVGID_2_)">
				<path fill="#BFCEDB" d="M24.2,2.2c-0.4,0.4-1.1,0.3-1.5-0.1c-0.4-0.4-0.3-1.1,0.1-1.4c0.4-0.4,1.1-0.3,1.5,0.1
					C24.6,1.2,24.6,1.9,24.2,2.2z"/>
			</g>
		</g>
	</g>
	<path fill="#BFCEDB" d="M69.3,4.6c-0.4-0.1-0.9-0.3-1.4-0.3c-0.5-0.1-0.9-0.1-1.3-0.1c-0.5,0-0.9,0-1.3,0.1
		c-0.4,0.1-0.8,0.2-1.2,0.3c-0.7,0.3-1.3,0.8-1.8,1.5c-0.5,0.7-0.7,1.4-0.7,2.2c0,0.7,0.1,1.3,0.4,1.8c0.2,0.5,0.6,1,1,1.4
		c0.4,0.4,1,0.7,1.6,0.9c0.6,0.2,1.3,0.3,2.1,0.3c0.3,0,0.6,0,0.9,0c0.3,0,0.6-0.1,0.9-0.1c0.3-0.1,0.6-0.1,0.8-0.2l0.2-0.1V12V8.7
		v0V8.3v0V4.9V4.7L69.3,4.6z M68.3,8.7c-0.3,0.1-0.7,0.1-1,0.1c-0.5,0-0.8-0.1-0.9-0.1c-0.1-0.1-0.2-0.2-0.2-0.3
		c0-0.1,0-0.2,0.2-0.2C66.5,8,66.7,8,67.1,8c0.2,0,0.4,0,0.6,0.1c0.2,0,0.5,0.1,0.7,0.2c0.2,0.1,0.5,0.2,0.7,0.3
		C68.9,8.6,68.6,8.7,68.3,8.7z"/>
	<path fill="#BFCEDB" d="M79,6.7c-0.2-0.5-0.5-1-0.9-1.4c-0.4-0.4-0.9-0.7-1.4-0.9c-0.5-0.2-1.1-0.3-1.8-0.3c-0.7,0-1.3,0.1-1.8,0.3
		c-0.6,0.2-1.1,0.5-1.5,0.8c-0.4,0.4-0.7,0.8-1,1.3c-0.2,0.5-0.3,1.1-0.3,1.7c0,0.8,0.2,1.6,0.6,2.3c0.4,0.7,0.9,1.2,1.6,1.6
		c0.7,0.4,1.4,0.5,2.3,0.5c0.7,0,1.3-0.1,1.9-0.3c0.6-0.2,1.1-0.5,1.5-0.9c0.4-0.4,0.7-0.8,0.9-1.3c0.2-0.5,0.3-1.1,0.3-1.7
		C79.3,7.8,79.2,7.3,79,6.7z M75.5,9.1c-0.2,0.2-0.4,0.3-0.8,0.3c-0.3,0-0.5-0.1-0.7-0.3c-0.2-0.2-0.3-0.4-0.3-0.7
		c0-0.3,0.1-0.6,0.3-0.8c0.2-0.2,0.5-0.3,0.8-0.3c0.3,0,0.5,0.1,0.7,0.3c0.2,0.2,0.3,0.5,0.3,0.8C75.8,8.7,75.7,8.9,75.5,9.1z"/>
	<path fill="#BFCEDB" d="M95,7.1c0-0.3-0.1-0.6-0.1-0.8c-0.1-0.2-0.2-0.5-0.3-0.7C94.4,5.2,94.2,5,94,4.8c-0.3-0.2-0.6-0.3-0.9-0.4
		c-0.3-0.1-0.7-0.1-1.1-0.1c-0.4,0-0.7,0.1-1.1,0.2c-0.4,0.1-0.7,0.3-1,0.5c-0.2,0.1-0.4,0.3-0.5,0.5c-0.3-0.4-0.6-0.6-0.9-0.8
		c-0.4-0.2-1-0.4-1.6-0.4c-0.8,0-1.5,0.2-2.1,0.7V4.6V4.3h-0.3h-4h-0.3v0.3v7.7v0.3h0.3h4h0.3v-0.3v-5c0.1,0,0.1-0.1,0.2-0.1
		c0.1,0,0.2-0.1,0.3-0.1c0.2,0,0.3,0,0.3,0.1c0,0,0.1,0.1,0.1,0.3c0,0.2,0,0.6,0,1.2v3.6v0.3h0.3h3.8h0.3v-0.3v-5
		c0.1,0,0.1-0.1,0.2-0.1c0.1,0,0.2-0.1,0.3-0.1c0.2,0,0.3,0,0.3,0.1c0,0,0.1,0.1,0.1,0.3c0,0.2,0,0.6,0,1.2v3.6v0.3H91h3.8h0.3v-0.3
		V8.4C95.1,7.8,95.1,7.4,95,7.1z"/>
	<g>
		<g>
			<path fill="#BFCEDB" d="M0.1,9.5l3.7,2.8c-0.2,0-0.3,0-0.5,0H0.1V9.5z M4.9,12.3L0.1,8.7V0.9h4v3.9c0.5-0.2,1-0.3,1.5-0.3
				c0.5,0,1.1,0.1,1.5,0.3C7.6,5,8,5.3,8.4,5.6C8.7,6,9,6.4,9.2,6.8c0.2,0.5,0.3,1,0.3,1.6c0,0.6-0.1,1.2-0.4,1.7
				c-0.3,0.5-0.6,1-1.1,1.3c-0.5,0.4-1,0.6-1.5,0.7c-0.2,0-0.4,0.1-0.7,0.1C5.5,12.2,5.3,12.2,4.9,12.3C4.9,12.3,4.9,12.3,4.9,12.3z
				 M3.8,9.9h0.1c0.5,0,1,0,1.3-0.1c0.3-0.1,0.5-0.2,0.6-0.5C5.9,9.1,6,8.8,6,8.5c0-0.4-0.1-0.8-0.3-1C5.4,7.2,5.1,7,4.7,7
				C4.4,7,4.1,7.1,3.8,7.3V9.9z"/>
		</g>
	</g>
	<g>
		<g>
			<path fill="#BFCEDB" d="M19.8,3.2l-3.1-2.3h3.1V3.2z M15.8,1l4,3v8.3l-3.1,0c-0.5,0-1,0-1.4,0c-0.5,0-0.8,0-1-0.1
				c-0.2,0-0.4-0.1-0.6-0.1c-0.4-0.1-0.9-0.2-1.2-0.4c-0.6-0.3-1.1-0.8-1.4-1.4c-0.3-0.6-0.5-1.2-0.5-1.9c0-0.7,0.2-1.4,0.5-2
				c0.3-0.6,0.8-1.1,1.4-1.4c0.6-0.3,1.2-0.4,2-0.4c0.5,0,1,0.1,1.3,0.3V1z M16.2,7.4c-0.3-0.2-0.6-0.3-1-0.3
				c-0.4,0-0.7,0.1-0.9,0.4c-0.3,0.3-0.4,0.6-0.4,1c0,0.4,0.1,0.7,0.2,0.9c0.1,0.2,0.3,0.4,0.6,0.5c0.3,0.1,0.7,0.1,1.3,0.1h0.2V7.4
				z"/>
		</g>
	</g>
	<g>
		<g>
			<path fill="#BFCEDB" d="M0.2,18.3h0.9v3.1h1.4v1H0.2V18.3z"/>
		</g>
		<g>
			<path fill="#BFCEDB" d="M5.2,21.7h-1L4,22.4H3.1l1.1-4.1h1l1.1,4.1H5.3L5.2,21.7z M5,20.8l-0.3-1.5l-0.3,1.5H5z"/>
		</g>
		<g>
			<path fill="#BFCEDB" d="M7,22.4v-4.1h1.5c0.3,0,0.5,0,0.6,0.1c0.1,0.1,0.3,0.2,0.4,0.4c0.1,0.2,0.1,0.4,0.1,0.7
				c0,0.2,0,0.4-0.1,0.6c-0.1,0.2-0.2,0.3-0.3,0.4c-0.1,0.1-0.2,0.1-0.3,0.2c0.1,0.1,0.2,0.1,0.2,0.1c0,0,0.1,0.1,0.1,0.2
				c0.1,0.1,0.1,0.2,0.1,0.3l0.4,1.2h-1l-0.5-1.2c-0.1-0.2-0.1-0.3-0.2-0.3c-0.1-0.1-0.1-0.1-0.2-0.1H7.9v1.7H7z M7.9,20h0.4
				c0,0,0.1,0,0.2-0.1c0.1,0,0.1-0.1,0.1-0.1c0-0.1,0.1-0.1,0.1-0.2c0-0.1,0-0.2-0.1-0.3c-0.1-0.1-0.2-0.1-0.3-0.1H7.9V20z"/>
		</g>
		<g>
			<path fill="#BFCEDB" d="M12,20.9v-0.8h1.4v1.7c-0.3,0.3-0.5,0.4-0.7,0.5c-0.2,0.1-0.4,0.1-0.7,0.1c-0.3,0-0.6-0.1-0.9-0.2
				c-0.2-0.2-0.4-0.4-0.5-0.7c-0.1-0.3-0.2-0.7-0.2-1.1c0-0.4,0.1-0.8,0.2-1.2c0.1-0.3,0.3-0.6,0.6-0.7c0.2-0.1,0.5-0.2,0.8-0.2
				c0.3,0,0.6,0,0.7,0.1c0.2,0.1,0.3,0.2,0.4,0.4c0.1,0.2,0.2,0.4,0.2,0.7l-0.9,0.2c0-0.2-0.1-0.3-0.2-0.4c-0.1-0.1-0.2-0.1-0.3-0.1
				c-0.2,0-0.4,0.1-0.5,0.3c-0.1,0.2-0.2,0.5-0.2,0.9c0,0.4,0.1,0.8,0.2,0.9c0.1,0.2,0.3,0.3,0.5,0.3c0.1,0,0.2,0,0.3-0.1
				c0.1,0,0.2-0.1,0.3-0.2v-0.4H12z"/>
		</g>
		<g>
			<path fill="#BFCEDB" d="M14.3,18.3h2.4v0.9h-1.5v0.6h1.4v0.8h-1.4v0.8h1.6v0.9h-2.5V18.3z"/>
		</g>
		<g>
			<path fill="#BFCEDB" d="M17.6,21l0.9-0.1c0,0.2,0.1,0.3,0.1,0.4c0.1,0.2,0.2,0.2,0.4,0.2c0.1,0,0.2,0,0.3-0.1
				c0.1-0.1,0.1-0.2,0.1-0.3c0-0.1,0-0.2-0.1-0.3c-0.1-0.1-0.2-0.2-0.5-0.2c-0.4-0.1-0.7-0.3-0.8-0.5c-0.2-0.2-0.3-0.5-0.3-0.8
				c0-0.2,0-0.4,0.1-0.6c0.1-0.2,0.2-0.3,0.4-0.4c0.2-0.1,0.4-0.2,0.7-0.2c0.4,0,0.7,0.1,0.9,0.3c0.2,0.2,0.3,0.5,0.4,0.9l-0.9,0.1
				c0-0.2-0.1-0.3-0.1-0.4C19.1,19,19,19,18.8,19c-0.1,0-0.2,0-0.2,0.1c-0.1,0.1-0.1,0.1-0.1,0.2c0,0.1,0,0.1,0.1,0.2
				c0,0.1,0.1,0.1,0.3,0.1c0.4,0.1,0.7,0.2,0.8,0.4c0.2,0.1,0.3,0.3,0.4,0.5c0.1,0.2,0.1,0.4,0.1,0.6c0,0.3-0.1,0.5-0.2,0.7
				c-0.1,0.2-0.2,0.4-0.4,0.5c-0.2,0.1-0.4,0.2-0.7,0.2c-0.5,0-0.8-0.1-1-0.4C17.7,21.8,17.6,21.4,17.6,21z"/>
		</g>
		<g>
			<path fill="#BFCEDB" d="M20.9,18.3h2.7v1h-0.9v3.1h-0.9v-3.1h-0.9V18.3z"/>
		</g>
		<g>
			<path fill="#BFCEDB" d="M27.5,18.3h0.9v2.2c0,0.5,0,0.8-0.1,1.1c-0.1,0.2-0.2,0.4-0.4,0.6c-0.2,0.2-0.4,0.3-0.7,0.3
				c-0.3,0-0.5-0.1-0.7-0.2c-0.2-0.1-0.3-0.3-0.4-0.5c-0.1-0.2-0.1-0.5-0.2-0.8l0.9-0.2c0,0.2,0,0.3,0,0.4c0,0.1,0.1,0.2,0.1,0.2
				c0,0,0.1,0.1,0.1,0.1c0.1,0,0.2-0.1,0.2-0.2c0-0.1,0.1-0.3,0.1-0.5V18.3z"/>
		</g>
		<g>
			<path fill="#BFCEDB" d="M29.3,20.4c0-0.7,0.1-1.2,0.4-1.6c0.3-0.4,0.6-0.6,1.1-0.6c0.5,0,0.9,0.2,1.1,0.5
				c0.3,0.4,0.4,0.9,0.4,1.5c0,0.5-0.1,0.9-0.2,1.2c-0.1,0.3-0.3,0.5-0.5,0.7c-0.2,0.2-0.5,0.3-0.8,0.3c-0.3,0-0.6-0.1-0.8-0.2
				c-0.2-0.1-0.4-0.4-0.5-0.7C29.4,21.2,29.3,20.8,29.3,20.4z M30.2,20.4c0,0.4,0.1,0.7,0.2,0.9c0.1,0.2,0.3,0.3,0.4,0.3
				c0.2,0,0.3-0.1,0.5-0.3c0.1-0.2,0.2-0.5,0.2-0.9c0-0.4-0.1-0.7-0.2-0.8c-0.1-0.2-0.3-0.3-0.5-0.3c-0.2,0-0.3,0.1-0.4,0.3
				C30.3,19.6,30.2,19.9,30.2,20.4z"/>
		</g>
		<g>
			<path fill="#BFCEDB" d="M33.3,18.3H35c0.3,0,0.5,0.1,0.6,0.3c0.2,0.2,0.2,0.4,0.2,0.7c0,0.2-0.1,0.4-0.2,0.6
				c-0.1,0.1-0.2,0.2-0.3,0.3c0.2,0.1,0.4,0.2,0.5,0.4c0.1,0.2,0.1,0.4,0.1,0.6c0,0.2,0,0.4-0.1,0.6c-0.1,0.2-0.2,0.3-0.3,0.4
				c-0.1,0.1-0.2,0.1-0.3,0.1c-0.2,0-0.3,0.1-0.4,0.1h-1.6V18.3z M34.2,19.9h0.4c0.1,0,0.2,0,0.3-0.1c0.1-0.1,0.1-0.2,0.1-0.3
				c0-0.1,0-0.2-0.1-0.3c-0.1-0.1-0.2-0.1-0.3-0.1h-0.4V19.9z M34.2,21.5h0.5c0.2,0,0.3,0,0.3-0.1c0.1-0.1,0.1-0.2,0.1-0.3
				c0-0.1,0-0.2-0.1-0.3c-0.1-0.1-0.2-0.1-0.3-0.1h-0.5V21.5z"/>
		</g>
		<g>
			<path fill="#BFCEDB" d="M38.5,21l0.9-0.1c0,0.2,0.1,0.3,0.1,0.4c0.1,0.2,0.2,0.2,0.4,0.2c0.1,0,0.2,0,0.3-0.1
				c0.1-0.1,0.1-0.2,0.1-0.3c0-0.1,0-0.2-0.1-0.3c-0.1-0.1-0.2-0.2-0.5-0.2c-0.4-0.1-0.7-0.3-0.8-0.5c-0.2-0.2-0.3-0.5-0.3-0.8
				c0-0.2,0-0.4,0.1-0.6c0.1-0.2,0.2-0.3,0.4-0.4c0.2-0.1,0.4-0.2,0.7-0.2c0.4,0,0.7,0.1,0.9,0.3c0.2,0.2,0.3,0.5,0.4,0.9l-0.9,0.1
				c0-0.2-0.1-0.3-0.1-0.4C40,19,39.9,19,39.8,19c-0.1,0-0.2,0-0.2,0.1c-0.1,0.1-0.1,0.1-0.1,0.2c0,0.1,0,0.1,0.1,0.2
				c0,0.1,0.1,0.1,0.3,0.1c0.4,0.1,0.7,0.2,0.8,0.4c0.2,0.1,0.3,0.3,0.4,0.5c0.1,0.2,0.1,0.4,0.1,0.6c0,0.3-0.1,0.5-0.2,0.7
				c-0.1,0.2-0.2,0.4-0.4,0.5c-0.2,0.1-0.4,0.2-0.7,0.2c-0.5,0-0.8-0.1-1-0.4C38.7,21.8,38.6,21.4,38.5,21z"/>
		</g>
		<g>
			<path fill="#BFCEDB" d="M42.1,18.3H43v4.1h-0.9V18.3z"/>
		</g>
		<g>
			<path fill="#BFCEDB" d="M43.9,18.3h2.7v1h-0.9v3.1h-0.9v-3.1h-0.9V18.3z"/>
		</g>
		<g>
			<path fill="#BFCEDB" d="M47.5,18.3h2.4v0.9h-1.5v0.6h1.4v0.8h-1.4v0.8h1.6v0.9h-2.5V18.3z"/>
		</g>
		<g>
			<path fill="#BFCEDB" d="M52.7,18.3h0.9v4.1h-0.9V18.3z"/>
		</g>
		<g>
			<path fill="#BFCEDB" d="M54.7,18.3h0.8l1.1,2.3v-2.3h0.9v4.1h-0.9l-1.1-2.2v2.2h-0.8V18.3z"/>
		</g>
		<g>
			<path fill="#BFCEDB" d="M60.3,18.3H62c0.3,0,0.5,0.1,0.6,0.3c0.1,0.2,0.2,0.4,0.2,0.7c0,0.2-0.1,0.4-0.2,0.6
				c-0.1,0.1-0.2,0.2-0.3,0.3c0.2,0.1,0.4,0.2,0.5,0.4c0.1,0.2,0.2,0.4,0.2,0.6c0,0.2,0,0.4-0.1,0.6c-0.1,0.2-0.2,0.3-0.3,0.4
				c-0.1,0.1-0.2,0.1-0.3,0.1c-0.2,0-0.3,0.1-0.4,0.1h-1.6V18.3z M61.2,19.9h0.4c0.1,0,0.2,0,0.3-0.1c0.1-0.1,0.1-0.2,0.1-0.3
				c0-0.1,0-0.2-0.1-0.3c-0.1-0.1-0.2-0.1-0.3-0.1h-0.4V19.9z M61.2,21.5h0.5c0.2,0,0.3,0,0.3-0.1c0.1-0.1,0.1-0.2,0.1-0.3
				c0-0.1,0-0.2-0.1-0.3c-0.1-0.1-0.2-0.1-0.3-0.1h-0.5V21.5z"/>
		</g>
		<g>
			<path fill="#BFCEDB" d="M65.6,21.7h-1l-0.1,0.7h-0.9l1.1-4.1h1l1.1,4.1h-0.9L65.6,21.7z M65.4,20.8l-0.3-1.5l-0.3,1.5H65.4z"/>
		</g>
		<g>
			<path fill="#BFCEDB" d="M67.4,18.3h0.8l1.1,2.3v-2.3h0.9v4.1h-0.9l-1.1-2.2v2.2h-0.8V18.3z"/>
		</g>
		<g>
			<path fill="#BFCEDB" d="M72.8,20.9v-0.8h1.4v1.7c-0.3,0.3-0.5,0.4-0.7,0.5c-0.2,0.1-0.4,0.1-0.7,0.1c-0.3,0-0.6-0.1-0.9-0.2
				c-0.2-0.2-0.4-0.4-0.5-0.7c-0.1-0.3-0.2-0.7-0.2-1.1c0-0.4,0.1-0.8,0.2-1.2c0.1-0.3,0.3-0.6,0.6-0.7c0.2-0.1,0.5-0.2,0.8-0.2
				c0.3,0,0.6,0,0.7,0.1c0.2,0.1,0.3,0.2,0.4,0.4c0.1,0.2,0.2,0.4,0.2,0.7l-0.9,0.2c0-0.2-0.1-0.3-0.2-0.4c-0.1-0.1-0.2-0.1-0.3-0.1
				c-0.2,0-0.4,0.1-0.5,0.3c-0.1,0.2-0.2,0.5-0.2,0.9c0,0.4,0.1,0.8,0.2,0.9c0.1,0.2,0.3,0.3,0.5,0.3c0.1,0,0.2,0,0.3-0.1
				c0.1,0,0.2-0.1,0.3-0.2v-0.4H72.8z"/>
		</g>
		<g>
			<path fill="#BFCEDB" d="M75.1,18.3H76v3.1h1.4v1h-2.3V18.3z"/>
		</g>
		<g>
			<path fill="#BFCEDB" d="M80.1,21.7h-1l-0.1,0.7H78l1.1-4.1h1l1.1,4.1h-0.9L80.1,21.7z M79.9,20.8l-0.3-1.5l-0.3,1.5H79.9z"/>
		</g>
		<g>
			<path fill="#BFCEDB" d="M81.9,18.3h1.3c0.3,0,0.5,0.1,0.6,0.1c0.2,0.1,0.3,0.2,0.4,0.4c0.1,0.2,0.2,0.4,0.2,0.7
				c0,0.2,0.1,0.5,0.1,0.8c0,0.4,0,0.8-0.1,1c-0.1,0.2-0.2,0.4-0.3,0.6c-0.1,0.2-0.3,0.3-0.4,0.3c-0.2,0.1-0.4,0.1-0.5,0.1h-1.3
				V18.3z M82.8,19.2v2.2H83c0.2,0,0.3,0,0.4-0.1c0.1-0.1,0.1-0.2,0.2-0.3c0-0.1,0.1-0.4,0.1-0.7c0-0.4-0.1-0.7-0.2-0.9
				c-0.1-0.2-0.3-0.2-0.5-0.2H82.8z"/>
		</g>
		<g>
			<path fill="#BFCEDB" d="M85.5,18.3h2.4v0.9h-1.5v0.6h1.4v0.8h-1.4v0.8H88v0.9h-2.5V18.3z"/>
		</g>
		<g>
			<path fill="#BFCEDB" d="M88.7,21l0.9-0.1c0,0.2,0.1,0.3,0.1,0.4c0.1,0.2,0.2,0.2,0.4,0.2c0.1,0,0.2,0,0.3-0.1
				c0.1-0.1,0.1-0.2,0.1-0.3c0-0.1,0-0.2-0.1-0.3c-0.1-0.1-0.2-0.2-0.5-0.2c-0.4-0.1-0.7-0.3-0.8-0.5c-0.2-0.2-0.3-0.5-0.3-0.8
				c0-0.2,0-0.4,0.1-0.6c0.1-0.2,0.2-0.3,0.4-0.4c0.2-0.1,0.4-0.2,0.7-0.2c0.4,0,0.7,0.1,0.9,0.3c0.2,0.2,0.3,0.5,0.4,0.9l-0.9,0.1
				c0-0.2-0.1-0.3-0.1-0.4C90.2,19,90.1,19,90,19c-0.1,0-0.2,0-0.2,0.1c-0.1,0.1-0.1,0.1-0.1,0.2c0,0.1,0,0.1,0.1,0.2
				c0,0.1,0.1,0.1,0.3,0.1c0.4,0.1,0.7,0.2,0.8,0.4c0.2,0.1,0.3,0.3,0.4,0.5c0.1,0.2,0.1,0.4,0.1,0.6c0,0.3-0.1,0.5-0.2,0.7
				c-0.1,0.2-0.2,0.4-0.4,0.5c-0.2,0.1-0.4,0.2-0.7,0.2c-0.5,0-0.8-0.1-1-0.4C88.8,21.8,88.7,21.4,88.7,21z"/>
		</g>
		<g>
			<path fill="#BFCEDB" d="M92.3,18.3h0.9v1.4h1v-1.4h0.9v4.1h-0.9v-1.6h-1v1.6h-0.9V18.3z"/>
		</g>
	</g>
	<g>
		<g>
			<rect y="15.1" fill="#BFCEDB" width="94.9" height="0.6"/>
		</g>
	</g>
</g>
</svg>
