<svg width="16" height="16" viewBox="0 0 16 16" fill="none" xmlns="http://www.w3.org/2000/svg">
<rect width="16" height="16" rx="2" fill="#4D83AF"/>
<g clip-path="url(#clip0_17460_2098)">
<path d="M5.01094 7.3275C5.81094 8.89969 7.09969 10.1887 8.67219 10.9887L9.89438 9.76656C10.05 9.61094 10.2666 9.56656 10.4609 9.62781C11.0831 9.83344 11.7497 9.94438 12.4444 9.94438C12.7513 9.94438 13 10.1931 13 10.5V12.4444C13 12.7513 12.7513 13 12.4444 13C7.22844 13 3 8.77156 3 3.55563C3 3.24875 3.24875 3 3.55563 3H5.5C5.80687 3 6.05562 3.24875 6.05562 3.55563C6.05562 4.25 6.16687 4.91688 6.37219 5.53906C6.43344 5.73344 6.38875 5.95031 6.23344 6.10562L5.01094 7.3275Z" fill="white"/>
</g>
<defs>
<clipPath id="clip0_17460_2098">
<rect width="10" height="10" fill="white" transform="translate(3 3)"/>
</clipPath>
</defs>
</svg>
