<svg width="16" height="16" viewBox="0 0 16 16" fill="none" xmlns="http://www.w3.org/2000/svg">
<rect width="16" height="16" rx="2" fill="#4D83AF"/>
<path d="M7.99992 4.25C5.70825 4.25 3.83325 5.74167 3.83325 7.58333C3.85409 8.47917 4.27492 9.32083 4.97909 9.875C4.97909 10.125 4.80409 10.7792 3.83325 11.75C4.82075 11.7042 5.76659 11.3333 6.52909 10.7083C7.00409 10.8458 7.50409 10.9167 7.99992 10.9167C10.2916 10.9167 12.1666 9.425 12.1666 7.58333C12.1666 5.74167 10.2916 4.25 7.99992 4.25ZM7.99992 10.0833C6.15825 10.0833 4.66659 8.9625 4.66659 7.58333C4.66659 6.20417 6.15825 5.08333 7.99992 5.08333C9.84159 5.08333 11.3333 6.20417 11.3333 7.58333C11.3333 8.9625 9.84159 10.0833 7.99992 10.0833ZM10.0833 8V7.16667H9.24992V8H10.0833ZM8.41658 8V7.16667H7.58325V8H8.41658ZM6.74992 8V7.16667H5.91659V8H6.74992Z" fill="white"/>
</svg>
