<svg width="81" height="81" viewBox="0 0 81 81" fill="none" xmlns="http://www.w3.org/2000/svg">
<path d="M40.5 80.5C62.5914 80.5 80.5 62.5914 80.5 40.5C80.5 18.4086 62.5914 0.5 40.5 0.5C18.4086 0.5 0.5 18.4086 0.5 40.5C0.5 62.5914 18.4086 80.5 40.5 80.5Z" fill="#3167A8"/>
<path d="M42.6896 25.8474V63.4895L56.9212 56.9211V22.2263L42.6896 25.8474ZM53.4685 54.9L46.6475 57.0895V52.4579L53.4685 50.2684V54.9ZM53.4685 47.4053L46.6475 49.5947V44.9632L53.4685 42.7737V47.4053ZM53.4685 39.9105L46.6475 42.1V37.4684L53.4685 35.279V39.9105ZM53.4685 32.4158L46.6475 34.6053V29.9737L53.4685 27.7842V32.4158Z" fill="white"/>
<path d="M25.1738 22.2263V56.9211L39.4055 63.4895V25.8474L25.1738 22.2263ZM35.5317 57.0895L28.7107 54.9V50.2684L35.5317 52.4579V57.0895ZM35.5317 49.5947L28.7107 47.4053V42.7737L35.5317 44.9632V49.5947ZM35.5317 42.1L28.7107 39.9105V35.279L35.5317 37.4684V42.1ZM35.5317 34.6053L28.7107 32.4158V27.7842L35.5317 29.9737V34.6053Z" fill="white"/>
<path d="M40.9211 22.9L27.1948 19.7L40.9211 17.4263L53.7211 20.3736L40.9211 22.9Z" fill="white"/>
</svg>
