<svg xmlns="http://www.w3.org/2000/svg" width="64" height="64" viewBox="0 0 64 64">
  <g id="Group_3947" transform="translate(-148 -168)">
    <g id="business-24px" transform="translate(148 168)">
      <path id="Path_3016" d="M0,0H64V64H0Z" fill="none"/>
      <path id="Path_3017"  d="M28.667,13.667V3H2V51H55.333V13.667Zm-16,32H7.333V40.333h5.333Zm0-10.667H7.333V29.667h5.333Zm0-10.667H7.333V19h5.333Zm0-10.667H7.333V8.333h5.333Zm10.667,32H18V40.333h5.333Zm0-10.667H18V29.667h5.333Zm0-10.667H18V19h5.333Zm0-10.667H18V8.333h5.333ZM50,45.667H28.667V40.333H34V35H28.667V29.667H34V24.333H28.667V19H50ZM44.667,24.333H39.333v5.333h5.333Zm0,10.667H39.333v5.333h5.333Z" transform="translate(3.333 5)" fill="#696969"/>
    </g>
    <g id="Group_3946" transform="translate(-7 -2)">
      <g id="Ellipse_214"  transform="translate(189 204)" fill="#00ae56" stroke="#fff" stroke-width="2">
        <circle cx="15" cy="15" r="15" stroke="none"/>
        <circle cx="15" cy="15" r="14" fill="none"/>
      </g>
      <g id="check-24px" transform="translate(192.75 207.75)">
        <path id="Path_3018"  d="M0,0H22.5V22.5H0Z" fill="none"/>
        <path id="Path_3019"  d="M8.651,15.509,4.741,11.6,3.41,12.921l5.241,5.241L19.9,6.912,18.579,5.59Z" transform="translate(-0.213 -0.349)" fill="#fff"/>
      </g>
    </g>
  </g>
</svg>
