<?xml version="1.0" encoding="utf-8"?>
<!-- Generator: Adobe Illustrator 22.0.1, SVG Export Plug-In . SVG Version: 6.00 Build 0)  -->
<svg version="1.1" id="Layer_1" xmlns="http://www.w3.org/2000/svg" xmlns:xlink="http://www.w3.org/1999/xlink" x="0px" y="0px"
	 viewBox="0 0 14 14" enable-background="new 0 0 14 14" xml:space="preserve">
<g id="Group_3811" transform="translate(-267 -484)">
	<path id="Path_7970" fill="#B32D7D" d="M274,484c3.9,0,7,3.1,7,7s-3.1,7-7,7s-7-3.1-7-7S270.1,484,274,484z"/>
	<g id="Group_3720" transform="translate(269.333 486.917)">
		<g id="round-local_phone-24px" transform="translate(0 0)">
			<g id="Bounding_Boxes">
				<path id="Path_7958" fill="none" d="M0,0h8.6v8.6H0V0z"/>
			</g>
			<g id="Rounded" transform="translate(1.086 1.073)">
				<path id="Path_7959" fill="#FFFFFF" d="M5.8,4.4L4.9,4.3c-0.2,0-0.4,0-0.6,0.2L3.7,5.1c-1-0.5-1.8-1.3-2.4-2.3L2,2.1
					C2.1,2,2.2,1.7,2.2,1.5L2.1,0.6C2,0.3,1.7,0,1.3,0H0.7C0.3,0,0,0.3,0,0.7c0,0,0,0,0,0c0.2,3.1,2.6,5.5,5.7,5.7
					c0.4,0,0.7-0.3,0.7-0.7c0,0,0,0,0,0V5.1C6.5,4.7,6.2,4.4,5.8,4.4z"/>
			</g>
		</g>
		<g id="round-message-24px" transform="translate(4.308 0)">
			<g id="Bounding_Boxes-2">
				<path id="Path_7962" fill="none" d="M0,0h5v5H0V0z"/>
			</g>
			<g id="Rounded_1_" transform="translate(0.419 0.419)">
				<path id="Path_7963" fill="#FFFFFF" d="M3.8,0H0.4C0.2,0,0,0.2,0,0.4c0,0,0,0,0,0v3.8l0.8-0.8h2.9c0.2,0,0.4-0.2,0.4-0.4V0.4
					C4.2,0.2,4,0,3.8,0z M3.1,2.5H1c-0.1,0-0.2-0.1-0.2-0.2c0,0,0,0,0,0l0,0c0-0.1,0.1-0.2,0.2-0.2h2.1c0.1,0,0.2,0.1,0.2,0.2l0,0
					C3.4,2.4,3.3,2.5,3.1,2.5C3.1,2.5,3.1,2.5,3.1,2.5z M3.1,1.9H1c-0.1,0-0.2-0.1-0.2-0.2l0,0c0-0.1,0.1-0.2,0.2-0.2h2.1
					c0.1,0,0.2,0.1,0.2,0.2l0,0C3.3,1.8,3.3,1.9,3.1,1.9z M3.1,1.3H1C0.9,1.3,0.8,1.2,0.8,1l0,0c0-0.1,0.1-0.2,0.2-0.2h2.1
					c0.1,0,0.2,0.1,0.2,0.2l0,0C3.3,1.2,3.3,1.3,3.1,1.3L3.1,1.3z"/>
			</g>
		</g>
	</g>
</g>
</svg>
