<svg xmlns="http://www.w3.org/2000/svg" width="84" height="84" viewBox="0 0 84 84">
  <g id="Group_3955" data-name="Group 3955" transform="translate(-138 -100)">
    <circle id="Ellipse_198" data-name="Ellipse 198" cx="42" cy="42" r="42" transform="translate(138 100)" opacity="0.2"/>
    <g id="customer-service" transform="translate(126.463 116)">
      <path id="Path_8069" data-name="Path 8069" d="M141.7,35.243l-9.876,2.568a3.774,3.774,0,0,1-1.863.009l-10.419-2.6a3.709,3.709,0,0,1-2.812-3.6V20.24A12.734,12.734,0,0,1,129.459,7.506h2.277A12.734,12.734,0,0,1,144.471,20.24V31.653A3.71,3.71,0,0,1,141.7,35.243Z" transform="translate(-77.434 -6.744)" fill="#fd9727"/>
      <path id="Path_8070" data-name="Path 8070" d="M229.462,7.507h-2.277a12.859,12.859,0,0,0-1.687.111,12.737,12.737,0,0,1,11.047,12.623V31.654a3.709,3.709,0,0,1-2.776,3.59l-8.04,2.091,1.952.487a3.774,3.774,0,0,0,1.863-.009l9.876-2.568a3.709,3.709,0,0,0,2.776-3.59V20.241A12.734,12.734,0,0,0,229.462,7.507Z" transform="translate(-175.16 -6.745)" fill="#ff6d3a"/>
      <g id="Group_3925" data-name="Group 3925" transform="translate(38.442 14.849)">
        <path id="Path_8071" data-name="Path 8071" d="M109.812,152.806h2.7v-6.6h-2.7a1.438,1.438,0,0,0-1.438,1.438v3.722A1.437,1.437,0,0,0,109.812,152.806Z" transform="translate(-108.374 -146.209)" fill="#3d6687"/>
        <path id="Path_8072" data-name="Path 8072" d="M365.566,152.806h-2.7v-6.6h2.7A1.438,1.438,0,0,1,367,147.647v3.722A1.437,1.437,0,0,1,365.566,152.806Z" transform="translate(-337.017 -146.209)" fill="#3d6687"/>
      </g>
      <path id="Path_8073" data-name="Path 8073" d="M198.477,266.6a2.024,2.024,0,0,1-1.625-1.984v-4.562H187.9v4.562a2.024,2.024,0,0,1-1.625,1.984l-1.091.219v7.326h14.385v-7.326Z" transform="translate(-138.94 -233.644)" fill="#fed9a8"/>
      <path id="Path_8074" data-name="Path 8074" d="M75.6,323.638l-8.979-2.8a.806.806,0,0,0-.795.185l-5.649,5.353-5.649-5.353a.807.807,0,0,0-.795-.185l-8.979,2.8a9.357,9.357,0,0,0-6.714,8.976V338.6a.862.862,0,0,0,.862.862H81.454a.862.862,0,0,0,.862-.862v-5.982A9.357,9.357,0,0,0,75.6,323.638Z" transform="translate(-6.745 -288.22)" fill="#ff4c4c"/>
      <path id="Path_8075" data-name="Path 8075" d="M312.049,323.638l-8.979-2.8a.806.806,0,0,0-.795.185l-1.056,1,5.178,1.614a9.357,9.357,0,0,1,6.714,8.976v6.844H317.9a.862.862,0,0,0,.862-.862v-5.982A9.357,9.357,0,0,0,312.049,323.638Z" transform="translate(-243.192 -288.22)" fill="#ef2929"/>
      <path id="Path_8076" data-name="Path 8076" d="M157.29,72.243h0a11.158,11.158,0,0,1-11.158-11.158V57.948A11.159,11.159,0,0,1,157.29,46.79h0a11.159,11.159,0,0,1,11.158,11.158v3.136A11.158,11.158,0,0,1,157.29,72.243Z" transform="translate(-103.855 -42.038)" fill="#fed9a8"/>
      <path id="Path_8077" data-name="Path 8077" d="M236.511,61.088V73.93a11.163,11.163,0,0,1-8.333,10.8,11.177,11.177,0,0,0,2.826.361h0A11.159,11.159,0,0,0,242.162,73.93V70.794A11.154,11.154,0,0,0,236.511,61.088Z" transform="translate(-177.568 -54.884)" fill="#f4c892"/>
      <g id="Group_3926" data-name="Group 3926" transform="translate(43.251 32.582)">
        <path id="Path_8078" data-name="Path 8078" d="M160.255,321.024l5.649,5.353-3.484,1.187a2.226,2.226,0,0,1-2.392-.64l-4.309-4.917,3.742-1.167A.806.806,0,0,1,160.255,321.024Z" transform="translate(-155.719 -320.803)" fill="#d4145a"/>
        <path id="Path_8079" data-name="Path 8079" d="M261.648,321.024,256,326.377l3.157,1.076a2.741,2.741,0,0,0,2.946-.788l4.082-4.658-3.742-1.167A.806.806,0,0,0,261.648,321.024Z" transform="translate(-245.815 -320.803)" fill="#d4145a"/>
      </g>
      <path id="Path_8080" data-name="Path 8080" d="M134.458,428.179h-5.743a.577.577,0,0,1-.577-.577v-2.544a.577.577,0,0,1,.577-.577h5.743a.577.577,0,0,1,.577.577V427.6A.577.577,0,0,1,134.458,428.179Z" transform="translate(-87.687 -381.369)" fill="#eda558"/>
      <path id="Path_8081" data-name="Path 8081" d="M144.47,22.593s-4.814-.382-6.462-4.81c0,0-11.638,9.317-21.284,4.81V20.24A12.734,12.734,0,0,1,129.458,7.506h2.277A12.734,12.734,0,0,1,144.47,20.24v2.352Z" transform="translate(-77.434 -6.744)" fill="#fd9727"/>
      <path id="Path_8082" data-name="Path 8082" d="M229.462,7.507h-2.277a12.859,12.859,0,0,0-1.687.111A12.738,12.738,0,0,1,236.51,19.3a8.227,8.227,0,0,0,5.686,3.3V20.241A12.734,12.734,0,0,0,229.462,7.507Z" transform="translate(-175.16 -6.745)" fill="#ff6d3a"/>
      <path id="Path_8083" data-name="Path 8083" d="M262.561,253.89a1.474,1.474,0,0,1-.247-2.927l2.485-.426a1.474,1.474,0,1,1,.5,2.905l-2.485.426A1.477,1.477,0,0,1,262.561,253.89Z" transform="translate(-207.136 -225.072)" fill="#d4145a"/>
      <path id="Path_8084" data-name="Path 8084" d="M74.318,38.332a10.045,10.045,0,0,0-5.239-3.644l-5.23-1.631h0L60.106,31.89a1.567,1.567,0,0,0-1.007.025,1.264,1.264,0,0,1-.424-.942V30.74l5.778-1.5A4.473,4.473,0,0,0,67.8,24.91V22.055a2.2,2.2,0,0,0,1.392-2.046V16.287A2.186,2.186,0,0,0,67.8,14.242V13.5a13.677,13.677,0,0,0-.108-1.719.762.762,0,1,0-1.513.192,12.153,12.153,0,0,1,.1,1.526v1.445a8.328,8.328,0,0,1-1.5-.516l-.08-.037a6.524,6.524,0,0,1-3.054-2.829l-.035-.067q-.044-.085-.086-.172c-.022-.045-.042-.091-.063-.137s-.038-.084-.057-.127c-.04-.093-.078-.188-.114-.284a.763.763,0,0,0-.69-.5h-.034c-.019,0-.037,0-.056,0a.761.761,0,0,0-.368.134c-.014.01-.029.019-.043.03l-.03.024-.005,0-.023.018-.018.014L60,10.52l-.036.028-.019.014-.056.042-.013.01c-1.411,1.058-9.261,6.626-16.794,5.564l-.04-.006q-.182-.026-.363-.058l-.1-.018q-.157-.028-.313-.061l-.1-.021q-.181-.039-.361-.084l-.146-.038-.223-.06-.175-.051c-.081-.024-.162-.05-.243-.075l-.217-.072c-.081-.028-.162-.056-.243-.086l-.144-.054c-.109-.042-.218-.084-.327-.129l-.03-.012V13.5A11.986,11.986,0,0,1,52.025,1.525H54.3a11.968,11.968,0,0,1,11,7.238.762.762,0,0,0,1.4-.6A13.492,13.492,0,0,0,54.3,0H52.025a13.512,13.512,0,0,0-13.5,13.5v1.057a2.2,2.2,0,0,0-.848,1.733v3.722a2.2,2.2,0,0,0,.848,1.734V24.88a4.465,4.465,0,0,0,3.39,4.339L48.2,30.784v.19a1.264,1.264,0,0,1-.425.942,1.569,1.569,0,0,0-1.007-.025l-3.742,1.167h0l-5.23,1.631a10.093,10.093,0,0,0-6.438,5.721c-.092.214-.177.434-.254.653a.762.762,0,1,0,1.44.5c.065-.187.138-.374.216-.555a8.572,8.572,0,0,1,5.473-4.86l.012,0L43,34.66,46.986,39.2a2.981,2.981,0,0,0,3.212.859l3.238-1.1,2.911.992a3.494,3.494,0,0,0,3.765-1.008l3.755-4.285,4.764,1.485.012,0a8.595,8.595,0,0,1,6.167,8.245v5.982a.1.1,0,0,1-.1.1H70.591v-6.97a.762.762,0,0,0-1.525,0v6.97H37.8v-6.97a.762.762,0,0,0-1.525,0v6.97H32.162a.1.1,0,0,1-.1-.1v-5.49a.762.762,0,0,0-1.525,0v5.49A1.627,1.627,0,0,0,32.162,52H74.71a1.626,1.626,0,0,0,1.625-1.625V44.394A10.047,10.047,0,0,0,74.318,38.332ZM66.274,24.91a2.947,2.947,0,0,1-2.205,2.852l-3.661.952c.047-.034.092-.07.138-.1l.057-.043q.2-.147.385-.3l.049-.041q.2-.167.4-.343l.019-.017q.31-.282.6-.585l.043-.045q.143-.151.281-.307l.861-.148A3.971,3.971,0,0,0,66.274,24.3v.614h0Zm-1.026-4.254q.051-.377.078-.76c0-.026,0-.052,0-.078q.01-.15.015-.3c0-.032,0-.065,0-.1,0-.124.006-.248.006-.373V16.276a8.41,8.41,0,0,0,1.618.333h0a.762.762,0,0,0,.577-.2.777.777,0,0,0,.058-.06l.018-.023c.011-.014.022-.028.033-.042l0-.006v3.731a.675.675,0,0,1-.643.673h-.013l-.037,0h-1.73C65.245,20.675,65.246,20.665,65.248,20.655Zm-1.21,3.838q.08-.155.155-.312c.025-.053.05-.107.075-.16q.07-.152.137-.307c.023-.053.045-.107.067-.161q.057-.14.111-.282c.017-.044.034-.087.05-.131.044-.12.086-.242.126-.364.015-.046.03-.091.045-.137q.06-.189.113-.38c0-.017.01-.033.015-.049h.087v.645A2.449,2.449,0,0,1,63.765,25c.019-.034.037-.068.056-.1q.066-.117.129-.235C63.979,24.6,64.009,24.549,64.038,24.493ZM39.6,20.624h0a.675.675,0,0,1-.4-.614V16.648l.067.029.106.045.228.095.1.04q.154.061.31.118l.013,0a13.792,13.792,0,0,0,1.486.45v1.617c0,.125,0,.249.006.373,0,.032,0,.065,0,.1q.006.151.015.3c0,.026,0,.052,0,.078q.027.384.078.76c0,.01,0,.02,0,.029H39.88A.672.672,0,0,1,39.6,20.624Zm2.683,7.115a2.942,2.942,0,0,1-2.234-2.859V22.209H41.94c0,.016.01.032.014.048q.055.2.116.389c.014.045.029.09.044.135.041.125.084.249.129.372.017.045.034.09.051.135q.058.152.12.3.037.089.075.178.062.143.127.283c.023.051.047.1.071.152.052.108.106.214.161.32q.043.084.088.167.082.151.167.3c.034.058.068.116.1.173s.087.142.131.213.106.167.161.249q.055.083.112.165.1.144.2.285l.1.14q.121.16.247.315l.084.1q.085.1.172.2l.042.048q.161.185.33.363l.057.059q.165.172.337.337l.055.052q.179.17.366.333l.044.038q.318.275.655.527l.011.008c.1.072.193.144.291.214Zm1.389-5.111-.008-.023q-.041-.112-.079-.224l0-.015q-.114-.337-.2-.684l-.013-.049c-.014-.055-.028-.111-.041-.167-.009-.039-.019-.079-.028-.118s-.022-.1-.033-.149-.017-.082-.025-.123-.017-.086-.025-.129-.018-.1-.027-.153c-.006-.035-.012-.071-.018-.107-.009-.059-.018-.119-.027-.178,0-.029-.008-.058-.012-.087-.009-.066-.017-.132-.024-.2,0-.024-.006-.049-.008-.073-.007-.07-.014-.14-.02-.21,0-.022,0-.043-.006-.064-.006-.072-.01-.144-.015-.216,0-.021,0-.041,0-.062,0-.073-.007-.146-.009-.22,0-.02,0-.039,0-.058q0-.138,0-.277V17.712a16.4,16.4,0,0,0,3.552.052l.121-.012.3-.031.267-.031.075-.01a24.446,24.446,0,0,0,6.5-1.845,35.342,35.342,0,0,0,6.414-3.614,7.9,7.9,0,0,0,3.562,3.451c0,.08,0,.161,0,.239v3.136q0,.138,0,.277c0,.019,0,.039,0,.058,0,.073,0,.147-.009.22,0,.021,0,.041,0,.062,0,.072-.009.144-.015.216,0,.022,0,.043-.006.064-.006.07-.012.14-.02.21,0,.024-.006.049-.008.073-.008.066-.015.132-.024.2,0,.029-.008.058-.012.087-.008.059-.017.119-.027.178-.006.036-.012.071-.018.107q-.013.076-.027.153t-.025.129q-.012.061-.025.123c-.011.05-.021.1-.032.149s-.018.079-.028.119c-.013.056-.027.111-.041.166l-.014.051q-.09.344-.2.679l-.006.018q-.038.112-.078.222l-.009.025a10.393,10.393,0,0,1-1.629,2.888l-1.712.294a2.231,2.231,0,0,0-2.32-1.1l-2.485.426a2.236,2.236,0,0,0-.532,4.247,10.478,10.478,0,0,1-1.081.056,10.335,10.335,0,0,1-4.242-.906l-.086-.039A10.455,10.455,0,0,1,43.675,22.628Zm14.818,4.7a.707.707,0,0,1-.461.29l-2.486.426a.721.721,0,0,1-.122.01.712.712,0,0,1-.119-1.413l2.486-.426a.729.729,0,0,1,.122-.01.712.712,0,0,1,.579,1.123ZM49.706,38.621a1.46,1.46,0,0,1-1.573-.421L44.6,34.164l2.623-.818a.044.044,0,0,1,.043.01L52,37.841Zm3.729-1.516L48.97,32.874a2.793,2.793,0,0,0,.751-1.9v-.6c.05.016.1.03.15.046l.075.023q.226.069.455.13l.082.022q.128.033.256.063l.067.015q.22.05.442.091l.154.028.215.036q.163.025.327.045l.172.02q.139.015.278.027l.117.01c.131.01.262.017.393.023l.111,0c.139,0,.278.008.419.008s.28,0,.419-.008l.111,0c.132-.006.263-.013.393-.023l.117-.01q.14-.012.278-.027l.172-.02q.164-.021.327-.045l.215-.036.154-.028q.222-.041.442-.091l.067-.015q.128-.03.256-.063l.082-.022q.229-.06.455-.13L57,30.423c.05-.016.1-.03.15-.046v.6a2.792,2.792,0,0,0,.751,1.9Zm5.53.835a1.973,1.973,0,0,1-2.127.569l-1.963-.668,4.733-4.485a.044.044,0,0,1,.043-.01l2.623.818Z"/>
      <path id="Path_8085" data-name="Path 8085" d="M127.713,422.2a1.341,1.341,0,0,0,1.34-1.34v-2.544a1.341,1.341,0,0,0-1.34-1.34H121.97a1.341,1.341,0,0,0-1.34,1.34v2.544a1.341,1.341,0,0,0,1.34,1.34Zm-5.558-3.7h5.373v2.174h-5.373Z" transform="translate(-80.943 -374.623)"/>
    </g>
  </g>
</svg>
