<svg xmlns="http://www.w3.org/2000/svg" width="18" height="18" viewBox="0 0 18 18">
  <g id="Group_3955" data-name="Group 3955" transform="translate(-215 -199)">
    <path id="calendar-time" d="M2.215,2.14V3.628a.559.559,0,0,0,.16.384.59.59,0,0,0,.384.16A.511.511,0,0,0,3.143,4a.506.506,0,0,0,.224-.384V2.06a.511.511,0,0,0-.176-.384.577.577,0,0,0-.448-.16.559.559,0,0,0-.384.16.833.833,0,0,0-.144.464ZM9.349,3.58V2.092a.559.559,0,0,0-.16-.384.577.577,0,0,0-.448-.16.559.559,0,0,0-.384.16.59.59,0,0,0-.16.384V3.58a.559.559,0,0,0,.16.384.531.531,0,0,0,.752.016l.016-.016A.388.388,0,0,0,9.349,3.58ZM13,9.93a3.209,3.209,0,0,0-.944-2.271,3,3,0,0,0-1.488-.832,2.96,2.96,0,0,0-.656-.112H9.8a3.149,3.149,0,0,0-1.983.656c-.112.048-.16.16-.272.224a3.1,3.1,0,0,0-.56.72A3.278,3.278,0,0,0,6.6,9.866v.448c.048.272.112.5.16.72a3.378,3.378,0,0,0,.72,1.1,4.129,4.129,0,0,0,.72.56,3.1,3.1,0,0,0,1.552.384A2.943,2.943,0,0,0,11.3,12.7a3.964,3.964,0,0,0,.72-.56A3.014,3.014,0,0,0,13,9.93Zm-1.44.384c0,.224-.112.272-.272.272l-1.328-.112a.336.336,0,0,1-.224-.112L8.357,8.81a.164.164,0,0,1-.048-.224.336.336,0,0,1,.112-.224c.16-.112.272-.112.384,0L10.069,9.85l1.216.112a.39.39,0,0,1,.272.352ZM1.879,3.628v-.56a1,1,0,0,0-.656.384A1.649,1.649,0,0,0,1,4.172V9.866a1.141,1.141,0,0,0,1.1,1.168H6.742a1.4,1.4,0,0,1-.16-.72H4.6V8.106H6.982v.272a2.195,2.195,0,0,1,.56-.72c.112-.048.16-.16.272-.224H7.542V5.227H9.973V6.779a2.961,2.961,0,0,1,.656.112v-2.7a1.284,1.284,0,0,0-.272-.72.9.9,0,0,0-.608-.384v.56a.944.944,0,0,1-1.008.864.929.929,0,0,1-.864-.864V3.036H3.735v.608a.88.88,0,0,1-.272.656,1.138,1.138,0,0,1-.656.272A.968.968,0,0,1,2.2,4.3a.824.824,0,0,1-.32-.672Zm-.16,6.686V8.106H4.1v2.207H1.719Zm0-2.975V5.131H4.1V7.339H1.719ZM4.6,5.115H6.982V7.323H4.6Z" transform="translate(217.601 201.086)" fill="#767676"/>
    <path id="Path_141" data-name="Path 141" d="M0,0H18V18H0Z" transform="translate(215 199)" fill="none"/>
  </g>
</svg>
