<?xml version="1.0" encoding="utf-8"?>
<!-- Generator: Adobe Illustrator 22.0.1, SVG Export Plug-In . SVG Version: 6.00 Build 0)  -->
<svg version="1.1" id="Layer_1" xmlns="http://www.w3.org/2000/svg" xmlns:xlink="http://www.w3.org/1999/xlink" x="0px" y="0px"
	 viewBox="0 0 84 84" enable-background="new 0 0 84 84" xml:space="preserve">
<g id="Group_3967" transform="translate(-134 -110)">
	<circle id="Ellipse_217" fill="#42A5F5" cx="176" cy="152" r="42"/>
	<g id="email" transform="translate(149.999 122.996)">
		<g id="Group_3957" transform="translate(0.865 0.868)">
			<path id="Path_8330" fill="#26C6DA" d="M50.3,19.1v29.5c0,1-0.8,1.7-1.7,1.7H1.7c-1,0-1.7-0.8-1.7-1.7V19.1l0.4-0.3l0.2,0.3h49.1
				l0.2-0.3L50.3,19.1z"/>
			<path id="Path_8332" fill="#00838F" d="M49.9,18.8l-0.2,0.3L26,37.3h-1.7L0.6,19.1l-0.2-0.3l8.3-6.5l11.4-8.9l4-3.1
				c0.6-0.5,1.5-0.5,2.1,0l4,3.1l11.4,8.9L49.9,18.8z"/>
			<path id="Path_8333" fill="#F5F5F5" d="M41.6,5.2v20.1l-2.6,2l-13,10h-1.7l-15.6-12V5.2c0-1,0.8-1.7,1.7-1.7h29.5
				C40.8,3.5,41.6,4.2,41.6,5.2z"/>
			<path id="Path_8334" fill="#F5F5F5" d="M39,5.2v22.1l-13,10h-1.7l-15.6-12V5.2c0-1,0.8-1.7,1.7-1.7h26.9C38.2,3.5,39,4.2,39,5.2z
				"/>
			<path id="Path_8336" fill="#00838F" d="M47.7,47.8l1.5,1.5c0,1-2.2,1-3.2,1H1.7c-0.1,0-0.1,0-0.2,0c0,0-0.1,0-0.1,0
				c-0.4-0.1-0.8-0.3-1.1-0.7l19.9-15.4l3.9-3c0.6-0.5,1.5-0.5,2.1,0l3.9,3L47.7,47.8z"/>
		</g>
		<g id="Group_3958" transform="translate(0.001 0.004)">
			<path id="Path_8337" d="M52,19.7c0-0.1,0-0.1,0-0.1c0,0-0.1-0.1-0.1-0.1c0,0-0.1-0.1-0.1-0.1c0,0,0,0,0,0l-8.3-6.5V6.1
				c0-1.4-1.2-2.6-2.6-2.6h-9.4l-3.8-2.9c-0.9-0.7-2.2-0.7-3.2,0l-3.8,2.9h-9.4c-1.4,0-2.6,1.2-2.6,2.6v6.7l-8.3,6.5c0,0,0,0,0,0
				c0,0-0.1,0.1-0.1,0.1c0,0-0.1,0.1-0.1,0.1c0,0,0,0.1,0,0.1c0,0.1,0,0.1,0,0.2c0,0,0,0,0,0.1v29.5c0,0.6,0.2,1.1,0.5,1.5
				c0,0,0,0,0,0s0,0,0,0c0.5,0.6,1.2,1,2,1h46.8c0.8,0,1.6-0.4,2.1-1c0,0,0,0,0,0s0,0,0,0c0.3-0.4,0.5-1,0.5-1.5V19.9c0,0,0,0,0-0.1
				C52,19.8,52,19.8,52,19.7z M25.5,1.9c0.3-0.2,0.7-0.2,1,0l2,1.6h-5L25.5,1.9z M9.5,22.5c0.5,0,0.9-0.4,0.9-0.9l0,0V6.1
				c0-0.5,0.4-0.9,0.9-0.9h29.5c0.5,0,0.9,0.4,0.9,0.9c0,0,0,0,0,0v15.6c0,0.5,0.4,0.9,0.8,0.9s0.9-0.4,0.9-0.8c0,0,0,0,0-0.1V15
				l6.1,4.7L35,30.9c-0.4,0.3-0.5,0.8-0.2,1.2c0.3,0.4,0.8,0.5,1.2,0.2c0,0,0.1,0,0.1-0.1l14.2-11v27.7L27.6,31.3
				c-0.9-0.7-2.2-0.7-3.2,0L1.7,48.9V21.3l14.2,11c0.4,0.3,0.9,0.2,1.2-0.2c0.3-0.4,0.2-0.9-0.2-1.2L2.6,19.7L8.7,15v6.7
				C8.7,22.1,9.1,22.5,9.5,22.5z M49.2,50.3H2.8l22.7-17.6c0.3-0.2,0.7-0.2,1,0L49.2,50.3z"/>
			<path id="Path_8338" d="M26,27.7c0.5,0,0.9-0.4,0.8-0.9c0-0.5-0.4-0.8-0.8-0.8c-4.8,0-8.7-3.9-8.7-8.7s3.9-8.7,8.7-8.7
				s8.7,3.9,8.7,8.7v0v3.5c0,1-0.8,1.7-1.7,1.7c-1,0-1.7-0.8-1.7-1.7v-3.5c0-0.5-0.4-0.9-0.8-0.9c-0.5,0-0.9,0.4-0.9,0.8
				c0,0,0,0,0,0.1c0,1.9-1.6,3.5-3.5,3.5c-1.9,0-3.5-1.6-3.5-3.5s1.6-3.5,3.5-3.5l0,0c0.5,0,0.9-0.4,0.9-0.8c0-0.5-0.4-0.9-0.8-0.9
				c0,0,0,0-0.1,0c-2.9,0-5.2,2.3-5.2,5.2c0,2.9,2.3,5.2,5.2,5.2c1.3,0,2.6-0.5,3.5-1.4c0.2,1.9,1.8,3.3,3.7,3.1
				c1.8-0.2,3.2-1.7,3.2-3.5v-3.5c0-5.7-4.7-10.4-10.4-10.4c-5.7,0-10.4,4.7-10.4,10.4C15.6,23.1,20.3,27.7,26,27.7L26,27.7z"/>
		</g>
	</g>
</g>
</svg>
