<?xml version="1.0" encoding="utf-8"?>
<!-- Generator: Adobe Illustrator 22.0.1, SVG Export Plug-In . SVG Version: 6.00 Build 0)  -->
<svg version="1.1" id="Layer_1" xmlns="http://www.w3.org/2000/svg" xmlns:xlink="http://www.w3.org/1999/xlink" x="0px" y="0px"
	 viewBox="0 0 16 16" enable-background="new 0 0 16 16" xml:space="preserve">
<g id="Group_3683" transform="translate(-283 -1543)">
	<path id="Path_6830" fill="none" d="M283,1543h16v16h-16V1543z"/>
	<path id="briefcase" fill="#AAAAAA" d="M291,1556h5.1c0.5,0,0.9-0.4,0.9-0.9c0,0,0,0,0,0c0-1.3,0-2.6,0-4c0-0.1,0-0.2-0.1-0.1
		c-1.4,0.3-2.8,0.5-4.3,0.6c-0.1,0-0.1,0-0.1,0.2v0.7c0,0.3-0.2,0.6-0.5,0.6c0,0-0.1,0-0.1,0h-1.6c-0.3,0-0.6-0.2-0.6-0.5
		c0,0,0-0.1,0-0.1v-0.7c0-0.1,0-0.1-0.1-0.1l-0.7,0c-1.2-0.1-2.4-0.3-3.7-0.5c-0.1,0-0.1,0-0.1,0.1v4c0,0.1,0,0.2,0.1,0.3
		c0.2,0.3,0.5,0.5,0.8,0.5C287.6,1556,289.3,1556,291,1556z M291,1551.7L291,1551.7c-0.3,0-0.5,0-0.8,0c-0.1,0-0.1,0-0.1,0.1v0.7
		c0,0.1,0,0.2,0.2,0.2h1.5c0.1,0,0.2,0,0.2-0.2v-0.6c0-0.1,0-0.1-0.1-0.1C291.5,1551.7,291.3,1551.7,291,1551.7z M294.6,1547.5H293
		c-0.1,0-0.1,0-0.1-0.1v-0.6c0-0.4-0.3-0.7-0.7-0.8c0,0,0,0,0,0h-2.2c-0.4,0-0.7,0.3-0.8,0.7c0,0,0,0,0,0v0.6c0,0.1,0,0.1-0.1,0.1
		h-3.1c-0.5,0-0.9,0.4-0.9,0.8c0,0,0,0,0,0.1c0,0.7,0,1.3,0,2c0,0.2,0,0.2,0.2,0.3c0.7,0.1,1.4,0.2,2.1,0.3c0.9,0.1,1.9,0.1,2.8,0.2
		c1.5,0,3.1,0,4.6-0.2c0.7-0.1,1.4-0.2,2.1-0.3c0.1,0,0.1-0.1,0.1-0.2c0,0,0,0,0,0v-2.2c0-0.1,0-0.2-0.1-0.3
		c-0.1-0.3-0.5-0.5-0.8-0.5C295.6,1547.5,295.1,1547.5,294.6,1547.5z M291,1547.5h-1.1c-0.1,0-0.1,0-0.1-0.1v-0.5
		c0-0.2,0-0.2,0.2-0.2h2c0.1,0,0.2,0,0.2,0.2v0.5c0,0.1,0,0.1-0.1,0.2C291.7,1547.5,291.3,1547.5,291,1547.5L291,1547.5z"/>
</g>
</svg>
