<svg width="10" height="10" viewBox="0 0 10 10" fill="none" xmlns="http://www.w3.org/2000/svg">
    <path
        d="M9 2.39474H7V1.44737C7 0.924243 6.55219 0.5 6 0.5H4C3.445 0.5 3 0.921579 3 1.44737V2.39474H1C0.445 2.39474 0 2.81632 0 3.3421V8.55263C0 9.07576 0.447813 9.5 1 9.5H9C9.55219 9.5 10 9.07576 10 8.55263V3.3421C10 2.81898 9.55219 2.39474 9 2.39474ZM4 1.44737H6V2.39474H4V1.44737ZM5 3.81579C5.69031 3.81579 6.25 4.34602 6.25 5C6.25 5.65398 5.69031 6.18421 5 6.18421C4.30969 6.18421 3.75 5.65398 3.75 5C3.75 4.34602 4.30969 3.81579 5 3.81579ZM7.5 8.55263H2.5V7.96053C2.5 7.30684 3.62 6.77632 5 6.77632C6.38 6.77632 7.5 7.30684 7.5 7.96053V8.55263Z"
        fill="#004E8C" />
</svg>
