<?xml version="1.0" encoding="utf-8"?>
<!-- Generator: Adobe Illustrator 22.0.1, SVG Export Plug-In . SVG Version: 6.00 Build 0)  -->
<svg version="1.1" id="Layer_1" xmlns="http://www.w3.org/2000/svg" xmlns:xlink="http://www.w3.org/1999/xlink" x="0px" y="0px"
	 viewBox="0 0 20 20" enable-background="new 0 0 20 20" xml:space="preserve">
<g id="Group_3970" transform="translate(-15031 -1031)">
	<g id="Group_3437" transform="translate(15036 1034)">
		<path id="Path_6887" fill="#FFFFFF" d="M2.8,8.6c0.7,0,1.4,0,2.1-0.1c0.3,0.1,0.6,0.1,0.9,0c2,0.1,3.6,0.7,3.6-3.4
			c0-2.8-1.8-5-4-5s-4,2.3-4,5c0,2.2,0.4,3.1,1.1,3.4C2.6,8.5,2.7,8.6,2.8,8.6z M2.2,3.5c0.4,0.6,1.5,0.5,2.5-0.3
			C4.9,3,5.1,2.8,5.3,2.6c0,0,0,0,0.1,0c0.1,0,0.2,0,0.3,0.1c0.1,0,0.2,0.1,0.3,0.1C6,2.8,6,2.9,6.1,2.9C6.2,3,6.3,3.1,6.3,3.1
			c0.1,0.1,0.1,0.1,0.2,0.2c0,0.1,0.1,0.1,0.1,0.2c0,0,0.1,0.1,0.1,0.1c0,0.1,0.1,0.1,0.1,0.1s0-0.1,0-0.1c0-0.1,0-0.1,0-0.2
			c0-0.1,0-0.1-0.1-0.2c0-0.1-0.1-0.2-0.1-0.2c0-0.1-0.1-0.2-0.2-0.3C6.3,2.6,6.2,2.5,6.1,2.5C6.1,2.4,6,2.3,5.9,2.2
			C5.8,2.2,5.7,2.1,5.6,2c0-0.1,0.1-0.2,0.1-0.3c0.4,0.1,0.7,0.4,1,0.6c1,1,0.6,2.2,1.4,1.4c0.1-0.1,0.2-0.2,0.3-0.4
			c0,0,0.1,0,0.1,0c0.1,0,0.2,0.1,0.2,0.2c0.1,0.2,0.1,0.5,0.1,0.7c0,0.3-0.3,0.5-0.6,0.6L8,5l0,0.2C7.6,6.5,6.5,8,5.3,8
			S3.1,6.5,2.7,5.1l0-0.2l-0.2,0C2.2,4.9,2,4.6,2,4.3C1.9,4.1,1.9,3.8,2,3.6C2.1,3.6,2.1,3.5,2.2,3.5L2.2,3.5z"/>
		<path id="Path_6888" fill="#FFFFFF" d="M8.4,8.9c-0.3,0.5-0.7,0.9-1.2,1.2c-1,0.5-1.8,0.9-1.8,0.9l0,0v0l0,0l0,0v0l0,0
			c0,0-0.7-0.4-1.8-0.9C3.2,9.9,2.8,9.5,2.5,8.9C1.1,9.4,0.2,10.7,0,12.1v2.5h10.9v-2.5C10.7,10.7,9.8,9.4,8.4,8.9z"/>
	</g>
	<path id="Path_6883" fill="none" d="M15031,1031h20v20h-20V1031z"/>
</g>
</svg>
