<?xml version="1.0" encoding="utf-8"?>
<!-- Generator: Adobe Illustrator 22.0.1, SVG Export Plug-In . SVG Version: 6.00 Build 0)  -->
<svg version="1.1" id="Layer_1" xmlns="http://www.w3.org/2000/svg" xmlns:xlink="http://www.w3.org/1999/xlink" x="0px" y="0px"
	 viewBox="0 0 24 24" enable-background="new 0 0 24 24" xml:space="preserve">
<g id="Group_3955" transform="translate(-5891 -716)">
	<rect id="Rectangle_155" x="5891" y="716" fill="none" width="24" height="24"/>
	<path id="filter" fill="#FFFFFF" d="M5910.9,720h-14.3c-0.3,0-0.5,0.1-0.6,0.4c-0.1,0.2-0.1,0.5,0.1,0.7l5.2,7.4l0,0
		c0.2,0.3,0.3,0.6,0.3,0.9v6c0,0.4,0.3,0.7,0.7,0.7c0,0,0,0,0,0c0.1,0,0.2,0,0.3-0.1l2.9-1.1c0.3-0.1,0.4-0.3,0.4-0.6v-4.9
		c0-0.3,0.1-0.6,0.3-0.9l0,0l5.2-7.4c0.1-0.2,0.2-0.5,0.1-0.7C5911.4,720.1,5911.2,720,5910.9,720L5910.9,720z"/>
</g>
</svg>
