<svg width="13" height="12" viewBox="0 0 13 12" fill="none" xmlns="http://www.w3.org/2000/svg">
<g clip-path="url(#clip0_7157_6916)">
<path d="M1.73336 0C0.993509 0 0.399902 0.593231 0.399902 1.33346V10.6665C0.399902 11.403 0.996884 12 1.73336 12H11.0664C11.8029 12 12.3999 11.403 12.3999 10.6665V6.00019H11.0664V10.6665H1.73336V1.33346H6.39971V0H1.73336V0ZM10.2531 0.666729C10.1398 0.666729 10.0199 0.713228 9.93323 0.800225L9.11988 1.60682L10.7863 3.27327L11.5997 2.46667C11.7729 2.29343 11.7729 2.00019 11.5997 1.83332L10.5662 0.79985C10.4796 0.713228 10.3663 0.666354 10.2527 0.666354L10.2531 0.666729ZM8.64627 2.08006L3.73317 6.99991V8.66635H5.39962L10.3127 3.74651L8.64627 2.08006Z" fill="#263238"/>
</g>
<defs>
<clipPath id="clip0_7157_6916">
<rect width="12" height="12" fill="white" transform="translate(0.399902)"/>
</clipPath>
</defs>
</svg>
