<?xml version="1.0" encoding="utf-8"?>
<!-- Generator: Adobe Illustrator 22.0.1, SVG Export Plug-In . SVG Version: 6.00 Build 0)  -->
<svg version="1.1" id="Layer_1" xmlns="http://www.w3.org/2000/svg" xmlns:xlink="http://www.w3.org/1999/xlink" x="0px" y="0px"
	 viewBox="0 0 20 20" enable-background="new 0 0 20 20" xml:space="preserve">
<g id="Group_3971" transform="translate(-14952 -984)">
	<g id="Group_3435" transform="translate(14957 987)">
		<path id="Path_6885" fill="#FFFFFF" d="M5.5,7.3c1.9-0.1,3.3-1.8,3.2-3.7c0.2-1.8-1-3.4-2.8-3.6S2.5,1,2.3,2.8c0,0.3,0,0.6,0,0.9
			C2.2,5.6,3.6,7.2,5.5,7.3z M3.7,2.7c0.3,0.7,1,1,1.8,1c0.8,0,2.3-0.1,2.3,0.5c0,1.3-1,2.3-2.3,2.3c-1.3,0-2.3-1-2.3-2.3
			C3.2,3.6,3.4,3.1,3.7,2.7L3.7,2.7z"/>
		<path id="Path_6886" fill="#FFFFFF" d="M11,11c0-1.5-1.2-2.7-2.7-2.7H6.1l0.2,0.2c0.1,0.1,0.1,0.2,0,0.3c0,0,0,0,0,0L5.9,9.2
			C5.8,9.3,5.8,9.5,5.8,9.6l0.8,2c0,0.1,0,0.3,0,0.4l-1,1.4c0,0.1-0.1,0.1-0.2,0.1c0,0-0.1,0-0.1-0.1l-1-1.4c-0.1-0.1-0.1-0.3,0-0.4
			l0.8-2c0-0.1,0-0.3-0.1-0.4L4.6,8.8c-0.1-0.1-0.1-0.2,0-0.3c0,0,0,0,0,0l0.2-0.2H2.8C1.2,8.2,0,9.5,0,11v2.7
			c0,0.5,0.4,0.9,0.9,0.9c0,0,0,0,0,0h9.2c0.5,0,0.9-0.4,0.9-0.9c0,0,0,0,0,0L11,11L11,11z"/>
	</g>
	<path id="Path_6883" fill="none" d="M14952,984h20v20h-20V984z"/>
</g>
</svg>
