<?xml version="1.0" encoding="utf-8"?>
<!-- Generator: Adobe Illustrator 22.0.1, SVG Export Plug-In . SVG Version: 6.00 Build 0)  -->
<svg version="1.1" id="baseline-more_vert-24px" xmlns="http://www.w3.org/2000/svg" xmlns:xlink="http://www.w3.org/1999/xlink"
	 x="0px" y="0px" viewBox="0 0 24 24" enable-background="new 0 0 24 24" xml:space="preserve">
<g>
	<path id="Path_7989" fill="none" d="M0,0h24v24H0V0z"/>
	<path id="Path_7990" fill="#929292" d="M12,8c1.1,0,2-0.9,2-2s-0.9-2-2-2s-2,0.9-2,2C10,7.1,10.9,8,12,8z M12,10c-1.1,0-2,0.9-2,2
		s0.9,2,2,2s2-0.9,2-2C14,10.9,13.1,10,12,10z M12,16c-1.1,0-2,0.9-2,2s0.9,2,2,2s2-0.9,2-2C14,16.9,13.1,16,12,16z"/>
</g>
</svg>
