<svg width="8" height="8" viewBox="0 0 8 8" fill="none" xmlns="http://www.w3.org/2000/svg">
<g clip-path="url(#clip0_17558_3550)">
<path d="M3.77495 4.625C2.92495 4.625 2.04995 4.625 1.19995 4.625C1.19995 4.05 1.44995 3.75 2.02495 3.65C2.07495 3.65 2.12495 3.675 2.17495 3.7C2.39995 3.925 2.62495 3.925 2.84995 3.7C2.87495 3.675 2.92495 3.625 2.97495 3.625C3.44995 3.65 3.79995 4.075 3.77495 4.625Z" fill="#CC202A"/>
<path d="M2.49996 2.0498C2.87496 2.0498 3.12496 2.3248 3.04996 2.6998C3.02496 2.8248 2.99996 2.9498 2.97496 3.0748C2.89996 3.3248 2.69996 3.4748 2.47496 3.4748C2.24996 3.4748 2.04996 3.3248 1.99996 3.0748C1.97496 2.9248 1.92496 2.7748 1.92496 2.6248C1.87496 2.2998 2.14996 2.0498 2.49996 2.0498Z" fill="#CC202A"/>
<path d="M3.35 6.59961C3.375 6.32461 3.4 6.04961 3.45 5.77461C3.5 5.52461 3.725 5.29961 3.925 5.19961C3.975 5.17461 4.025 5.14961 4.075 5.12461C2.9 5.12461 1.9 5.12461 0.725 5.12461C0.65 5.12461 0.55 5.12461 0.475 5.12461C0.45 5.07461 0.45 5.04961 0.45 5.04961C0.45 3.89961 0.45 2.74961 0.45 1.62461C0.45 1.47461 0.525 1.42461 0.65 1.42461C2.45 1.42461 4.25 1.42461 6.025 1.42461C6.175 1.42461 6.225 1.47461 6.225 1.62461C6.225 1.67461 6.225 1.69961 6.225 1.74961C6.375 1.77461 6.525 1.79961 6.65 1.87461C6.65 1.72461 6.65 1.57461 6.65 1.42461C6.65 1.12461 6.5 0.974609 6.175 0.974609C4.275 0.999609 2.375 0.999609 0.475 0.999609C0.15 0.999609 0 1.14961 0 1.44961C0 2.74961 0 4.07461 0 5.37461C0 5.69961 0.15 5.82461 0.475 5.82461C1.025 5.82461 1.575 5.82461 2.125 5.82461C2.2 5.82461 2.275 5.82461 2.4 5.82461C2.275 6.12461 2.175 6.42461 2.05 6.69961C2 6.82461 2 6.92461 2.175 6.92461C2.625 6.92461 2.875 6.92461 3.325 6.92461C3.325 6.79961 3.325 6.69961 3.35 6.59961Z" fill="#CC202A"/>
<path d="M6.14995 4.69961C6.74366 4.69961 7.22495 4.17354 7.22495 3.52461C7.22495 2.87567 6.74366 2.34961 6.14995 2.34961C5.55625 2.34961 5.07495 2.87567 5.07495 3.52461C5.07495 4.17354 5.55625 4.69961 6.14995 4.69961Z" fill="#CC202A"/>
<path d="M6.97498 5.09961H5.22498C4.69998 5.09961 4.27498 5.47461 4.27498 5.94961L4.22498 6.99961H7.99998L7.94998 5.94961C7.94998 5.49961 7.52498 5.09961 6.97498 5.09961Z" fill="#CC202A"/>
</g>
<defs>
<clipPath id="clip0_17558_3550">
<rect width="8" height="8" fill="white"/>
</clipPath>
</defs>
</svg>
