<?xml version="1.0" encoding="utf-8"?>
<!-- Generator: Adobe Illustrator 22.0.1, SVG Export Plug-In . SVG Version: 6.00 Build 0)  -->
<svg version="1.1" id="Layer_1" xmlns="http://www.w3.org/2000/svg" xmlns:xlink="http://www.w3.org/1999/xlink" x="0px" y="0px"
	 viewBox="0 0 20 20" enable-background="new 0 0 20 20" xml:space="preserve">
<g id="Group_3969" transform="translate(-15093 -1036)">
	<path id="Path_6883" fill="none" d="M15093,1036h20v20h-20V1036z"/>
	<path id="Path_6890" fill="#FFFFFF" d="M15103,1053.7h-1.4v-2.2h-2v-1.4h2c0-0.3,0-0.6,0-1c0-0.1-0.1-0.1-0.2-0.2
		c-0.6-0.1-1.1-0.4-1.6-0.7c-1.4-1-2.1-2.7-1.8-4.4c0.3-1.7,1.6-3,3.3-3.4c1.2-0.3,2.5,0,3.5,0.8c0.1,0,0.1,0.1,0.2,0.1c0,0,0,0,0,0
		c0.4-0.4,0.8-0.8,1.2-1.2h-1.6v-1.2h3.9v3.9h-1.2v-1.6c-0.3,0.2-0.5,0.5-0.7,0.7c-0.2,0.2-0.4,0.4-0.6,0.5
		c-0.1,0.1-0.1,0.2-0.1,0.3c0,0,0,0,0,0c0.7,1.3,0.7,2.8,0,4c-0.6,1.1-1.6,1.9-2.8,2.2c-0.2,0.1-0.3,0.1-0.3,0.4c0,0.2,0,0.5,0,0.7
		c0,0,0,0,0,0.1h2v1.4h-2.1C15103,1052.2,15103,1052.9,15103,1053.7z M15102.3,1041.8c-1.6,0-3,1.3-3,2.9c0,1.6,1.3,3,2.9,3
		c1.6,0,3-1.3,3-2.9c0,0,0,0,0,0C15105.2,1043.1,15103.9,1041.8,15102.3,1041.8z"/>
</g>
</svg>
