<?xml version="1.0" encoding="utf-8"?>
<!-- Generator: Adobe Illustrator 22.0.1, SVG Export Plug-In . SVG Version: 6.00 Build 0)  -->
<svg version="1.1" id="Group_3383" xmlns="http://www.w3.org/2000/svg" xmlns:xlink="http://www.w3.org/1999/xlink" x="0px" y="0px"
	 viewBox="0 0 20 20" enable-background="new 0 0 20 20" xml:space="preserve">
<g>
	<rect id="Rectangle_1236" fill="none" width="20" height="20"/>
	<g id="Group_3034" transform="translate(3.3 3.4)">
		<path id="Path_6846" fill="#AAAAAA" d="M1.7,6V1c0-0.7,0.3-1,1-1h8c0.7,0,1,0.3,1,1v10.3c0,0.3,0.1,0.4,0.3,0.3h0.5
			c0.4,0,0.8,0.3,0.8,0.8c0,0,0,0,0,0c0,0.4-0.3,0.8-0.7,0.8c0,0-0.1,0-0.1,0H7.7c-0.2,0-0.2-0.1-0.2-0.3v-1.8
			c0-0.4-0.1-0.5-0.5-0.5H6.3c-0.3,0-0.4,0.1-0.4,0.4v1.8c0,0.1-0.1,0.3-0.2,0.3c0,0,0,0-0.1,0H0.9c-0.4,0-0.9-0.3-0.9-0.7
			c0,0,0,0,0-0.1c0-0.5,0.3-0.9,0.8-0.9c0,0,0.1,0,0.1,0h0.5c0.2,0.2,0.3,0.1,0.3-0.1V6z M5.9,3.3c0-0.8,0-0.8-0.8-0.8
			s-0.8,0-0.8,0.8s0,0.8,0.8,0.8S5.9,4.1,5.9,3.3z M5.1,5H4.7C4.4,5,4.3,5.1,4.3,5.4v0.4c0,0.8,0,0.8,0.8,0.8s0.8,0,0.8-0.8
			C5.8,5,5.8,5,5.1,5L5.1,5z M8.3,6.6h0.4c0.3,0,0.4-0.1,0.4-0.4V5.8C9.1,5,9.1,5,8.3,5S7.5,5,7.5,5.8C7.6,6.6,7.6,6.6,8.3,6.6
			L8.3,6.6z M7.6,8.2v0.5c0,0.2,0.1,0.4,0.3,0.4c0,0,0,0,0.1,0h0.9c0.2,0,0.3-0.1,0.4-0.4V7.8c0-0.2-0.1-0.4-0.3-0.4c0,0,0,0-0.1,0
			H8.5C7.6,7.4,7.6,7.4,7.6,8.2L7.6,8.2z M8.4,4.1h0.4c0.3,0,0.4-0.1,0.4-0.4V2.9c0-0.2-0.1-0.4-0.3-0.4c0,0,0,0-0.1,0H8
			c-0.3,0-0.4,0.1-0.4,0.4v0.4C7.6,4.1,7.6,4.1,8.4,4.1L8.4,4.1z M5.9,8.3c0-0.8,0-0.8-0.8-0.8s-0.8,0-0.8,0.8s0,0.8,0.8,0.8
			S5.9,9.1,5.9,8.3L5.9,8.3z"/>
	</g>
</g>
</svg>
