<svg xmlns="http://www.w3.org/2000/svg" width="18" height="18" viewBox="0 0 18 18">
  <g id="Group_3966" data-name="Group 3966" transform="translate(-123 -327)">
    <path id="Path_141" data-name="Path 141" d="M0,0H18V18H0Z" transform="translate(123 327)" fill="none"/>
    <g id="file" transform="translate(63.96 330)">
      <g id="Group_3957" data-name="Group 3957" transform="translate(64.04)">
        <g id="Group_3956" data-name="Group 3956" transform="translate(0)">
          <path id="Path_8291" data-name="Path 8291" d="M73.038,2.429a.28.28,0,0,0-.082-.2L70.805.082h0a.28.28,0,0,0-.2-.082H64.632a.592.592,0,0,0-.592.591V11.409a.592.592,0,0,0,.591.591h7.815a.592.592,0,0,0,.591-.591V2.432A.02.02,0,0,0,73.038,2.429ZM70.887.959l1.191,1.191H70.917a.03.03,0,0,1-.03-.03Zm1.589,10.449a.03.03,0,0,1-.03.03H64.632a.03.03,0,0,1-.03-.03V.591a.03.03,0,0,1,.03-.03h5.694V2.121a.592.592,0,0,0,.592.592h1.559v8.7Z" transform="translate(-64.04)" fill="#767676"/>
        </g>
      </g>
      <g id="Group_3959" data-name="Group 3959" transform="translate(65.772 5.844)">
        <g id="Group_3958" data-name="Group 3958" transform="translate(0)">
          <path id="Path_8292" data-name="Path 8292" d="M143.178,164.014H138.2a.281.281,0,0,0,0,.562h4.973a.281.281,0,0,0,0-.562Z" transform="translate(-137.924 -164.014)" fill="#767676"/>
        </g>
      </g>
      <g id="Group_3961" data-name="Group 3961" transform="translate(65.772 7.54)">
        <g id="Group_3960" data-name="Group 3960" transform="translate(0)">
          <path id="Path_8293" data-name="Path 8293" d="M143.178,236.353H138.2a.281.281,0,0,0,0,.562h4.973a.281.281,0,0,0,0-.562Z" transform="translate(-137.924 -236.353)" fill="#767676"/>
        </g>
      </g>
    </g>
  </g>
</svg>
