<svg xmlns="http://www.w3.org/2000/svg" width="84" height="84" viewBox="0 0 84 84">
  <g id="Group_3956" data-name="Group 3956" transform="translate(-138 -100)">
    <circle id="Ellipse_124" data-name="Ellipse 124" cx="42" cy="42" r="42" transform="translate(138 100)" fill="#0078d7"/>
    <g id="rating_1_" data-name="rating (1)" transform="translate(154 116)">
      <path id="Path_7802" data-name="Path 7802" d="M34.187,54.407H10V10H59.882V54.407H34.187Z" transform="translate(-8.986 -8.986)" fill="#edf2fa"/>
      <rect id="Rectangle_1299" data-name="Rectangle 1299" width="49.882" height="7.3" transform="translate(1.014 1.014)" fill="#7d9bff"/>
      <path id="Path_7803" data-name="Path 7803" d="M21,82H69.162" transform="translate(-18.874 -73.686)" fill="#231f20"/>
      <g id="Group_3556" data-name="Group 3556" transform="translate(6.721 28.016)">
        <path id="Path_7804" data-name="Path 7804" d="M212.9,276.438l1.353,2.739a.2.2,0,0,0,.153.111l3.023.438a.2.2,0,0,1,.112.346l-2.187,2.133a.2.2,0,0,0-.058.179l.517,3.011a.2.2,0,0,1-.294.214l-2.7-1.421a.2.2,0,0,0-.189,0l-2.7,1.422a.2.2,0,0,1-.294-.214l.516-3.011a.2.2,0,0,0-.058-.179l-2.188-2.132a.2.2,0,0,1,.112-.346l3.023-.44a.2.2,0,0,0,.153-.111l1.351-2.74A.2.2,0,0,1,212.9,276.438Z" transform="translate(-193.481 -276.325)" fill="#ffc66c"/>
        <path id="Path_7805" data-name="Path 7805" d="M71.36,276.439l1.353,2.739a.2.2,0,0,0,.153.111l3.023.439a.2.2,0,0,1,.112.346l-2.187,2.133a.2.2,0,0,0-.058.179l.517,3.011a.2.2,0,0,1-.294.214l-2.7-1.421a.2.2,0,0,0-.189,0l-2.7,1.423a.2.2,0,0,1-.294-.214l.516-3.011a.2.2,0,0,0-.058-.179l-2.188-2.132a.2.2,0,0,1,.112-.346l3.023-.44a.2.2,0,0,0,.153-.111L71,276.439A.2.2,0,0,1,71.36,276.439Z" transform="translate(-66.296 -276.326)" fill="#ffc66c"/>
        <path id="Path_7806" data-name="Path 7806" d="M354.068,276.438l-1.353,2.739a.2.2,0,0,1-.153.111l-3.023.438a.2.2,0,0,0-.112.346l2.187,2.133a.2.2,0,0,1,.058.179l-.517,3.011a.2.2,0,0,0,.294.214l2.7-1.421a.2.2,0,0,1,.189,0l2.7,1.422a.2.2,0,0,0,.294-.214l-.516-3.011a.2.2,0,0,1,.058-.179l2.188-2.132a.2.2,0,0,0-.112-.346l-3.023-.44a.2.2,0,0,1-.153-.111l-1.351-2.74A.2.2,0,0,0,354.068,276.438Z" transform="translate(-320.665 -276.325)" fill="#ffc66c"/>
      </g>
      <rect id="Rectangle_1300" data-name="Rectangle 1300" width="38.932" height="10.947" transform="translate(6.489 12.978)" fill="#a0e557"/>
      <g id="Group_3557" data-name="Group 3557" transform="translate(30.844 37.326)">
        <path id="Path_7807" data-name="Path 7807" d="M400.4,462.6v-2.008a2.438,2.438,0,0,1,2.438-2.438h0a2.438,2.438,0,0,1,2.438,2.438V462.6" transform="translate(-390.646 -449.027)" fill="#ffcdac"/>
        <path id="Path_7808" data-name="Path 7808" d="M304.217,381.724V370.592a2.438,2.438,0,0,1,2.438-2.438h0a2.438,2.438,0,0,1,2.438,2.438v11.132" transform="translate(-304.217 -368.154)" fill="#ffcdac"/>
        <path id="Path_7809" data-name="Path 7809" d="M448.488,478.308a2.438,2.438,0,0,1,2.438-2.438h0a2.438,2.438,0,0,1,2.438,2.438" transform="translate(-433.861 -464.949)" fill="#ffcdac"/>
        <rect id="Rectangle_1301" data-name="Rectangle 1301" width="4.876" height="4.446" transform="translate(4.876 9.124)" fill="#ffcdac"/>
      </g>
      <path id="Path_7810" data-name="Path 7810" d="M50.9,0H1.014A1.014,1.014,0,0,0,0,1.014V45.421a1.014,1.014,0,0,0,1.014,1.014H22.052a1.014,1.014,0,0,0,0-2.028H2.028V9.322c.033,0,.067.005.1.005H49.882v35.08H47.908a1.014,1.014,0,0,0,0,2.028H50.9a1.014,1.014,0,0,0,1.014-1.014V1.014A1.014,1.014,0,0,0,50.9,0ZM2.13,7.3c-.034,0-.068,0-.1.005V2.028H49.882V7.3Z" transform="translate(0 0)"/>
      <path id="Path_7811" data-name="Path 7811" d="M251.014,438a1.014,1.014,0,1,0,.717.3A1.021,1.021,0,0,0,251.014,438Z" transform="translate(-224.653 -393.593)"/>
      <path id="Path_7812" data-name="Path 7812" d="M235.986,36H213.079a1.014,1.014,0,1,0,0,2.028h22.907a1.014,1.014,0,1,0,0-2.028Z" transform="translate(-190.564 -32.35)"/>
      <path id="Path_7813" data-name="Path 7813" d="M95.014,36a1.014,1.014,0,1,0,.717.3A1.022,1.022,0,0,0,95.014,36Z" transform="translate(-84.47 -32.35)"/>
      <path id="Path_7814" data-name="Path 7814" d="M55.014,36a1.014,1.014,0,1,0,.717.3A1.022,1.022,0,0,0,55.014,36Z" transform="translate(-48.525 -32.35)"/>
      <path id="Path_7815" data-name="Path 7815" d="M135.014,36a1.014,1.014,0,1,0,.717.3A1.021,1.021,0,0,0,135.014,36Z" transform="translate(-120.414 -32.35)"/>
      <path id="Path_7816" data-name="Path 7816" d="M207.815,276.238l-.445-2.591,1.882-1.835a1.217,1.217,0,0,0-.675-2.075l-2.6-.377L204.812,267h0a1.209,1.209,0,0,0-1.091-.678h0a1.209,1.209,0,0,0-1.091.678l-1.163,2.358-2.6.379a1.217,1.217,0,0,0-.673,2.076l1.883,1.834-.444,2.591a1.215,1.215,0,0,0,1.766,1.282l2.326-1.224,2.327,1.223a1.217,1.217,0,0,0,1.765-1.283Zm-2.166-3.745a1.215,1.215,0,0,0-.35,1.077l.239,1.391-1.25-.657a1.216,1.216,0,0,0-1.132,0l-1.249.657.238-1.391a1.217,1.217,0,0,0-.35-1.077l-1.011-.985,1.4-.2a1.216,1.216,0,0,0,.916-.666l.624-1.266.625,1.265a1.216,1.216,0,0,0,.916.666l1.4.2Z" transform="translate(-177.767 -239.322)"/>
      <path id="Path_7817" data-name="Path 7817" d="M68.025,270.564a1.209,1.209,0,0,0-.982-.828l-2.6-.377L63.278,267h0a1.209,1.209,0,0,0-1.091-.678h0A1.209,1.209,0,0,0,61.1,267l-1.163,2.358-2.6.379a1.217,1.217,0,0,0-.673,2.076l1.883,1.834L58.1,276.24a1.215,1.215,0,0,0,1.766,1.282l2.326-1.224,2.327,1.223a1.217,1.217,0,0,0,1.765-1.283l-.445-2.591,1.882-1.835A1.209,1.209,0,0,0,68.025,270.564Zm-3.91,1.929a1.216,1.216,0,0,0-.35,1.077L64,274.961l-1.25-.657a1.216,1.216,0,0,0-1.132,0l-1.249.657.238-1.391a1.217,1.217,0,0,0-.35-1.077l-1.011-.985,1.4-.2a1.216,1.216,0,0,0,.916-.666l.624-1.266.625,1.265a1.217,1.217,0,0,0,.916.666l1.4.2Z" transform="translate(-50.582 -239.322)"/>
      <path id="Path_7818" data-name="Path 7818" d="M351.092,270.569a1.21,1.21,0,0,0-.982-.828l-2.6-.379L346.346,267a1.209,1.209,0,0,0-1.091-.678h0a1.209,1.209,0,0,0-1.091.678h0L343,269.361l-2.6.377a1.217,1.217,0,0,0-.675,2.075l1.882,1.835-.445,2.591a1.217,1.217,0,0,0,1.765,1.283l2.327-1.223,2.327,1.224a1.217,1.217,0,0,0,1.765-1.282l-.444-2.591,1.883-1.834A1.209,1.209,0,0,0,351.092,270.569Zm-3.912,1.927a1.216,1.216,0,0,0-.35,1.076l.238,1.392-1.249-.657a1.217,1.217,0,0,0-1.133,0l-1.25.657.239-1.391a1.216,1.216,0,0,0-.35-1.077l-1.011-.986,1.4-.2a1.216,1.216,0,0,0,.916-.665l.625-1.266.624,1.266a1.216,1.216,0,0,0,.916.666l1.4.2Z" transform="translate(-304.95 -239.324)"/>
      <path id="Path_7819" data-name="Path 7819" d="M94.96,129.961V119.014A1.014,1.014,0,0,0,93.946,118H55.014A1.014,1.014,0,0,0,54,119.014v10.947a1.014,1.014,0,0,0,1.014,1.014H93.946A1.014,1.014,0,0,0,94.96,129.961Zm-2.028-1.014h-36.9v-4.458H71.04a1.014,1.014,0,0,0,0-2.028H56.028v-2.433h36.9Z" transform="translate(-48.525 -106.036)"/>
      <path id="Path_7820" data-name="Path 7820" d="M312.295,369.074a3.429,3.429,0,0,0-1.653.422,3.449,3.449,0,0,0-5.661-1.208,3.444,3.444,0,0,0-3.862-.7V361.6a3.452,3.452,0,0,0-6.9,0v11.132a1.014,1.014,0,1,0,2.028,0V361.6a1.424,1.424,0,0,1,2.848,0v11.132a1.014,1.014,0,1,0,2.028,0v-2.008a1.424,1.424,0,0,1,2.848,0v2.008a1.014,1.014,0,1,0,2.028,0v-2.008a1.424,1.424,0,0,1,2.848,0v2.008a1.014,1.014,0,1,0,2.028,0v-.211a1.424,1.424,0,0,1,2.848,0,1.014,1.014,0,1,0,2.028,0A3.456,3.456,0,0,0,312.295,369.074Z" transform="translate(-264.386 -321.841)"/>
      <path id="Path_7821" data-name="Path 7821" d="M258.014,164.028a1.014,1.014,0,1,0-.717-.3A1.021,1.021,0,0,0,258.014,164.028Z" transform="translate(-230.944 -145.575)"/>
    </g>
  </g>
</svg>
