<?xml version="1.0" encoding="utf-8"?>
<!-- Generator: Adobe Illustrator 22.0.1, SVG Export Plug-In . SVG Version: 6.00 Build 0)  -->
<svg version="1.1" id="Layer_1" xmlns="http://www.w3.org/2000/svg" xmlns:xlink="http://www.w3.org/1999/xlink" x="0px" y="0px"
	 viewBox="0 0 20 20" enable-background="new 0 0 20 20" xml:space="preserve">
<g id="Group_3384" transform="translate(-31 -275)">
	<path id="Path_6830" fill="none" d="M31,275h20v20H31V275z"/>
	<path id="Path_6843" fill="#AAAAAA" d="M37.1,280.7c0.5-0.3,1.2-0.1,1.5,0.4c0.1,0.2,0.1,0.4,0.1,0.8s0,2.2,0,2.2H36l1.3,1.3h1.3
		v4.4c0.5,1.1,1.4,1.8,2.5,2.1c0.4,0.1,3.8,0.2,5.5-4.1c0.5-1.4,0-3-1.1-4c-0.7-0.5-3.2-0.8-3,1.8c0.1,0.7,0.2,1.4,2.1,1.4
		c-0.2,1.4-1.1,2.5-2.4,3.1c-0.7,0.5-1.7,0.3-2.2-0.4c0-0.1-0.1-0.1-0.1-0.2c0-0.5,0-4.1,0-4.1h2.1l-1.3-1.3l-0.8,0v-3.1
		c0,0-0.1-2.8-2.4-2.3c-0.5,0.1-1.3,0.5-0.9,1.3C36.8,280.3,36.9,280.5,37.1,280.7z"/>
</g>
</svg>
