<?xml version="1.0" encoding="utf-8"?>
<!-- Generator: Adobe Illustrator 22.0.1, SVG Export Plug-In . SVG Version: 6.00 Build 0)  -->
<svg version="1.1" id="Layer_1" xmlns="http://www.w3.org/2000/svg" xmlns:xlink="http://www.w3.org/1999/xlink" x="0px" y="0px"
	 viewBox="0 0 84 84" enable-background="new 0 0 84 84" xml:space="preserve">
<g id="Group_3964" transform="translate(-138 -110)">
	<circle id="Ellipse_217" fill="#AED581" cx="180" cy="152" r="42"/>
	<g id="paper-plane" transform="translate(152.999 126)">
		<path id="Path_8291" fill="#F5C86E" d="M50.6,1.9L30.5,31l-2.1,3v10.2l7.6-7.5l-3.9-7.3"/>
		<path id="Path_8292" fill="#FAE196" d="M21.3,31.8L6.5,27.3L51,1v39.9l-22.2-6.8"/>
		<path id="Path_8293" fill="#F5B955" d="M28.4,44.2L21.7,32l28.9-30L29,33.1L28.4,44.2z"/>
		<path id="Path_8294" d="M51.5,0.1c-0.3-0.2-0.7-0.2-1,0l-18.6,11c-0.5,0.3-0.6,0.9-0.4,1.4c0.3,0.5,0.9,0.6,1.4,0.4L46.2,5
			L21.4,30.8L9,27l16.1-9.5c0.5-0.3,0.6-0.9,0.3-1.4c-0.3-0.5-0.9-0.6-1.3-0.3L6,26.4c-0.5,0.3-0.6,0.9-0.4,1.4
			c0.1,0.2,0.3,0.4,0.6,0.5L21,32.8l6.5,11.9c0,0,0,0,0,0c0.3,0.5,0.9,0.6,1.4,0.4c0.1,0,0.1-0.1,0.2-0.1l7.5-7.3l14.1,4.3
			c0.5,0.2,1.1-0.1,1.3-0.7c0-0.1,0-0.2,0-0.3V1C52,0.7,51.8,0.3,51.5,0.1z M42.6,11.7L27.6,33.4c-0.1,0.2-0.2,0.4-0.2,0.6v6.2
			l-4.5-8.1L42.6,11.7z M29.4,41.8v-6.4l5,1.5L29.4,41.8z M30,33.5L50,4.6v34.9L30,33.5z"/>
		<path id="Path_8295" d="M16.7,35.3c-0.4-0.4-1-0.4-1.4,0l-9.5,9.5c-0.4,0.4-0.4,1.1,0,1.4c0.4,0.4,1,0.4,1.4,0l9.5-9.5
			C17.1,36.3,17.1,35.7,16.7,35.3z"/>
		<path id="Path_8296" d="M2.6,47.9l-2.3,2.3c-0.4,0.4-0.4,1,0,1.4s1,0.4,1.4,0c0,0,0,0,0,0l2.3-2.3c0.4-0.4,0.4-1,0-1.4
			C3.7,47.5,3.1,47.5,2.6,47.9C2.7,47.9,2.6,47.9,2.6,47.9z"/>
		<path id="Path_8297" d="M13.8,49.9c-0.6,0-1,0.5-1,1c0,0.6,0.5,1,1,1s1-0.5,1-1c0-0.3-0.1-0.5-0.3-0.7C14.3,50,14,49.9,13.8,49.9z
			"/>
		<path id="Path_8298" d="M20.6,42.6l-5,5c-0.4,0.4-0.4,1,0,1.4c0.4,0.4,1,0.4,1.4,0c0,0,0,0,0,0l5-5c0.4-0.4,0.4-1.1,0-1.4
			C21.6,42.3,21,42.3,20.6,42.6z"/>
		<path id="Path_8299" d="M37.9,42.3l-5,5c-0.4,0.4-0.4,1,0,1.4c0.4,0.4,1,0.4,1.4,0c0,0,0,0,0,0l5-5c0.4-0.4,0.4-1.1,0-1.4
			C38.9,41.9,38.3,41.9,37.9,42.3z"/>
		<path id="Path_8300" d="M28.1,15.6c0.6,0,1-0.5,1-1c0-0.6-0.5-1-1-1c-0.6,0-1,0.5-1,1c0,0.3,0.1,0.5,0.3,0.7
			C27.5,15.5,27.8,15.6,28.1,15.6z"/>
	</g>
</g>
</svg>
