<?xml version="1.0" encoding="utf-8"?>
<svg xmlns="http://www.w3.org/2000/svg" width="17" height="16.996"
    viewBox="0 0 17 16.996">
  <path id="purchase"
      d="M5.1,13.6a1.7,1.7,0,1,0,1.7,1.7h0a1.7,1.7,0,0,0-1.7-1.7h0ZM0,0V1.7H1.7L4.759,8.158,3.569,10.2a2.943,2.943,0,0,0-.169.842v.008a1.7,1.7,0,0,0,1.7,1.7H15.3v-1.7H5.439a.183.183,0,0,1-.17-.169h0v-.085l.765-1.445h6.35a1.549,1.549,0,0,0,1.379-.842l0-.008,3.059-5.524A.468.468,0,0,0,17,2.61a.507.507,0,0,0,0-.064v0c0-.014,0-.031,0-.048a.8.8,0,0,0-.8-.8l-.05,0H3.57L2.8,0ZM13.6,13.6a1.7,1.7,0,1,0,1.7,1.7h0a1.7,1.7,0,0,0-1.7-1.7h0Z" fill="#004e8c"/>
</svg>
