<svg width="18" height="18" viewBox="0 0 18 18" fill="none" xmlns="http://www.w3.org/2000/svg">
<rect y="2" width="16" height="16" rx="2" fill="#4D83AF"/>
<path d="M8.00004 6.25C5.70837 6.25 3.83337 7.74167 3.83337 9.58333C3.85421 10.4792 4.27504 11.3208 4.97921 11.875C4.97921 12.125 4.80421 12.7792 3.83337 13.75C4.82087 13.7042 5.76671 13.3333 6.52921 12.7083C7.00421 12.8458 7.50421 12.9167 8.00004 12.9167C10.2917 12.9167 12.1667 11.425 12.1667 9.58333C12.1667 7.74167 10.2917 6.25 8.00004 6.25ZM8.00004 12.0833C6.15837 12.0833 4.66671 10.9625 4.66671 9.58333C4.66671 8.20417 6.15837 7.08333 8.00004 7.08333C9.84171 7.08333 11.3334 8.20417 11.3334 9.58333C11.3334 10.9625 9.84171 12.0833 8.00004 12.0833ZM10.0834 10V9.16667H9.25004V10H10.0834ZM8.41671 10V9.16667H7.58337V10H8.41671ZM6.75004 10V9.16667H5.91671V10H6.75004Z" fill="white"/>
<circle cx="15.5" cy="2.5" r="2.5" fill="#FF0000"/>
</svg>
