<?xml version="1.0" encoding="utf-8"?>
<!-- Generator: Adobe Illustrator 22.0.1, SVG Export Plug-In . SVG Version: 6.00 Build 0)  -->
<svg version="1.1" id="Layer_1" xmlns="http://www.w3.org/2000/svg" xmlns:xlink="http://www.w3.org/1999/xlink" x="0px" y="0px"
	 viewBox="0 0 84 84" enable-background="new 0 0 84 84" xml:space="preserve">
<g id="Group_3965" transform="translate(-138 -110)">
	<circle id="Ellipse_217" fill="#4DB6AC" cx="180" cy="152" r="42"/>
	<g id="manager" transform="translate(152 125)">
		<path id="Path_8312" fill="#75B1F2" d="M14.2,52.2H5.8c0-5.1,3.1-9.6,7.8-11.6l7.6-3.1l1.4,7.1l3.2-2.7l0.1,0.2l-1.7,10.1H14.2z"
			/>
		<path id="Path_8313" fill="#75B1F2" d="M41.1,52.2H31l-1.7-10.1l0.1-0.2l3.2,2.7l1.4-7.1l7.6,3.1c4.7,1.9,7.8,6.5,7.8,11.6
			L41.1,52.2z"/>
		<path id="Path_8314" fill="#5D9CEC" d="M34.1,37.5l-1.4,7.1l-3.2-2.7l-1.8-1.5l4.5-3.9c0.3,0.3,0.6,0.5,0.9,0.6L34.1,37.5z"/>
		<path id="Path_8315" fill="#5D9CEC" d="M27.6,40.4l-1.8,1.5l-3.2,2.7l-1.4-7.1l1-0.4c0.3-0.1,0.7-0.3,0.9-0.6L27.6,40.4z"/>
		<path id="Path_8316" fill="#FCD770" d="M29.3,42.1L31,52.2h-6.7L26,42.1l-0.1-0.2l1.8-1.5l1.8,1.5L29.3,42.1z"/>
		<path id="Path_8317" fill="#656D78" d="M41.1,12v10c0-1.9-1.5-3.4-3.3-3.4c0,0,0,0,0,0v-1.5c0-1.2-0.6-2.3-1.6-2.9l-2.6-1.5
			L31,15.3l-3.4-2.5l-3.4,2.5l-2.5-2.5l-2.6,1.5c-1,0.6-1.6,1.7-1.6,2.9v1.5c-1.9,0-3.4,1.5-3.4,3.4c0,0,0,0,0,0v-7.5
			c0-7,5.7-12.6,12.6-12.6c3.7,0,7.2,1.6,9.6,4.4l1.3,1.5C39.7,8.2,41.1,10,41.1,12z"/>
		<g id="Group_3955" transform="translate(14.226 12.742)">
			<path id="Path_8318" fill="#F0D0B4" d="M17.9,23.7l-4.5,3.9l-4.5-3.9c0.7-0.6,1.1-1.6,1.1-2.5v-1c1,0.7,2.2,1.2,3.4,1.6
				c1.2-0.4,2.3-0.9,3.4-1.6v1C16.8,22.2,17.2,23.1,17.9,23.7z"/>
			<path id="Path_8319" fill="#F0D0B4" d="M25.9,6.9c1.3,1.3,1.3,3.4,0,4.7c-0.6,0.6-1.5,1-2.4,1h-0.8c0.5-1.5,0.8-3.1,0.8-4.7v-2
				C24.4,5.9,25.2,6.2,25.9,6.9z"/>
			<path id="Path_8320" fill="#F0D0B4" d="M23.5,5.9v2c0,6.3-4.1,12-10.1,14c-6-2-10.1-7.6-10.1-14V4.4C3.4,3.2,4,2.1,5,1.5L7.5,0
				l2.5,2.5L13.4,0l3.4,2.5L19.3,0l2.6,1.5c1,0.6,1.6,1.7,1.6,2.9L23.5,5.9z"/>
			<path id="Path_8321" fill="#F0D0B4" d="M4.1,12.6H3.4C1.5,12.6,0,11.1,0,9.2c0-1.9,1.5-3.4,3.4-3.4c0,0,0,0,0,0v2
				C3.4,9.5,3.6,11.1,4.1,12.6z"/>
		</g>
		<path id="Path_8323" d="M20.2,9.9l-1.4-1c-0.4,0.6-0.8,1.2-1.1,1.8l1.5,0.7C19.5,10.9,19.8,10.4,20.2,9.9L20.2,9.9z"/>
		<path id="Path_8324" d="M27.6,6V4.4c-2.7,0-5.2,1-7.2,2.7l1.1,1.3C23.2,6.9,25.4,6,27.6,6L27.6,6z"/>
		<path id="Path_8325" d="M42,39.8l-8.6-3.5c-0.9-0.4-1.6-1.3-1.6-2.3v-0.6c2.6-1.8,4.5-4.3,5.7-7.2h0.2c2.3,0,4.2-1.9,4.2-4.2V12
			c0-2.3-1.5-4.4-3.7-5l-1.1-1.3c-4.8-5.7-13.4-6.3-19-1.5c-3,2.6-4.7,6.3-4.7,10.2V22c0,2.3,1.9,4.2,4.2,4.2h0.2
			c1.1,2.9,3.1,5.4,5.7,7.2V34c0,1-0.6,1.9-1.6,2.3l-8.6,3.5C8.3,41.7,5,46.4,5,51.7c-0.1,0.6,0.2,1.2,0.8,1.3c0.1,0,0.2,0,0.3,0
			c0.7,0,0.8,0,1.9,0c11.7,0.2,28.5,0.2,39.6,0c0.5,0,1.2,0,1.9,0c0.5,0,0.8-0.4,0.8-0.8c0,0,0,0,0,0C50.3,46.7,47,41.9,42,39.8z
			 M33.1,38l-1,5.1l-3.2-2.7l3.2-2.8c0.2,0.1,0.4,0.2,0.6,0.3L33.1,38z M27.6,41.5l0.9,0.7h0l1.5,9.1h-4.7l1.5-9.1h0L27.6,41.5z
			 M38.1,24.4c0.3-1.3,0.5-2.6,0.5-3.9v-1c1.3,0.4,2,1.9,1.6,3.2C39.8,23.7,39,24.3,38.1,24.4z M26.9,2.7c3.4,0,6.7,1.5,9,4.1
			l1.4,1.7l0.3,0.1c1.6,0.4,2.7,1.8,2.7,3.5v6.6c-0.5-0.4-1.1-0.6-1.7-0.8v-0.7c0-1.5-0.8-2.8-2-3.6l-3.1-1.9l-2.5,2.5l-3.3-2.5
			l-3.3,2.5l-2.5-2.5l-3.1,1.9c-1.3,0.8-2,2.1-2,3.6v0.7c-0.6,0.1-1.2,0.4-1.7,0.8v-4.2C15.1,8,20.3,2.7,26.9,2.7L26.9,2.7z
			 M15.1,22c0-1.1,0.7-2,1.7-2.4v1c0,1.3,0.2,2.6,0.5,3.9C16,24.3,15.1,23.2,15.1,22L15.1,22z M18.4,20.6v-3.4
			c0-0.9,0.5-1.7,1.2-2.2l2-1.2l2.6,2.6l3.4-2.6l3.4,2.6l2.6-2.6l2,1.2c0.8,0.5,1.2,1.3,1.2,2.2v3.4c0,5.9-3.7,11.1-9.2,13.1
			C22.1,31.7,18.4,26.5,18.4,20.6L18.4,20.6z M27.4,35.3l0.3,0.1l0.3-0.1c0.8-0.3,1.5-0.6,2.3-1c0.1,0.7,0.3,1.4,0.8,2l-3.3,2.9
			l-3.3-2.9c0.4-0.6,0.7-1.3,0.8-2C25.8,34.8,26.6,35.1,27.4,35.3L27.4,35.3z M23.1,37.6l3.2,2.8l-3.2,2.7l-1-5.1l0.4-0.2
			C22.7,37.8,22.9,37.7,23.1,37.6L23.1,37.6z M13.9,41.4l6.6-2.7l1.5,7.5l2.8-2.3l-1.2,7.5h-8.5v-5h-1.7v5H6.7
			C7,46.9,9.8,43,13.9,41.4L13.9,41.4z M41.9,51.3v-5h-1.7v5h-8.5l-1.2-7.5l2.8,2.3l1.5-7.5l6.6,2.7c4.1,1.7,6.9,5.5,7.2,9.9
			L41.9,51.3L41.9,51.3z"/>
		<path id="Path_8326" d="M33.5,48h3.4v1.7h-3.4V48z"/>
		<path id="Path_8327" d="M18.4,48h3.4v1.7h-3.4V48z"/>
	</g>
</g>
</svg>
